<svg width="24" height="24" viewBox="0 0 24 24" fill="none" xmlns="http://www.w3.org/2000/svg">
<path d="M12.2563 2.0897C15.3676 2.0897 15.7361 2.1013 16.9652 2.15707C17.7042 2.16607 18.4362 2.30112 19.1293 2.55635C19.6319 2.74927 20.0884 3.0448 20.4694 3.42393C20.8503 3.80305 21.1473 4.25735 21.3411 4.7576C21.5976 5.44742 21.7332 6.17589 21.7423 6.91136C21.7978 8.13459 21.81 8.50128 21.81 11.5977C21.81 14.6942 21.7983 15.0609 21.7423 16.2841C21.7332 17.0195 21.5976 17.748 21.3411 18.4378C21.1473 18.9381 20.8503 19.3924 20.4694 19.7715C20.0884 20.1506 19.6319 20.4462 19.1293 20.6391C18.4362 20.8943 17.7042 21.0294 16.9652 21.0384C15.7366 21.0936 15.3682 21.1057 12.2563 21.1057C9.14448 21.1057 8.77603 21.0941 7.54749 21.0384C6.80849 21.0294 6.07652 20.8943 5.38339 20.6391C4.88075 20.4462 4.42426 20.1506 4.04332 19.7715C3.66238 19.3924 3.36542 18.9381 3.17158 18.4378C2.91513 17.748 2.77943 17.0195 2.77039 16.2841C2.7149 15.0609 2.70269 14.6942 2.70269 11.5977C2.70269 8.50128 2.71434 8.13459 2.77039 6.91136C2.77943 6.17589 2.91513 5.44742 3.17158 4.7576C3.36542 4.25735 3.66238 3.80305 4.04332 3.42393C4.42426 3.0448 4.88075 2.74927 5.38339 2.55635C6.07652 2.30112 6.80849 2.16607 7.54749 2.15707C8.77658 2.10185 9.14504 2.0897 12.2563 2.0897ZM12.2563 0C9.09343 0 8.69501 0.0132539 7.45205 0.069583C6.48489 0.0887282 5.528 0.270976 4.62207 0.608575C3.84494 0.899977 3.14105 1.35663 2.55953 1.94667C1.96612 2.52563 1.50688 3.22655 1.2139 4.00047C0.874683 4.90207 0.69156 5.85439 0.672323 6.81693C0.616833 8.05285 0.603516 8.44937 0.603516 11.5972C0.603516 14.745 0.616833 15.1415 0.673433 16.3785C0.69267 17.3411 0.875793 18.2934 1.21501 19.195C1.50767 19.9688 1.96652 20.6697 2.55953 21.2488C3.14137 21.8389 3.84565 22.2956 4.62319 22.5869C5.52911 22.9245 6.486 23.1067 7.45316 23.1259C8.69612 23.1811 9.09288 23.1954 12.2574 23.1954C15.422 23.1954 15.8188 23.1822 17.0617 23.1259C18.0289 23.1067 18.9858 22.9245 19.8917 22.5869C20.6656 22.2883 21.3683 21.8324 21.955 21.2481C22.5416 20.6639 22.9993 19.9642 23.2988 19.1939C23.638 18.2923 23.8211 17.3399 23.8404 16.3774C23.8958 15.1415 23.9092 14.745 23.9092 11.5972C23.9092 8.44937 23.8958 8.05285 23.8392 6.81582C23.82 5.85328 23.6369 4.90096 23.2977 3.99937C23.005 3.22555 22.5462 2.52463 21.9532 1.94556C21.3713 1.35539 20.667 0.89873 19.8895 0.607471C18.9836 0.269872 18.0267 0.0876238 17.0595 0.0684786C15.8177 0.0132539 15.4192 0 12.2563 0Z" fill="#27272A"/>
<path d="M12.254 5.64209C11.0705 5.64209 9.91355 5.99137 8.92949 6.64576C7.94543 7.30015 7.17844 8.23026 6.72553 9.31847C6.27261 10.4067 6.15411 11.6041 6.385 12.7594C6.6159 13.9146 7.18582 14.9758 8.0227 15.8086C8.85957 16.6415 9.92582 17.2087 11.0866 17.4385C12.2474 17.6683 13.4506 17.5504 14.544 17.0996C15.6374 16.6489 16.572 15.8855 17.2295 14.9062C17.8871 13.9268 18.238 12.7754 18.238 11.5975C18.238 10.018 17.6076 8.50325 16.4854 7.38639C15.3631 6.26954 13.8411 5.64209 12.254 5.64209ZM12.254 15.4632C11.4858 15.4632 10.7348 15.2365 10.096 14.8117C9.45727 14.387 8.95941 13.7832 8.66542 13.0769C8.37143 12.3705 8.29451 11.5932 8.44439 10.8433C8.59426 10.0935 8.9642 9.40466 9.50743 8.86403C10.0507 8.3234 10.7428 7.95523 11.4962 7.80607C12.2497 7.65691 13.0307 7.73346 13.7405 8.02605C14.4502 8.31864 15.0569 8.81412 15.4837 9.44983C15.9105 10.0855 16.1383 10.8329 16.1383 11.5975C16.1383 12.6228 15.7291 13.606 15.0006 14.331C14.2722 15.056 13.2842 15.4632 12.254 15.4632Z" fill="#27272A"/>
<path d="M18.4755 6.79797C19.2478 6.79797 19.8738 6.1749 19.8738 5.40631C19.8738 4.63772 19.2478 4.01465 18.4755 4.01465C17.7032 4.01465 17.0771 4.63772 17.0771 5.40631C17.0771 6.1749 17.7032 6.79797 18.4755 6.79797Z" fill="#27272A"/>
</svg>
