<svg xmlns="http://www.w3.org/2000/svg" width="76" height="62" viewBox="0 0 76 62" fill="none">
  <path d="M76 13.2335V12.9027C62.323 12.9027 55.6829 16.7286 49.8259 20.101C47.837 21.2483 45.9316 22.3422 43.8487 23.228C48.4843 14.114 52.6552 5.40012 59.1596 2.6467C60.7518 2.0704 62.464 1.75557 64.3328 1.75557V0H20.7806L14.8974 13.7191L16.4426 14.4128L16.4687 14.4288L16.6044 14.114C17.899 11.6273 19.9245 6.03511 23.8971 3.56984C26.053 2.23048 29.5767 1.85162 33.3509 1.76624H39.2654C40.0797 1.77158 40.8784 1.77692 41.651 1.76624H41.6458H56.6748C47.5759 5.21869 42.4027 15.0584 37.574 24.7648C31.2732 25.0369 23.7196 22.8651 23.7196 22.8651C23.6674 22.8118 22.9522 26.0454 22.9522 26.0454C24.9046 26.3389 26.9352 26.6271 29.1329 26.7711C30.7147 26.9472 32.1815 27.0273 33.544 27.0273C34.5881 27.0273 35.5747 26.9793 36.5143 26.8885C33.069 33.8201 29.6654 40.4369 24.9724 44.3055C22.0282 46.3226 18.8961 47.2937 15.3933 47.3044H15.2472C8.09026 47.2777 4.75977 43.9907 3.23025 41.2319C2.5986 40.0954 2.17054 38.8467 1.93041 37.5554C1.78425 34.4765 3.011 31.563 4.82241 29.8341L3.34509 28.8842C3.34509 28.8842 3.35553 28.8629 3.36075 28.8522L1.88343 27.9504C-0.570069 32.1553 -0.632712 37.8382 1.73204 42.0964C4.2012 46.5414 8.9516 49.0066 15.1271 49.06H15.5291C18.4889 49.028 21.1147 48.3556 23.4795 47.1924C32.4582 43.7879 37.9081 34.7166 42.6481 25.5705C45.6132 24.5513 48.1136 23.1106 50.6663 21.6432C54.9991 19.1459 59.7756 16.3978 67.679 15.2399C66.7446 15.7254 65.8467 16.2857 64.9906 16.9154C48.6252 26.5577 44.1985 54.0546 31.2262 59.9509C30.9861 60.0577 29.5975 60.1537 27.8644 60.2124H18.8126C14.2971 60.1697 11.1963 59.8922 6.9627 58.2487C6.76433 59.2412 6.6286 60.9114 6.43024 62L14.0987 61.9733H51.8617H61.3416L67.2822 48.1262H67.2666V48.1155L66.28 47.6726L66.092 47.5872C63.8891 51.8828 61.6131 59.9136 50.635 60.2017H33.8624C54.5345 52.4004 55.4167 18.751 71.7769 15.1225C72.1318 15.0424 73.0349 14.7863 75.9948 14.6796L75.9269 14.6689C75.9269 14.6689 75.9739 14.6689 75.9948 14.6689V14.3381V13.2388L76 13.2335Z" fill="#4E2C21"/>
</svg>