<svg xmlns="http://www.w3.org/2000/svg" width="153" height="73" viewBox="0 0 153 73" fill="none">
  <path d="M48.3971 69.995C47.9107 69.6015 47.317 69.3868 46.7805 69.3868C45.7289 69.3868 44.9062 70.1953 44.9062 71.1898C44.9062 72.1843 45.7217 72.9928 46.8091 72.9928C47.3384 72.9928 47.9608 72.7925 48.4043 72.4634V70.9394H46.6803V71.5547H47.7032V72.1271C47.4886 72.2702 47.1453 72.3561 46.8377 72.3561C46.0794 72.3561 45.6788 71.7908 45.6788 71.197C45.6788 70.5602 46.1295 70.0379 46.7805 70.0379C47.131 70.0379 47.596 70.1953 47.8964 70.4672L48.39 70.0021L48.3971 69.995Z" fill="#261111"/>
  <path d="M50.5217 71.1827C50.5217 70.5531 51.0225 70.0308 51.6591 70.0308C52.2958 70.0308 52.818 70.5531 52.818 71.1827C52.818 71.8123 52.3101 72.3561 51.6591 72.3561C51.0082 72.3561 50.5217 71.8266 50.5217 71.1827ZM49.7349 71.1827C49.7349 72.1915 50.579 72.9928 51.652 72.9928C52.725 72.9928 53.5906 72.1915 53.5906 71.1827C53.5906 70.1739 52.725 69.3868 51.652 69.3868C50.579 69.3868 49.7349 70.1953 49.7349 71.1827Z" fill="#261111"/>
  <path d="M55.0283 69.4869V72.8926H57.7681V72.2487H55.7723V69.4869H55.0283Z" fill="#261111"/>
  <path d="M59.7567 72.2487V70.138H60.5865C60.987 70.138 61.1659 70.2382 61.3447 70.4099C61.5307 70.6031 61.6309 70.875 61.6309 71.1969C61.6309 71.5404 61.5164 71.8122 61.3161 72.0126C61.1373 72.17 60.9799 72.2558 60.5865 72.2558H59.7567V72.2487ZM60.6079 72.8926C61.2517 72.8926 61.6166 72.7209 61.9098 72.4419C62.2246 72.127 62.3963 71.6834 62.3963 71.1898C62.3963 70.6961 62.2317 70.2811 61.9385 69.9735C61.638 69.6658 61.2303 69.4869 60.6079 69.4869H59.0127V72.8854H60.6079V72.8926Z" fill="#261111"/>
  <path d="M67.2968 72.1629C67.0536 72.306 66.839 72.3633 66.6745 72.3633C66.4169 72.3633 66.0879 72.2416 66.0879 71.8767C66.0879 71.5977 66.2882 71.426 66.4885 71.3258L67.304 72.1629H67.2968ZM68.0479 69.8519C67.8262 69.7446 67.4685 69.5944 67.0822 69.5944C66.5028 69.5944 66.002 69.9306 66.002 70.4672C66.002 70.639 66.0521 70.7821 66.1523 70.9323C65.7016 71.104 65.3511 71.3974 65.3511 71.934C65.3511 72.6709 66.0092 72.9714 66.5743 72.9714C66.9105 72.9714 67.3326 72.8641 67.7189 72.5994L68.005 72.8927H68.9278L68.2339 72.1701C68.4628 71.934 68.6989 71.6478 68.9421 71.2757L68.3913 71.0038C68.1982 71.3115 68.005 71.5548 67.8262 71.7479L67.1895 71.0897C67.0894 70.9895 66.746 70.689 66.746 70.4672C66.746 70.3456 66.8533 70.224 67.0822 70.224C67.3111 70.224 67.5901 70.3313 67.7403 70.4172L68.0551 69.8591L68.0479 69.8519Z" fill="#261111"/>
  <path d="M72.6831 72.2487V70.138H73.5129C73.9135 70.138 74.0923 70.2382 74.264 70.4099C74.45 70.6031 74.5502 70.875 74.5502 71.1969C74.5502 71.5404 74.4357 71.8122 74.2354 72.0126C74.0566 72.17 73.8992 72.2558 73.5057 72.2558H72.6759L72.6831 72.2487ZM73.5415 72.8926C74.1782 72.8926 74.5502 72.7209 74.8434 72.4419C75.1582 72.127 75.3299 71.6834 75.3299 71.1898C75.3299 70.6961 75.1653 70.2811 74.8721 69.9735C74.5716 69.6658 74.1639 69.4869 73.5415 69.4869H71.9463V72.8854H73.5415V72.8926Z" fill="#261111"/>
  <path d="M77.5189 69.4869H76.7749V72.8854H77.5189V69.4869Z" fill="#261111"/>
  <path d="M80.6021 70.3815H80.6307L81.1458 71.5835H80.087L80.6021 70.3815ZM78.7422 72.8928H79.5291L79.8367 72.1773H81.4104L81.7252 72.8928H82.5407L80.9669 69.4943H80.3231L78.7493 72.8928H78.7422Z" fill="#261111"/>
  <path d="M87.3979 72.8926V69.4869H86.7041L85.5953 71.3543H85.5881L84.4722 69.4869H83.7568V72.8926H84.4793V70.9179H84.508L85.4594 72.5062H85.6668L86.6182 70.9179H86.6468V72.8926H87.3979Z" fill="#261111"/>
  <path d="M89.6083 71.1827C89.6083 70.5531 90.1091 70.0308 90.7457 70.0308C91.3824 70.0308 91.9046 70.5531 91.9046 71.1827C91.9046 71.8123 91.3967 72.3561 90.7457 72.3561C90.0948 72.3561 89.6083 71.8266 89.6083 71.1827ZM88.8286 71.1827C88.8286 72.1915 89.6727 72.9928 90.7457 72.9928C91.8188 72.9928 92.6843 72.1915 92.6843 71.1827C92.6843 70.1739 91.8188 69.3868 90.7457 69.3868C89.6727 69.3868 88.8286 70.1953 88.8286 71.1827Z" fill="#261111"/>
  <path d="M96.4968 69.4869V71.5976H96.4897L94.7586 69.4869H94.1147V72.8926H94.8659V70.7891H94.873L96.597 72.8926H97.2408V69.4869H96.4968Z" fill="#261111"/>
  <path d="M99.6732 72.2487V70.138H100.503C100.904 70.138 101.082 70.2382 101.254 70.4099C101.44 70.6031 101.54 70.875 101.54 71.1969C101.54 71.5404 101.426 71.8122 101.225 72.0126C101.047 72.17 100.889 72.2558 100.496 72.2558H99.666L99.6732 72.2487ZM100.524 72.8926C101.161 72.8926 101.533 72.7209 101.826 72.4419C102.141 72.127 102.313 71.6834 102.313 71.1898C102.313 70.6961 102.148 70.2811 101.855 69.9735C101.555 69.6658 101.147 69.4869 100.524 69.4869H98.9292V72.8854H100.524V72.8926Z" fill="#261111"/>
  <path d="M106.583 69.8447C106.29 69.6444 105.696 69.3868 104.988 69.3868C104.344 69.3868 103.586 69.6444 103.586 70.4672C103.586 71.3329 104.459 71.4116 105.203 71.4617C105.711 71.5046 106.061 71.5762 106.061 71.9053C106.061 72.2344 105.718 72.3918 105.289 72.3918C104.602 72.3918 104.115 72.0484 103.829 71.8195L103.407 72.3274C103.801 72.6494 104.394 73 105.274 73C106.104 73 106.805 72.6709 106.805 71.8338C106.805 70.8965 105.839 70.8249 105.217 70.782C104.774 70.7462 104.33 70.7248 104.33 70.4243C104.33 70.1238 104.63 70.0093 104.974 70.0093C105.539 70.0093 105.961 70.2239 106.168 70.3742L106.598 69.8519L106.583 69.8447Z" fill="#261111"/>
  <path d="M7.18611 57.6674C11.9932 57.6674 13.6457 54.7769 13.6457 52.2083V43.78H10.9417V51.9436C10.9417 54.0972 10.1834 55.986 7.05735 55.986C4.35334 55.986 3.01565 53.7251 2.46483 52.838L0.705078 54.226C1.09852 54.9343 2.8082 57.6674 7.18611 57.6674Z" fill="#261111"/>
  <path d="M19.9478 57.324H32.8097V55.6712H22.6732V51.128H28.1385V49.5253H22.6732V45.4042H32.2589V43.78H19.9478V57.324Z" fill="#261111"/>
  <path d="M41.4943 57.324H43.1539L47.1169 47.1642L51.0513 57.324H52.7038L57.9043 43.78H55.8799L52.2603 53.6536L48.5834 43.78H46.6448L42.8392 53.6536L39.291 43.78H36.4082L41.4943 57.324Z" fill="#261111"/>
  <path d="M62.5469 57.324H75.4088V55.6712H65.2795V51.128H70.7376V49.5253H65.2795V45.4042H74.858V43.78H62.5469V57.324Z" fill="#261111"/>
  <path d="M80.0581 57.324H91.0029V55.6712H82.7836V43.78H80.0581V57.324Z" fill="#261111"/>
  <path d="M106.884 56.3295C103.236 56.3295 101.111 53.811 101.111 50.5556C101.111 47.3002 103.236 44.7817 106.884 44.7817C110.532 44.7817 112.578 47.3288 112.578 50.5556C112.578 53.7824 110.503 56.3295 106.884 56.3295ZM106.884 57.7962C111.691 57.7962 115.597 54.5694 115.597 50.5484C115.597 46.5274 111.684 43.2792 106.884 43.2792C102.084 43.2792 98.1709 46.5346 98.1709 50.5484C98.1709 54.5622 102.105 57.7962 106.884 57.7962Z" fill="#261111"/>
  <path d="M120.139 57.324H122.028V47.1141L131.27 57.324H133.294V43.78H131.427V53.625L122.578 43.78H120.139V57.324Z" fill="#261111"/>
  <path d="M139.225 57.324H152.087V55.6712H141.95V51.128H147.415V49.5253H141.95V45.4042H151.536V43.78H139.225V57.324Z" fill="#261111"/>
  <path d="M90.3094 24.3476C89.1934 26.4726 88.5639 30.372 83.1273 30.5866H75.2513C75.8951 30.1931 76.496 29.728 77.0683 29.1986C83.5637 24.4979 85.4021 14.2594 90.245 10.1025C91.4968 9.12947 92.8131 8.54994 94.2509 8.32814C94.5728 8.29237 95.0163 8.25659 95.6315 8.23513L95.5743 8.22082C95.5743 8.22082 95.6101 8.22082 95.6315 8.22082V6.89719C88.5711 6.89719 85.1446 8.82897 82.1258 10.5318C80.9026 11.2187 79.7437 11.8697 78.4132 12.3491C80.874 7.69137 83.1273 3.19818 86.5323 1.79584C87.1189 1.57405 87.7341 1.43095 88.3851 1.3594C88.4566 1.3594 88.5353 1.35225 88.614 1.34509C88.6355 1.34509 88.6569 1.34509 88.6784 1.33079C88.8572 1.31648 89.0361 1.30932 89.222 1.30932V0H66.7888L66.7316 0.13594L63.6198 7.10468L64.9146 7.56974C66.0377 5.43046 66.66 1.50965 72.1754 1.32363H84.5222C84.3291 1.43811 84.1359 1.56689 83.9499 1.69568C79.9512 3.85642 77.5762 8.4927 75.2585 12.9573C72.1539 13.0002 68.7989 11.6265 68.7989 11.6265C68.7703 11.5979 68.105 13.7586 68.105 13.7586C70.0794 14.0448 71.9679 14.5599 74.5002 14.4097C72.2469 18.6739 69.8791 22.5017 65.9876 23.4962C65.3939 23.625 64.7787 23.6894 64.142 23.6894C60.5581 23.6894 58.8985 22.0939 58.1403 20.756C58.0115 20.527 57.9042 20.2981 57.8041 20.0548C57.1388 18.123 57.8398 16.227 58.9558 15.1824L57.847 14.5671L57.0744 14.102C55.7796 16.2699 55.7439 19.2105 56.9957 21.407C58.312 23.7252 60.8514 25.0059 64.142 25.0059C64.142 25.0059 64.9003 24.9844 65.258 24.9486C71.2311 24.4693 74.629 19.3465 77.5404 13.9947C79.5792 13.4939 81.1529 12.5995 82.7768 11.6909C84.7511 10.5747 86.7684 9.43713 89.8086 8.78605C89.222 9.20818 88.6998 9.71616 88.1419 10.2098C82.2188 15.4686 79.4862 25.2062 74.722 29.3774C73.5059 30.1502 72.1396 30.5938 70.5587 30.5938H67.5828C64.886 30.5151 62.6684 29.957 60.3364 29.356C60.2505 29.9641 60.1361 31.4237 60.0359 31.9675L66.2022 31.9102H83.5923H88.4423H88.4495L89.0289 30.5938L91.6113 24.8127L90.3165 24.3476H90.3094Z" fill="#261111"/>
</svg>