<svg width="20" height="17" viewBox="0 0 20 17" fill="none" xmlns="http://www.w3.org/2000/svg">
<path d="M19.2211 2.43205C18.5004 2.75087 17.7395 2.95014 16.9386 3.06969C17.7395 2.59146 18.3802 1.83426 18.6605 0.917642C17.8997 1.35602 17.0588 1.67485 16.1378 1.87411C15.417 1.11691 14.3758 0.638672 13.2546 0.638672C11.0922 0.638672 9.33027 2.3922 9.33027 4.54425C9.33027 4.86307 9.37031 5.14204 9.4504 5.42101C6.20683 5.2616 3.28361 3.70734 1.32145 1.31617C1.0011 1.91396 0.800881 2.55161 0.800881 3.26896C0.800881 4.62395 1.48163 5.81954 2.56282 6.53689C1.92211 6.49704 1.32145 6.33763 0.760837 6.05866V6.09851C0.760837 8.01144 2.12234 9.60556 3.92432 9.96423C3.60397 10.0439 3.24357 10.0838 2.88317 10.0838C2.64291 10.0838 2.3626 10.0439 2.12234 10.0041C2.64291 11.5583 4.08449 12.7141 5.80639 12.7141C4.44489 13.7502 2.76304 14.3879 0.921013 14.3879C0.600661 14.3879 0.280308 14.3879 0 14.348C1.76194 15.4639 3.80419 16.1016 6.04665 16.1016C13.2946 16.1016 17.259 10.1236 17.259 4.94278C17.259 4.78336 17.259 4.5841 17.259 4.42469C18.0198 3.9066 18.7006 3.22911 19.2211 2.43205Z" fill="#27272A"/>
</svg>
