<svg width="164" height="35" viewBox="0 0 164 35" fill="none" xmlns="http://www.w3.org/2000/svg">
<path fill-rule="evenodd" clip-rule="evenodd" d="M155.46 16.0436C155.478 16.0718 155.498 16.0983 155.521 16.1227C155.846 16.5123 156.261 16.8178 156.731 17.013C157.2 17.2082 157.71 17.2875 158.216 17.244C159.323 17.1908 160.402 16.8818 161.368 16.3413C161.574 16.2304 161.774 16.1077 161.965 15.9738L162.656 15.5085L163.019 16.2669L162.903 16.4158C162.519 16.8979 162.088 17.3406 161.616 17.7372C161.116 18.1769 160.58 18.5723 160.011 18.9191C159.486 19.2245 158.919 19.4533 158.328 19.5984C157.711 19.7573 157.076 19.8355 156.439 19.8311C155.784 19.8421 155.13 19.7559 154.499 19.5752C153.961 19.4187 153.464 19.1454 153.044 18.7749C152.692 18.4544 152.379 18.0936 152.112 17.7C151.851 17.3217 151.642 16.9101 151.492 16.4763C151.038 15.1257 150.97 13.6755 151.296 12.2886C151.59 10.9073 152.278 9.64038 153.278 8.64062C153.956 7.9733 154.758 7.44252 155.637 7.07721C156.511 6.72391 157.446 6.54526 158.389 6.55142C159.227 6.55125 160.051 6.7728 160.776 7.19354C161.492 7.62751 162.153 8.1462 162.744 8.73834L162.987 8.97099L155.46 16.0436ZM154.91 14.5546L157.638 11.9629C157.964 11.6371 158.169 11.2106 158.221 10.7531C158.259 10.4828 158.243 10.2076 158.174 9.94346C158.111 9.71172 157.989 9.50017 157.82 9.32927C157.628 9.15643 157.386 9.04888 157.13 9.02217C156.916 8.99549 156.7 9.01614 156.495 9.08266C156.02 9.29458 155.643 9.6788 155.441 10.1575C155.16 10.7812 154.981 11.4456 154.91 12.1257C154.791 12.931 154.791 13.7493 154.91 14.5546Z" fill="white"/>
<path fill-rule="evenodd" clip-rule="evenodd" d="M144.856 9.9108C144.366 9.9108 143.821 10.4831 143.541 10.8135C142.845 11.6847 142.259 12.638 141.797 13.6518L141.825 17.0206C141.854 17.4121 141.8 17.8053 141.666 18.1745C141.461 18.5581 141.157 18.8795 140.785 19.1051C140.497 19.3034 140.183 19.4601 139.852 19.5704C139.475 19.6937 139.086 19.7779 138.691 19.8217L138.309 19.8682V9.79913C138.315 9.71486 138.292 9.63093 138.243 9.56183C138.185 9.51839 138.115 9.494 138.043 9.49203H137.991C137.734 9.50887 137.484 9.59225 137.269 9.73399L136.891 8.56143C137.659 7.94342 138.46 7.36865 139.292 6.83982C139.441 6.751 139.597 6.67622 139.759 6.61648C139.908 6.5623 140.066 6.53398 140.225 6.53272C140.512 6.52902 140.792 6.61888 141.023 6.78864C141.241 6.96067 141.404 7.19398 141.489 7.45867C141.656 8.09036 141.759 8.73731 141.797 9.38967C141.825 9.81309 141.843 10.2319 141.848 10.6553C142.007 10.4133 142.174 10.19 142.342 9.94337C142.51 9.69676 142.748 9.41758 142.967 9.15236C143.186 8.89645 143.433 8.64984 143.648 8.40323C143.862 8.15662 144.114 7.93793 144.389 7.70063C144.643 7.47252 144.916 7.267 145.206 7.08643C145.472 6.92335 145.755 6.7892 146.05 6.68627L146.269 6.62578L146.497 6.56995C146.651 6.54121 146.807 6.52564 146.964 6.52342C147.23 6.51921 147.494 6.57472 147.736 6.68585C147.978 6.79698 148.192 6.9609 148.363 7.16553C148.67 7.5508 148.877 8.00658 148.964 8.49164C149.041 8.84946 149.078 9.21453 149.076 9.58044V17.2719C149.076 17.565 149.183 17.6581 149.477 17.551C149.926 17.3433 150.342 17.0722 150.713 16.7461L151.147 17.6394C150.289 18.57 149.113 19.8077 147.71 19.8077C147.423 19.8092 147.139 19.7498 146.877 19.6335C146.615 19.5172 146.38 19.3466 146.189 19.1331C145.788 18.6852 145.565 18.1055 145.565 17.5045V11.1857C145.567 10.8833 145.491 10.5854 145.345 10.3203C145.248 10.1324 145.081 9.99036 144.879 9.92476L144.856 9.9108Z" fill="white"/>
<path fill-rule="evenodd" clip-rule="evenodd" d="M133.575 17.421C131.495 19.5009 128.553 20.2128 125.619 20.2128C122.985 20.2128 120.191 19.5009 118.158 17.8491C117.239 17.0893 116.493 16.1427 115.969 15.0723C115.446 14.0019 115.157 12.8325 115.122 11.642C115.099 11.3302 115.09 11.0091 115.09 10.7114C115.09 7.89629 115.934 5.12775 118.009 3.06182C119.909 1.22618 122.422 0.155696 125.065 0.0559799C125.312 0.0559799 125.563 0.0327148 125.815 0.0327148C132.367 0.0327148 136.336 3.1037 136.336 9.52484C136.336 12.3585 135.692 15.3085 133.575 17.4349M118.928 10.1251C118.928 14.3733 121.772 18.4353 125.881 18.4353C129.989 18.4353 132.834 14.3733 132.834 10.1251C132.834 5.87689 129.994 1.81482 125.881 1.81482C121.768 1.81482 118.928 5.87689 118.928 10.1251Z" fill="white"/>
<path fill-rule="evenodd" clip-rule="evenodd" d="M64.1663 16.0434L64.2269 16.1271C64.5537 16.5163 64.9698 16.8211 65.4398 17.0155C65.9099 17.2099 66.4201 17.2882 66.927 17.2438C68.0317 17.188 69.1088 16.8792 70.0747 16.3412C70.2799 16.2248 70.485 16.1039 70.6762 15.9689L71.3617 15.5036L71.7301 16.2621L71.6089 16.4156C71.2254 16.8966 70.7959 17.3391 70.3265 17.7371C69.8262 18.1756 69.2896 18.571 68.7223 18.9189C68.1939 19.219 67.6278 19.4474 67.0389 19.5983C66.42 19.7545 65.7839 19.8327 65.1456 19.8309C64.4896 19.8401 63.8359 19.7523 63.2056 19.5703C62.6659 19.412 62.1676 19.1372 61.746 18.7654C61.3953 18.4453 61.0824 18.0862 60.8134 17.6952C60.5571 17.3125 60.3488 16.9 60.1932 16.4668C59.7399 15.1159 59.6736 13.6655 60.002 12.2791C60.2952 10.8971 60.9817 9.62889 61.9792 8.62648C62.6617 7.96151 63.4638 7.43109 64.3435 7.06307C65.2155 6.70943 66.1489 6.53076 67.0902 6.53728C67.9299 6.53445 68.7548 6.7579 69.4778 7.18405C70.1915 7.61895 70.8492 8.1393 71.4364 8.7335L71.6788 8.9615L64.1663 16.0434ZM63.6393 14.5544L66.3674 11.9627C66.6218 11.6996 66.8043 11.3758 66.8973 11.0222C66.9904 10.6686 66.991 10.2971 66.899 9.94328C66.837 9.71236 66.7147 9.50201 66.5446 9.33374C66.3565 9.15559 66.1129 9.04719 65.8544 9.02664C65.6412 8.99538 65.4236 9.01614 65.2202 9.08713C64.745 9.29905 64.3682 9.68327 64.1663 10.162C63.8788 10.7826 63.6946 11.4458 63.6207 12.1255C63.4995 12.9306 63.4995 13.7493 63.6207 14.5544" fill="white"/>
<path fill-rule="evenodd" clip-rule="evenodd" d="M82.7957 12.9953L80.3754 17.4622L78.9205 20.254L74.2898 11.6878V11.7158L73.4458 10.2919L72.1541 8.43075L72.4059 8.17018C72.7467 7.79759 73.1162 7.45221 73.5111 7.13721C73.8035 6.86261 74.1615 6.6672 74.551 6.56954C74.7194 6.58523 74.883 6.6345 75.032 6.71443C75.181 6.79435 75.3123 6.90331 75.4184 7.03485C75.727 7.3726 75.9918 7.74779 76.2065 8.15157C76.7894 9.17057 77.3303 10.2082 77.8713 11.2458C78.3376 12.1392 78.8039 13.0372 79.2702 13.9166C79.454 14.2494 79.6596 14.5696 79.8858 14.8752C79.9417 14.9543 80.0024 15.0287 80.063 15.0985L81.9283 11.5762C81.8164 11.176 80.3708 9.54747 80.0257 9.32412C79.9091 9.24967 79.7879 9.17057 79.6713 9.08682L79.3775 8.87278L79.6246 8.61221C80.114 8.10381 80.6292 7.62081 81.1682 7.16513C81.4639 6.87916 81.8285 6.67404 82.2268 6.56954C82.3945 6.58532 82.5574 6.63465 82.7056 6.71459C82.8538 6.79453 82.9844 6.90345 83.0895 7.03485C83.3981 7.37365 83.6643 7.74864 83.8822 8.15157C84.4605 9.17057 85.0014 10.2082 85.5424 11.2458C86.0087 12.1392 86.475 13.0372 86.9693 13.9166C87.1498 14.2503 87.3539 14.5706 87.5802 14.8752C87.6592 14.9843 87.7448 15.0884 87.8367 15.1869C88.1665 14.6253 88.4519 14.0387 88.6901 13.4327C88.9825 12.8152 89.1895 12.1609 89.3056 11.4878C89.2725 10.8887 89.0669 10.312 88.7134 9.82665C88.3166 9.23525 87.7945 8.73806 87.1838 8.37026L87.016 8.2772V7.891L87.1652 7.79794C87.5003 7.53494 87.8124 7.24384 88.0978 6.92783C88.4378 6.55908 88.804 6.21541 89.1937 5.89951C89.3019 5.81098 89.4174 5.73161 89.5388 5.66221C89.6522 5.59532 89.7803 5.55699 89.9119 5.55054C90.0287 5.55673 90.143 5.58683 90.2476 5.63894C90.3589 5.69208 90.4664 5.75271 90.5694 5.82041C91.0485 6.13547 91.454 6.54964 91.7585 7.03485C92.1116 7.55972 92.3777 8.13789 92.5466 8.74715L92.5793 8.86348L86.5963 20.2308L86.2838 19.6631L82.7957 12.9953Z" fill="white"/>
<path fill-rule="evenodd" clip-rule="evenodd" d="M109.269 19.068C109.111 19.1797 108.943 19.2867 108.77 19.3844C108.612 19.4743 108.449 19.5551 108.281 19.6264C108.121 19.6924 107.955 19.7453 107.787 19.7846C107.634 19.8198 107.477 19.8385 107.32 19.8404C106.98 19.8465 106.643 19.7782 106.332 19.6403C106.048 19.5062 105.812 19.2886 105.655 19.0168C105.505 18.7546 105.396 18.4704 105.334 18.1746C105.262 17.8382 105.228 17.4949 105.231 17.151V5.25789C105.222 4.49375 105.315 3.7318 105.506 2.99188C105.66 2.37418 105.939 1.79456 106.327 1.28888C106.747 0.776326 107.321 0.411155 107.964 0.246609C108.605 0.0869474 109.266 0.0149439 109.927 0.0325709L113.257 0L112.986 0.4653C112.645 1.11533 112.113 1.64608 111.461 1.98683C110.851 2.27067 110.19 2.42891 109.517 2.45213C109.395 2.45213 109.279 2.45213 109.162 2.48936L108.929 2.52658C108.922 2.55719 108.922 2.58903 108.929 2.61964L108.826 16.467C108.821 16.5453 108.835 16.6237 108.868 16.695C108.895 16.7297 108.93 16.7576 108.97 16.7762C109.009 16.7948 109.053 16.8036 109.097 16.802C109.317 16.8045 109.536 16.7715 109.745 16.7043C110.315 16.5177 110.853 16.2446 111.34 15.8947L111.401 15.8481L111.457 15.8993C111.718 16.118 111.979 16.3367 112.249 16.5414L112.324 16.5973L112.077 16.8485C111.746 17.169 111.397 17.4704 111.032 17.7512C110.473 18.1886 109.894 18.6306 109.311 19.0447L109.269 19.068Z" fill="white"/>
<path fill-rule="evenodd" clip-rule="evenodd" d="M96.4176 16.0433L96.4735 16.1271C96.8003 16.5163 97.2164 16.821 97.6865 17.0155C98.1565 17.2099 98.6667 17.2882 99.1736 17.2438C100.279 17.1892 101.356 16.8802 102.321 16.3411C102.528 16.228 102.729 16.1037 102.923 15.9689L103.613 15.5036L103.977 16.262L103.86 16.4156C103.476 16.8977 103.045 17.3404 102.573 17.737C102.074 18.1766 101.537 18.5721 100.969 18.9189C100.441 19.2205 99.8749 19.4491 99.2855 19.5982C98.6683 19.7548 98.0337 19.833 97.3968 19.8309C96.7408 19.8403 96.0871 19.7525 95.4569 19.5703C94.9167 19.4131 94.4181 19.1382 93.9973 18.7653C93.6441 18.4477 93.3309 18.0883 93.0647 17.6952C92.7974 17.3188 92.581 16.9089 92.4211 16.4761C91.9663 15.1256 91.8984 13.6752 92.2253 12.2884C92.5205 10.9071 93.2067 9.63943 94.2025 8.63576C94.885 7.97079 95.6871 7.44036 96.5668 7.07235C97.4404 6.71869 98.3753 6.54003 99.3181 6.54656C100.158 6.54578 100.982 6.76909 101.706 7.19333C102.423 7.62581 103.084 8.14463 103.674 8.73812L103.916 8.96612L96.4176 16.0433ZM95.8859 14.5544L98.614 11.9627C98.9408 11.6375 99.1465 11.2107 99.1969 10.7529C99.2358 10.4824 99.2183 10.2067 99.1456 9.94325C99.0854 9.71163 98.9628 9.50084 98.7912 9.33371C98.6043 9.15653 98.3625 9.0482 98.1057 9.02661C97.8925 8.99535 97.6749 9.01611 97.4715 9.0871C96.9951 9.29745 96.6179 9.68219 96.4176 10.1619C96.1286 10.7823 95.9427 11.4455 95.8673 12.1255C95.7484 12.9308 95.7484 13.7491 95.8673 14.5544" fill="white"/>
<path fill-rule="evenodd" clip-rule="evenodd" d="M57.5394 16.0155V3.10345C57.5227 2.85138 57.5631 2.5988 57.6576 2.36442C57.752 2.13003 57.8981 1.91985 58.085 1.74942C58.5099 1.44425 58.9827 1.21154 59.4839 1.06078L60.2207 0.776946V0.376788L59.8803 0.251157C59.6959 0.18338 59.5054 0.133517 59.3114 0.102261C59.0909 0.0657711 58.868 0.0455532 58.6446 0.0417717C58.4005 0.029933 58.1559 0.0345965 57.9124 0.0557306C57.6744 0.074261 57.4377 0.106889 57.2036 0.153443H57.1616C56.6526 0.258243 56.1621 0.438614 55.7067 0.688539C55.2671 0.929163 54.8726 1.24403 54.5409 1.61914C54.2169 1.97979 53.9609 2.39596 53.7854 2.84753C53.6198 3.312 53.5361 3.80162 53.5383 4.29462V17.2998C53.5441 18.0403 53.4064 18.775 53.1325 19.4634C52.1999 21.2083 49.8682 22.0737 47.5366 22.0598C42.309 22.0319 40.2992 17.3184 44.0391 15.1035L43.9365 14.7313H43.3396C42.7141 14.7289 42.109 14.9538 41.6375 15.3641C41.1183 15.8255 40.7374 16.4214 40.537 17.0857C40.4396 17.3891 40.3694 17.7005 40.3271 18.0163V19.4122C40.3551 19.6216 40.3924 19.831 40.4391 20.0311C40.517 20.3729 40.6279 20.7063 40.7702 21.0268C41.2703 22.1683 42.1386 23.11 43.237 23.7023C44.4717 24.3417 45.8474 24.6617 47.2381 24.6329H47.2894C48.6778 24.6299 50.0578 24.4198 51.3838 24.0094C52.5748 23.6372 53.683 23.0401 54.6481 22.2506C55.549 21.5071 56.2723 20.5724 56.7652 19.5146C57.2567 18.4294 57.5125 17.2528 57.516 16.0621V16.0202L57.5394 16.0155Z" fill="white"/>
<path fill-rule="evenodd" clip-rule="evenodd" d="M41.2473 32.0779C41.2372 32.3579 41.2842 32.6372 41.3854 32.8986C41.4866 33.16 41.64 33.3982 41.8362 33.5988C42.0324 33.7993 42.2673 33.9581 42.5268 34.0653C42.7863 34.1726 43.0649 34.2262 43.3458 34.2229C43.804 34.2256 44.2472 34.06 44.5909 33.7576C44.5909 33.7576 44.5909 33.846 44.5909 33.9297V34.1298H45.2531V31.9708H43.924V32.6269H44.5816V33.0922C44.289 33.3623 43.9075 33.5162 43.509 33.5249C43.3146 33.5323 43.1207 33.4992 42.9399 33.4276C42.759 33.356 42.5951 33.2476 42.4586 33.1092C42.3221 32.9708 42.216 32.8056 42.1472 32.624C42.0783 32.4424 42.0482 32.2485 42.0587 32.0546C42.0496 31.8616 42.0816 31.6688 42.1528 31.4891C42.224 31.3094 42.3326 31.1469 42.4715 31.0122C42.6104 30.8776 42.7764 30.774 42.9585 30.7082C43.1406 30.6424 43.3346 30.616 43.5277 30.6308C43.942 30.6323 44.3439 30.7715 44.6702 31.0263L45.0572 30.4679C44.606 30.1042 44.0373 29.9173 43.4577 29.9421C43.1707 29.9314 42.8845 29.9789 42.6163 30.0816C42.3482 30.1843 42.1036 30.3401 41.8975 30.5397C41.6914 30.7393 41.5279 30.9785 41.417 31.2429C41.306 31.5072 41.2499 31.7913 41.252 32.0779M46.1298 32.0779C46.1298 32.664 46.3632 33.2262 46.7786 33.6407C47.194 34.0552 47.7574 34.288 48.3448 34.288C48.9323 34.288 49.4957 34.0552 49.9111 33.6407C50.3265 33.2262 50.5599 32.664 50.5599 32.0779C50.5599 31.4917 50.3265 30.9295 49.9111 30.515C49.4957 30.1005 48.9323 29.8677 48.3448 29.8677C47.7574 29.8677 47.194 30.1005 46.7786 30.515C46.3632 30.9295 46.1298 31.4917 46.1298 32.0779ZM46.9319 32.0779C46.9319 31.7039 47.0807 31.3453 47.3457 31.0809C47.6107 30.8165 47.9701 30.668 48.3448 30.668C48.7196 30.668 49.079 30.8165 49.344 31.0809C49.609 31.3453 49.7578 31.7039 49.7578 32.0779C49.7578 32.4518 49.609 32.8104 49.344 33.0748C49.079 33.3392 48.7196 33.4877 48.3448 33.4877C47.9701 33.4877 47.6107 33.3392 47.3457 33.0748C47.0807 32.8104 46.9319 32.4518 46.9319 32.0779ZM51.6511 34.1764H54.2812V33.5063H52.4159V30.0119H51.6371L51.6511 34.1764ZM55.1999 34.1764H56.6642C57.9839 34.1764 58.8466 33.4086 58.8466 32.1011C58.8466 30.7936 57.9839 30.0352 56.6642 30.0352H55.1999V34.1764ZM55.9787 33.5296V30.6587H56.6222C57.0006 30.6587 57.3636 30.8087 57.6312 31.0757C57.8988 31.3427 58.0492 31.7049 58.0492 32.0825C58.0492 32.4601 57.8988 32.8223 57.6312 33.0893C57.3636 33.3563 57.0006 33.5063 56.6222 33.5063L55.9787 33.5296ZM61.3554 32.8363H63.1741V32.1616H61.3554V32.8363ZM65.9534 34.1764H67.413C68.7328 34.1764 69.5955 33.4086 69.5955 32.1011C69.5955 30.7936 68.7328 30.0352 67.413 30.0352H65.9534V34.1764ZM66.7322 33.5296V30.6587H67.3711C67.7495 30.6587 68.1125 30.8087 68.3801 31.0757C68.6477 31.3427 68.798 31.7049 68.798 32.0825C68.798 32.4601 68.6477 32.8223 68.3801 33.0893C68.1125 33.3563 67.7495 33.5063 67.3711 33.5063L66.7322 33.5296ZM70.71 34.1764H71.4888V30.0352H70.71V34.1764ZM75.3733 34.1764H76.1754L74.6645 30.0352H73.8531L72.3421 34.1764H73.1442L73.508 33.1155H75.0096L75.3733 34.1764ZM74.2681 30.7517C74.2681 30.7517 74.3614 31.1612 74.436 31.3939L74.8184 32.5013H73.6945L74.0769 31.3939C74.1608 31.1612 74.2541 30.7517 74.2541 30.7517H74.2681ZM76.8889 34.1764H77.6676L77.8495 31.8499C77.8495 31.58 77.8495 31.2031 77.8495 31.2031C77.8495 31.2031 77.9847 31.6126 78.0873 31.8499L78.7728 33.4551H79.4537L80.1485 31.8499C80.2511 31.6126 80.377 31.2124 80.377 31.2124C80.377 31.2124 80.377 31.58 80.377 31.8499L80.5589 34.1764H81.333L80.9879 30.0352H80.1532L79.3651 32.0592C79.2671 32.3058 79.1506 32.6641 79.1506 32.6641C79.1506 32.6641 79.0293 32.3058 78.9314 32.0592L78.092 30.0119H77.2619L76.8889 34.1764ZM82.3263 32.0779C82.3263 32.664 82.5596 33.2262 82.975 33.6407C83.3904 34.0552 83.9538 34.288 84.5413 34.288C85.1288 34.288 85.6922 34.0552 86.1076 33.6407C86.523 33.2262 86.7564 32.664 86.7564 32.0779C86.7564 31.4917 86.523 30.9295 86.1076 30.515C85.6922 30.1005 85.1288 29.8677 84.5413 29.8677C83.9538 29.8677 83.3904 30.1005 82.975 30.515C82.5596 30.9295 82.3263 31.4917 82.3263 32.0779ZM83.1283 32.0779C83.1283 31.7039 83.2772 31.3453 83.5422 31.0809C83.8072 30.8165 84.1666 30.668 84.5413 30.668C84.9161 30.668 85.2755 30.8165 85.5404 31.0809C85.8054 31.3453 85.9543 31.7039 85.9543 32.0779C85.9543 32.4518 85.8054 32.8104 85.5404 33.0748C85.2755 33.3392 84.9161 33.4877 84.5413 33.4877C84.1666 33.4877 83.8072 33.3392 83.5422 33.0748C83.2772 32.8104 83.1283 32.4518 83.1283 32.0779ZM87.8476 34.1764H88.6264V31.7661C88.6264 31.5241 88.5844 31.1286 88.5844 31.1286C88.6917 31.3478 88.8116 31.5607 88.9435 31.7661L90.557 34.1531H91.3264V30.0119H90.557V32.4036C90.557 32.6502 90.5989 33.0457 90.5989 33.0457C90.4944 32.8244 90.3761 32.61 90.2445 32.4036L88.6217 30.0119H87.8429L87.8476 34.1764ZM92.7301 34.1764H94.1943C95.514 34.1764 96.3768 33.4086 96.3768 32.1011C96.3768 30.7936 95.514 30.0352 94.1943 30.0352H92.7301V34.1764ZM93.5088 33.5296V30.6587H94.1524C94.5308 30.6587 94.8938 30.8087 95.1614 31.0757C95.429 31.3427 95.5793 31.7049 95.5793 32.0825C95.5793 32.4601 95.429 32.8223 95.1614 33.0893C94.8938 33.3563 94.5308 33.5063 94.1524 33.5063L93.5088 33.5296ZM98.8856 32.8363H100.704V32.1616H98.8856V32.8363ZM103.484 34.1764H104.262V32.7246H105.134C105.32 32.7354 105.505 32.7084 105.679 32.6451C105.854 32.5819 106.013 32.4837 106.148 32.3567C106.283 32.2297 106.391 32.0765 106.464 31.9065C106.538 31.7366 106.576 31.5534 106.576 31.3683C106.576 31.1832 106.538 31 106.464 30.83C106.391 30.66 106.283 30.5069 106.148 30.3798C106.013 30.2528 105.854 30.1547 105.679 30.0914C105.505 30.0281 105.32 30.0011 105.134 30.0119H103.474L103.484 34.1764ZM104.262 32.0965V30.7006H105.013C105.108 30.6928 105.203 30.7057 105.292 30.7382C105.381 30.7708 105.461 30.8223 105.528 30.8892C105.595 30.956 105.647 31.0366 105.68 31.1254C105.712 31.2142 105.725 31.3089 105.717 31.4032C105.724 31.4989 105.711 31.5949 105.677 31.6848C105.643 31.7747 105.59 31.8562 105.522 31.9238C105.454 31.9915 105.372 32.0436 105.282 32.0766C105.191 32.1096 105.095 32.1227 104.999 32.1151L104.262 32.0965ZM107.489 34.1764H110.119V33.5063H108.254V30.0119H107.48L107.489 34.1764ZM113.673 34.1764H114.475L112.941 30.0119H112.125L110.618 34.1531H111.421L111.784 33.0922H113.286L113.673 34.1764ZM112.568 30.7517C112.568 30.7517 112.656 31.1612 112.736 31.3939L113.118 32.5013H112.008L112.386 31.3939C112.47 31.1612 112.568 30.7517 112.568 30.7517ZM115.963 34.1764H116.741V30.6587H118.14V30.0119H114.55V30.6587H115.949L115.963 34.1764ZM119.012 34.1764H119.791V30.0352H119.003L119.012 34.1764ZM121.176 34.1764H121.955V31.7661C121.955 31.5241 121.913 31.1286 121.913 31.1286C122.018 31.3482 122.136 31.5611 122.267 31.7661L123.89 34.1531H124.664V30.0119H123.89V32.4036C123.89 32.6502 123.932 33.0457 123.932 33.0457C123.825 32.8247 123.705 32.6103 123.573 32.4036L121.95 30.0119H121.171L121.176 34.1764ZM125.998 32.6641C125.998 33.5947 126.693 34.2229 127.728 34.2229C128.763 34.2229 129.458 33.5947 129.458 32.6641V30.0119H128.679V32.6595C128.688 32.785 128.669 32.9108 128.623 33.0279C128.577 33.145 128.505 33.2503 128.413 33.3363C128.321 33.4223 128.211 33.4868 128.091 33.5251C127.971 33.5633 127.844 33.5744 127.719 33.5575C127.598 33.5703 127.476 33.557 127.362 33.5187C127.247 33.4803 127.142 33.4178 127.053 33.3352C126.965 33.2527 126.895 33.1521 126.849 33.0403C126.803 32.9285 126.781 32.8082 126.786 32.6874V30.0352H125.998V32.6641ZM130.661 34.1531H131.44L131.622 31.8266C131.622 31.5567 131.622 31.1798 131.622 31.1798C131.622 31.1798 131.752 31.5893 131.855 31.8266L132.527 33.4412H133.207L133.926 31.8359C134.028 31.5986 134.154 31.1984 134.154 31.1984C134.154 31.1984 134.154 31.566 134.154 31.8359L134.336 34.1624H135.11L134.765 30.0212H133.926L133.086 32.0685C132.993 32.3152 132.876 32.6734 132.876 32.6734C132.876 32.6734 132.76 32.3152 132.662 32.0685L131.822 30.0212H130.988L130.661 34.1531ZM137.787 32.813H139.605V32.1616H137.787V32.813ZM142.058 33.6552C142.458 34.029 142.989 34.2326 143.537 34.2229C144.432 34.2229 144.936 33.6692 144.936 33.0085C144.936 31.687 142.921 31.8685 142.921 31.1473C142.921 30.8541 143.206 30.6494 143.565 30.6494C143.907 30.6667 144.234 30.794 144.497 31.0123L144.838 30.3981C144.486 30.0881 144.029 29.9219 143.56 29.9328C142.735 29.9328 142.119 30.4446 142.119 31.1333C142.119 32.4082 144.143 32.2779 144.143 32.9945C144.143 33.3342 143.849 33.497 143.523 33.497C143.127 33.4775 142.75 33.3231 142.455 33.0596L142.058 33.6552ZM146.027 34.1531H146.806V30.0119H146.027V34.1531ZM148.191 34.1531H150.821V33.5063H148.955V30.0119H148.177L148.191 34.1531ZM152.448 34.1531H153.222L154.784 30.0119H153.954L153.022 32.7107C152.938 32.9526 152.868 33.3202 152.859 33.3202C152.859 33.3202 152.779 32.9526 152.695 32.7107L151.763 30.0119H150.923L152.448 34.1531ZM155.619 34.1531H158.282V33.5063H156.417V32.3943H157.862V31.7428H156.417V30.6587H158.175V30.0119H155.605L155.619 34.1531ZM159.392 34.1531H160.171V32.6269H160.917L161.77 34.1717H162.637L161.737 32.6269C161.697 32.5533 161.649 32.4846 161.593 32.4222C161.814 32.3271 162.001 32.168 162.129 31.9655C162.258 31.7631 162.323 31.5266 162.316 31.2868C162.328 31.0498 162.268 30.8146 162.143 30.6126C162.018 30.4106 161.834 30.2514 161.616 30.1562C161.34 30.0572 161.046 30.0176 160.753 30.0398H159.355L159.392 34.1531ZM160.171 31.9569V30.6587H160.763C161.369 30.6587 161.546 30.9053 161.546 31.3008C161.553 31.3903 161.54 31.4801 161.508 31.5639C161.476 31.6478 161.426 31.7236 161.361 31.7862C161.297 31.8487 161.22 31.8964 161.135 31.9259C161.05 31.9554 160.96 31.9659 160.87 31.9569H160.171Z" fill="white"/>
<path fill-rule="evenodd" clip-rule="evenodd" d="M17.5795 35.0001C12.9458 34.9878 8.50515 33.1463 5.22769 29.8778C1.95023 26.6093 0.102293 22.1795 0.0875244 17.556C0.101051 12.932 1.94766 8.50117 5.22411 5.23108C8.50056 1.96098 12.9407 0.117269 17.5749 0.102539C22.2091 0.117269 26.6492 1.96098 29.9256 5.23108C33.2021 8.50117 35.0487 12.932 35.0622 17.556C35.0475 22.1779 33.2008 26.6063 29.9253 29.8745C26.6499 33.1428 22.2117 34.9853 17.5795 35.0001Z" fill="#9F212C"/>
<path fill-rule="evenodd" clip-rule="evenodd" d="M17.58 34.9998C13.5202 35.0094 9.58271 33.6133 6.43927 31.0496C3.29582 28.486 1.14109 24.9136 0.342598 20.9418C-0.455899 16.97 0.151296 12.8449 2.06062 9.26988C3.96994 5.6949 7.06312 2.89157 10.8126 1.33804C14.562 -0.215488 18.7355 -0.422993 22.6212 0.750921C26.5069 1.92484 29.864 4.40745 32.1201 7.77533C34.3761 11.1432 35.3913 15.1877 34.9925 19.2191C34.5937 23.2504 32.8055 27.0188 29.9331 29.8815C28.3122 31.503 26.3869 32.7896 24.2673 33.6679C22.1476 34.5461 19.8752 34.9987 17.58 34.9998ZM17.58 34.3112C21.4819 34.3165 25.2648 32.9708 28.2832 30.5036C31.3015 28.0363 33.3684 24.6005 34.1311 20.7823C34.8939 16.9641 34.3051 13.0002 32.4655 9.56679C30.6258 6.1334 27.6491 3.44333 24.0433 1.95555C20.4376 0.467778 16.4261 0.274496 12.6935 1.40868C8.96083 2.54287 5.73824 4.93425 3.57556 8.1748C1.41288 11.4153 0.444121 15.3043 0.834578 19.178C1.22503 23.0518 2.95051 26.6703 5.7166 29.4162C7.27348 30.9719 9.12288 32.2055 11.1587 33.0463C13.1945 33.8871 15.3767 34.3185 17.58 34.3158" fill="white"/>
<mask id="mask0_987_1511" style="mask-type:luminance" maskUnits="userSpaceOnUse" x="3" y="3" width="29" height="29">
<path d="M8.39369 13.3542C8.61142 13.3588 8.82294 13.4274 9.0017 13.5516C9.18045 13.6757 9.31846 13.8498 9.39841 14.0519C9.47835 14.254 9.49666 14.4752 9.45104 14.6877C9.40542 14.9002 9.2979 15.0945 9.14198 15.2462C8.98607 15.3979 8.78871 15.5003 8.57468 15.5405C8.36065 15.5806 8.13949 15.5568 7.93899 15.472C7.73848 15.3872 7.56755 15.2451 7.44767 15.0637C7.32779 14.8823 7.2643 14.6696 7.26517 14.4523C7.26561 14.2487 7.32207 14.0491 7.42839 13.8753C7.32784 13.9199 7.22079 13.9482 7.11128 13.9591C6.64495 16.8439 9.55018 16.2856 9.55018 16.2856C10.6134 16.0204 16.0788 9.82721 16.0788 9.82721L15.6591 9.45031C15.0156 8.88265 15.4026 8.91987 15.4026 8.91987L18.2006 11.4232L17.3425 11.3767C14.6332 15.1642 12.1663 16.36 11.1637 16.709C6.50039 17.7327 6.50039 14.6524 6.50039 14.6524L3.16614 17.3185C9.77402 22.4368 12.3248 25.3124 13.3088 26.7641C13.3116 26.5468 13.3786 26.3352 13.5015 26.1558C13.6244 25.9764 13.7977 25.8372 13.9996 25.7558C14.2015 25.6743 14.423 25.6542 14.6364 25.6979C14.8497 25.7416 15.0453 25.8473 15.1987 26.0016C15.352 26.1559 15.4563 26.352 15.4983 26.5652C15.5404 26.7784 15.5183 26.9993 15.435 27.2001C15.3517 27.4008 15.2107 27.5726 15.0299 27.6937C14.8491 27.8148 14.6364 27.8799 14.4187 27.8809C14.215 27.8821 14.015 27.8273 13.8404 27.7227C13.8877 27.8204 13.9162 27.9262 13.9243 28.0344C16.8203 28.4671 16.228 25.5869 16.228 25.5869C15.9529 24.526 9.69941 19.1053 9.69941 19.1053L9.32168 19.5287C8.75276 20.1801 8.79007 19.7893 8.79007 19.7893L11.3549 17.0533V16.9928L11.5554 17.0347V17.8676C14.913 20.4361 16.2187 22.7021 16.685 23.8002C17.7249 28.4857 14.6285 28.4857 14.6285 28.4857L17.2819 31.8266C22.4349 25.2286 25.3121 22.6648 26.7671 21.6831C26.5493 21.6803 26.3372 21.6134 26.1574 21.4908C25.9776 21.3682 25.8381 21.1953 25.7565 20.9938C25.6748 20.7923 25.6546 20.5713 25.6985 20.3584C25.7423 20.1456 25.8482 19.9504 26.0028 19.7974C26.1575 19.6443 26.354 19.5403 26.5677 19.4984C26.7814 19.4564 27.0027 19.4784 27.2039 19.5615C27.4052 19.6447 27.5773 19.7853 27.6987 19.9657C27.82 20.1461 27.8853 20.3583 27.8862 20.5756C27.8896 20.7777 27.8345 20.9763 27.7277 21.148C27.8282 21.1033 27.9353 21.0751 28.0448 21.0642C28.4785 18.1793 25.5919 18.7703 25.5919 18.7703C24.524 19.0448 19.0959 25.2845 19.0959 25.2845L19.5156 25.6614C20.1685 26.2244 19.7768 26.1918 19.7768 26.1918L17.3425 23.9165L17.2073 23.4512L17.6736 23.735C19.87 20.692 23.3629 18.5655 23.7872 18.3189L23.8292 18.291C28.679 17.2022 28.623 20.3523 28.623 20.3523L31.9899 17.7327C25.4194 12.5585 22.8965 9.669 21.9219 8.20796C21.9173 8.42522 21.8485 8.63627 21.7241 8.81463C21.5997 8.99299 21.4252 9.1307 21.2226 9.21046C21.0201 9.29023 20.7984 9.3085 20.5854 9.26298C20.3725 9.21746 20.1777 9.11018 20.0257 8.95461C19.8736 8.79904 19.7711 8.60211 19.7308 8.38855C19.6905 8.175 19.7144 7.95433 19.7994 7.75426C19.8844 7.5542 20.0268 7.38365 20.2086 7.26403C20.3904 7.14442 20.6036 7.08107 20.8214 7.08193C21.0535 7.07603 21.2837 7.12548 21.4929 7.22618C21.4589 7.11403 21.3981 7.01182 21.3157 6.92839C18.4244 6.46309 18.984 9.36191 18.984 9.36191C19.2498 10.4228 25.4567 15.8761 25.4567 15.8761L25.8344 15.462C26.4033 14.8152 26.366 15.2014 26.366 15.2014L23.7825 17.9188L23.7126 17.2348C21.535 15.7575 19.7518 13.7721 18.5177 11.4511C16.9788 7.09124 20.9846 6.50496 20.9846 6.50496L17.9581 3.30835C12.7539 9.87374 9.88128 12.3817 8.39369 13.3542Z" fill="white"/>
</mask>
<g mask="url(#mask0_987_1511)">
<path d="M31.9899 3.30835H3.16614V31.8033H31.9899V3.30835Z" fill="url(#paint0_linear_987_1511)"/>
</g>
<mask id="mask1_987_1511" style="mask-type:luminance" maskUnits="userSpaceOnUse" x="11" y="11" width="13" height="13">
<path d="M11.3362 16.6442C11.4584 16.8207 11.5418 17.0209 11.5812 17.2317C11.6206 17.4426 11.615 17.6593 11.5647 17.8679C11.5647 17.8679 15.2114 20.5155 16.6944 23.8005C16.6944 23.8005 16.8203 23.1584 17.683 23.7539C19.3503 21.5742 21.4228 19.7354 23.7872 18.3378L23.7219 17.263C21.5674 15.7452 19.7877 13.7578 18.5177 11.4514L18.2099 11.4142L17.3425 11.377C17.3425 11.377 14.6612 15.3692 11.3269 16.6442" fill="white"/>
</mask>
<g mask="url(#mask1_987_1511)">
<path d="M23.7836 11.377H11.3373V23.8005H23.7836V11.377Z" fill="url(#paint1_linear_987_1511)"/>
</g>
<path d="M20.606 17.9328C20.612 17.894 20.6037 17.8543 20.5827 17.8211C20.3611 17.5407 20.1863 17.2265 20.065 16.8905C20.0231 16.7091 20.0044 16.2763 20.2749 16.2159C20.5454 16.1554 20.6759 16.4997 20.62 16.7277C20.564 16.9557 20.8998 17.0348 20.9511 16.8207C21.0097 16.6864 21.026 16.5374 20.9977 16.3936C20.9693 16.2498 20.8978 16.118 20.7925 16.0158C20.6978 15.952 20.5913 15.9076 20.4792 15.8853C20.3671 15.8629 20.2517 15.863 20.1396 15.8855C19.8188 15.8035 19.5065 15.6914 19.207 15.5505C19.0111 15.4341 18.8246 15.2527 18.8992 15.0107C18.916 14.93 18.9643 14.8592 19.0333 14.8138C19.1024 14.7685 19.1866 14.7523 19.2676 14.7688C19.4588 14.8246 19.4495 15.0386 19.4448 15.2062C19.4516 15.2475 19.4729 15.2852 19.505 15.3123C19.537 15.3395 19.5777 15.3544 19.6197 15.3544C19.6617 15.3544 19.7024 15.3395 19.7344 15.3123C19.7665 15.2852 19.7878 15.2475 19.7946 15.2062C19.7946 14.8432 19.7106 14.4617 19.2956 14.4198C19.1657 14.4065 19.0347 14.43 18.9176 14.4876C18.8004 14.5452 18.702 14.6346 18.6334 14.7455H18.5914C18.2948 14.9107 17.9612 14.9987 17.6215 15.0014C17.4847 15.0103 17.3479 14.983 17.2251 14.9223C17.1843 14.9016 17.1488 14.8719 17.1212 14.8355C17.0936 14.7991 17.0745 14.757 17.0656 14.7122C17.0566 14.6674 17.0579 14.6212 17.0694 14.577C17.0808 14.5328 17.1022 14.4918 17.1318 14.457C17.323 14.4198 17.4209 14.457 17.4256 14.6199C17.438 14.6643 17.4675 14.702 17.5078 14.7247C17.5277 14.7359 17.5496 14.7431 17.5723 14.7459C17.595 14.7487 17.6181 14.747 17.6401 14.7409C17.6622 14.7347 17.6828 14.7244 17.7008 14.7103C17.7188 14.6962 17.7339 14.6788 17.7452 14.6589C17.7564 14.639 17.7637 14.6171 17.7664 14.5945C17.7692 14.5718 17.7675 14.5488 17.7614 14.5268C17.6821 14.2197 17.4303 13.8847 17.0712 14.0615C16.9531 14.1287 16.8582 14.23 16.7991 14.3522C16.74 14.4743 16.7194 14.6115 16.7401 14.7455C16.5158 14.9659 16.3256 15.2184 16.1759 15.4946C16.0669 15.6957 15.8877 15.8497 15.6722 15.9274C15.615 15.9385 15.556 15.9368 15.4995 15.9223C15.443 15.9078 15.3905 15.8809 15.3458 15.8436C15.2898 15.7328 15.2766 15.6053 15.3085 15.4853C15.3085 15.383 15.3924 15.3178 15.5277 15.2992C15.6676 15.4714 15.91 15.2294 15.7701 15.0573C15.2805 14.4477 14.5903 15.6901 15.1686 16.1414L15.2432 16.1972C15.2875 16.523 15.2875 16.8533 15.2432 17.179C15.2012 17.3884 15.1126 17.6443 14.8515 17.6118C14.6883 17.6118 14.3851 17.3465 14.5903 17.1976C14.7955 17.0487 14.5903 16.7649 14.4178 16.8998C13.9188 17.2721 14.3385 17.9793 14.8841 17.9561H15.01C15.1383 18.1845 15.28 18.4051 15.4344 18.6168C15.5594 18.7785 15.6296 18.9757 15.6349 19.1798C15.6349 19.3008 15.5416 19.5102 15.3691 19.4823C15.3178 19.4823 15.1499 19.2775 15.2572 19.231C15.4577 19.1426 15.2852 18.8448 15.08 18.9332C14.8748 19.0216 14.8235 19.459 14.9541 19.6451C15.0519 19.7474 15.181 19.8144 15.3212 19.8354C15.4613 19.8565 15.6045 19.8305 15.7282 19.7614C15.8242 19.7034 15.8981 19.6149 15.938 19.5102H15.966C16.3383 19.5083 16.7046 19.6029 17.0292 19.7847C17.1162 19.8591 17.1818 19.9551 17.2195 20.0629C17.2572 20.1708 17.2655 20.2867 17.2437 20.3989C17.2447 20.474 17.2253 20.5479 17.1878 20.6129L16.9639 20.7293C16.8287 20.706 16.908 20.464 16.9266 20.3942C16.9966 20.1849 16.6608 20.0918 16.5955 20.3058C16.5023 20.6036 16.5116 20.9619 16.8707 21.0596C16.9529 21.0749 17.0374 21.0728 17.1188 21.0536C17.2002 21.0344 17.2767 20.9985 17.3434 20.9481C17.4101 20.8978 17.4656 20.8341 17.5062 20.7612C17.5469 20.6882 17.5718 20.6076 17.5795 20.5245C17.5795 20.4687 17.5795 20.4129 17.5795 20.3617C17.6056 20.353 17.6295 20.3387 17.6495 20.3198C17.9489 20.0363 18.2962 19.8079 18.6754 19.6451C18.9085 19.5474 19.2956 19.445 19.4075 19.8033C19.4359 19.9265 19.4176 20.0557 19.3562 20.1663C19.2676 20.3663 19.137 20.3803 18.9645 20.2128C18.9878 19.9941 18.6427 19.9941 18.6194 20.2128C18.6137 20.2915 18.6282 20.3704 18.6615 20.442C18.6947 20.5136 18.7457 20.5756 18.8096 20.6221C18.8735 20.6687 18.9482 20.6982 19.0267 20.708C19.1052 20.7178 19.1849 20.7075 19.2583 20.6781C19.4264 20.6102 19.5669 20.4881 19.6574 20.3312C19.7478 20.1744 19.783 19.9918 19.7573 19.8126C19.7486 19.745 19.7297 19.6791 19.7013 19.6172C19.7087 19.5913 19.7087 19.5639 19.7013 19.5381C19.6958 19.2167 19.7644 18.8983 19.9018 18.6075C19.9811 18.4446 20.1257 18.2539 20.3262 18.2539C20.3914 18.2533 20.4544 18.2771 20.5029 18.3206C20.5514 18.364 20.5818 18.424 20.5883 18.4887C20.5947 18.5535 20.5766 18.6182 20.5376 18.6703C20.4986 18.7225 20.4415 18.7581 20.3775 18.7704C20.1583 18.8169 20.2516 19.1519 20.4707 19.1054C20.6076 19.0907 20.7354 19.0301 20.8332 18.9333C20.9309 18.8366 20.9927 18.7095 21.0085 18.5731C21.0242 18.4366 20.9929 18.2989 20.9198 18.1825C20.8466 18.0661 20.736 17.9781 20.606 17.9328ZM19.6453 18.3981C19.5066 18.6781 19.4197 18.9807 19.3889 19.2915C19.2428 19.2259 19.0814 19.2018 18.9225 19.2217C18.3991 19.3339 17.9206 19.5977 17.5469 19.9801C17.3463 19.4218 16.6142 19.2496 15.9893 19.1891C15.9895 19.1169 15.9801 19.0449 15.9613 18.9751C15.8541 18.5098 15.495 18.212 15.2945 17.8025C15.6349 17.4908 15.6116 16.8114 15.5743 16.3275C16.1199 16.3275 16.5069 15.4946 16.8614 15.1038C17.2064 15.5226 17.9992 15.369 18.5028 15.1689C18.5028 15.7552 19.2583 15.9786 19.7852 16.1507C19.684 16.3702 19.6453 16.6133 19.6733 16.8533C19.7649 17.2394 19.9418 17.6003 20.1909 17.9095C20.0669 17.9416 19.9512 17.9996 19.8515 18.0799C19.7517 18.1601 19.6703 18.2607 19.6127 18.3748" fill="#9F212C"/>
<path d="M20.3448 15.411C20.3448 15.4634 20.3293 15.5147 20.3001 15.5583C20.2708 15.6019 20.2293 15.6359 20.1808 15.656C20.1322 15.6761 20.0787 15.6813 20.0272 15.6711C19.9756 15.6609 19.9283 15.6356 19.8911 15.5985C19.8539 15.5614 19.8286 15.5142 19.8183 15.4627C19.8081 15.4113 19.8133 15.3579 19.8335 15.3095C19.8536 15.261 19.8877 15.2196 19.9314 15.1904C19.9751 15.1613 20.0265 15.1458 20.079 15.1458C20.1492 15.1469 20.2161 15.1753 20.2657 15.2248C20.3153 15.2742 20.3436 15.341 20.3448 15.411Z" fill="#9F212C"/>
<path d="M21.1238 17.6303C21.1244 17.6653 21.1179 17.7001 21.1048 17.7326C21.0917 17.765 21.0721 17.7945 21.0473 17.8193C21.0225 17.844 20.9929 17.8635 20.9604 17.8766C20.9279 17.8897 20.893 17.8962 20.8579 17.8955C20.8204 17.9005 20.7822 17.8975 20.746 17.8865C20.7097 17.8756 20.6762 17.8571 20.6477 17.8322C20.6192 17.8073 20.5964 17.7766 20.5807 17.7422C20.5651 17.7078 20.557 17.6704 20.557 17.6327C20.557 17.5949 20.5651 17.5575 20.5807 17.5231C20.5964 17.4887 20.6192 17.458 20.6477 17.4331C20.6762 17.4082 20.7097 17.3897 20.746 17.3788C20.7822 17.3678 20.8204 17.3648 20.8579 17.3698C20.8926 17.3691 20.9271 17.3754 20.9593 17.3882C20.9915 17.4011 21.0209 17.4202 21.0456 17.4444C21.0704 17.4687 21.09 17.4976 21.1034 17.5295C21.1169 17.5614 21.1238 17.5957 21.1238 17.6303Z" fill="#9F212C"/>
<path d="M20.3091 19.7381C20.3091 19.8085 20.2811 19.8759 20.2313 19.9257C20.1814 19.9754 20.1138 20.0033 20.0433 20.0033C20.0082 20.004 19.9734 19.9975 19.9409 19.9844C19.9083 19.9713 19.8788 19.9518 19.854 19.9271C19.8291 19.9023 19.8096 19.8728 19.7965 19.8404C19.7833 19.8079 19.7769 19.7731 19.7775 19.7381C19.7775 19.6678 19.8055 19.6003 19.8554 19.5506C19.9052 19.5008 19.9728 19.4729 20.0433 19.4729C20.1134 19.4741 20.1804 19.5024 20.2299 19.5519C20.2795 19.6014 20.3079 19.6682 20.3091 19.7381Z" fill="#9F212C"/>
<path d="M18.3083 20.878C18.3083 20.9305 18.2928 20.9817 18.2636 21.0254C18.2343 21.069 18.1928 21.103 18.1443 21.123C18.0957 21.1431 18.0422 21.1484 17.9907 21.1381C17.9391 21.1279 17.8918 21.1026 17.8546 21.0656C17.8174 21.0285 17.7921 20.9812 17.7818 20.9298C17.7716 20.8783 17.7768 20.825 17.797 20.7765C17.8171 20.7281 17.8512 20.6866 17.8949 20.6575C17.9386 20.6283 17.99 20.6128 18.0425 20.6128C18.113 20.6128 18.1806 20.6407 18.2305 20.6905C18.2803 20.7402 18.3083 20.8077 18.3083 20.878Z" fill="#9F212C"/>
<path d="M16.0652 20.4222C16.0652 20.4925 16.0372 20.56 15.9873 20.6097C15.9375 20.6595 15.8699 20.6874 15.7994 20.6874C15.7289 20.6874 15.6613 20.6595 15.6114 20.6097C15.5616 20.56 15.5336 20.4925 15.5336 20.4222C15.5336 20.3519 15.5616 20.2844 15.6114 20.2347C15.6613 20.1849 15.7289 20.157 15.7994 20.157C15.8699 20.157 15.9375 20.1849 15.9873 20.2347C16.0372 20.2844 16.0652 20.3519 16.0652 20.4222Z" fill="#9F212C"/>
<path d="M14.5444 18.7145C14.5444 18.7671 14.5287 18.8186 14.4993 18.8623C14.4699 18.906 14.4281 18.94 14.3792 18.9599C14.3304 18.9799 14.2767 18.9848 14.225 18.9742C14.1733 18.9636 14.126 18.9379 14.089 18.9003C14.052 18.8628 14.0271 18.8151 14.0174 18.7633C14.0076 18.7116 14.0136 18.6581 14.0344 18.6097C14.0552 18.5613 14.09 18.5203 14.1344 18.4917C14.1787 18.4631 14.2305 18.4483 14.2833 18.4493C14.353 18.4505 14.4194 18.479 14.4682 18.5286C14.5171 18.5782 14.5444 18.6449 14.5444 18.7145Z" fill="#9F212C"/>
<path d="M14.5818 16.3878C14.5818 16.4581 14.5538 16.5256 14.504 16.5753C14.4541 16.6251 14.3865 16.653 14.316 16.653C14.2809 16.6536 14.2461 16.6472 14.2136 16.6341C14.181 16.621 14.1515 16.6015 14.1267 16.5767C14.1018 16.552 14.0823 16.5225 14.0692 16.49C14.056 16.4576 14.0496 16.4228 14.0502 16.3878C14.0502 16.3174 14.0782 16.25 14.1281 16.2002C14.1779 16.1505 14.2455 16.1226 14.316 16.1226C14.3861 16.1238 14.4531 16.1521 14.5026 16.2016C14.5522 16.251 14.5806 16.3178 14.5818 16.3878Z" fill="#9F212C"/>
<path d="M16.0837 14.6153C16.0837 14.6678 16.0682 14.7191 16.0389 14.7627C16.0097 14.8063 15.9682 14.8403 15.9197 14.8604C15.8711 14.8804 15.8176 14.8857 15.7661 14.8754C15.7145 14.8652 15.6672 14.8399 15.63 14.8029C15.5928 14.7658 15.5675 14.7185 15.5572 14.6671C15.547 14.6156 15.5522 14.5623 15.5724 14.5138C15.5925 14.4654 15.6265 14.4239 15.6703 14.3948C15.714 14.3657 15.7654 14.3501 15.8179 14.3501C15.8884 14.3501 15.956 14.378 16.0059 14.4278C16.0557 14.4775 16.0837 14.545 16.0837 14.6153Z" fill="#9F212C"/>
<path d="M18.3684 14.215C18.3673 14.2849 18.3389 14.3517 18.2893 14.4012C18.2397 14.4507 18.1728 14.479 18.1026 14.4802C18.0321 14.4802 17.9645 14.4522 17.9147 14.4025C17.8648 14.3528 17.8368 14.2853 17.8368 14.215C17.8362 14.18 17.8426 14.1452 17.8558 14.1127C17.8689 14.0803 17.8885 14.0508 17.9133 14.026C17.9381 14.0013 17.9676 13.9818 18.0002 13.9687C18.0327 13.9555 18.0676 13.9491 18.1026 13.9497C18.1731 13.9497 18.2407 13.9777 18.2906 14.0274C18.3404 14.0772 18.3684 14.1446 18.3684 14.215Z" fill="#9F212C"/>
<defs>
<linearGradient id="paint0_linear_987_1511" x1="3.30072" y1="18.3331" x2="32.1245" y2="18.3331" gradientUnits="userSpaceOnUse">
<stop stop-color="#C4843E"/>
<stop offset="0.18" stop-color="#E7B164"/>
<stop offset="0.32" stop-color="#FFD17F"/>
<stop offset="0.68" stop-color="#FCEB9E"/>
<stop offset="1" stop-color="#F9CE6E"/>
</linearGradient>
<linearGradient id="paint1_linear_987_1511" x1="11.5291" y1="18.6238" x2="23.9755" y2="18.6238" gradientUnits="userSpaceOnUse">
<stop stop-color="#ECBE62"/>
<stop offset="0.13" stop-color="#FFF7D1"/>
<stop offset="0.23" stop-color="#ECBE62"/>
<stop offset="0.35" stop-color="#FEE58B"/>
<stop offset="0.47" stop-color="#FFDAA6"/>
<stop offset="0.59" stop-color="#ECBE62"/>
<stop offset="0.73" stop-color="#FEE58B"/>
<stop offset="0.86" stop-color="#ECBE62"/>
<stop offset="1" stop-color="#FFF7D1"/>
</linearGradient>
</defs>
</svg>
