<svg width="205" height="45" viewBox="0 0 205 45" fill="none" xmlns="http://www.w3.org/2000/svg">
<path fill-rule="evenodd" clip-rule="evenodd" d="M195.494 20.1751C195.516 20.2107 195.542 20.244 195.571 20.2746C195.98 20.7646 196.502 21.1487 197.092 21.3942C197.682 21.6397 198.323 21.7394 198.96 21.6848C200.352 21.6178 201.709 21.2292 202.924 20.5496C203.183 20.4101 203.434 20.2558 203.675 20.0874L204.543 19.5022L205 20.456L204.854 20.6432C204.371 21.2495 203.829 21.8062 203.235 22.305C202.607 22.8578 201.932 23.3551 201.218 23.7912C200.557 24.1753 199.844 24.463 199.101 24.6455C198.325 24.8452 197.527 24.9436 196.726 24.938C195.901 24.9519 195.079 24.8435 194.286 24.6162C193.61 24.4195 192.985 24.0758 192.457 23.6098C192.014 23.2068 191.62 22.7532 191.284 22.2582C190.956 21.7824 190.694 21.2648 190.504 20.7193C189.933 19.0209 189.848 17.1973 190.258 15.4532C190.628 13.7162 191.493 12.123 192.75 10.8658C193.604 10.0266 194.611 9.35917 195.717 8.89979C196.816 8.4555 197.992 8.23085 199.177 8.2386C200.232 8.23837 201.268 8.51699 202.18 9.04607C203.08 9.59179 203.911 10.2441 204.654 10.9887L204.959 11.2812L195.494 20.1751ZM194.802 18.3027L198.233 15.0436C198.643 14.6339 198.901 14.0976 198.966 13.5223C199.014 13.1824 198.994 12.8363 198.907 12.5042C198.828 12.2127 198.674 11.9467 198.462 11.7318C198.221 11.5144 197.917 11.3792 197.594 11.3456C197.326 11.3121 197.053 11.338 196.796 11.4217C196.199 11.6882 195.725 12.1713 195.471 12.7733C195.118 13.5576 194.892 14.3931 194.802 15.2484C194.653 16.261 194.653 17.2901 194.802 18.3027Z" fill="white"/>
<path fill-rule="evenodd" clip-rule="evenodd" d="M182.159 12.4624C181.543 12.4624 180.857 13.1821 180.505 13.5975C179.63 14.6931 178.894 15.8918 178.312 17.1668L178.347 21.4031C178.384 21.8954 178.316 22.3899 178.148 22.8542C177.891 23.3365 177.508 23.7407 177.04 24.0244C176.678 24.2738 176.284 24.4708 175.867 24.6096C175.392 24.7645 174.903 24.8704 174.407 24.9255L173.926 24.984V12.3219C173.934 12.216 173.905 12.1104 173.844 12.0235C173.771 11.9689 173.683 11.9382 173.592 11.9358H173.527C173.203 11.9569 172.89 12.0618 172.618 12.24L172.143 10.7655C173.109 9.98835 174.117 9.26557 175.163 8.60056C175.349 8.48886 175.546 8.39483 175.75 8.3197C175.938 8.25158 176.136 8.21596 176.336 8.21437C176.696 8.20972 177.049 8.32273 177.339 8.53619C177.614 8.75253 177.818 9.04592 177.925 9.37877C178.136 10.1731 178.265 10.9867 178.312 11.807C178.347 12.3395 178.371 12.8661 178.377 13.3986C178.576 13.0943 178.787 12.8135 178.998 12.5033C179.209 12.1932 179.508 11.8421 179.784 11.5086C180.06 11.1868 180.371 10.8767 180.64 10.5666C180.91 10.2565 181.227 9.98145 181.573 9.68304C181.892 9.39619 182.235 9.13775 182.599 8.91067C182.934 8.7056 183.29 8.5369 183.66 8.40747L183.936 8.3314L184.223 8.26118C184.417 8.22505 184.613 8.20547 184.81 8.20267C185.145 8.19738 185.477 8.26718 185.781 8.40693C186.086 8.54668 186.355 8.75281 186.569 9.01014C186.956 9.49463 187.216 10.0678 187.325 10.6777C187.422 11.1277 187.469 11.5868 187.466 12.0469V21.719C187.466 22.0877 187.601 22.2047 187.971 22.0701C188.534 21.8088 189.058 21.4679 189.525 21.0579L190.07 22.1813C188.991 23.3515 187.513 24.908 185.748 24.908C185.387 24.9098 185.03 24.8351 184.701 24.6888C184.371 24.5426 184.076 24.3281 183.836 24.0595C183.331 23.4963 183.051 22.7674 183.05 22.0116V14.0656C183.053 13.6853 182.958 13.3107 182.775 12.9773C182.652 12.7411 182.442 12.5624 182.188 12.4799L182.159 12.4624Z" fill="white"/>
<path fill-rule="evenodd" clip-rule="evenodd" d="M167.973 21.9075C165.358 24.523 161.657 25.4182 157.969 25.4182C154.656 25.4182 151.143 24.523 148.586 22.4458C147.43 21.4904 146.492 20.2999 145.833 18.9539C145.175 17.6079 144.812 16.1373 144.769 14.6402C144.739 14.2482 144.728 13.8445 144.728 13.47C144.728 9.92998 145.789 6.44849 148.399 3.85054C150.788 1.54219 153.948 0.196034 157.271 0.0706382C157.582 0.0706382 157.898 0.0413818 158.215 0.0413818C166.454 0.0413818 171.445 3.9032 171.445 11.9779C171.445 15.5413 170.635 19.251 167.973 21.925M149.554 12.7327C149.554 18.0749 153.131 23.1831 158.297 23.1831C163.464 23.1831 167.041 18.0749 167.041 12.7327C167.041 7.39054 163.469 2.28241 158.297 2.28241C153.125 2.28241 149.554 7.39054 149.554 12.7327Z" fill="white"/>
<path fill-rule="evenodd" clip-rule="evenodd" d="M80.6904 20.1748L80.7666 20.2801C81.1775 20.7695 81.7008 21.1527 82.2919 21.3972C82.883 21.6417 83.5246 21.7402 84.162 21.6844C85.5513 21.6142 86.9057 21.2258 88.1203 20.5492C88.3783 20.403 88.6364 20.2508 88.8768 20.0811L89.7388 19.496L90.2021 20.4498L90.0496 20.6429C89.5674 21.2477 89.0273 21.8042 88.437 22.3046C87.8079 22.8561 87.133 23.3533 86.4197 23.7908C85.7552 24.1681 85.0433 24.4554 84.3027 24.6451C83.5245 24.8416 82.7246 24.9399 81.9219 24.9377C81.0969 24.9492 80.2749 24.8388 79.4824 24.61C78.8036 24.4109 78.177 24.0653 77.6469 23.5977C77.2058 23.1952 76.8123 22.7437 76.474 22.252C76.1518 21.7708 75.8899 21.252 75.6941 20.7072C75.1241 19.0084 75.0408 17.1846 75.4537 15.4411C75.8224 13.7033 76.6857 12.1084 77.9401 10.8479C78.7983 10.0117 79.807 9.34465 80.9132 8.88187C82.0098 8.43715 83.1835 8.21248 84.3672 8.22068C85.4232 8.21711 86.4605 8.49811 87.3697 9.034C88.2672 9.5809 89.0943 10.2352 89.8326 10.9825L90.1376 11.2692L80.6904 20.1748ZM80.0277 18.3024L83.4583 15.0432C83.7782 14.7124 84.0077 14.3052 84.1247 13.8606C84.2418 13.4159 84.2425 12.9488 84.1268 12.5038C84.0489 12.2134 83.8951 11.9489 83.6811 11.7373C83.4446 11.5133 83.1383 11.3769 82.8132 11.3511C82.5451 11.3118 82.2715 11.3379 82.0157 11.4272C81.4181 11.6937 80.9443 12.1768 80.6904 12.7788C80.3289 13.5593 80.0972 14.3932 80.0043 15.248C79.8519 16.2605 79.8519 17.2899 80.0043 18.3024" fill="white"/>
<path fill-rule="evenodd" clip-rule="evenodd" d="M104.117 16.3425L101.073 21.9597L99.2438 25.4704L93.4207 14.6983V14.7334L92.3592 12.9429L90.7349 10.6024L91.0515 10.2747C91.4801 9.80618 91.9448 9.37186 92.4413 8.97574C92.8091 8.63043 93.2593 8.3847 93.7491 8.26189C93.9609 8.28162 94.1665 8.34357 94.3539 8.44408C94.5413 8.54459 94.7065 8.68161 94.8398 8.84702C95.2279 9.27175 95.5609 9.74356 95.8308 10.2513C96.5639 11.5327 97.2441 12.8376 97.9244 14.1424C98.5108 15.2658 99.0972 16.3951 99.6836 17.501C99.9146 17.9194 100.173 18.3221 100.458 18.7064C100.528 18.8058 100.604 18.8995 100.681 18.9872L103.026 14.5578C102.885 14.0546 101.068 12.0067 100.634 11.7258C100.487 11.6322 100.335 11.5327 100.188 11.4274L99.8185 11.1583L100.129 10.8306C100.745 10.1913 101.393 9.58388 102.07 9.01085C102.442 8.65124 102.901 8.3933 103.401 8.26189C103.612 8.28173 103.817 8.34376 104.004 8.44429C104.19 8.54482 104.354 8.68179 104.486 8.84702C104.874 9.27307 105.209 9.74463 105.483 10.2513C106.21 11.5327 106.891 12.8376 107.571 14.1424C108.157 15.2658 108.744 16.3951 109.365 17.501C109.592 17.9206 109.849 18.3234 110.134 18.7064C110.233 18.8436 110.341 18.9745 110.456 19.0984C110.871 18.3921 111.23 17.6546 111.529 16.8925C111.897 16.1159 112.157 15.2931 112.303 14.4467C112.262 13.6934 112.003 12.9681 111.559 12.3578C111.06 11.6141 110.403 10.9888 109.635 10.5263L109.424 10.4093V9.92364L109.612 9.80662C110.033 9.47589 110.425 9.10983 110.784 8.71244C111.212 8.24874 111.673 7.81656 112.163 7.41931C112.299 7.30798 112.444 7.20817 112.597 7.1209C112.739 7.03678 112.9 6.98858 113.066 6.98047C113.213 6.98826 113.356 7.0261 113.488 7.09164C113.628 7.15846 113.763 7.2347 113.893 7.31984C114.495 7.71603 115.005 8.23686 115.388 8.84702C115.832 9.50706 116.167 10.2341 116.379 11.0003L116.42 11.1466L108.896 25.4411L108.503 24.7273L104.117 16.3425Z" fill="white"/>
<path fill-rule="evenodd" clip-rule="evenodd" d="M137.408 23.9784C137.209 24.1188 136.998 24.2534 136.781 24.3763C136.581 24.4893 136.376 24.5909 136.165 24.6805C135.964 24.7635 135.756 24.8301 135.543 24.8795C135.351 24.9238 135.154 24.9473 134.957 24.9497C134.529 24.9574 134.105 24.8715 133.714 24.6981C133.357 24.5294 133.06 24.2558 132.863 23.914C132.674 23.5843 132.537 23.2269 132.459 22.855C132.369 22.4318 132.326 22.0002 132.33 21.5677V6.6119C132.319 5.65098 132.435 4.69281 132.676 3.76235C132.869 2.98557 133.221 2.25669 133.708 1.62079C134.237 0.976245 134.958 0.517036 135.766 0.310116C136.573 0.109338 137.404 0.0187923 138.235 0.0409585L142.422 0L142.082 0.585124C141.653 1.40254 140.984 2.06997 140.164 2.49848C139.397 2.85541 138.565 3.05441 137.719 3.0836C137.567 3.0836 137.42 3.0836 137.273 3.13041L136.98 3.17722C136.971 3.21572 136.971 3.25576 136.98 3.29425L136.851 20.7076C136.844 20.806 136.862 20.9047 136.904 20.9943C136.938 21.0379 136.981 21.073 137.031 21.0964C137.081 21.1198 137.136 21.1309 137.191 21.1288C137.468 21.1319 137.743 21.0904 138.006 21.006C138.723 20.7713 139.4 20.4279 140.012 19.9878L140.088 19.9293L140.159 19.9937C140.487 20.2687 140.815 20.5437 141.155 20.8012L141.249 20.8714L140.938 21.1874C140.523 21.5903 140.084 21.9693 139.625 22.3225C138.921 22.8725 138.194 23.4284 137.461 23.9491L137.408 23.9784Z" fill="white"/>
<path fill-rule="evenodd" clip-rule="evenodd" d="M121.247 20.1748L121.317 20.2801C121.728 20.7695 122.252 21.1528 122.843 21.3972C123.434 21.6417 124.075 21.7402 124.713 21.6844C126.102 21.6157 127.457 21.2272 128.671 20.5493C128.932 20.407 129.184 20.2507 129.428 20.0812L130.296 19.496L130.753 20.4498L130.606 20.6429C130.124 21.2492 129.581 21.8059 128.988 22.3046C128.36 22.8575 127.685 23.3547 126.971 23.7909C126.307 24.1701 125.595 24.4575 124.854 24.6451C124.077 24.842 123.279 24.9403 122.479 24.9377C121.654 24.9496 120.831 24.8391 120.039 24.61C119.36 24.4124 118.733 24.0666 118.204 23.5978C117.759 23.1983 117.366 22.7463 117.031 22.252C116.695 21.7787 116.423 21.2632 116.221 20.7189C115.65 19.0207 115.564 17.1968 115.975 15.4528C116.346 13.7159 117.209 12.1217 118.462 10.8596C119.32 10.0234 120.329 9.35637 121.435 8.89358C122.533 8.44885 123.709 8.22419 124.895 8.23239C125.95 8.23141 126.987 8.51223 127.897 9.04572C128.799 9.58957 129.63 10.242 130.372 10.9883L130.677 11.275L121.247 20.1748ZM120.579 18.3024L124.009 15.0432C124.42 14.6344 124.679 14.0976 124.742 13.5219C124.791 13.1817 124.769 12.8351 124.678 12.5038C124.602 12.2125 124.448 11.9475 124.232 11.7373C123.997 11.5145 123.693 11.3783 123.37 11.3511C123.102 11.3118 122.828 11.3379 122.572 11.4272C121.973 11.6917 121.499 12.1755 121.247 12.7788C120.884 13.559 120.65 14.393 120.555 15.248C120.406 16.2607 120.406 17.2897 120.555 18.3024" fill="white"/>
<path fill-rule="evenodd" clip-rule="evenodd" d="M72.3571 20.1404V3.90317C72.3362 3.58619 72.387 3.26857 72.5057 2.97383C72.6245 2.67909 72.8082 2.41477 73.0432 2.20046C73.5776 1.8167 74.1721 1.52407 74.8025 1.33448L75.729 0.977552V0.474346L75.3009 0.316362C75.069 0.231131 74.8294 0.168427 74.5855 0.129122C74.3082 0.0832357 74.0279 0.0578113 73.7469 0.053056C73.44 0.0381685 73.1324 0.044033 72.8262 0.0706095C72.5269 0.0939119 72.2293 0.134942 71.9349 0.193485H71.8821C71.2419 0.325273 70.6252 0.552093 70.0525 0.866379C69.4997 1.16897 69.0036 1.56492 68.5864 2.03663C68.179 2.49016 67.8571 3.01349 67.6364 3.58136C67.4281 4.16543 67.323 4.78114 67.3256 5.40109V21.7553C67.333 22.6866 67.1598 23.6105 66.8154 24.4761C65.6426 26.6704 62.7105 27.7587 59.7784 27.7411C53.2047 27.706 50.6772 21.7787 55.3803 18.9935L55.2513 18.5254H54.5007C53.714 18.5224 52.9531 18.8052 52.3602 19.3212C51.7073 19.9014 51.2283 20.6508 50.9763 21.4862C50.8538 21.8677 50.7655 22.2593 50.7124 22.6564V24.4118C50.7476 24.6751 50.7945 24.9384 50.8531 25.19C50.9511 25.6198 51.0906 26.0391 51.2695 26.4422C51.8984 27.8775 52.9904 29.0618 54.3716 29.8066C55.9242 30.6108 57.6542 31.0131 59.4031 30.9769H59.4676C61.2135 30.9732 62.9489 30.7089 64.6164 30.1928C66.114 29.7247 67.5076 28.9739 68.7213 27.981C69.8542 27.0461 70.7638 25.8707 71.3836 24.5405C72.0016 23.1759 72.3233 21.6963 72.3278 20.1989V20.1462L72.3571 20.1404Z" fill="white"/>
<path fill-rule="evenodd" clip-rule="evenodd" d="M51.8694 40.3382C51.8566 40.6904 51.9157 41.0415 52.043 41.3703C52.1703 41.699 52.3631 41.9986 52.6099 42.2508C52.8566 42.503 53.1521 42.7026 53.4784 42.8375C53.8047 42.9724 54.1551 43.0398 54.5083 43.0356C55.0845 43.0391 55.6418 42.8308 56.074 42.4505C56.074 42.4505 56.074 42.5617 56.074 42.667V42.9186H56.9067V40.2036H55.2354V41.0286H56.0623V41.6137C55.6943 41.9534 55.2146 42.1469 54.7135 42.1579C54.469 42.1672 54.2252 42.1255 53.9978 42.0355C53.7703 41.9455 53.5642 41.8091 53.3926 41.6351C53.2209 41.4611 53.0876 41.2533 53.001 41.0249C52.9144 40.7966 52.8765 40.5527 52.8897 40.3089C52.8782 40.0662 52.9185 39.8238 53.008 39.5979C53.0975 39.3719 53.2341 39.1675 53.4088 38.9982C53.5835 38.8289 53.7922 38.6985 54.0212 38.6158C54.2502 38.5331 54.4941 38.4999 54.737 38.5184C55.2579 38.5204 55.7634 38.6954 56.1737 39.0158L56.6604 38.3136C56.0929 37.8563 55.3778 37.6212 54.649 37.6525C54.288 37.639 53.9281 37.6987 53.5909 37.8278C53.2537 37.957 52.9462 38.153 52.687 38.404C52.4278 38.6549 52.2222 38.9557 52.0827 39.2882C51.9432 39.6206 51.8726 39.9778 51.8752 40.3382M58.0092 40.3382C58.0092 41.0753 58.3026 41.7822 58.825 42.3035C59.3474 42.8247 60.0559 43.1175 60.7947 43.1175C61.5334 43.1175 62.2419 42.8247 62.7643 42.3035C63.2867 41.7822 63.5801 41.0753 63.5801 40.3382C63.5801 39.6011 63.2867 38.8941 62.7643 38.3729C62.2419 37.8517 61.5334 37.5588 60.7947 37.5588C60.0559 37.5588 59.3474 37.8517 58.825 38.3729C58.3026 38.8941 58.0092 39.6011 58.0092 40.3382ZM59.0178 40.3382C59.0178 39.868 59.205 39.417 59.5382 39.0845C59.8715 38.752 60.3234 38.5653 60.7947 38.5653C61.2659 38.5653 61.7179 38.752 62.0511 39.0845C62.3843 39.417 62.5715 39.868 62.5715 40.3382C62.5715 40.8084 62.3843 41.2593 62.0511 41.5918C61.7179 41.9243 61.2659 42.1111 60.7947 42.1111C60.3234 42.1111 59.8715 41.9243 59.5382 41.5918C59.205 41.2593 59.0178 40.8084 59.0178 40.3382ZM64.9524 42.9771H68.2598V42.1345H65.9141V37.7402H64.9348L64.9524 42.9771ZM69.415 42.9771H71.2563C72.9159 42.9771 74.0008 42.0116 74.0008 40.3674C74.0008 38.7232 72.9159 37.7695 71.2563 37.7695H69.415V42.9771ZM70.3943 42.1638V38.5535H71.2036C71.6795 38.5535 72.1359 38.7422 72.4724 39.078C72.809 39.4137 72.998 39.8692 72.998 40.344C72.998 40.8189 72.809 41.2743 72.4724 41.6101C72.1359 41.9459 71.6795 42.1345 71.2036 42.1345L70.3943 42.1638ZM77.1557 41.2919H79.4427V40.4435H77.1557V41.2919ZM82.9378 42.9771H84.7733C86.4328 42.9771 87.5177 42.0116 87.5177 40.3674C87.5177 38.7232 86.4328 37.7695 84.7733 37.7695H82.9378V42.9771ZM83.9171 42.1638V38.5535H84.7205C85.1964 38.5535 85.6528 38.7422 85.9894 39.078C86.3259 39.4137 86.5149 39.8692 86.5149 40.344C86.5149 40.8189 86.3259 41.2743 85.9894 41.6101C85.6528 41.9459 85.1964 42.1345 84.7205 42.1345L83.9171 42.1638ZM88.9193 42.9771H89.8986V37.7695H88.9193V42.9771ZM94.7834 42.9771H95.7921L93.8921 37.7695H92.8717L90.9717 42.9771H91.9804L92.4378 41.643H94.326L94.7834 42.9771ZM93.3936 38.6706C93.3936 38.6706 93.5109 39.1855 93.6047 39.478L94.0856 40.8706H92.6723L93.1532 39.478C93.2588 39.1855 93.376 38.6706 93.376 38.6706H93.3936ZM96.6893 42.9771H97.6686L97.8973 40.0515C97.8973 39.7121 97.8973 39.2381 97.8973 39.2381C97.8973 39.2381 98.0674 39.7531 98.1964 40.0515L99.0584 42.0701H99.9146L100.788 40.0515C100.917 39.7531 101.076 39.2498 101.076 39.2498C101.076 39.2498 101.076 39.7121 101.076 40.0515L101.304 42.9771H102.278L101.844 37.7695H100.794L99.8032 40.3148C99.68 40.6249 99.5334 41.0754 99.5334 41.0754C99.5334 41.0754 99.381 40.6249 99.2578 40.3148L98.2023 37.7402H97.1584L96.6893 42.9771ZM103.527 40.3382C103.527 41.0753 103.82 41.7822 104.343 42.3035C104.865 42.8247 105.574 43.1175 106.312 43.1175C107.051 43.1175 107.76 42.8247 108.282 42.3035C108.804 41.7822 109.098 41.0753 109.098 40.3382C109.098 39.6011 108.804 38.8941 108.282 38.3729C107.76 37.8517 107.051 37.5588 106.312 37.5588C105.574 37.5588 104.865 37.8517 104.343 38.3729C103.82 38.8941 103.527 39.6011 103.527 40.3382ZM104.536 40.3382C104.536 39.868 104.723 39.417 105.056 39.0845C105.389 38.752 105.841 38.5653 106.312 38.5653C106.784 38.5653 107.236 38.752 107.569 39.0845C107.902 39.417 108.089 39.868 108.089 40.3382C108.089 40.8084 107.902 41.2593 107.569 41.5918C107.236 41.9243 106.784 42.1111 106.312 42.1111C105.841 42.1111 105.389 41.9243 105.056 41.5918C104.723 41.2593 104.536 40.8084 104.536 40.3382ZM110.47 42.9771H111.449V39.9461C111.449 39.6419 111.397 39.1445 111.397 39.1445C111.532 39.4202 111.682 39.6878 111.848 39.9461L113.877 42.9478H114.845V37.7402H113.877V40.7478C113.877 41.0579 113.93 41.5552 113.93 41.5552C113.799 41.277 113.65 41.0073 113.484 40.7478L111.444 37.7402H110.464L110.47 42.9771ZM116.61 42.9771H118.451C120.111 42.9771 121.196 42.0116 121.196 40.3674C121.196 38.7232 120.111 37.7695 118.451 37.7695H116.61V42.9771ZM117.589 42.1638V38.5535H118.399C118.874 38.5535 119.331 38.7422 119.667 39.078C120.004 39.4137 120.193 39.8692 120.193 40.344C120.193 40.8189 120.004 41.2743 119.667 41.6101C119.331 41.9459 118.874 42.1345 118.399 42.1345L117.589 42.1638ZM124.351 41.2919H126.638V40.4435H124.351V41.2919ZM130.133 42.9771H131.112V41.1515H132.209C132.442 41.1651 132.675 41.1311 132.894 41.0515C133.113 40.972 133.314 40.8486 133.484 40.6888C133.653 40.5291 133.789 40.3365 133.881 40.1227C133.973 39.909 134.021 39.6787 134.021 39.4459C134.021 39.2131 133.973 38.9827 133.881 38.769C133.789 38.5553 133.653 38.3626 133.484 38.2029C133.314 38.0432 133.113 37.9197 132.894 37.8402C132.675 37.7606 132.442 37.7266 132.209 37.7402H130.121L130.133 42.9771ZM131.112 40.3616V38.6062H132.056C132.175 38.5965 132.294 38.6126 132.406 38.6536C132.518 38.6946 132.62 38.7593 132.704 38.8434C132.788 38.9275 132.853 39.0288 132.894 39.1404C132.935 39.2521 132.951 39.3713 132.942 39.4897C132.951 39.6101 132.933 39.7309 132.891 39.8439C132.848 39.9569 132.782 40.0595 132.696 40.1445C132.611 40.2295 132.507 40.2951 132.394 40.3366C132.28 40.3781 132.159 40.3946 132.039 40.385L131.112 40.3616ZM135.17 42.9771H138.477V42.1345H136.132V37.7402H135.158L135.17 42.9771ZM142.946 42.9771H143.955L142.025 37.7402H140.999L139.105 42.9478H140.114L140.571 41.6137H142.459L142.946 42.9771ZM141.556 38.6706C141.556 38.6706 141.668 39.1855 141.767 39.478L142.248 40.8706H140.852L141.327 39.478C141.433 39.1855 141.556 38.6706 141.556 38.6706ZM145.825 42.9771H146.805V38.5535H148.564V37.7402H144.048V38.5535H145.808L145.825 42.9771ZM149.66 42.9771H150.64V37.7695H149.649L149.66 42.9771ZM152.381 42.9771H153.361V39.9461C153.361 39.6419 153.308 39.1445 153.308 39.1445C153.44 39.4206 153.589 39.6883 153.754 39.9461L155.794 42.9478H156.768V37.7402H155.794V40.7478C155.794 41.0579 155.847 41.5552 155.847 41.5552C155.713 41.2774 155.562 41.0078 155.396 40.7478L153.355 37.7402H152.376L152.381 42.9771ZM158.445 41.0754C158.445 42.2457 159.319 43.0356 160.621 43.0356C161.922 43.0356 162.796 42.2457 162.796 41.0754V37.7402H161.817V41.0696C161.828 41.2274 161.804 41.3856 161.746 41.5329C161.688 41.6801 161.598 41.8126 161.482 41.9207C161.366 42.0289 161.228 42.11 161.077 42.1581C160.926 42.2062 160.766 42.2201 160.609 42.1989C160.457 42.2149 160.304 42.1983 160.16 42.1501C160.015 42.1018 159.883 42.0231 159.772 41.9193C159.66 41.8155 159.573 41.6891 159.515 41.5485C159.457 41.4079 159.43 41.2566 159.436 41.1047V37.7695H158.445V41.0754ZM164.309 42.9478H165.288L165.517 40.0222C165.517 39.6828 165.517 39.2089 165.517 39.2089C165.517 39.2089 165.681 39.7238 165.81 40.0222L166.655 42.0526H167.511L168.414 40.0339C168.543 39.7355 168.701 39.2323 168.701 39.2323C168.701 39.2323 168.701 39.6945 168.701 40.0339L168.93 42.9595H169.904L169.47 37.7519H168.414L167.359 40.3265C167.241 40.6366 167.095 41.0871 167.095 41.0871C167.095 41.0871 166.948 40.6366 166.825 40.3265L165.769 37.7519H164.72L164.309 42.9478ZM173.27 41.2627H175.557V40.4435H173.27V41.2627ZM178.641 42.3217C179.144 42.7918 179.811 43.0478 180.5 43.0356C181.626 43.0356 182.259 42.3393 182.259 41.5084C182.259 39.8467 179.726 40.0749 179.726 39.1679C179.726 38.7993 180.084 38.5418 180.535 38.5418C180.965 38.5636 181.377 38.7237 181.708 38.9982L182.136 38.2259C181.694 37.836 181.12 37.6271 180.529 37.6408C179.492 37.6408 178.717 38.2844 178.717 39.1504C178.717 40.7536 181.263 40.5898 181.263 41.4909C181.263 41.918 180.893 42.1228 180.483 42.1228C179.985 42.0983 179.511 41.9041 179.14 41.5728L178.641 42.3217ZM183.632 42.9478H184.611V37.7402H183.632V42.9478ZM186.353 42.9478H189.66V42.1345H187.314V37.7402H186.335L186.353 42.9478ZM191.707 42.9478H192.68L194.645 37.7402H193.601L192.428 41.1339C192.322 41.4382 192.234 41.9005 192.223 41.9005C192.223 41.9005 192.123 41.4382 192.017 41.1339L190.845 37.7402H189.789L191.707 42.9478ZM195.694 42.9478H199.043V42.1345H196.697V40.7361H198.515V39.9169H196.697V38.5535H198.908V37.7402H195.677L195.694 42.9478ZM200.438 42.9478H201.418V41.0286H202.356L203.429 42.9712H204.52L203.388 41.0286C203.338 40.9361 203.277 40.8497 203.206 40.7712C203.484 40.6516 203.719 40.4515 203.881 40.1969C204.043 39.9423 204.125 39.645 204.115 39.3435C204.131 39.0454 204.055 38.7496 203.898 38.4956C203.741 38.2415 203.51 38.0413 203.236 37.9216C202.888 37.7972 202.519 37.7474 202.151 37.7753H200.391L200.438 42.9478ZM201.418 40.186V38.5535H202.162C202.925 38.5535 203.148 38.8637 203.148 39.361C203.156 39.4735 203.139 39.5865 203.099 39.6919C203.059 39.7973 202.996 39.8927 202.915 39.9714C202.834 40.05 202.737 40.11 202.63 40.1471C202.523 40.1842 202.41 40.1975 202.297 40.186H201.418Z" fill="white"/>
<path fill-rule="evenodd" clip-rule="evenodd" d="M22.1064 44.0131C16.2793 43.9977 10.6952 41.682 6.57372 37.5718C2.45226 33.4616 0.128435 27.891 0.109863 22.0768C0.126874 16.2621 2.44902 10.6902 6.56922 6.57802C10.6894 2.46581 16.2729 0.147307 22.1005 0.128784C27.9281 0.147307 33.5117 2.46581 37.6319 6.57802C41.7521 10.6902 44.0742 16.2621 44.0912 22.0768C44.0727 27.889 41.7504 33.4578 37.6315 37.5677C33.5126 41.6775 27.9314 43.9946 22.1064 44.0131Z" fill="#9F212C"/>
<path fill-rule="evenodd" clip-rule="evenodd" d="M22.1072 44.013C17.0019 44.025 12.0504 42.2694 8.0975 39.0455C4.14456 35.8217 1.43495 31.3294 0.430824 26.3348C-0.573302 21.3402 0.190257 16.1527 2.59127 11.6571C4.99228 7.16145 8.88202 3.63621 13.597 1.68262C18.312 -0.27098 23.5603 -0.531922 28.4466 0.944299C33.3329 2.42052 37.5546 5.54246 40.3916 9.77763C43.2286 14.0128 44.5053 19.0989 44.0037 24.1683C43.5022 29.2378 41.2536 33.9767 37.6414 37.5766C35.6032 39.6156 33.1821 41.2336 30.5166 42.338C27.851 43.4424 24.9934 44.0116 22.1072 44.013ZM22.1072 43.147C27.0139 43.1537 31.771 41.4614 35.5666 38.3588C39.3623 35.2562 41.9615 30.9356 42.9206 26.1342C43.8797 21.3327 43.1394 16.348 40.826 12.0304C38.5125 7.71287 34.7693 4.33005 30.235 2.45915C25.7007 0.58824 20.6562 0.345184 15.9623 1.77145C11.2684 3.19771 7.21594 6.20492 4.49633 10.28C1.77672 14.355 0.55849 19.2454 1.0495 24.1167C1.54051 28.988 3.71032 33.5384 7.18874 36.9915C9.14654 38.9478 11.4722 40.4991 14.0323 41.5564C16.5924 42.6137 19.3365 43.1562 22.1072 43.1529" fill="white"/>
<mask id="mask0_387_208" style="mask-type:luminance" maskUnits="userSpaceOnUse" x="3" y="4" width="38" height="37">
<path d="M10.5552 16.7926C10.829 16.7984 11.095 16.8847 11.3198 17.0408C11.5446 17.1969 11.7181 17.4158 11.8186 17.67C11.9192 17.9242 11.9422 18.2024 11.8848 18.4695C11.8275 18.7367 11.6923 18.9811 11.4962 19.1719C11.3001 19.3627 11.0519 19.4914 10.7828 19.5419C10.5136 19.5924 10.2355 19.5625 9.9834 19.4558C9.73125 19.3491 9.51631 19.1705 9.36556 18.9424C9.21481 18.7143 9.13497 18.4468 9.13606 18.1735C9.13662 17.9175 9.20761 17.6665 9.34131 17.448C9.21487 17.5041 9.08025 17.5396 8.94254 17.5533C8.35612 21.1811 12.0095 20.4789 12.0095 20.4789C13.3465 20.1454 20.2194 12.3574 20.2194 12.3574L19.6916 11.8834C18.8823 11.1696 19.3691 11.2164 19.3691 11.2164L22.8876 14.3644L21.8086 14.3058C18.4015 19.0688 15.2993 20.5725 14.0385 21.0114C8.17433 22.2986 8.17433 18.4251 8.17433 18.4251L3.98145 21.7779C12.291 28.2142 15.4987 31.8303 16.736 33.6559C16.7395 33.3827 16.8238 33.1165 16.9784 32.8909C17.1329 32.6653 17.3508 32.4903 17.6047 32.3879C17.8586 32.2854 18.1372 32.2601 18.4055 32.3151C18.6737 32.3701 18.9197 32.503 19.1126 32.697C19.3054 32.891 19.4365 33.1376 19.4894 33.4057C19.5423 33.6739 19.5146 33.9516 19.4098 34.2041C19.305 34.4566 19.1278 34.6725 18.9004 34.8248C18.673 34.9771 18.4056 35.059 18.1317 35.0602C17.8756 35.0617 17.6241 34.9929 17.4046 34.8613C17.4641 34.9842 17.4999 35.1172 17.5101 35.2533C21.1518 35.7975 20.407 32.1755 20.407 32.1755C20.061 30.8415 12.1972 24.0248 12.1972 24.0248L11.7222 24.5572C11.0067 25.3764 11.0536 24.8849 11.0536 24.8849L14.2789 21.4444V21.3683L14.5311 21.421V22.4683C18.7533 25.6982 20.3953 28.5478 20.9817 29.9287C22.2894 35.8209 18.3956 35.8209 18.3956 35.8209L21.7323 40.0221C28.2122 31.725 31.8304 28.501 33.6601 27.2663C33.3862 27.2629 33.1195 27.1788 32.8934 27.0246C32.6673 26.8704 32.4919 26.6529 32.3892 26.3996C32.2865 26.1462 32.2612 25.8683 32.3163 25.6006C32.3714 25.3329 32.5046 25.0875 32.699 24.895C32.8935 24.7026 33.1406 24.5718 33.4093 24.5191C33.6781 24.4663 33.9564 24.4939 34.2095 24.5985C34.4625 24.7031 34.6789 24.8799 34.8316 25.1068C34.9842 25.3337 35.0663 25.6005 35.0675 25.8738C35.0717 26.1278 35.0025 26.3776 34.8681 26.5935C34.9945 26.5373 35.1291 26.5018 35.2668 26.4881C35.8122 22.8604 32.1823 23.6035 32.1823 23.6035C30.8394 23.9487 24.0135 31.7952 24.0135 31.7952L24.5413 32.2692C25.3622 32.9772 24.8697 32.9362 24.8697 32.9362L21.8086 30.0749L21.6385 29.4898L22.2249 29.8467C24.9869 26.02 29.3792 23.346 29.9129 23.0359L29.9656 23.0008C36.0644 21.6316 35.994 25.5929 35.994 25.5929L40.2279 22.2986C31.9653 15.7921 28.7928 12.1584 27.5672 10.3211C27.5614 10.5943 27.4749 10.8598 27.3184 11.084C27.162 11.3083 26.9426 11.4815 26.6879 11.5818C26.4331 11.6821 26.1543 11.7051 25.8865 11.6479C25.6188 11.5906 25.3739 11.4557 25.1827 11.2601C24.9915 11.0644 24.8625 10.8168 24.8118 10.5482C24.7612 10.2797 24.7912 10.0022 24.8981 9.75061C25.005 9.49903 25.184 9.28456 25.4126 9.13414C25.6413 8.98372 25.9094 8.90406 26.1832 8.90515C26.4752 8.89772 26.7647 8.95991 27.0277 9.08654C26.985 8.9455 26.9085 8.81697 26.8048 8.71206C23.169 8.12693 23.8727 11.7723 23.8727 11.7723C24.207 13.1063 32.0122 19.964 32.0122 19.964L32.4872 19.4432C33.2027 18.6299 33.1557 19.1156 33.1557 19.1156L29.907 22.5327L29.819 21.6726C27.0807 19.8148 24.8382 17.3182 23.2863 14.3995C21.3511 8.91685 26.3885 8.17959 26.3885 8.17959L22.5826 4.15979C16.0382 12.4159 12.4259 15.5697 10.5552 16.7926Z" fill="white"/>
</mask>
<g mask="url(#mask0_387_208)">
<path d="M40.2279 4.15979H3.98145V39.9928H40.2279V4.15979Z" fill="url(#paint0_linear_387_208)"/>
</g>
<mask id="mask1_387_208" style="mask-type:luminance" maskUnits="userSpaceOnUse" x="14" y="14" width="16" height="16">
<path d="M14.2554 20.9305C14.409 21.1524 14.5139 21.4042 14.5634 21.6694C14.613 21.9345 14.6059 22.2071 14.5427 22.4694C14.5427 22.4694 19.1285 25.7987 20.9933 29.9297C20.9933 29.9297 21.1517 29.1222 22.2365 29.8712C24.3332 27.1302 26.9395 24.8178 29.9127 23.0603L29.8306 21.7087C27.1213 19.8001 24.8832 17.3008 23.2862 14.4005L22.8992 14.3537L21.8084 14.3069C21.8084 14.3069 18.4365 19.3273 14.2437 20.9305" fill="white"/>
</mask>
<g mask="url(#mask1_387_208)">
<path d="M29.9078 14.3069H14.2563V29.9297H29.9078V14.3069Z" fill="url(#paint1_linear_387_208)"/>
</g>
<path d="M25.9121 22.5513C25.9196 22.5025 25.9092 22.4526 25.8828 22.4108C25.6042 22.0582 25.3844 21.663 25.2319 21.2406C25.1791 21.0124 25.1556 20.4682 25.4957 20.3922C25.8359 20.3161 26.0001 20.7491 25.9297 21.0358C25.8593 21.3225 26.2815 21.422 26.346 21.1528C26.4198 20.9839 26.4403 20.7965 26.4046 20.6156C26.369 20.4348 26.279 20.2691 26.1467 20.1406C26.0275 20.0603 25.8936 20.0046 25.7526 19.9764C25.6117 19.9483 25.4666 19.9484 25.3257 19.9767C24.9222 19.8737 24.5295 19.7326 24.1528 19.5554C23.9065 19.4092 23.672 19.181 23.7658 18.8767C23.787 18.7751 23.8476 18.6861 23.9344 18.6291C24.0213 18.572 24.1272 18.5517 24.2291 18.5724C24.4695 18.6426 24.4578 18.9118 24.4519 19.1224C24.4605 19.1745 24.4873 19.2218 24.5276 19.2559C24.5678 19.2901 24.619 19.3088 24.6718 19.3088C24.7247 19.3088 24.7758 19.2901 24.8161 19.2559C24.8564 19.2218 24.8832 19.1745 24.8917 19.1224C24.8917 18.666 24.7862 18.1862 24.2643 18.1336C24.1009 18.1169 23.9362 18.1464 23.7889 18.2189C23.6416 18.2913 23.5178 18.4037 23.4315 18.5432H23.3788C23.0057 18.7509 22.5862 18.8616 22.159 18.865C21.987 18.8762 21.815 18.8419 21.6606 18.7655C21.6093 18.7394 21.5646 18.7021 21.5299 18.6564C21.4951 18.6106 21.4712 18.5576 21.46 18.5013C21.4487 18.445 21.4503 18.3869 21.4647 18.3313C21.4792 18.2757 21.506 18.2241 21.5433 18.1804C21.7837 18.1336 21.9069 18.1804 21.9127 18.3852C21.9283 18.441 21.9654 18.4885 22.016 18.517C22.0411 18.5311 22.0687 18.5402 22.0972 18.5437C22.1258 18.5472 22.1548 18.545 22.1825 18.5373C22.2102 18.5296 22.2361 18.5166 22.2588 18.4989C22.2815 18.4812 22.3004 18.4592 22.3146 18.4342C22.3287 18.4093 22.3378 18.3817 22.3413 18.3532C22.3448 18.3247 22.3426 18.2958 22.3349 18.2682C22.2353 17.882 21.9186 17.4607 21.467 17.683C21.3186 17.7675 21.1993 17.895 21.1249 18.0485C21.0506 18.2021 21.0247 18.3746 21.0507 18.5432C20.7686 18.8203 20.5295 19.1378 20.3411 19.4852C20.2041 19.7381 19.9787 19.9317 19.7078 20.0294C19.6358 20.0434 19.5616 20.0412 19.4906 20.023C19.4196 20.0048 19.3536 19.971 19.2973 19.9241C19.2269 19.7847 19.2102 19.6244 19.2504 19.4735C19.2504 19.3448 19.3559 19.2629 19.526 19.2395C19.7019 19.456 20.0069 19.1517 19.8309 18.9352C19.2152 18.1687 18.3473 19.731 19.0745 20.2985L19.1683 20.3688C19.224 20.7784 19.224 21.1937 19.1683 21.6034C19.1155 21.8667 19.0041 22.1885 18.6757 22.1475C18.4705 22.1475 18.0893 21.814 18.3473 21.6268C18.6053 21.4395 18.3473 21.0826 18.1303 21.2523C17.5029 21.7204 18.0306 22.6098 18.7167 22.5805H18.8751C19.0363 22.8678 19.2145 23.1452 19.4087 23.4114C19.5659 23.6148 19.6542 23.8627 19.6609 24.1194C19.6609 24.2715 19.5436 24.5348 19.3266 24.4997C19.2621 24.4997 19.051 24.2423 19.1859 24.1838C19.438 24.0726 19.2211 23.6981 18.963 23.8093C18.705 23.9205 18.6405 24.4705 18.8047 24.7045C18.9277 24.8332 19.0901 24.9174 19.2664 24.9439C19.4426 24.9703 19.6226 24.9376 19.7782 24.8508C19.899 24.7778 19.9919 24.6666 20.0421 24.5348H20.0772C20.5454 24.5325 21.0061 24.6514 21.4143 24.8801C21.5236 24.9736 21.6061 25.0943 21.6535 25.2299C21.7009 25.3656 21.7114 25.5114 21.684 25.6524C21.6852 25.7468 21.6609 25.8398 21.6137 25.9216L21.3322 26.0679C21.1621 26.0386 21.2618 25.7343 21.2853 25.6466C21.3732 25.3833 20.951 25.2662 20.8689 25.5354C20.7516 25.9099 20.7633 26.3604 21.2149 26.4833C21.3183 26.5025 21.4246 26.4999 21.5269 26.4757C21.6293 26.4516 21.7255 26.4064 21.8094 26.3431C21.8933 26.2798 21.963 26.1997 22.0141 26.108C22.0652 26.0163 22.0966 25.9149 22.1062 25.8104C22.1062 25.7402 22.1062 25.67 22.1062 25.6056C22.1391 25.5948 22.1691 25.5768 22.1942 25.553C22.5708 25.1965 23.0075 24.9093 23.4843 24.7045C23.7775 24.5816 24.2643 24.4529 24.405 24.9035C24.4407 25.0583 24.4177 25.2209 24.3405 25.3599C24.2291 25.6115 24.0649 25.629 23.8479 25.4184C23.8772 25.1434 23.4433 25.1434 23.414 25.4184C23.4068 25.5174 23.425 25.6166 23.4668 25.7066C23.5087 25.7967 23.5728 25.8746 23.6531 25.9331C23.7335 25.9916 23.8274 26.0288 23.9261 26.0411C24.0248 26.0534 24.125 26.0405 24.2173 26.0035C24.4288 25.9182 24.6055 25.7646 24.7192 25.5673C24.833 25.3701 24.8772 25.1405 24.8448 24.9152C24.8339 24.8302 24.8102 24.7473 24.7744 24.6694C24.7837 24.6369 24.7837 24.6025 24.7744 24.5699C24.7676 24.1657 24.8538 23.7654 25.0266 23.3997C25.1263 23.1949 25.3081 22.955 25.5602 22.955C25.6422 22.9543 25.7215 22.9842 25.7825 23.0389C25.8434 23.0935 25.8817 23.169 25.8898 23.2503C25.8979 23.3317 25.8752 23.4132 25.8261 23.4787C25.7771 23.5443 25.7053 23.5891 25.6247 23.6045C25.3491 23.663 25.4664 24.0843 25.742 24.0258C25.9142 24.0074 26.0749 23.9311 26.1978 23.8094C26.3207 23.6878 26.3984 23.528 26.4182 23.3564C26.438 23.1848 26.3987 23.0116 26.3067 22.8653C26.2147 22.7189 26.0755 22.6082 25.9121 22.5513ZM24.7041 23.1364C24.5296 23.4884 24.4203 23.869 24.3815 24.2598C24.1979 24.1774 23.995 24.147 23.7951 24.1721C23.137 24.3131 22.5352 24.6449 22.0652 25.1258C21.813 24.4237 20.8924 24.2072 20.1066 24.1311C20.1068 24.0402 20.095 23.9497 20.0714 23.8619C19.9365 23.2768 19.485 22.9023 19.2328 22.3874C19.6609 21.9954 19.6316 21.1411 19.5846 20.5326C20.2708 20.5326 20.7575 19.4852 21.2032 18.9937C21.6371 19.5203 22.634 19.3272 23.2674 19.0756C23.2674 19.8129 24.2173 20.0937 24.88 20.3102C24.7527 20.5863 24.704 20.892 24.7393 21.1938C24.8545 21.6793 25.0769 22.1331 25.3902 22.522C25.2342 22.5623 25.0887 22.6353 24.9633 22.7362C24.8379 22.8371 24.7355 22.9636 24.663 23.1071" fill="#9F212C"/>
<path d="M25.584 19.3797C25.584 19.4456 25.5644 19.5101 25.5277 19.565C25.491 19.6198 25.4388 19.6626 25.3777 19.6878C25.3166 19.713 25.2494 19.7196 25.1846 19.7068C25.1197 19.6939 25.0602 19.6621 25.0134 19.6155C24.9667 19.5689 24.9348 19.5094 24.922 19.4447C24.9091 19.38 24.9157 19.313 24.941 19.252C24.9663 19.1911 25.0091 19.139 25.0641 19.1024C25.1191 19.0657 25.1837 19.0461 25.2498 19.0461C25.338 19.0476 25.4221 19.0833 25.4845 19.1455C25.5468 19.2077 25.5825 19.2917 25.584 19.3797Z" fill="#9F212C"/>
<path d="M26.5638 22.1703C26.5646 22.2143 26.5565 22.2581 26.5399 22.2989C26.5234 22.3397 26.4988 22.3768 26.4676 22.4079C26.4364 22.439 26.3993 22.4636 26.3584 22.4801C26.3174 22.4965 26.2736 22.5046 26.2295 22.5038C26.1823 22.5101 26.1343 22.5063 26.0887 22.4925C26.0431 22.4788 26.001 22.4555 25.9651 22.4242C25.9293 22.3929 25.9006 22.3543 25.8809 22.311C25.8613 22.2677 25.8511 22.2208 25.8511 22.1732C25.8511 22.1257 25.8613 22.0787 25.8809 22.0355C25.9006 21.9922 25.9293 21.9536 25.9651 21.9223C26.001 21.891 26.0431 21.8677 26.0887 21.854C26.1343 21.8402 26.1823 21.8364 26.2295 21.8426C26.2731 21.8419 26.3165 21.8498 26.357 21.8659C26.3975 21.882 26.4344 21.906 26.4655 21.9365C26.4966 21.967 26.5214 22.0034 26.5382 22.0436C26.5551 22.0837 26.5638 22.1268 26.5638 22.1703Z" fill="#9F212C"/>
<path d="M25.5392 24.8209C25.5392 24.9094 25.504 24.9942 25.4413 25.0568C25.3786 25.1193 25.2936 25.1545 25.2049 25.1545C25.1608 25.1553 25.117 25.1472 25.0761 25.1307C25.0352 25.1142 24.998 25.0897 24.9668 25.0585C24.9356 25.0274 24.911 24.9903 24.8945 24.9495C24.878 24.9087 24.8699 24.865 24.8707 24.8209C24.8707 24.7325 24.9059 24.6477 24.9686 24.5851C25.0312 24.5226 25.1163 24.4874 25.2049 24.4874C25.2931 24.4889 25.3772 24.5246 25.4396 24.5868C25.502 24.649 25.5377 24.733 25.5392 24.8209Z" fill="#9F212C"/>
<path d="M23.023 26.2547C23.023 26.3206 23.0034 26.3851 22.9667 26.44C22.9299 26.4948 22.8777 26.5376 22.8167 26.5628C22.7556 26.588 22.6884 26.5946 22.6235 26.5818C22.5587 26.5689 22.4991 26.5371 22.4524 26.4905C22.4056 26.4439 22.3738 26.3844 22.3609 26.3197C22.348 26.255 22.3546 26.188 22.3799 26.127C22.4052 26.0661 22.4481 26.014 22.503 25.9774C22.558 25.9407 22.6226 25.9211 22.6888 25.9211C22.7774 25.9211 22.8624 25.9563 22.9251 26.0188C22.9878 26.0814 23.023 26.1662 23.023 26.2547Z" fill="#9F212C"/>
<path d="M20.2022 25.6815C20.2022 25.77 20.167 25.8548 20.1043 25.9174C20.0416 25.9799 19.9566 26.0151 19.8679 26.0151C19.7793 26.0151 19.6943 25.9799 19.6316 25.9174C19.5689 25.8548 19.5337 25.77 19.5337 25.6815C19.5337 25.5931 19.5689 25.5083 19.6316 25.4457C19.6943 25.3832 19.7793 25.348 19.8679 25.348C19.9566 25.348 20.0416 25.3832 20.1043 25.4457C20.167 25.5083 20.2022 25.5931 20.2022 25.6815Z" fill="#9F212C"/>
<path d="M18.2901 23.5332C18.2901 23.5994 18.2703 23.6641 18.2333 23.719C18.1963 23.774 18.1438 23.8167 18.0824 23.8418C18.0209 23.8669 17.9534 23.8731 17.8884 23.8598C17.8234 23.8464 17.7639 23.8141 17.7174 23.7668C17.6709 23.7196 17.6395 23.6596 17.6273 23.5946C17.6151 23.5295 17.6225 23.4622 17.6487 23.4014C17.6749 23.3406 17.7187 23.2889 17.7744 23.253C17.8302 23.217 17.8954 23.1985 17.9617 23.1996C18.0493 23.2012 18.1329 23.237 18.1943 23.2994C18.2557 23.3617 18.2901 23.4457 18.2901 23.5332Z" fill="#9F212C"/>
<path d="M18.337 20.6079C18.337 20.6964 18.3018 20.7812 18.2391 20.8438C18.1764 20.9063 18.0914 20.9415 18.0028 20.9415C17.9587 20.9422 17.9148 20.9342 17.8739 20.9177C17.833 20.9012 17.7958 20.8767 17.7646 20.8455C17.7334 20.8144 17.7089 20.7773 17.6923 20.7365C17.6758 20.6957 17.6677 20.652 17.6685 20.6079C17.6685 20.5195 17.7037 20.4346 17.7664 20.3721C17.8291 20.3096 17.9141 20.2744 18.0028 20.2744C18.0909 20.2759 18.1751 20.3115 18.2375 20.3738C18.2998 20.436 18.3355 20.5199 18.337 20.6079Z" fill="#9F212C"/>
<path d="M20.2256 18.3784C20.2256 18.4444 20.206 18.5089 20.1693 18.5637C20.1326 18.6186 20.0804 18.6613 20.0193 18.6866C19.9582 18.7118 19.891 18.7184 19.8262 18.7056C19.7613 18.6927 19.7018 18.6609 19.655 18.6143C19.6083 18.5676 19.5764 18.5082 19.5636 18.4435C19.5507 18.3788 19.5573 18.3118 19.5826 18.2508C19.6079 18.1899 19.6507 18.1378 19.7057 18.1011C19.7607 18.0645 19.8253 18.0449 19.8914 18.0449C19.98 18.0449 20.0651 18.0801 20.1277 18.1426C20.1904 18.2052 20.2256 18.29 20.2256 18.3784Z" fill="#9F212C"/>
<path d="M23.0987 17.8757C23.0972 17.9637 23.0615 18.0476 22.9992 18.1099C22.9368 18.1721 22.8527 18.2077 22.7645 18.2092C22.6758 18.2092 22.5908 18.1741 22.5281 18.1115C22.4654 18.049 22.4302 17.9641 22.4302 17.8757C22.4294 17.8317 22.4375 17.7879 22.4541 17.7471C22.4706 17.7063 22.4952 17.6692 22.5264 17.6381C22.5576 17.607 22.5947 17.5824 22.6356 17.5659C22.6766 17.5495 22.7204 17.5414 22.7645 17.5422C22.8531 17.5422 22.9382 17.5773 23.0008 17.6399C23.0635 17.7024 23.0987 17.7872 23.0987 17.8757Z" fill="#9F212C"/>
<defs>
<linearGradient id="paint0_linear_387_208" x1="4.15069" y1="23.0537" x2="40.3972" y2="23.0537" gradientUnits="userSpaceOnUse">
<stop stop-color="#C4843E"/>
<stop offset="0.18" stop-color="#E7B164"/>
<stop offset="0.32" stop-color="#FFD17F"/>
<stop offset="0.68" stop-color="#FCEB9E"/>
<stop offset="1" stop-color="#F9CE6E"/>
</linearGradient>
<linearGradient id="paint1_linear_387_208" x1="14.4976" y1="23.4199" x2="30.1491" y2="23.4199" gradientUnits="userSpaceOnUse">
<stop stop-color="#ECBE62"/>
<stop offset="0.13" stop-color="#FFF7D1"/>
<stop offset="0.23" stop-color="#ECBE62"/>
<stop offset="0.35" stop-color="#FEE58B"/>
<stop offset="0.47" stop-color="#FFDAA6"/>
<stop offset="0.59" stop-color="#ECBE62"/>
<stop offset="0.73" stop-color="#FEE58B"/>
<stop offset="0.86" stop-color="#ECBE62"/>
<stop offset="1" stop-color="#FFF7D1"/>
</linearGradient>
</defs>
</svg>
