<svg width="1114" height="240" viewBox="0 0 1114 240" fill="none" xmlns="http://www.w3.org/2000/svg">
<path fill-rule="evenodd" clip-rule="evenodd" d="M1062.34 109.941C1062.46 110.134 1062.6 110.316 1062.76 110.482C1064.98 113.144 1067.82 115.232 1071.03 116.566C1074.23 117.9 1077.72 118.442 1081.18 118.145C1088.74 117.781 1096.11 115.669 1102.72 111.976C1104.13 111.218 1105.49 110.379 1106.8 109.464L1111.51 106.285L1114 111.467L1113.2 112.485C1110.58 115.78 1107.63 118.805 1104.41 121.515C1101 124.519 1097.33 127.221 1093.45 129.591C1089.85 131.679 1085.98 133.242 1081.94 134.234C1077.73 135.319 1073.39 135.854 1069.04 135.824C1064.55 135.899 1060.09 135.309 1055.78 134.075C1052.1 133.006 1048.71 131.138 1045.84 128.606C1043.43 126.416 1041.29 123.951 1039.46 121.261C1037.68 118.676 1036.26 115.863 1035.23 112.898C1032.12 103.669 1031.66 93.759 1033.89 84.2814C1035.9 74.8422 1040.6 66.1848 1047.43 59.3529C1052.07 54.7927 1057.54 51.1656 1063.55 48.6693C1069.53 46.2549 1075.91 45.0341 1082.36 45.0762C1088.09 45.075 1093.72 46.589 1098.67 49.4642C1103.56 52.4297 1108.08 55.9742 1112.12 60.0206L1113.78 61.6104L1062.34 109.941ZM1058.58 99.7663L1077.23 82.0556C1079.45 79.8293 1080.86 76.9147 1081.21 73.7885C1081.47 71.9415 1081.36 70.0609 1080.89 68.2559C1080.46 66.6723 1079.62 65.2266 1078.47 64.0588C1077.16 62.8777 1075.51 62.1427 1073.75 61.9602C1072.29 61.7779 1070.81 61.919 1069.42 62.3736C1066.17 63.8218 1063.6 66.4474 1062.22 69.7186C1060.3 73.9804 1059.07 78.5209 1058.58 83.1685C1057.77 88.6714 1057.77 94.2633 1058.58 99.7663Z" fill="#A0222C"/>
<path fill-rule="evenodd" clip-rule="evenodd" d="M989.879 68.0315C986.533 68.0315 982.804 71.9424 980.892 74.2C976.138 80.1535 972.135 86.6677 968.974 93.5959L969.165 116.617C969.364 119.292 968.995 121.979 968.082 124.502C966.683 127.123 964.603 129.32 962.059 130.861C960.096 132.216 957.95 133.287 955.686 134.041C953.107 134.883 950.448 135.458 947.751 135.758L945.138 136.076V67.2683C945.183 66.6925 945.025 66.1189 944.692 65.6467C944.295 65.3499 943.817 65.1832 943.321 65.1698H942.971C941.209 65.2849 939.507 65.8546 938.031 66.8232L935.45 58.8105C940.697 54.5872 946.176 50.6596 951.862 47.0458C952.874 46.4388 953.941 45.9278 955.048 45.5195C956.07 45.1493 957.148 44.9558 958.235 44.9472C960.194 44.9219 962.107 45.536 963.684 46.696C965.18 47.8716 966.289 49.4659 966.871 51.2747C968.015 55.5914 968.72 60.0123 968.974 64.4703C969.165 67.3637 969.293 70.2254 969.325 73.1189C970.408 71.4655 971.555 69.9393 972.703 68.254C973.85 66.5688 975.475 64.661 976.973 62.8486C978.47 61.0998 980.159 59.4146 981.625 57.7294C983.091 56.0442 984.812 54.5497 986.692 52.9281C988.425 51.3693 990.291 49.9649 992.269 48.731C994.088 47.6166 996.022 46.6999 998.037 45.9965L999.534 45.5831L1001.1 45.2016C1002.15 45.0052 1003.21 44.8988 1004.28 44.8836C1006.1 44.8549 1007.91 45.2342 1009.56 45.9936C1011.22 46.753 1012.68 47.8732 1013.84 49.2715C1015.95 51.9043 1017.36 55.0189 1017.95 58.3335C1018.48 60.7788 1018.73 63.2735 1018.72 65.7739V118.334C1018.72 120.337 1019.45 120.973 1021.46 120.241C1024.52 118.822 1027.37 116.969 1029.9 114.741L1032.87 120.845C1027 127.205 1018.97 135.663 1009.38 135.663C1007.42 135.673 1005.48 135.267 1003.69 134.472C1001.9 133.677 1000.3 132.511 998.993 131.052C996.248 127.992 994.728 124.03 994.723 119.923V76.7437C994.737 74.6771 994.221 72.6412 993.225 70.8296C992.56 69.546 991.415 68.5751 990.038 68.1269L989.879 68.0315Z" fill="#A0222C"/>
<path fill-rule="evenodd" clip-rule="evenodd" d="M912.791 119.352C898.578 133.565 878.47 138.43 858.426 138.43C840.421 138.43 821.333 133.565 807.439 122.278C801.158 117.086 796.058 110.617 792.481 103.302C788.903 95.9881 786.931 87.9966 786.694 79.8611C786.535 77.7308 786.471 75.5368 786.471 73.5018C786.471 54.2649 792.239 35.346 806.42 21.2283C819.403 8.6844 836.574 1.36921 854.634 0.687792C856.323 0.687792 858.044 0.528809 859.765 0.528809C904.537 0.528809 931.656 21.5145 931.656 65.3937C931.656 84.7578 927.259 104.917 912.791 119.448M812.697 69.4955C812.697 98.5257 832.136 126.284 860.211 126.284C888.285 126.284 907.724 98.5257 907.724 69.4955C907.724 40.4652 888.317 12.7069 860.211 12.7069C832.104 12.7069 812.697 40.4652 812.697 69.4955Z" fill="#A0222C"/>
<path fill-rule="evenodd" clip-rule="evenodd" d="M438.483 109.939L438.897 110.512C441.13 113.171 443.974 115.254 447.186 116.582C450.398 117.911 453.884 118.446 457.348 118.143C464.898 117.761 472.258 115.651 478.858 111.974C480.261 111.179 481.663 110.353 482.969 109.431L487.654 106.251L490.171 111.434L489.343 112.483C486.722 115.77 483.787 118.794 480.579 121.513C477.161 124.51 473.493 127.212 469.617 129.589C466.006 131.64 462.137 133.201 458.113 134.232C453.884 135.3 449.537 135.834 445.175 135.822C440.692 135.884 436.225 135.284 431.919 134.041C428.23 132.959 424.825 131.081 421.944 128.54C419.548 126.353 417.409 123.899 415.571 121.227C413.82 118.612 412.397 115.793 411.333 112.833C408.235 103.601 407.782 93.6901 410.026 84.2159C412.03 74.7721 416.721 66.1056 423.538 59.2556C428.201 54.7115 433.683 51.0868 439.694 48.572C445.653 46.1553 452.031 44.9344 458.464 44.979C464.202 44.9596 469.839 46.4866 474.779 49.3987C479.657 52.3706 484.151 55.9264 488.164 59.9869L489.821 61.5449L438.483 109.939ZM434.882 99.7644L453.524 82.0537C455.263 80.256 456.51 78.0432 457.146 75.627C457.782 73.2108 457.786 70.6721 457.157 68.254C456.734 66.676 455.898 65.2386 454.735 64.0887C453.45 62.8713 451.785 62.1306 450.019 61.9901C448.562 61.7765 447.075 61.9184 445.685 62.4034C442.438 63.8517 439.863 66.4773 438.483 69.7484C436.519 73.9897 435.26 78.5216 434.755 83.1666C433.926 88.6683 433.926 94.2626 434.755 99.7644" fill="#A0222C"/>
<path fill-rule="evenodd" clip-rule="evenodd" d="M565.788 89.111L549.249 119.636L539.307 138.714L507.663 80.1762V80.367L501.895 70.6372L493.068 57.9186L494.789 56.138C497.118 53.5919 499.643 51.2318 502.341 49.0792C504.34 47.2027 506.786 45.8673 509.448 45.2C510.599 45.3072 511.716 45.6439 512.734 46.1901C513.752 46.7362 514.65 47.4808 515.375 48.3797C517.484 50.6877 519.293 53.2516 520.76 56.0108C524.744 62.9743 528.44 70.0649 532.137 77.1555C535.323 83.2604 538.51 89.3972 541.697 95.4067C542.952 97.6804 544.358 99.8686 545.903 101.957C546.286 102.497 546.7 103.006 547.114 103.483L559.861 79.4131C559.096 76.6786 549.217 65.5498 546.859 64.0235C546.063 63.5148 545.234 62.9743 544.437 62.4019L542.43 60.9393L544.119 59.1587C547.463 55.6845 550.983 52.3839 554.667 49.27C556.687 47.3158 559.179 45.9141 561.9 45.2C563.047 45.3078 564.159 45.6449 565.172 46.1912C566.185 46.7375 567.077 47.4818 567.796 48.3797C569.905 50.6949 571.724 53.2574 573.213 56.0108C577.165 62.9743 580.861 70.0649 584.558 77.1555C587.744 83.2604 590.931 89.3972 594.309 95.4067C595.542 97.6867 596.937 99.8757 598.483 101.957C599.023 102.702 599.608 103.414 600.236 104.087C602.49 100.249 604.44 96.2411 606.068 92.0999C608.066 87.8797 609.481 83.4087 610.274 78.8089C610.048 74.7154 608.643 70.774 606.227 67.4576C603.516 63.4162 599.947 60.0187 595.775 57.5053L594.628 56.8693V54.2302L595.647 53.5943C597.938 51.7971 600.07 49.8078 602.021 47.6483C604.343 45.1285 606.846 42.78 609.509 40.6213C610.249 40.0163 611.038 39.4739 611.868 38.9997C612.643 38.5426 613.518 38.2806 614.417 38.2366C615.215 38.2789 615.996 38.4846 616.711 38.8407C617.472 39.2038 618.206 39.6181 618.91 40.0808C622.184 42.2337 624.955 45.064 627.036 48.3797C629.449 51.9664 631.267 55.9173 632.422 60.0808L632.645 60.8757L591.76 138.555L589.624 134.675L565.788 89.111Z" fill="#A0222C"/>
<path fill-rule="evenodd" clip-rule="evenodd" d="M746.698 130.609C745.615 131.372 744.467 132.103 743.288 132.771C742.206 133.385 741.088 133.937 739.942 134.424C738.848 134.875 737.718 135.237 736.564 135.505C735.519 135.746 734.451 135.874 733.378 135.887C731.053 135.928 728.747 135.462 726.622 134.52C724.682 133.603 723.07 132.116 722.001 130.259C720.972 128.467 720.23 126.525 719.802 124.504C719.314 122.204 719.079 119.859 719.101 117.508V36.2365C719.041 31.0147 719.673 25.8078 720.982 20.7516C722.034 16.5304 723.943 12.5696 726.59 9.11403C729.463 5.61146 733.382 3.11605 737.775 1.99161C742.16 0.900556 746.674 0.408517 751.191 0.528971L773.944 0.306396L772.096 3.48605C769.762 7.92803 766.127 11.5549 761.676 13.8835C757.505 15.8231 752.986 16.9045 748.387 17.0632C747.559 17.0632 746.762 17.0632 745.965 17.3175L744.372 17.5719C744.323 17.7811 744.323 17.9987 744.372 18.2078L743.671 112.834C743.633 113.369 743.732 113.905 743.958 114.392C744.14 114.63 744.378 114.82 744.649 114.947C744.921 115.074 745.219 115.135 745.519 115.124C747.022 115.14 748.518 114.915 749.948 114.456C753.844 113.181 757.52 111.315 760.847 108.923L761.261 108.605L761.644 108.955C763.428 110.45 765.213 111.944 767.061 113.343L767.571 113.725L765.882 115.442C763.622 117.631 761.239 119.691 758.744 121.61C754.92 124.599 750.968 127.62 746.985 130.45L746.698 130.609Z" fill="#A0222C"/>
<path fill-rule="evenodd" clip-rule="evenodd" d="M658.874 109.939L659.256 110.511C661.49 113.171 664.333 115.254 667.545 116.582C670.757 117.911 674.243 118.446 677.707 118.143C685.258 117.769 692.62 115.658 699.217 111.974C700.633 111.201 702.005 110.352 703.328 109.43L708.045 106.251L710.53 111.434L709.733 112.483C707.11 115.778 704.164 118.803 700.938 121.513C697.526 124.517 693.858 127.219 689.976 129.589C686.37 131.65 682.5 133.212 678.472 134.232C674.254 135.302 669.918 135.836 665.566 135.822C661.083 135.886 656.616 135.286 652.309 134.041C648.618 132.967 645.211 131.088 642.335 128.54C639.922 126.369 637.781 123.913 635.962 121.227C634.135 118.655 632.657 115.854 631.564 112.896C628.456 103.668 627.992 93.7565 630.226 84.2793C632.243 74.8406 636.933 66.1777 643.737 59.3191C648.401 54.775 653.882 51.1503 659.894 48.6354C665.864 46.2187 672.253 44.9979 678.695 45.0424C684.432 45.0371 690.065 46.5631 695.011 49.4622C699.91 52.4175 704.427 55.963 708.459 60.0186L710.116 61.5766L658.874 109.939ZM655.241 99.7642L673.883 82.0536C676.117 79.8317 677.522 76.9148 677.867 73.7865C678.132 71.9379 678.013 70.0544 677.516 68.2539C677.105 66.6711 676.267 65.2307 675.094 64.0885C673.817 62.8778 672.165 62.1375 670.41 61.99C668.953 61.7764 667.466 61.9182 666.076 62.4033C662.821 63.8408 660.243 66.4699 658.874 69.7483C656.899 73.9879 655.629 78.5198 655.114 83.1665C654.301 88.6694 654.301 94.2613 655.114 99.7642" fill="#A0222C"/>
<path fill-rule="evenodd" clip-rule="evenodd" d="M393.198 109.75V21.5147C393.085 19.7922 393.361 18.0662 394.006 16.4645C394.651 14.8628 395.65 13.4265 396.927 12.2619C399.831 10.1765 403.061 8.5863 406.487 7.55605L411.522 5.61646V2.88196L409.195 2.02345C407.935 1.56029 406.633 1.21955 405.308 1.00597C403.801 0.756612 402.278 0.618452 400.751 0.592611C399.083 0.51171 397.411 0.543579 395.748 0.687999C394.121 0.814628 392.504 1.03759 390.904 1.35572H390.617C387.138 2.07188 383.787 3.30445 380.675 5.01233C377.671 6.65664 374.975 8.80828 372.708 11.3716C370.494 13.8362 368.745 16.6801 367.546 19.7659C366.414 22.9399 365.842 26.2857 365.857 29.6546V118.526C365.897 123.587 364.955 128.607 363.084 133.311C356.711 145.235 340.777 151.149 324.844 151.054C289.121 150.863 275.387 118.653 300.944 103.518L300.243 100.974H296.164C291.889 100.958 287.754 102.495 284.532 105.299C280.985 108.452 278.381 112.524 277.012 117.063C276.346 119.136 275.866 121.265 275.578 123.423V132.962C275.769 134.392 276.024 135.823 276.343 137.19C276.875 139.526 277.633 141.805 278.605 143.995C282.023 151.795 287.957 158.231 295.463 162.278C303.9 166.648 313.301 168.834 322.805 168.637H323.155C332.642 168.617 342.073 167.181 351.134 164.376C359.273 161.833 366.846 157.752 373.441 152.357C379.597 147.277 384.54 140.889 387.908 133.661C391.266 126.246 393.015 118.205 393.039 110.068V109.782L393.198 109.75Z" fill="#A0222C"/>
<path fill-rule="evenodd" clip-rule="evenodd" d="M281.866 219.511C281.797 221.425 282.117 223.333 282.809 225.119C283.501 226.906 284.549 228.533 285.89 229.904C287.23 231.274 288.836 232.359 290.609 233.092C292.382 233.825 294.286 234.192 296.206 234.169C299.337 234.188 302.366 233.056 304.714 230.989C304.714 230.989 304.714 231.593 304.714 232.166V233.533H309.239V218.779H300.157V223.263H304.65V226.442C302.651 228.288 300.044 229.34 297.321 229.399C295.992 229.45 294.668 229.223 293.432 228.734C292.196 228.245 291.076 227.504 290.143 226.558C289.21 225.613 288.485 224.483 288.015 223.243C287.544 222.002 287.339 220.676 287.41 219.352C287.348 218.033 287.567 216.716 288.053 215.488C288.54 214.26 289.282 213.149 290.231 212.229C291.18 211.309 292.315 210.6 293.559 210.151C294.803 209.702 296.129 209.521 297.449 209.622C300.28 209.633 303.026 210.584 305.256 212.325L307.901 208.509C304.817 206.024 300.931 204.746 296.971 204.916C295.009 204.843 293.053 205.167 291.221 205.869C289.388 206.571 287.717 207.636 286.309 209C284.9 210.364 283.783 211.998 283.025 213.805C282.267 215.611 281.883 217.552 281.898 219.511M315.23 219.511C315.23 223.516 316.825 227.358 319.664 230.19C322.502 233.023 326.352 234.614 330.367 234.614C334.381 234.614 338.232 233.023 341.07 230.19C343.909 227.358 345.504 223.516 345.504 219.511C345.504 215.505 343.909 211.663 341.07 208.831C338.232 205.998 334.381 204.407 330.367 204.407C326.352 204.407 322.502 205.998 319.664 208.831C316.825 211.663 315.23 215.505 315.23 219.511ZM320.711 219.511C320.711 216.955 321.729 214.505 323.539 212.698C325.35 210.891 327.806 209.876 330.367 209.876C332.928 209.876 335.384 210.891 337.195 212.698C339.005 214.505 340.023 216.955 340.023 219.511C340.023 222.066 339.005 224.516 337.195 226.323C335.384 228.13 332.928 229.145 330.367 229.145C327.806 229.145 325.35 228.13 323.539 226.323C321.729 224.516 320.711 222.066 320.711 219.511ZM352.961 233.851H370.933V229.272H358.187V205.393H352.865L352.961 233.851ZM377.211 233.851H387.217C396.236 233.851 402.131 228.604 402.131 219.67C402.131 210.735 396.236 205.552 387.217 205.552H377.211V233.851ZM382.533 229.431V209.813H386.931C389.517 209.813 391.997 210.838 393.826 212.662C395.654 214.487 396.682 216.962 396.682 219.542C396.682 222.123 395.654 224.598 393.826 226.422C391.997 228.247 389.517 229.272 386.931 229.272L382.533 229.431ZM419.275 224.693H431.703V220.083H419.275V224.693ZM450.696 233.851H460.67C469.689 233.851 475.584 228.604 475.584 219.67C475.584 210.735 469.689 205.552 460.67 205.552H450.696V233.851ZM456.018 229.431V209.813H460.384C462.97 209.813 465.45 210.838 467.279 212.662C469.107 214.487 470.135 216.962 470.135 219.542C470.135 222.123 469.107 224.598 467.279 226.422C465.45 228.247 462.97 229.272 460.384 229.272L456.018 229.431ZM483.2 233.851H488.522V205.552H483.2V233.851ZM515.067 233.851H520.548L510.223 205.552H504.678L494.354 233.851H499.835L502.32 226.601H512.581L515.067 233.851ZM507.515 210.449C507.515 210.449 508.152 213.247 508.662 214.836L511.275 222.404H503.595L506.208 214.836C506.782 213.247 507.419 210.449 507.419 210.449H507.515ZM525.424 233.851H530.746L531.988 217.953C531.988 216.108 531.988 213.533 531.988 213.533C531.988 213.533 532.912 216.331 533.614 217.953L538.298 228.922H542.951L547.699 217.953C548.4 216.331 549.26 213.596 549.26 213.596C549.26 213.596 549.26 216.108 549.26 217.953L550.503 233.851H555.793L553.435 205.552H547.731L542.345 219.383C541.676 221.069 540.879 223.517 540.879 223.517C540.879 223.517 540.051 221.069 539.382 219.383L533.645 205.393H527.973L525.424 233.851ZM562.581 219.511C562.581 223.516 564.175 227.358 567.014 230.19C569.853 233.023 573.703 234.614 577.717 234.614C581.732 234.614 585.582 233.023 588.421 230.19C591.259 227.358 592.854 223.516 592.854 219.511C592.854 215.505 591.259 211.663 588.421 208.831C585.582 205.998 581.732 204.407 577.717 204.407C573.703 204.407 569.853 205.998 567.014 208.831C564.175 211.663 562.581 215.505 562.581 219.511ZM568.062 219.511C568.062 216.955 569.079 214.505 570.89 212.698C572.701 210.891 575.156 209.876 577.717 209.876C580.278 209.876 582.734 210.891 584.545 212.698C586.356 214.505 587.373 216.955 587.373 219.511C587.373 222.066 586.356 224.516 584.545 226.323C582.734 228.13 580.278 229.145 577.717 229.145C575.156 229.145 572.701 228.13 570.89 226.323C569.079 224.516 568.062 222.066 568.062 219.511ZM600.311 233.851H605.633V217.38C605.633 215.727 605.346 213.024 605.346 213.024C606.079 214.522 606.898 215.976 607.8 217.38L618.825 233.692H624.083V205.393H618.825V221.736C618.825 223.422 619.112 226.124 619.112 226.124C618.398 224.612 617.589 223.147 616.69 221.736L605.601 205.393H600.279L600.311 233.851ZM633.675 233.851H643.682C652.7 233.851 658.595 228.604 658.595 219.67C658.595 210.735 652.7 205.552 643.682 205.552H633.675V233.851ZM638.997 229.431V209.813H643.395C645.981 209.813 648.461 210.838 650.29 212.662C652.119 214.487 653.146 216.962 653.146 219.542C653.146 222.123 652.119 224.598 650.29 226.422C648.461 228.247 645.981 229.272 643.395 229.272L638.997 229.431ZM675.74 224.693H688.168V220.083H675.74V224.693ZM707.16 233.851H712.482V223.93H718.441C719.707 224.004 720.974 223.819 722.166 223.387C723.357 222.955 724.448 222.284 725.37 221.416C726.292 220.548 727.027 219.501 727.529 218.34C728.032 217.178 728.291 215.927 728.291 214.662C728.291 213.397 728.032 212.145 727.529 210.983C727.027 209.822 726.292 208.775 725.37 207.907C724.448 207.039 723.357 206.368 722.166 205.936C720.974 205.504 719.707 205.319 718.441 205.393H707.097L707.16 233.851ZM712.482 219.638V210.099H717.613C718.258 210.046 718.907 210.134 719.515 210.356C720.123 210.579 720.675 210.931 721.133 211.388C721.591 211.845 721.943 212.395 722.166 213.002C722.39 213.608 722.478 214.256 722.425 214.9C722.473 215.554 722.378 216.21 722.148 216.825C721.918 217.439 721.558 217.996 721.092 218.458C720.625 218.92 720.065 219.276 719.448 219.502C718.831 219.727 718.172 219.817 717.517 219.765L712.482 219.638ZM734.534 233.851H752.507V229.272H739.76V205.393H734.47L734.534 233.851ZM776.789 233.851H782.27L771.786 205.393H766.21L755.917 233.692H761.398L763.883 226.442H774.144L776.789 233.851ZM769.237 210.449C769.237 210.449 769.842 213.247 770.384 214.836L772.997 222.404H765.413L767.994 214.836C768.568 213.247 769.237 210.449 769.237 210.449ZM792.436 233.851H797.758V209.813H807.318V205.393H782.78V209.813H792.34L792.436 233.851ZM813.277 233.851H818.599V205.552H813.213L813.277 233.851ZM828.063 233.851H833.385V217.38C833.385 215.727 833.098 213.024 833.098 213.024C833.815 214.524 834.624 215.979 835.52 217.38L846.61 233.692H851.9V205.393H846.61V221.736C846.61 223.422 846.896 226.124 846.896 226.124C846.166 224.615 845.347 223.149 844.443 221.736L833.353 205.393H828.031L828.063 233.851ZM861.013 223.517C861.013 229.876 865.761 234.169 872.836 234.169C879.91 234.169 884.659 229.876 884.659 223.517V205.393H879.337V223.485C879.397 224.343 879.264 225.203 878.949 226.003C878.635 226.803 878.145 227.523 877.516 228.11C876.888 228.698 876.136 229.139 875.315 229.4C874.495 229.662 873.626 229.737 872.772 229.622C871.949 229.709 871.117 229.619 870.332 229.357C869.547 229.094 868.828 228.667 868.223 228.103C867.619 227.539 867.143 226.851 866.828 226.088C866.513 225.324 866.367 224.501 866.399 223.676V205.552H861.013V223.517ZM892.88 233.692H898.202L899.445 217.794C899.445 215.949 899.445 213.374 899.445 213.374C899.445 213.374 900.337 216.172 901.038 217.794L905.627 228.827H910.279L915.187 217.857C915.888 216.236 916.748 213.501 916.748 213.501C916.748 213.501 916.748 216.013 916.748 217.857L917.991 233.755H923.281L920.923 205.457H915.187L909.451 219.447C908.814 221.132 908.017 223.581 908.017 223.581C908.017 223.581 907.22 221.132 906.551 219.447L900.815 205.457H895.111L892.88 233.692ZM941.573 224.534H954.001V220.083H941.573V224.534ZM970.763 230.29C973.496 232.844 977.12 234.235 980.864 234.169C986.983 234.169 990.425 230.385 990.425 225.87C990.425 216.84 976.658 218.08 976.658 213.151C976.658 211.148 978.602 209.749 981.056 209.749C983.393 209.867 985.629 210.737 987.429 212.229L989.755 208.032C987.35 205.913 984.232 204.778 981.024 204.852C975.383 204.852 971.177 208.35 971.177 213.056C971.177 221.768 985.007 220.878 985.007 225.774C985.007 228.096 983 229.209 980.769 229.209C978.065 229.075 975.489 228.02 973.471 226.22L970.763 230.29ZM997.881 233.692H1003.2V205.393H997.881V233.692ZM1012.67 233.692H1030.64V229.272H1017.89V205.393H1012.57L1012.67 233.692ZM1041.76 233.692H1047.05L1057.73 205.393H1052.06L1045.68 223.835C1045.11 225.488 1044.63 228 1044.57 228C1044.57 228 1044.02 225.488 1043.45 223.835L1037.08 205.393H1031.34L1041.76 233.692ZM1063.43 233.692H1081.63V229.272H1068.88V221.673H1078.76V217.221H1068.88V209.813H1080.89V205.393H1063.34L1063.43 233.692ZM1089.21 233.692H1094.53V223.263H1099.63L1105.46 233.819H1111.39L1105.24 223.263C1104.97 222.76 1104.64 222.29 1104.25 221.864C1105.76 221.214 1107.04 220.127 1107.92 218.743C1108.8 217.359 1109.24 215.743 1109.19 214.105C1109.28 212.485 1108.86 210.878 1108.01 209.498C1107.16 208.117 1105.9 207.029 1104.41 206.379C1102.53 205.703 1100.52 205.432 1098.52 205.584H1088.96L1089.21 233.692ZM1094.53 218.684V209.813H1098.58C1102.72 209.813 1103.93 211.498 1103.93 214.201C1103.98 214.812 1103.89 215.426 1103.67 215.999C1103.45 216.572 1103.11 217.09 1102.67 217.517C1102.23 217.945 1101.7 218.27 1101.12 218.472C1100.54 218.674 1099.92 218.746 1099.31 218.684H1094.53Z" fill="#231F20"/>
<path fill-rule="evenodd" clip-rule="evenodd" d="M120.131 239.481C88.4655 239.397 58.1204 226.813 35.7237 204.478C13.3271 182.142 0.699065 151.871 0.598145 120.276C0.690581 88.6776 13.3095 58.3996 35.6992 36.0532C58.089 13.7068 88.4307 1.10774 120.099 1.00708C151.767 1.10774 182.108 13.7068 204.498 36.0532C226.888 58.3996 239.507 88.6776 239.599 120.276C239.498 151.86 226.879 182.122 204.496 204.455C182.113 226.789 151.785 239.38 120.131 239.481Z" fill="#9F212C"/>
<path fill-rule="evenodd" clip-rule="evenodd" d="M120.134 239.479C92.3906 239.545 65.4839 230.004 44.003 212.486C22.5222 194.967 7.79773 170.555 2.34116 143.413C-3.11541 116.272 1.03389 88.0824 14.0813 63.6526C27.1288 39.2228 48.2662 20.0661 73.8883 9.44998C99.5104 -1.16615 128.03 -2.58414 154.583 5.43785C181.136 13.4599 204.077 30.4249 219.494 53.4395C234.911 76.4541 241.848 104.093 239.123 131.641C236.397 159.189 224.178 184.941 204.549 204.503C193.473 215.583 180.316 224.376 165.831 230.377C151.347 236.379 135.818 239.472 120.134 239.479ZM120.134 234.774C146.798 234.81 172.648 225.614 193.274 208.754C213.901 191.894 228.025 168.415 233.237 142.323C238.449 116.232 234.426 89.1438 221.854 65.6815C209.283 42.2193 188.942 23.8365 164.301 13.6698C139.661 3.50298 112.249 2.18218 86.7415 9.93271C61.2342 17.6832 39.2125 34.0248 24.4337 56.1693C9.65496 78.3137 3.03492 104.889 5.70313 131.36C8.37133 157.832 20.1625 182.559 39.0647 201.324C49.7036 211.954 62.3416 220.384 76.2535 226.13C90.1654 231.876 105.077 234.824 120.134 234.805" fill="#A0222C"/>
<mask id="mask0_1150_272" style="mask-type:luminance" maskUnits="userSpaceOnUse" x="21" y="22" width="198" height="196">
<path d="M57.3584 91.5627C58.8463 91.5941 60.2918 92.0633 61.5133 92.9116C62.7348 93.7599 63.6779 94.9493 64.2242 96.3306C64.7705 97.7119 64.8957 99.2234 64.5839 100.675C64.2722 102.127 63.5374 103.455 62.472 104.492C61.4065 105.529 60.0578 106.228 58.5953 106.503C57.1327 106.777 55.6214 106.614 54.2512 106.035C52.881 105.455 51.713 104.485 50.8938 103.245C50.0746 102.005 49.6407 100.552 49.6467 99.0667C49.6497 97.6754 50.0355 96.3115 50.762 95.124C50.075 95.4289 49.3434 95.6222 48.5951 95.6963C45.4084 115.41 65.2614 111.595 65.2614 111.595C72.5271 109.782 109.875 67.461 109.875 67.461L107.007 64.8855C102.609 61.0063 105.254 61.2607 105.254 61.2607L124.374 78.3672L118.511 78.0492C99.9963 103.932 83.1387 112.103 76.2873 114.488C44.4205 121.483 44.4205 100.434 44.4205 100.434L21.6357 118.653C66.791 153.63 84.2222 173.28 90.9461 183.2C90.9649 181.715 91.423 180.269 92.2629 179.043C93.1027 177.817 94.2869 176.866 95.6666 176.31C97.0463 175.753 98.5602 175.615 100.018 175.914C101.476 176.213 102.813 176.935 103.861 177.99C104.909 179.044 105.621 180.384 105.908 181.841C106.196 183.298 106.045 184.807 105.476 186.179C104.906 187.551 103.943 188.725 102.707 189.552C101.472 190.38 100.019 190.825 98.5304 190.831C97.1388 190.84 95.7717 190.466 94.5789 189.75C94.9023 190.418 95.0969 191.141 95.1525 191.881C114.942 194.838 110.895 175.156 110.895 175.156C109.015 167.906 66.2812 130.863 66.2812 130.863L63.6999 133.757C59.8122 138.208 60.0671 135.537 60.0671 135.537L77.5939 116.841V116.428L78.9642 116.714V122.405C101.908 139.957 110.831 155.442 114.018 162.946C121.124 194.965 99.9644 194.965 99.9644 194.965L118.097 217.795C153.309 172.707 172.971 155.188 182.914 148.479C181.426 148.46 179.976 148.003 178.748 147.165C177.519 146.327 176.566 145.145 176.008 143.768C175.45 142.392 175.312 140.881 175.612 139.427C175.911 137.972 176.635 136.638 177.691 135.592C178.748 134.547 180.091 133.836 181.551 133.549C183.012 133.263 184.524 133.413 185.899 133.981C187.274 134.549 188.45 135.51 189.28 136.743C190.109 137.976 190.555 139.426 190.562 140.911C190.585 142.291 190.208 143.649 189.478 144.822C190.165 144.517 190.897 144.324 191.645 144.25C194.609 124.536 174.883 128.574 174.883 128.574C167.586 130.45 130.493 173.089 130.493 173.089L133.361 175.665C137.822 179.512 135.145 179.289 135.145 179.289L118.511 163.741L117.587 160.561L120.773 162.501C135.783 141.706 159.651 127.175 162.551 125.49L162.838 125.299C195.979 117.858 195.597 139.385 195.597 139.385L218.605 121.483C173.704 86.1255 156.464 66.3799 149.804 56.3958C149.773 57.8804 149.302 59.3227 148.452 60.5415C147.602 61.7603 146.41 62.7013 145.026 63.2464C143.641 63.7915 142.126 63.9164 140.671 63.6053C139.216 63.2943 137.885 62.5612 136.846 61.498C135.807 60.4349 135.106 59.0892 134.831 57.6299C134.556 56.1705 134.719 54.6626 135.3 53.2954C135.881 51.9283 136.854 50.7628 138.096 49.9454C139.339 49.128 140.795 48.6951 142.284 48.701C143.87 48.6607 145.443 48.9986 146.872 49.6867C146.64 48.9203 146.225 48.2219 145.661 47.6518C125.904 44.4721 129.728 64.2813 129.728 64.2813C131.544 71.5309 173.959 108.796 173.959 108.796L176.54 105.967C180.428 101.547 180.173 104.186 180.173 104.186L162.519 122.755L162.041 118.081C147.16 107.986 134.974 94.4189 126.541 78.558C116.025 48.7646 143.399 44.7583 143.399 44.7583L122.717 22.9141C87.1539 67.7789 67.524 84.9173 57.3584 91.5627Z" fill="white"/>
</mask>
<g mask="url(#mask0_1150_272)">
<path d="M218.605 22.9141H21.6357V217.636H218.605V22.9141Z" fill="url(#paint0_linear_1150_272)"/>
</g>
<mask id="mask1_1150_272" style="mask-type:luminance" maskUnits="userSpaceOnUse" x="77" y="78" width="86" height="85">
<path d="M77.4663 114.044C78.3009 115.25 78.8713 116.618 79.1404 118.059C79.4094 119.5 79.3711 120.981 79.0278 122.406C79.0278 122.406 103.948 140.499 114.081 162.947C114.081 162.947 114.942 158.559 120.837 162.629C132.231 147.734 146.393 135.168 162.551 125.618L162.105 118.273C147.382 107.901 135.22 94.3198 126.541 78.559L124.438 78.3047L118.511 78.0503C118.511 78.0503 100.187 105.332 77.4026 114.044" fill="white"/>
</mask>
<g mask="url(#mask1_1150_272)">
<path d="M162.525 78.0503H77.4722V162.947H162.525V78.0503Z" fill="url(#paint1_linear_1150_272)"/>
</g>
<path d="M140.812 122.852C140.852 122.586 140.796 122.315 140.652 122.088C139.138 120.172 137.944 118.025 137.115 115.729C136.828 114.489 136.701 111.532 138.549 111.119C140.397 110.705 141.29 113.058 140.907 114.616C140.525 116.174 142.819 116.715 143.17 115.252C143.571 114.334 143.682 113.316 143.488 112.333C143.295 111.35 142.806 110.45 142.086 109.751C141.439 109.316 140.711 109.012 139.945 108.86C139.179 108.707 138.391 108.707 137.625 108.861C135.433 108.301 133.298 107.535 131.252 106.572C129.913 105.777 128.638 104.537 129.148 102.883C129.263 102.332 129.593 101.848 130.065 101.538C130.537 101.228 131.112 101.117 131.666 101.23C132.972 101.612 132.909 103.074 132.877 104.219C132.923 104.502 133.069 104.759 133.288 104.944C133.507 105.13 133.784 105.232 134.072 105.232C134.359 105.232 134.637 105.13 134.856 104.944C135.075 104.759 135.22 104.502 135.267 104.219C135.267 101.739 134.693 99.1314 131.857 98.8452C130.969 98.7545 130.074 98.9152 129.274 99.3088C128.473 99.7025 127.8 100.313 127.332 101.071H127.045C125.018 102.2 122.738 102.801 120.417 102.82C119.482 102.881 118.548 102.694 117.708 102.279C117.43 102.138 117.187 101.935 116.998 101.686C116.809 101.437 116.679 101.149 116.618 100.843C116.557 100.537 116.566 100.222 116.644 99.9197C116.722 99.6177 116.868 99.3373 117.071 99.0996C118.377 98.8452 119.047 99.0996 119.078 100.212C119.163 100.516 119.365 100.774 119.64 100.929C119.776 101.006 119.926 101.055 120.081 101.074C120.236 101.093 120.394 101.081 120.544 101.039C120.695 100.997 120.836 100.926 120.959 100.83C121.082 100.734 121.185 100.615 121.262 100.479C121.339 100.343 121.388 100.194 121.407 100.039C121.426 99.884 121.415 99.7269 121.373 99.5766C120.831 97.478 119.11 95.1886 116.656 96.3969C115.85 96.856 115.201 97.5486 114.797 98.3831C114.393 99.2177 114.253 100.155 114.394 101.071C112.861 102.577 111.562 104.302 110.538 106.19C109.794 107.564 108.569 108.617 107.096 109.147C106.705 109.224 106.302 109.212 105.916 109.113C105.53 109.014 105.171 108.83 104.866 108.575C104.483 107.817 104.393 106.946 104.611 106.127C104.611 105.427 105.184 104.982 106.109 104.855C107.065 106.031 108.722 104.378 107.766 103.201C104.42 99.036 99.7034 107.526 103.655 110.61L104.165 110.992C104.468 113.218 104.468 115.474 104.165 117.701C103.878 119.131 103.272 120.88 101.488 120.658C100.373 120.658 98.3012 118.845 99.7034 117.828C101.105 116.81 99.7034 114.871 98.5243 115.793C95.1145 118.336 97.9825 123.17 101.711 123.011H102.571C103.448 124.572 104.416 126.079 105.471 127.526C106.325 128.631 106.805 129.978 106.842 131.373C106.842 132.2 106.204 133.631 105.025 133.44C104.675 133.44 103.527 132.041 104.26 131.723C105.631 131.119 104.452 129.084 103.049 129.688C101.647 130.292 101.297 133.281 102.189 134.553C102.857 135.252 103.74 135.709 104.698 135.853C105.655 135.997 106.634 135.819 107.479 135.348C108.135 134.951 108.64 134.347 108.913 133.631H109.104C111.648 133.618 114.151 134.264 116.37 135.507C116.964 136.015 117.412 136.671 117.67 137.408C117.927 138.145 117.985 138.937 117.836 139.704C117.842 140.217 117.71 140.722 117.453 141.166L115.924 141.961C114.999 141.802 115.541 140.149 115.669 139.672C116.147 138.241 113.852 137.605 113.406 139.068C112.769 141.103 112.832 143.551 115.286 144.219C115.848 144.323 116.426 144.309 116.982 144.178C117.538 144.047 118.061 143.801 118.517 143.457C118.973 143.113 119.351 142.678 119.629 142.179C119.907 141.681 120.078 141.13 120.13 140.562C120.13 140.181 120.13 139.799 120.13 139.449C120.309 139.39 120.472 139.293 120.608 139.163C122.654 137.226 125.028 135.665 127.619 134.553C129.212 133.885 131.857 133.185 132.622 135.634C132.816 136.475 132.691 137.359 132.271 138.114C131.666 139.481 130.774 139.577 129.594 138.432C129.754 136.937 127.396 136.937 127.236 138.432C127.197 138.97 127.296 139.509 127.524 139.998C127.751 140.488 128.099 140.911 128.536 141.229C128.973 141.547 129.483 141.749 130.019 141.816C130.556 141.883 131.1 141.813 131.602 141.612C132.751 141.148 133.711 140.313 134.329 139.241C134.947 138.169 135.188 136.922 135.012 135.697C134.953 135.236 134.824 134.785 134.629 134.362C134.68 134.185 134.68 133.998 134.629 133.821C134.592 131.625 135.061 129.449 136 127.462C136.541 126.349 137.529 125.046 138.9 125.046C139.345 125.042 139.776 125.204 140.107 125.501C140.438 125.798 140.647 126.208 140.691 126.651C140.734 127.093 140.611 127.535 140.344 127.892C140.078 128.248 139.688 128.491 139.25 128.575C137.752 128.893 138.39 131.182 139.887 130.864C140.823 130.764 141.696 130.35 142.364 129.689C143.032 129.028 143.454 128.159 143.562 127.227C143.669 126.294 143.456 125.353 142.956 124.558C142.456 123.763 141.7 123.161 140.812 122.852ZM134.247 126.031C133.299 127.944 132.705 130.012 132.494 132.136C131.496 131.688 130.394 131.523 129.308 131.659C125.731 132.426 122.461 134.229 119.907 136.842C118.537 133.026 113.534 131.85 109.263 131.437C109.265 130.943 109.2 130.451 109.072 129.974C108.339 126.794 105.886 124.759 104.515 121.961C106.842 119.831 106.682 115.189 106.427 111.882C110.156 111.882 112.801 106.19 115.222 103.519C117.581 106.381 122.998 105.332 126.44 103.964C126.44 107.971 131.602 109.497 135.203 110.674C134.511 112.174 134.247 113.835 134.438 115.475C135.064 118.113 136.273 120.579 137.975 122.693C137.128 122.911 136.337 123.308 135.656 123.857C134.974 124.405 134.418 125.092 134.024 125.872" fill="#9F212C"/>
<path d="M139.027 105.618C139.027 105.977 138.921 106.327 138.721 106.625C138.522 106.923 138.238 107.156 137.906 107.293C137.574 107.43 137.209 107.466 136.857 107.396C136.504 107.326 136.181 107.153 135.927 106.9C135.673 106.646 135.5 106.323 135.429 105.972C135.359 105.62 135.395 105.256 135.533 104.925C135.67 104.594 135.903 104.311 136.202 104.111C136.501 103.912 136.852 103.806 137.211 103.806C137.69 103.814 138.147 104.008 138.486 104.346C138.825 104.684 139.019 105.14 139.027 105.618Z" fill="#9F212C"/>
<path d="M144.35 120.783C144.354 121.023 144.31 121.26 144.22 121.482C144.131 121.704 143.997 121.905 143.828 122.075C143.658 122.244 143.456 122.377 143.234 122.467C143.011 122.556 142.773 122.6 142.534 122.596C142.277 122.63 142.016 122.609 141.768 122.534C141.521 122.46 141.292 122.333 141.097 122.163C140.902 121.993 140.746 121.783 140.639 121.548C140.532 121.313 140.477 121.058 140.477 120.799C140.477 120.541 140.532 120.286 140.639 120.051C140.746 119.815 140.902 119.606 141.097 119.436C141.292 119.266 141.521 119.139 141.768 119.064C142.016 118.99 142.277 118.969 142.534 119.003C142.771 118.999 143.006 119.042 143.226 119.129C143.446 119.217 143.647 119.347 143.816 119.513C143.985 119.679 144.119 119.876 144.211 120.095C144.303 120.313 144.35 120.547 144.35 120.783Z" fill="#9F212C"/>
<path d="M138.783 135.188C138.783 135.668 138.592 136.129 138.251 136.469C137.911 136.809 137.449 137 136.967 137C136.727 137.004 136.489 136.96 136.267 136.871C136.045 136.781 135.843 136.648 135.673 136.479C135.504 136.31 135.37 136.108 135.28 135.886C135.19 135.664 135.146 135.427 135.151 135.188C135.151 134.707 135.342 134.246 135.683 133.906C136.023 133.566 136.485 133.375 136.967 133.375C137.446 133.383 137.904 133.577 138.242 133.915C138.581 134.253 138.775 134.71 138.783 135.188Z" fill="#9F212C"/>
<path d="M125.11 142.978C125.11 143.337 125.004 143.687 124.804 143.985C124.605 144.283 124.321 144.516 123.989 144.653C123.657 144.79 123.292 144.826 122.94 144.756C122.587 144.686 122.264 144.513 122.01 144.26C121.756 144.006 121.583 143.683 121.512 143.332C121.442 142.98 121.478 142.616 121.616 142.285C121.753 141.954 121.986 141.67 122.285 141.471C122.584 141.272 122.935 141.166 123.294 141.166C123.776 141.166 124.238 141.357 124.578 141.697C124.919 142.037 125.11 142.498 125.11 142.978Z" fill="#9F212C"/>
<path d="M109.782 139.861C109.782 140.342 109.591 140.803 109.25 141.143C108.91 141.483 108.448 141.674 107.966 141.674C107.484 141.674 107.022 141.483 106.682 141.143C106.341 140.803 106.15 140.342 106.15 139.861C106.15 139.381 106.341 138.92 106.682 138.58C107.022 138.24 107.484 138.049 107.966 138.049C108.448 138.049 108.91 138.24 109.25 138.58C109.591 138.92 109.782 139.381 109.782 139.861Z" fill="#9F212C"/>
<path d="M99.3904 128.192C99.3903 128.551 99.283 128.903 99.0819 129.202C98.8809 129.5 98.5953 129.733 98.2615 129.869C97.9278 130.005 97.5609 130.039 97.2077 129.966C96.8545 129.894 96.531 129.718 96.2783 129.461C96.0256 129.205 95.8551 128.879 95.7887 128.525C95.7222 128.172 95.7628 127.806 95.9052 127.476C96.0475 127.145 96.2853 126.864 96.5882 126.669C96.891 126.474 97.2453 126.373 97.6058 126.379C98.082 126.388 98.5359 126.582 98.8697 126.921C99.2035 127.26 99.3905 127.716 99.3904 128.192Z" fill="#9F212C"/>
<path d="M99.6456 112.293C99.6456 112.774 99.4542 113.235 99.1135 113.575C98.7729 113.915 98.3109 114.106 97.8291 114.106C97.5894 114.11 97.3513 114.066 97.129 113.976C96.9066 113.887 96.7047 113.754 96.5351 113.584C96.3656 113.415 96.232 113.214 96.1422 112.992C96.0525 112.77 96.0084 112.532 96.0127 112.293C96.0127 111.813 96.2041 111.352 96.5448 111.012C96.8854 110.672 97.3474 110.481 97.8291 110.481C98.3083 110.489 98.7656 110.683 99.1045 111.021C99.4434 111.359 99.6374 111.815 99.6456 112.293Z" fill="#9F212C"/>
<path d="M109.909 100.18C109.909 100.539 109.803 100.889 109.603 101.187C109.403 101.485 109.12 101.718 108.788 101.855C108.456 101.992 108.091 102.028 107.738 101.958C107.386 101.888 107.062 101.715 106.808 101.462C106.554 101.209 106.381 100.886 106.311 100.534C106.241 100.182 106.277 99.818 106.415 99.4869C106.552 99.1557 106.785 98.8726 107.084 98.6735C107.382 98.4743 107.734 98.368 108.093 98.368C108.575 98.368 109.037 98.559 109.377 98.8989C109.718 99.2388 109.909 99.6998 109.909 100.18Z" fill="#9F212C"/>
<path d="M125.522 97.4455C125.514 97.9236 125.32 98.3799 124.981 98.718C124.642 99.0562 124.185 99.2497 123.705 99.2579C123.224 99.2579 122.762 99.067 122.421 98.7271C122.08 98.3872 121.889 97.9262 121.889 97.4455C121.885 97.2063 121.929 96.9687 122.018 96.7469C122.108 96.525 122.242 96.3235 122.411 96.1543C122.581 95.9852 122.783 95.8518 123.005 95.7623C123.228 95.6727 123.466 95.6288 123.705 95.6331C124.187 95.6331 124.649 95.824 124.99 96.1639C125.33 96.5038 125.522 96.9648 125.522 97.4455Z" fill="#9F212C"/>
<defs>
<linearGradient id="paint0_linear_1150_272" x1="22.5554" y1="125.587" x2="219.524" y2="125.587" gradientUnits="userSpaceOnUse">
<stop stop-color="#C4843E"/>
<stop offset="0.18" stop-color="#E7B164"/>
<stop offset="0.32" stop-color="#FFD17F"/>
<stop offset="0.68" stop-color="#FCEB9E"/>
<stop offset="1" stop-color="#F9CE6E"/>
</linearGradient>
<linearGradient id="paint1_linear_1150_272" x1="78.7832" y1="127.572" x2="163.836" y2="127.572" gradientUnits="userSpaceOnUse">
<stop stop-color="#ECBE62"/>
<stop offset="0.13" stop-color="#FFF7D1"/>
<stop offset="0.23" stop-color="#ECBE62"/>
<stop offset="0.35" stop-color="#FEE58B"/>
<stop offset="0.47" stop-color="#FFDAA6"/>
<stop offset="0.59" stop-color="#ECBE62"/>
<stop offset="0.73" stop-color="#FEE58B"/>
<stop offset="0.86" stop-color="#ECBE62"/>
<stop offset="1" stop-color="#FFF7D1"/>
</linearGradient>
</defs>
</svg>
