<svg id="Layer_1" data-name="Layer 1" xmlns="http://www.w3.org/2000/svg" xmlns:xlink="http://www.w3.org/1999/xlink" viewBox="0 0 1114 239.17"><defs><style>.cls-1{fill:#fff;}.cls-2{fill:#a0222c;}.cls-2,.cls-3,.cls-4{fill-rule:evenodd;}.cls-3{fill:#231f20;}.cls-4,.cls-9{fill:#9f212c;}.cls-5{mask:url(#mask);}.cls-6{fill:url(#linear-gradient);}.cls-7{mask:url(#mask-2);}.cls-8{fill:url(#linear-gradient-2);}</style><mask id="mask" x="21.64" y="22.61" width="196.97" height="194.88" maskUnits="userSpaceOnUse"><g id="mask0_1150_272" data-name="mask0 1150 272"><path class="cls-1" d="M57.36,91.26a7.53,7.53,0,0,1,5.11,12.93,7.57,7.57,0,0,1-11.58-1.25,7.47,7.47,0,0,1-1.24-4.18,7.61,7.61,0,0,1,1.11-3.94,7,7,0,0,1-2.16.57c-3.19,19.71,16.66,15.9,16.66,15.9,7.27-1.81,44.62-44.14,44.62-44.14L107,64.58c-4.4-3.88-1.76-3.63-1.76-3.63l19.12,17.11-5.86-.32C100,103.63,83.14,111.8,76.29,114.18c-31.87,7-31.87-14.05-31.87-14.05L21.64,118.35C66.79,153.32,84.22,173,91,182.89a7.42,7.42,0,0,1,1.31-4.15,7.52,7.52,0,1,1,2.32,10.7,5.86,5.86,0,0,1,.57,2.13c19.79,3,15.74-16.72,15.74-16.72-1.88-7.25-44.61-44.29-44.61-44.29l-2.58,2.89c-3.89,4.45-3.63,1.78-3.63,1.78l17.52-18.7v-.41l1.37.29v5.69c23,17.55,31.87,33,35.06,40.54,7.1,32-14.06,32-14.06,32l18.14,22.83c35.21-45.09,54.87-62.61,64.81-69.32a7.54,7.54,0,0,1-1.36-14.93,7.71,7.71,0,0,1,4.35.43,7.55,7.55,0,0,1,4.66,6.93,7.16,7.16,0,0,1-1.08,3.92,7,7,0,0,1,2.17-.58c3-19.71-16.77-15.67-16.77-15.67-7.29,1.87-44.39,44.51-44.39,44.51l2.87,2.58c4.46,3.85,1.79,3.62,1.79,3.62l-16.64-15.55-.92-3.18,3.18,1.94c15-20.79,38.88-35.32,41.78-37l.29-.19c33.14-7.44,32.76,14.09,32.76,14.09l23-17.9c-44.9-35.36-62.14-55.11-68.8-65.09a7.54,7.54,0,0,1-1.35,4.15,7.64,7.64,0,0,1-3.42,2.7,7.54,7.54,0,1,1-2.75-14.55,10,10,0,0,1,4.59,1,4.79,4.79,0,0,0-1.21-2C125.9,44.17,129.73,64,129.73,64c1.81,7.25,44.23,44.52,44.23,44.52l2.58-2.83c3.89-4.42,3.63-1.78,3.63-1.78l-17.65,18.57-.48-4.68a110.32,110.32,0,0,1-35.5-39.52C116,48.46,143.4,44.45,143.4,44.45L122.72,22.61C87.15,67.47,67.52,84.61,57.36,91.26Z"/></g></mask><linearGradient id="linear-gradient" x1="22.56" y1="121.42" x2="219.52" y2="121.42" gradientTransform="matrix(1, 0, 0, -1, 0, 241.39)" gradientUnits="userSpaceOnUse"><stop offset="0" stop-color="#c4843e"/><stop offset="0.18" stop-color="#e7b164"/><stop offset="0.32" stop-color="#ffd17f"/><stop offset="0.68" stop-color="#fceb9e"/><stop offset="1" stop-color="#f9ce6e"/></linearGradient><mask id="mask-2" x="77.4" y="77.74" width="85.15" height="84.9" maskUnits="userSpaceOnUse"><g id="mask1_1150_272" data-name="mask1 1150 272"><path class="cls-1" d="M77.47,113.74A10.43,10.43,0,0,1,79,122.1s24.92,18.09,35.05,40.54c0,0,.86-4.39,6.76-.32a146.1,146.1,0,0,1,41.71-37L162.1,118a118.64,118.64,0,0,1-35.56-39.72l-2.1-.25-5.93-.26s-18.32,27.29-41.11,36"/></g></mask><linearGradient id="linear-gradient-2" x1="78.78" y1="121.19" x2="163.84" y2="121.19" gradientTransform="matrix(1, 0, 0, -1, 0, 241.39)" gradientUnits="userSpaceOnUse"><stop offset="0" stop-color="#ecbe62"/><stop offset="0.13" stop-color="#fff7d1"/><stop offset="0.23" stop-color="#ecbe62"/><stop offset="0.35" stop-color="#fee58b"/><stop offset="0.47" stop-color="#ffdaa6"/><stop offset="0.59" stop-color="#ecbe62"/><stop offset="0.73" stop-color="#fee58b"/><stop offset="0.86" stop-color="#ecbe62"/><stop offset="1" stop-color="#fff7d1"/></linearGradient></defs><path class="cls-2" d="M1062.34,109.63a3.2,3.2,0,0,0,.42.55,21.62,21.62,0,0,0,18.42,7.66,49.11,49.11,0,0,0,21.54-6.17,42.49,42.49,0,0,0,4.08-2.51l4.71-3.18,2.49,5.18-.8,1a63.59,63.59,0,0,1-8.79,9,78.71,78.71,0,0,1-11,8.07,43.58,43.58,0,0,1-11.51,4.65,50.54,50.54,0,0,1-12.9,1.59,45.68,45.68,0,0,1-13.26-1.75,26,26,0,0,1-9.94-5.47,41.38,41.38,0,0,1-6.38-7.35,34.77,34.77,0,0,1-4.23-8.36A52.16,52.16,0,0,1,1033.89,84a50,50,0,0,1,13.54-24.93,50.87,50.87,0,0,1,16.12-10.69,49.47,49.47,0,0,1,18.81-3.59,32.43,32.43,0,0,1,16.31,4.39,71.13,71.13,0,0,1,13.45,10.55l1.66,1.59Zm-3.76-10.17,18.65-17.71a13.92,13.92,0,0,0,4-8.27,14.13,14.13,0,0,0-.32-5.53,9.61,9.61,0,0,0-2.42-4.2,8.38,8.38,0,0,0-4.72-2.1,9.92,9.92,0,0,0-4.33.42,14,14,0,0,0-7.2,7.34,43.94,43.94,0,0,0-3.64,13.45A57,57,0,0,0,1058.58,99.46Z"/><path class="cls-2" d="M989.88,67.73c-3.35,0-7.08,3.91-9,6.16A93.56,93.56,0,0,0,969,93.29l.19,23a19.08,19.08,0,0,1-1.08,7.89,16.55,16.55,0,0,1-6,6.35,25,25,0,0,1-6.37,3.18,39.19,39.19,0,0,1-7.94,1.72l-2.61.32V67a2.47,2.47,0,0,0-.45-1.62,2.42,2.42,0,0,0-1.37-.48H943A10.28,10.28,0,0,0,938,66.52l-2.58-8a182.19,182.19,0,0,1,16.41-11.76,18.7,18.7,0,0,1,3.19-1.53,9.6,9.6,0,0,1,3.18-.57,9,9,0,0,1,5.45,1.75A9.52,9.52,0,0,1,966.87,51,65.57,65.57,0,0,1,969,64.16c.19,2.9.32,5.76.36,8.65,1.08-1.65,2.22-3.18,3.37-4.86s2.77-3.6,4.27-5.41,3.19-3.43,4.66-5.12a48.78,48.78,0,0,1,5.06-4.8,40.12,40.12,0,0,1,5.58-4.2A29.86,29.86,0,0,1,998,45.69l1.49-.41,1.57-.38a17.86,17.86,0,0,1,3.18-.32,12.18,12.18,0,0,1,9.56,4.39A20.08,20.08,0,0,1,1018,58a34.43,34.43,0,0,1,.77,7.44V118c0,2,.73,2.64,2.74,1.9a34.83,34.83,0,0,0,8.44-5.5l3,6.11c-5.87,6.36-13.9,14.82-23.49,14.82a13.93,13.93,0,0,1-5.69-1.19,14.09,14.09,0,0,1-4.7-3.42,16.76,16.76,0,0,1-4.27-11.13V76.44a12,12,0,0,0-1.5-5.92,5.52,5.52,0,0,0-3.18-2.7Z"/><path class="cls-2" d="M912.79,119.05c-14.21,14.21-34.32,19.07-54.36,19.07-18,0-37.1-4.86-51-16.15a57.18,57.18,0,0,1-20.75-42.42c-.16-2.13-.22-4.32-.22-6.35,0-19.24,5.77-38.16,19.95-52.28A73.37,73.37,0,0,1,854.63.38c1.69,0,3.41-.16,5.14-.16,44.77,0,71.89,21,71.89,64.87,0,19.36-4.4,39.52-18.87,54.05M812.7,69.19c0,29,19.44,56.79,47.51,56.79s47.51-27.76,47.51-56.79S888.32,12.4,860.21,12.4,812.7,40.16,812.7,69.19Z"/><path class="cls-2" d="M438.48,109.63l.42.58a21.63,21.63,0,0,0,18.45,7.63,49.52,49.52,0,0,0,21.51-6.17c1.4-.8,2.8-1.62,4.11-2.55l4.68-3.18,2.52,5.19-.83,1.05a65,65,0,0,1-8.76,9,80.75,80.75,0,0,1-11,8.07,47.17,47.17,0,0,1-11.51,4.65,52.71,52.71,0,0,1-12.94,1.59,45.36,45.36,0,0,1-13.25-1.79,26.31,26.31,0,0,1-10-5.5,42.68,42.68,0,0,1-6.37-7.31,38.66,38.66,0,0,1-4.24-8.39A52.1,52.1,0,0,1,410,83.91a50.1,50.1,0,0,1,13.51-25,51.71,51.71,0,0,1,16.15-10.68,49.09,49.09,0,0,1,18.77-3.6,31.94,31.94,0,0,1,16.32,4.42,69.86,69.86,0,0,1,13.38,10.59l1.66,1.56Zm-3.6-10.17,18.64-17.71A14.55,14.55,0,0,0,457.16,68a9.23,9.23,0,0,0-2.43-4.17,7.7,7.7,0,0,0-4.71-2.1,9.15,9.15,0,0,0-4.34.42,14,14,0,0,0-7.2,7.34,43,43,0,0,0-3.72,13.42,55.64,55.64,0,0,0,0,16.6"/><path class="cls-2" d="M565.79,88.8l-16.54,30.53-9.94,19.08L507.66,79.87v.19l-5.77-9.73-8.82-12.72,1.72-1.78a67.26,67.26,0,0,1,7.55-7.06,16.23,16.23,0,0,1,7.11-3.88,8.69,8.69,0,0,1,5.93,3.18,38,38,0,0,1,5.38,7.63c4,7,7.68,14.06,11.38,21.15,3.18,6.1,6.37,12.24,9.56,18.25a59.2,59.2,0,0,0,4.2,6.55c.39.54.8,1,1.21,1.53l12.75-24.07c-.76-2.74-10.64-13.87-13-15.39-.8-.51-1.63-1-2.42-1.62l-2-1.47,1.69-1.78A141,141,0,0,1,554.67,49a16.48,16.48,0,0,1,7.23-4.07,8.69,8.69,0,0,1,3.27,1,8.82,8.82,0,0,1,2.63,2.19,38.79,38.79,0,0,1,5.41,7.63c3.95,7,7.65,14.06,11.35,21.15,3.18,6.1,6.37,12.24,9.75,18.25a54.55,54.55,0,0,0,4.17,6.55,21.17,21.17,0,0,0,1.76,2.13,86.15,86.15,0,0,0,5.83-12,51.3,51.3,0,0,0,4.2-13.29,21.28,21.28,0,0,0-4-11.35,33.21,33.21,0,0,0-10.45-10l-1.15-.64V53.92l1-.63A51.24,51.24,0,0,0,602,47.34a71.13,71.13,0,0,1,7.49-7,18.25,18.25,0,0,1,2.36-1.62,5.57,5.57,0,0,1,2.55-.76,5.85,5.85,0,0,1,2.29.6,19.73,19.73,0,0,1,2.2,1.24,27.5,27.5,0,0,1,8.13,8.3,40.23,40.23,0,0,1,5.38,11.7l.23.8-40.89,77.68-2.14-3.88Z"/><path class="cls-2" d="M746.7,130.3a38.52,38.52,0,0,1-3.41,2.16,31.6,31.6,0,0,1-3.35,1.66,21.81,21.81,0,0,1-3.38,1.08,14.78,14.78,0,0,1-3.18.38,15.89,15.89,0,0,1-6.76-1.37A10.46,10.46,0,0,1,722,130a19.78,19.78,0,0,1-2.2-5.75,32.29,32.29,0,0,1-.7-7V35.93A59,59,0,0,1,721,20.45a31.6,31.6,0,0,1,5.61-11.64,21.26,21.26,0,0,1,11.19-7.12A49.63,49.63,0,0,1,751.19.22L773.94,0,772.1,3.18a24.77,24.77,0,0,1-10.42,10.4,34.34,34.34,0,0,1-13.29,3.18A7.85,7.85,0,0,0,746,17l-1.6.26a1.34,1.34,0,0,0,0,.63l-.7,94.63a3.13,3.13,0,0,0,.29,1.56,2,2,0,0,0,.69.55,1.86,1.86,0,0,0,.87.18,14.17,14.17,0,0,0,4.43-.67,40.29,40.29,0,0,0,10.9-5.53l.41-.32.38.35c1.79,1.49,3.57,3,5.42,4.39l.51.38-1.69,1.72a83.89,83.89,0,0,1-7.14,6.16c-3.82,3-7.77,6-11.76,8.84Z"/><path class="cls-2" d="M658.87,109.63l.39.57a21.6,21.6,0,0,0,8.28,6.08,21.83,21.83,0,0,0,10.17,1.56,49.25,49.25,0,0,0,21.51-6.17,44.62,44.62,0,0,0,4.11-2.55l4.71-3.18,2.49,5.19-.8,1.05a63.59,63.59,0,0,1-8.79,9,78.71,78.71,0,0,1-11,8.07,46,46,0,0,1-11.51,4.65,52,52,0,0,1-12.9,1.59,45.38,45.38,0,0,1-13.26-1.79,25.86,25.86,0,0,1-10-5.5,39.67,39.67,0,0,1-6.38-7.31,36.28,36.28,0,0,1-4.4-8.33A52.19,52.19,0,0,1,630.23,84a50.29,50.29,0,0,1,13.51-25,51.71,51.71,0,0,1,16.15-10.68,49.05,49.05,0,0,1,18.81-3.59A32.13,32.13,0,0,1,695,49.16a69.71,69.71,0,0,1,13.45,10.55l1.66,1.56Zm-3.63-10.17,18.64-17.71A14.55,14.55,0,0,0,677.52,68a9,9,0,0,0-2.43-4.17,7.76,7.76,0,0,0-4.68-2.1,9.1,9.1,0,0,0-4.33.42,13.84,13.84,0,0,0-7.21,7.34,43.25,43.25,0,0,0-3.76,13.42,57,57,0,0,0,0,16.6"/><path class="cls-2" d="M393.2,109.44V21.21A11.5,11.5,0,0,1,396.93,12a32.17,32.17,0,0,1,9.56-4.71l5-1.94V2.58l-2.32-.86a20.46,20.46,0,0,0-3.89-1,30.31,30.31,0,0,0-4.56-.41,37.91,37.91,0,0,0-5,.09,41.58,41.58,0,0,0-4.85.67h-.28a35.76,35.76,0,0,0-9.95,3.66,29.49,29.49,0,0,0-8,6.36,27,27,0,0,0-5.16,8.39,28.73,28.73,0,0,0-1.69,9.89v88.87A39.15,39.15,0,0,1,363.08,133c-6.37,11.93-22.3,17.84-38.24,17.75-35.72-.19-49.45-32.4-23.9-47.54l-.7-2.54h-4.08A17.61,17.61,0,0,0,284.53,105,25.69,25.69,0,0,0,277,116.76a37.28,37.28,0,0,0-1.43,6.36v9.54c.19,1.43.44,2.86.76,4.22a37,37,0,0,0,2.27,6.81A38.17,38.17,0,0,0,295.46,162a56.86,56.86,0,0,0,27.34,6.36h.35a95.45,95.45,0,0,0,28-4.26,66.42,66.42,0,0,0,22.31-12,53.57,53.57,0,0,0,14.47-18.7A57.46,57.46,0,0,0,393,109.76v-.28Z"/><path class="cls-3" d="M281.87,219.2a14.13,14.13,0,0,0,4,10.4,14.33,14.33,0,0,0,4.72,3.19,14.13,14.13,0,0,0,5.6,1.07,12.71,12.71,0,0,0,8.5-3.18v2.55h4.53V218.47h-9.08V223h4.49v3.18a11.2,11.2,0,0,1-7.33,3,9.53,9.53,0,0,1-7.18-2.84,9.57,9.57,0,0,1-2.73-7.2,9.47,9.47,0,0,1,.64-3.87,9.31,9.31,0,0,1,9.4-5.86,12.77,12.77,0,0,1,7.81,2.7l2.64-3.82A16.32,16.32,0,0,0,297,204.61a14.53,14.53,0,0,0-14,8.89,14.49,14.49,0,0,0-1.12,5.7m33.33,0a15.11,15.11,0,1,0,4.43-10.68A15.11,15.11,0,0,0,315.23,219.2Zm5.48,0a9.65,9.65,0,1,1,2.83,6.82A9.64,9.64,0,0,1,320.71,219.2ZM353,233.54h18V229H358.19V205.09h-5.33Zm24.25,0h10c9,0,14.91-5.24,14.91-14.18s-5.89-14.11-14.91-14.11h-10Zm5.32-4.42V209.51h4.4a9.73,9.73,0,1,1,0,19.46Zm36.74-4.73H431.7v-4.61H419.27Zm31.43,9.15h10c9,0,14.91-5.24,14.91-14.18s-5.89-14.11-14.91-14.11h-10Zm5.32-4.42V209.51h4.36a9.73,9.73,0,1,1,0,19.46Zm27.18,4.42h5.32V205.25H483.2Zm31.87,0h5.48l-10.33-28.29h-5.54l-10.33,28.29h5.48l2.49-7.25h10.26Zm-7.55-23.4s.63,2.8,1.14,4.39l2.61,7.57H503.6l2.61-7.57c.57-1.59,1.21-4.39,1.21-4.39Zm17.9,23.4h5.33L532,217.65v-4.42s.92,2.79,1.62,4.42l4.69,11H543l4.75-11c.7-1.63,1.56-4.36,1.56-4.36v4.36l1.24,15.89h5.29l-2.36-28.29h-5.7l-5.39,13.83c-.66,1.68-1.46,4.13-1.46,4.13s-.83-2.45-1.5-4.13l-5.73-14H528Zm37.16-14.34A15.11,15.11,0,1,0,567,208.52,15.07,15.07,0,0,0,562.58,219.2Zm5.48,0a9.65,9.65,0,1,1,2.83,6.82A9.64,9.64,0,0,1,568.06,219.2Zm32.25,14.34h5.32V217.07c0-1.65-.28-4.35-.28-4.35a42.17,42.17,0,0,0,2.45,4.35l11,16.32h5.25v-28.3h-5.25v16.34c0,1.69.28,4.39.28,4.39a39.06,39.06,0,0,0-2.42-4.39L605.6,205.09h-5.32Zm33.36,0h10c9,0,14.91-5.24,14.91-14.18s-5.89-14.11-14.91-14.11h-10Zm5.33-4.42V209.51h4.4a9.73,9.73,0,1,1,0,19.46Zm36.74-4.73h12.43v-4.61H675.74Zm31.42,9.15h5.32v-9.92h6a9.28,9.28,0,1,0,0-18.53H707.1Zm5.32-14.21v-9.54h5.13a4.59,4.59,0,0,1,1.91.26,4.44,4.44,0,0,1,1.61,1,4.55,4.55,0,0,1,1,1.62,4.34,4.34,0,0,1,.25,1.89,4.57,4.57,0,0,1-3,4.61,4.71,4.71,0,0,1-1.93.26Zm22,14.21h18V229H739.76V205.09h-5.29Zm42.26,0h5.48l-10.48-28.45h-5.58l-10.29,28.3h5.48l2.48-7.25h10.26Zm-7.55-23.4s.6,2.8,1.14,4.39L773,222.1h-7.59l2.58-7.57C768.57,212.94,769.24,210.14,769.24,210.14Zm23.2,23.4h5.32v-24h9.56v-4.42H782.78v4.42h9.56Zm20.84,0h5.32V205.25h-5.39Zm14.78,0h5.33V217.07c0-1.65-.29-4.35-.29-4.35a40.15,40.15,0,0,0,2.42,4.35l11.09,16.32h5.29v-28.3h-5.29v16.34c0,1.69.29,4.39.29,4.39a41,41,0,0,0-2.46-4.39l-11.09-16.34H828Zm33-10.33c0,6.36,4.75,10.65,11.83,10.65s11.82-4.29,11.82-10.65V205.09h-5.32v18.09a5.85,5.85,0,0,1-.39,2.52,5.61,5.61,0,0,1-1.43,2.1,5.85,5.85,0,0,1-4.75,1.52,6,6,0,0,1-2.44-.27,5.7,5.7,0,0,1-3.5-3.27,5.69,5.69,0,0,1-.43-2.41V205.25H861Zm31.87,10.18h5.32l1.25-15.9v-4.42s.89,2.8,1.59,4.42l4.59,11h4.65l4.91-11c.7-1.62,1.56-4.36,1.56-4.36v4.36l1.24,15.9h5.29l-2.36-28.3h-5.73l-5.74,14c-.64,1.69-1.43,4.13-1.43,4.13s-.8-2.44-1.47-4.13l-5.73-14h-5.71Zm48.69-9.16H954v-4.45H941.57ZM970.76,230a14.4,14.4,0,0,0,10.1,3.88c6.12,0,9.56-3.78,9.56-8.3,0-9-13.76-7.79-13.76-12.72,0-2,1.94-3.4,4.4-3.4a10.88,10.88,0,0,1,6.37,2.48l2.33-4.19a12.76,12.76,0,0,0-8.74-3.18c-5.64,0-9.84,3.49-9.84,8.2,0,8.71,13.83,7.82,13.83,12.72,0,2.32-2,3.43-4.24,3.43a11.84,11.84,0,0,1-7.3-3Zm27.12,3.41h5.32v-28.3h-5.32Zm14.79,0h18V229h-12.75V205.09h-5.32Zm29.09,0h5.29l10.68-28.3h-5.67l-6.38,18.44c-.57,1.65-1,4.16-1.11,4.16s-.55-2.51-1.12-4.16l-6.37-18.44h-5.74Zm21.67,0h18.2V229h-12.75v-7.6h9.88v-4.46h-9.88v-7.4h12v-4.42h-17.55Zm25.78,0h5.32V223h5.1l5.83,10.55h5.93L1105.24,223a6.56,6.56,0,0,0-1-1.4,8.16,8.16,0,0,0,4.94-7.76,8,8,0,0,0-4.78-7.73,14.36,14.36,0,0,0-5.89-.79H1089Zm5.32-15v-8.87h4c4.14,0,5.35,1.68,5.35,4.38a4.07,4.07,0,0,1-.26,1.8,4.19,4.19,0,0,1-1,1.52,4.19,4.19,0,0,1-3.36,1.17Z"/><path class="cls-4" d="M120.13,239.17A119,119,0,0,1,35.7,35.75a119.22,119.22,0,1,1,168.8,168.4A120,120,0,0,1,120.13,239.17Z"/><path class="cls-2" d="M120.13,239.17a119.46,119.46,0,1,1,45.7-9.1A120,120,0,0,1,120.13,239.17Zm0-4.7a114.37,114.37,0,1,0-43.88-8.65,115.33,115.33,0,0,0,43.88,8.65"/><g class="cls-5"><path class="cls-6" d="M218.6,22.61h-197V217.33h197Z"/></g><g class="cls-7"><path class="cls-8" d="M162.52,77.74H77.47v84.9h85.05Z"/></g><path class="cls-9" d="M140.81,122.55a1.1,1.1,0,0,0-.16-.77,22.4,22.4,0,0,1-3.53-6.36c-.29-1.24-.42-4.19,1.43-4.61s2.74,1.94,2.36,3.5a1.17,1.17,0,0,0,2.26.64,4.94,4.94,0,0,0-1.08-5.51,6.2,6.2,0,0,0-2.14-.89,6,6,0,0,0-2.32,0,35.9,35.9,0,0,1-6.38-2.28c-1.34-.8-2.61-2-2.1-3.69a2.1,2.1,0,0,1,.92-1.35,2.14,2.14,0,0,1,1.6-.31c1.3.39,1.24,1.85,1.21,3a1.17,1.17,0,0,0,.41.73,1.23,1.23,0,0,0,.78.29,1.26,1.26,0,0,0,.79-.29,1.28,1.28,0,0,0,.41-.73c0-2.48-.58-5.08-3.41-5.37a4.74,4.74,0,0,0-4.53,2.22H127a13.81,13.81,0,0,1-6.62,1.75,5.28,5.28,0,0,1-2.71-.54,2,2,0,0,1-.71-.59,2.06,2.06,0,0,1-.38-.84,2.24,2.24,0,0,1,0-.93,2.16,2.16,0,0,1,.43-.82c1.31-.25,2,0,2,1.12a1.14,1.14,0,0,0,.56.71,1.21,1.21,0,0,0,.44.15,1.18,1.18,0,0,0,.46,0,1,1,0,0,0,.42-.21,1.14,1.14,0,0,0,.3-.35,1.1,1.1,0,0,0,.15-.44,1,1,0,0,0,0-.46c-.54-2.1-2.26-4.39-4.71-3.18a4.6,4.6,0,0,0-2.27,4.67,21.83,21.83,0,0,0-3.85,5.12,6.37,6.37,0,0,1-3.44,3,2.61,2.61,0,0,1-1.18,0,2.69,2.69,0,0,1-1-.54,3.42,3.42,0,0,1-.26-2.45c0-.7.57-1.14,1.5-1.27,1,1.17,2.61-.48,1.66-1.66-3.35-4.16-8.07,4.33-4.12,7.41l.52.39a25.05,25.05,0,0,1,0,6.7c-.29,1.43-.9,3.18-2.68,3-1.12,0-3.19-1.81-1.79-2.83s0-3-1.18-2c-3.41,2.54-.54,7.37,3.19,7.21h.86a46.28,46.28,0,0,0,2.9,4.52,6.54,6.54,0,0,1,1.37,3.85c0,.82-.64,2.25-1.81,2.06-.35,0-1.5-1.4-.77-1.71,1.37-.61.19-2.64-1.21-2s-1.75,3.59-.86,4.87a4.37,4.37,0,0,0,5.29.79,3.4,3.4,0,0,0,1.43-1.72h.19a14.78,14.78,0,0,1,7.27,1.88,4.47,4.47,0,0,1,1.3,1.9,4.39,4.39,0,0,1,.17,2.3,2.88,2.88,0,0,1-.39,1.46l-1.53.79c-.92-.15-.38-1.81-.25-2.28.48-1.44-1.82-2.07-2.26-.61-.64,2-.58,4.48,1.88,5.15a4,4,0,0,0,1.69,0,4.08,4.08,0,0,0,2.65-2,4,4,0,0,0,.5-1.61v-1.12a1.29,1.29,0,0,0,.48-.28,23.75,23.75,0,0,1,7-4.61c1.59-.67,4.24-1.37,5,1.08a3.46,3.46,0,0,1-.35,2.48c-.6,1.36-1.5,1.46-2.68.32.16-1.5-2.19-1.5-2.35,0a3.23,3.23,0,0,0,.28,1.56,3.2,3.2,0,0,0,1,1.23,3.19,3.19,0,0,0,3.06.39,5.56,5.56,0,0,0,2.73-2.38,5.46,5.46,0,0,0,.68-3.54,4.72,4.72,0,0,0-.38-1.33,1,1,0,0,0,0-.55,14.22,14.22,0,0,1,1.37-6.35c.54-1.12,1.53-2.42,2.9-2.42a1.83,1.83,0,0,1,1.21.45,1.78,1.78,0,0,1,.58,1.15,1.79,1.79,0,0,1-1.44,1.93c-1.5.32-.86,2.61.64,2.29a4.13,4.13,0,0,0,.92-8Zm-6.56,3.17a18,18,0,0,0-1.76,6.11,6,6,0,0,0-3.18-.48,18.55,18.55,0,0,0-9.4,5.19c-1.37-3.82-6.38-5-10.65-5.41a5.52,5.52,0,0,0-.19-1.46c-.73-3.18-3.18-5.22-4.56-8,2.33-2.13,2.17-6.77,1.92-10.07,3.73,0,6.37-5.7,8.79-8.37,2.36,2.86,7.78,1.82,11.22.45,0,4,5.16,5.53,8.76,6.71a9,9,0,0,0-.76,4.8,18.07,18.07,0,0,0,3.54,7.22,6,6,0,0,0-2.32,1.16,6.17,6.17,0,0,0-1.64,2"/><path class="cls-9" d="M139,105.31a1.84,1.84,0,0,1-1.12,1.68,1.89,1.89,0,0,1-1,.1,1.84,1.84,0,0,1-1.43-1.42,1.87,1.87,0,0,1,.1-1,1.85,1.85,0,0,1,.67-.82,1.89,1.89,0,0,1,1-.3,1.86,1.86,0,0,1,1.28.54A1.88,1.88,0,0,1,139,105.31Z"/><path class="cls-9" d="M144.35,120.48a1.89,1.89,0,0,1-.13.7,1.79,1.79,0,0,1-.39.59,1.73,1.73,0,0,1-.6.39,1.85,1.85,0,0,1-.7.13,2,2,0,0,1-.76-.06,1.83,1.83,0,0,1-.67-.37,1.76,1.76,0,0,1-.46-.62,1.74,1.74,0,0,1-.16-.75,1.78,1.78,0,0,1,.16-.75,1.82,1.82,0,0,1,.46-.61,1.7,1.7,0,0,1,.67-.37,1.64,1.64,0,0,1,.76-.06,1.84,1.84,0,0,1,.7.12,1.79,1.79,0,0,1,.59.39,1.65,1.65,0,0,1,.39.58A1.81,1.81,0,0,1,144.35,120.48Z"/><path class="cls-9" d="M138.78,134.88a1.81,1.81,0,0,1-1.81,1.81,1.68,1.68,0,0,1-.7-.13,1.73,1.73,0,0,1-.6-.39,1.79,1.79,0,0,1-.39-.59,1.85,1.85,0,0,1-.13-.7,1.81,1.81,0,0,1,.53-1.28,1.83,1.83,0,0,1,3.1,1.28Z"/><path class="cls-9" d="M125.11,142.67a1.82,1.82,0,0,1-.31,1,1.77,1.77,0,0,1-.81.67,1.88,1.88,0,0,1-1,.1,1.77,1.77,0,0,1-.93-.5,1.81,1.81,0,0,1-.5-.92,1.85,1.85,0,0,1,.78-1.87,1.84,1.84,0,0,1,1-.3,1.81,1.81,0,0,1,1.82,1.81Z"/><path class="cls-9" d="M109.78,139.55a1.81,1.81,0,1,1-.53-1.28A1.81,1.81,0,0,1,109.78,139.55Z"/><path class="cls-9" d="M99.39,127.89a1.85,1.85,0,0,1-.31,1,1.78,1.78,0,0,1-.82.66,1.8,1.8,0,0,1-1.05.1,1.75,1.75,0,0,1-.93-.51,1.83,1.83,0,0,1-.49-.93,1.73,1.73,0,0,1,.12-1,1.85,1.85,0,0,1,.68-.81,1.92,1.92,0,0,1,1-.29,1.81,1.81,0,0,1,1.78,1.82Z"/><path class="cls-9" d="M99.65,112a1.83,1.83,0,0,1-1.82,1.81,1.85,1.85,0,0,1-.7-.13,1.69,1.69,0,0,1-.59-.39,1.81,1.81,0,0,1-.4-.59A1.89,1.89,0,0,1,96,112a1.81,1.81,0,0,1,.53-1.28A1.83,1.83,0,0,1,99.65,112Z"/><path class="cls-9" d="M109.91,99.87a1.84,1.84,0,0,1-1.12,1.68,1.8,1.8,0,0,1-1.05.1,1.83,1.83,0,0,1-.93-.49,1.82,1.82,0,0,1,1.28-3.1,1.83,1.83,0,0,1,1.29.53A1.81,1.81,0,0,1,109.91,99.87Z"/><path class="cls-9" d="M125.52,97.14a1.84,1.84,0,0,1-.54,1.27,1.86,1.86,0,0,1-1.27.54,1.81,1.81,0,0,1-1.82-1.81,1.85,1.85,0,0,1,.13-.7,1.77,1.77,0,0,1,1-1,1.75,1.75,0,0,1,.71-.13,1.81,1.81,0,0,1,1.81,1.81Z"/></svg>