<svg width="223" height="57" viewBox="0 0 223 57" fill="none" xmlns="http://www.w3.org/2000/svg">
<path fill-rule="evenodd" clip-rule="evenodd" d="M211.85 32.0721C211.874 32.1107 211.901 32.1468 211.932 32.1799C212.376 32.7109 212.942 33.1272 213.581 33.3932C214.221 33.6593 214.915 33.7673 215.606 33.708C217.114 33.6355 218.584 33.2144 219.901 32.4779C220.182 32.3268 220.454 32.1595 220.715 31.977L221.655 31.3429L222.151 32.3765L221.992 32.5794C221.469 33.2364 220.882 33.8397 220.238 34.3802C219.558 34.9792 218.826 35.5181 218.052 35.9907C217.336 36.407 216.563 36.7187 215.758 36.9165C214.918 37.1329 214.052 37.2395 213.184 37.2335C212.291 37.2485 211.4 37.131 210.541 36.8848C209.807 36.6716 209.13 36.2991 208.558 35.7942C208.078 35.3575 207.652 34.8658 207.287 34.3294C206.932 33.8139 206.647 33.253 206.442 32.6618C205.823 30.8213 205.731 28.8451 206.175 26.9551C206.576 25.0728 207.514 23.3463 208.876 21.9839C209.801 21.0746 210.893 20.3513 212.091 19.8534C213.282 19.372 214.556 19.1285 215.841 19.1369C216.984 19.1367 218.106 19.4386 219.094 20.012C220.07 20.6033 220.97 21.3102 221.776 22.1171L222.107 22.4341L211.85 32.0721ZM211.1 30.0431L214.818 26.5113C215.262 26.0673 215.542 25.4861 215.612 24.8627C215.664 24.4943 215.643 24.1193 215.548 23.7594C215.462 23.4436 215.296 23.1553 215.065 22.9224C214.804 22.6868 214.475 22.5403 214.125 22.5039C213.834 22.4675 213.539 22.4957 213.261 22.5863C212.613 22.8751 212.1 23.3987 211.824 24.051C211.442 24.9009 211.197 25.8064 211.1 26.7332C210.938 27.8306 210.938 28.9457 211.1 30.0431Z" fill="#A0222C"/>
<path fill-rule="evenodd" clip-rule="evenodd" d="M197.399 23.7145C196.732 23.7145 195.988 24.4945 195.607 24.9446C194.659 26.1319 193.861 27.4309 193.23 28.8125L193.268 33.4032C193.308 33.9367 193.234 34.4726 193.052 34.9758C192.773 35.4984 192.358 35.9365 191.851 36.2439C191.46 36.5141 191.032 36.7276 190.58 36.878C190.066 37.0459 189.536 37.1606 188.998 37.2204L188.477 37.2838V23.5624C188.486 23.4475 188.454 23.3331 188.388 23.239C188.309 23.1798 188.213 23.1465 188.115 23.1439H188.045C187.693 23.1668 187.354 23.2804 187.06 23.4736L186.545 21.8757C187.591 21.0335 188.684 20.2503 189.818 19.5296C190.019 19.4086 190.232 19.3067 190.453 19.2253C190.657 19.1514 190.872 19.1128 191.089 19.1111C191.479 19.1061 191.861 19.2285 192.175 19.4599C192.474 19.6943 192.695 20.0122 192.811 20.3729C193.039 21.2338 193.179 22.1154 193.23 23.0044C193.268 23.5814 193.294 24.152 193.3 24.7291C193.516 24.3993 193.745 24.095 193.974 23.7589C194.202 23.4229 194.527 23.0424 194.825 22.681C195.124 22.3322 195.461 21.9962 195.753 21.6601C196.045 21.3241 196.389 21.026 196.763 20.7027C197.109 20.3918 197.481 20.1118 197.876 19.8657C198.238 19.6435 198.624 19.4606 199.026 19.3204L199.324 19.2379L199.636 19.1619C199.845 19.1227 200.058 19.1015 200.271 19.0984C200.634 19.0927 200.994 19.1684 201.324 19.3198C201.654 19.4712 201.946 19.6946 202.178 19.9735C202.597 20.4985 202.879 21.1196 202.998 21.7806C203.102 22.2682 203.153 22.7657 203.15 23.2643V33.7456C203.15 34.1451 203.296 34.2719 203.697 34.1261C204.308 33.843 204.875 33.4735 205.381 33.0291L205.972 34.2466C204.802 35.5147 203.201 37.2014 201.288 37.2014C200.897 37.2034 200.51 37.1224 200.153 36.9639C199.796 36.8054 199.477 36.5729 199.216 36.282C198.669 35.6716 198.366 34.8817 198.365 34.0627V25.4519C198.368 25.0398 198.265 24.6338 198.066 24.2725C197.934 24.0166 197.705 23.823 197.431 23.7336L197.399 23.7145Z" fill="#A0222C"/>
<path fill-rule="evenodd" clip-rule="evenodd" d="M182.026 33.9489C179.192 36.7832 175.182 37.7534 171.185 37.7534C167.595 37.7534 163.788 36.7832 161.017 34.5323C159.765 33.4969 158.748 32.2069 158.034 30.7483C157.321 29.2897 156.928 27.696 156.88 26.0737C156.849 25.6488 156.836 25.2113 156.836 24.8055C156.836 20.9693 157.986 17.1966 160.814 14.3813C163.403 11.8798 166.827 10.421 170.429 10.2851C170.766 10.2851 171.109 10.2534 171.452 10.2534C180.38 10.2534 185.788 14.4383 185.788 23.1886C185.788 27.0501 184.911 31.0702 182.026 33.9679M162.066 24.0066C162.066 29.7957 165.942 35.3312 171.541 35.3312C177.14 35.3312 181.016 29.7957 181.016 24.0066C181.016 18.2174 177.146 12.6819 171.541 12.6819C165.936 12.6819 162.066 18.2174 162.066 24.0066Z" fill="#A0222C"/>
<path fill-rule="evenodd" clip-rule="evenodd" d="M87.4411 32.0716L87.5238 32.1858C87.9691 32.7161 88.5361 33.1314 89.1767 33.3964C89.8172 33.6613 90.5124 33.768 91.2032 33.7076C92.7087 33.6315 94.1764 33.2106 95.4927 32.4774C95.7723 32.3189 96.0519 32.1541 96.3124 31.9702L97.2466 31.3361L97.7486 32.3697L97.5834 32.5789C97.0608 33.2343 96.4755 33.8374 95.8358 34.3797C95.1541 34.9773 94.4228 35.5161 93.6498 35.9902C92.9297 36.3991 92.1582 36.7104 91.3557 36.916C90.5124 37.129 89.6456 37.2355 88.7756 37.233C87.8817 37.2455 86.9909 37.1259 86.1321 36.8779C85.3965 36.6622 84.7174 36.2877 84.143 35.781C83.6651 35.3448 83.2386 34.8555 82.872 34.3226C82.5229 33.8012 82.239 33.239 82.0269 32.6486C81.4091 30.8077 81.3189 28.8313 81.7663 26.9419C82.1659 25.0587 83.1014 23.3304 84.4607 21.9644C85.3907 21.0583 86.4838 20.3354 87.6826 19.8339C88.871 19.352 90.1429 19.1085 91.4256 19.1174C92.5699 19.1136 93.694 19.4181 94.6793 19.9988C95.6519 20.5914 96.5482 21.3005 97.3483 22.1103L97.6787 22.421L87.4411 32.0716ZM86.7231 30.0426L90.4406 26.5108C90.7873 26.1523 91.036 25.711 91.1628 25.2292C91.2897 24.7473 91.2904 24.2411 91.1651 23.7589C91.0807 23.4442 90.914 23.1575 90.6821 22.9282C90.4258 22.6855 90.0938 22.5378 89.7416 22.5097C89.4511 22.4671 89.1545 22.4954 88.8773 22.5922C88.2297 22.881 87.7163 23.4046 87.4411 24.0569C87.0494 24.9027 86.7983 25.8064 86.6976 26.7327C86.5325 27.8298 86.5325 28.9454 86.6976 30.0426" fill="#A0222C"/>
<path fill-rule="evenodd" clip-rule="evenodd" d="M112.828 27.9182L109.53 34.0053L107.547 37.8098L101.237 26.1364V26.1745L100.086 24.2342L98.3262 21.6979L98.6693 21.3428C99.1338 20.8351 99.6373 20.3644 100.175 19.9352C100.574 19.561 101.062 19.2947 101.593 19.1616C101.822 19.183 102.045 19.2501 102.248 19.359C102.451 19.4679 102.63 19.6164 102.775 19.7957C103.195 20.2559 103.556 20.7672 103.848 21.3174C104.643 22.7061 105.38 24.1201 106.117 25.5341C106.753 26.7515 107.388 27.9753 108.024 29.1737C108.274 29.6271 108.554 30.0634 108.862 30.4799C108.939 30.5877 109.021 30.6891 109.104 30.7842L111.646 25.9843C111.493 25.439 109.523 23.2197 109.053 22.9153C108.894 22.8139 108.729 22.7061 108.57 22.5919L108.17 22.3003L108.507 21.9452C109.173 21.2524 109.875 20.5942 110.61 19.9732C111.013 19.5835 111.51 19.304 112.053 19.1616C112.281 19.1831 112.503 19.2503 112.705 19.3592C112.907 19.4682 113.085 19.6166 113.228 19.7957C113.649 20.2574 114.012 20.7684 114.308 21.3174C115.096 22.7061 115.834 24.1201 116.571 25.5341C117.206 26.7515 117.842 27.9753 118.515 29.1737C118.761 29.6283 119.039 30.0649 119.348 30.4799C119.455 30.6285 119.572 30.7704 119.697 30.9047C120.147 30.1393 120.536 29.3401 120.86 28.5142C121.259 27.6727 121.541 26.781 121.699 25.8638C121.654 25.0475 121.374 24.2615 120.892 23.6001C120.351 22.7942 119.64 22.1167 118.808 21.6155L118.579 21.4886V20.9624L118.782 20.8355C119.239 20.4771 119.664 20.0805 120.053 19.6498C120.516 19.1473 121.016 18.679 121.547 18.2485C121.694 18.1279 121.851 18.0197 122.017 17.9251C122.171 17.834 122.346 17.7817 122.525 17.7729C122.684 17.7814 122.84 17.8224 122.983 17.8934C123.134 17.9658 123.281 18.0485 123.421 18.1407C124.074 18.57 124.627 19.1345 125.042 19.7957C125.523 20.5109 125.886 21.2988 126.116 22.1291L126.16 22.2876L118.007 37.7781L117.581 37.0045L112.828 27.9182Z" fill="#A0222C"/>
<path fill-rule="evenodd" clip-rule="evenodd" d="M148.904 36.1935C148.688 36.3457 148.46 36.4915 148.224 36.6247C148.009 36.7472 147.786 36.8573 147.557 36.9544C147.339 37.0443 147.114 37.1164 146.884 37.17C146.675 37.218 146.462 37.2435 146.248 37.2461C145.785 37.2544 145.325 37.1613 144.901 36.9734C144.514 36.7907 144.193 36.4942 143.979 36.1237C143.774 35.7664 143.626 35.3791 143.541 34.9761C143.444 34.5175 143.397 34.0498 143.401 33.5811V17.3741C143.389 16.3327 143.515 15.2944 143.776 14.2861C143.986 13.4443 144.367 12.6545 144.895 11.9654C145.467 11.2669 146.249 10.7693 147.125 10.545C148 10.3275 148.9 10.2293 149.8 10.2534L154.338 10.209L153.969 10.8431C153.504 11.7289 152.779 12.4521 151.891 12.9165C151.06 13.3033 150.158 13.5189 149.241 13.5506C149.076 13.5506 148.917 13.5506 148.758 13.6013L148.441 13.652C148.431 13.6937 148.431 13.7371 148.441 13.7788L148.301 32.649C148.293 32.7557 148.313 32.8626 148.358 32.9597C148.394 33.007 148.442 33.045 148.496 33.0704C148.55 33.0957 148.61 33.1078 148.669 33.1055C148.969 33.1089 149.267 33.0639 149.553 32.9724C150.33 32.7181 151.063 32.346 151.726 31.8691L151.809 31.8057L151.885 31.8754C152.241 32.1734 152.597 32.4715 152.965 32.7505L153.067 32.8265L152.73 33.1689C152.279 33.6056 151.804 34.0164 151.307 34.3991C150.544 34.9951 149.756 35.5975 148.962 36.1618L148.904 36.1935Z" fill="#A0222C"/>
<path fill-rule="evenodd" clip-rule="evenodd" d="M131.391 32.0716L131.467 32.1858C131.912 32.7161 132.479 33.1314 133.12 33.3964C133.76 33.6613 134.456 33.7681 135.146 33.7076C136.652 33.6331 138.12 33.2121 139.436 32.4775C139.718 32.3233 139.992 32.1539 140.256 31.9702L141.196 31.3361L141.692 32.3697L141.533 32.5789C141.01 33.2359 140.422 33.8392 139.779 34.3797C139.099 34.9788 138.367 35.5176 137.593 35.9902C136.874 36.4013 136.102 36.7127 135.299 36.916C134.458 37.1294 133.593 37.2359 132.725 37.233C131.831 37.2459 130.94 37.1262 130.082 36.878C129.345 36.6638 128.666 36.2891 128.093 35.781C127.611 35.3481 127.184 34.8584 126.822 34.3226C126.457 33.8097 126.163 33.2511 125.945 32.6613C125.325 30.821 125.232 28.8446 125.678 26.9546C126.08 25.0724 127.015 23.3449 128.372 21.9771C129.302 21.071 130.395 20.3481 131.594 19.8466C132.785 19.3647 134.059 19.1212 135.343 19.1301C136.487 19.1291 137.611 19.4334 138.597 20.0115C139.574 20.6008 140.475 21.3079 141.279 22.1166L141.609 22.4273L131.391 32.0716ZM130.666 30.0426L134.384 26.5108C134.829 26.0677 135.11 25.486 135.178 24.8622C135.231 24.4935 135.207 24.1179 135.108 23.7589C135.026 23.4432 134.859 23.156 134.625 22.9282C134.371 22.6868 134.041 22.5392 133.691 22.5098C133.401 22.4672 133.104 22.4954 132.827 22.5922C132.178 22.8788 131.664 23.4031 131.391 24.0569C130.997 24.9023 130.744 25.8061 130.641 26.7327C130.479 27.8301 130.479 28.9452 130.641 30.0426" fill="#A0222C"/>
<path fill-rule="evenodd" clip-rule="evenodd" d="M78.4106 32.0339V14.4382C78.388 14.0947 78.443 13.7505 78.5717 13.4311C78.7004 13.1117 78.8995 12.8253 79.1542 12.5931C79.7332 12.1772 80.3775 11.8601 81.0606 11.6546L82.0646 11.2678V10.7225L81.6007 10.5513C81.3495 10.459 81.0898 10.391 80.8255 10.3484C80.525 10.2987 80.2213 10.2712 79.9167 10.266C79.5841 10.2499 79.2508 10.2562 78.919 10.285C78.5947 10.3103 78.2721 10.3547 77.9531 10.4182H77.8959C77.2022 10.561 76.5339 10.8068 75.9132 11.1474C75.3141 11.4753 74.7766 11.9044 74.3245 12.4155C73.883 12.907 73.5342 13.4741 73.295 14.0895C73.0693 14.7224 72.9553 15.3897 72.9582 16.0615V33.784C72.9662 34.7932 72.7785 35.7944 72.4054 36.7324C71.1344 39.1102 67.957 40.2896 64.7796 40.2706C57.6559 40.2325 54.9169 33.8093 60.0135 30.7911L59.8737 30.2838H59.0603C58.2078 30.2805 57.3832 30.5871 56.7408 31.1462C56.0333 31.775 55.5142 32.587 55.241 33.4923C55.1083 33.9057 55.0126 34.3301 54.9551 34.7604V36.6627C54.9932 36.948 55.044 37.2333 55.1076 37.506C55.2138 37.9718 55.3649 38.4262 55.5588 38.8629C56.2403 40.4184 57.4237 41.7018 58.9205 42.5089C60.6029 43.3803 62.4777 43.8163 64.3729 43.777H64.4428C66.3347 43.773 68.2153 43.4866 70.0223 42.9274C71.6453 42.4201 73.1554 41.6064 74.4707 40.5305C75.6984 39.5174 76.684 38.2436 77.3557 36.8022C78.0254 35.3234 78.3741 33.72 78.3789 32.0973V32.0402L78.4106 32.0339Z" fill="#A0222C"/>
<path fill-rule="evenodd" clip-rule="evenodd" d="M56.2089 53.922C56.1951 54.3037 56.2591 54.6842 56.397 55.0405C56.5349 55.3967 56.7439 55.7213 57.0113 55.9947C57.2787 56.268 57.5989 56.4842 57.9525 56.6304C58.3061 56.7766 58.6858 56.8497 59.0685 56.8451C59.693 56.8489 60.2969 56.6232 60.7653 56.211C60.7653 56.211 60.7653 56.3315 60.7653 56.4457V56.7183H61.6676V53.7762H59.8565V54.6702H60.7525V55.3043C60.3539 55.6724 59.834 55.8821 59.2909 55.894C59.026 55.9041 58.7618 55.8589 58.5153 55.7614C58.2689 55.6638 58.0455 55.516 57.8595 55.3275C57.6735 55.1389 57.529 54.9137 57.4351 54.6662C57.3413 54.4188 57.3003 54.1545 57.3146 53.8903C57.3021 53.6273 57.3458 53.3647 57.4428 53.1198C57.5398 52.8749 57.6878 52.6534 57.8771 52.4699C58.0664 52.2864 58.2926 52.1452 58.5407 52.0556C58.7888 51.9659 59.0532 51.93 59.3164 51.95C59.8809 51.9522 60.4287 52.1418 60.8733 52.489L61.4007 51.7281C60.7858 51.2325 60.0108 50.9778 59.221 51.0116C58.8299 50.997 58.4398 51.0617 58.0744 51.2017C57.709 51.3416 57.3758 51.554 57.0949 51.826C56.814 52.098 56.5912 52.4239 56.44 52.7842C56.2889 53.1444 56.2124 53.5315 56.2152 53.922M62.8623 53.922C62.8623 54.7208 63.1804 55.4869 63.7464 56.0517C64.3125 56.6166 65.0803 56.9339 65.8809 56.9339C66.6814 56.9339 67.4492 56.6166 68.0153 56.0517C68.5814 55.4869 68.8994 54.7208 68.8994 53.922C68.8994 53.1232 68.5814 52.3571 68.0153 51.7923C67.4492 51.2275 66.6814 50.9102 65.8809 50.9102C65.0803 50.9102 64.3125 51.2275 63.7464 51.7923C63.1804 52.3571 62.8623 53.1232 62.8623 53.922ZM63.9554 53.922C63.9554 53.4125 64.1582 52.9238 64.5193 52.5635C64.8804 52.2032 65.3702 52.0008 65.8809 52.0008C66.3915 52.0008 66.8813 52.2032 67.2424 52.5635C67.6035 52.9238 67.8064 53.4125 67.8064 53.922C67.8064 54.4316 67.6035 54.9203 67.2424 55.2806C66.8813 55.6409 66.3915 55.8433 65.8809 55.8433C65.3702 55.8433 64.8804 55.6409 64.5193 55.2806C64.1582 54.9203 63.9554 54.4316 63.9554 53.922ZM70.3864 56.7817H73.9705V55.8686H71.4286V51.1067H70.3674L70.3864 56.7817ZM75.2224 56.7817H77.2178C79.0162 56.7817 80.1919 55.7355 80.1919 53.9537C80.1919 52.172 79.0162 51.1384 77.2178 51.1384H75.2224V56.7817ZM76.2837 55.9004V51.9881H77.1606C77.6764 51.9881 78.171 52.1925 78.5357 52.5564C78.9003 52.9203 79.1052 53.4138 79.1052 53.9284C79.1052 54.443 78.9003 54.9365 78.5357 55.3003C78.171 55.6642 77.6764 55.8686 77.1606 55.8686L76.2837 55.9004ZM83.6108 54.9556H86.0891V54.0362H83.6108V54.9556ZM89.8766 56.7817H91.8656C93.664 56.7817 94.8397 55.7355 94.8397 53.9537C94.8397 52.172 93.664 51.1384 91.8656 51.1384H89.8766V56.7817ZM90.9378 55.9004V51.9881H91.8084C92.3242 51.9881 92.8188 52.1925 93.1835 52.5564C93.5481 52.9203 93.753 53.4138 93.753 53.9284C93.753 54.443 93.5481 54.9365 93.1835 55.3003C92.8188 55.6642 92.3242 55.8686 91.8084 55.8686L90.9378 55.9004ZM96.3585 56.7817H97.4197V51.1384H96.3585V56.7817ZM102.713 56.7817H103.806L101.747 51.1384H100.642L98.5827 56.7817H99.6757L100.171 55.336H102.218L102.713 56.7817ZM101.207 52.1149C101.207 52.1149 101.334 52.6729 101.436 52.9899L101.957 54.499H100.426L100.947 52.9899C101.061 52.6729 101.188 52.1149 101.188 52.1149H101.207ZM104.779 56.7817H105.84L106.088 53.6113C106.088 53.2436 106.088 52.73 106.088 52.73C106.088 52.73 106.272 53.2879 106.412 53.6113L107.346 55.7989H108.274L109.221 53.6113C109.36 53.2879 109.532 52.7426 109.532 52.7426C109.532 52.7426 109.532 53.2436 109.532 53.6113L109.78 56.7817H110.835L110.364 51.1384H109.227L108.153 53.8967C108.02 54.2327 107.861 54.721 107.861 54.721C107.861 54.721 107.695 54.2327 107.562 53.8967L106.418 51.1067H105.287L104.779 56.7817ZM112.188 53.922C112.188 54.7208 112.506 55.4869 113.072 56.0517C113.638 56.6166 114.406 56.9339 115.207 56.9339C116.007 56.9339 116.775 56.6166 117.341 56.0517C117.907 55.4869 118.225 54.7208 118.225 53.922C118.225 53.1232 117.907 52.3571 117.341 51.7923C116.775 51.2275 116.007 50.9102 115.207 50.9102C114.406 50.9102 113.638 51.2275 113.072 51.7923C112.506 52.3571 112.188 53.1232 112.188 53.922ZM113.281 53.922C113.281 53.4125 113.484 52.9238 113.845 52.5635C114.206 52.2032 114.696 52.0008 115.207 52.0008C115.718 52.0008 116.207 52.2032 116.568 52.5635C116.929 52.9238 117.132 53.4125 117.132 53.922C117.132 54.4316 116.929 54.9203 116.568 55.2806C116.207 55.6409 115.718 55.8433 115.207 55.8433C114.696 55.8433 114.206 55.6409 113.845 55.2806C113.484 54.9203 113.281 54.4316 113.281 53.922ZM119.712 56.7817H120.774V53.4972C120.774 53.1675 120.716 52.6285 120.716 52.6285C120.863 52.9272 121.026 53.2173 121.206 53.4972L123.405 56.75H124.453V51.1067H123.405V54.3659C123.405 54.7019 123.462 55.2409 123.462 55.2409C123.319 54.9394 123.158 54.6471 122.979 54.3659L120.767 51.1067H119.706L119.712 56.7817ZM126.366 56.7817H128.361C130.16 56.7817 131.335 55.7355 131.335 53.9537C131.335 52.172 130.16 51.1384 128.361 51.1384H126.366V56.7817ZM127.427 55.9004V51.9881H128.304C128.82 51.9881 129.314 52.1925 129.679 52.5564C130.044 52.9203 130.249 53.4138 130.249 53.9284C130.249 54.443 130.044 54.9365 129.679 55.3003C129.314 55.6642 128.82 55.8686 128.304 55.8686L127.427 55.9004ZM134.754 54.9556H137.233V54.0362H134.754V54.9556ZM141.02 56.7817H142.081V54.8034H143.27C143.522 54.8182 143.775 54.7813 144.012 54.6951C144.25 54.6089 144.467 54.4751 144.651 54.302C144.835 54.1289 144.982 53.9202 145.082 53.6886C145.182 53.4569 145.234 53.2073 145.234 52.9551C145.234 52.7028 145.182 52.4532 145.082 52.2216C144.982 51.9899 144.835 51.7812 144.651 51.6081C144.467 51.435 144.25 51.3013 144.012 51.215C143.775 51.1288 143.522 51.092 143.27 51.1067H141.007L141.02 56.7817ZM142.081 53.9474V52.0452H143.104C143.233 52.0346 143.363 52.0521 143.484 52.0965C143.605 52.1409 143.715 52.2111 143.806 52.3022C143.898 52.3933 143.968 52.5031 144.013 52.6241C144.057 52.745 144.075 52.8742 144.064 53.0026C144.074 53.133 144.055 53.2639 144.009 53.3864C143.963 53.5089 143.891 53.62 143.798 53.7121C143.705 53.8043 143.593 53.8753 143.47 53.9203C143.347 53.9653 143.216 53.9832 143.085 53.9728L142.081 53.9474ZM146.479 56.7817H150.063V55.8686H147.521V51.1067H146.466L146.479 56.7817ZM154.905 56.7817H155.998L153.908 51.1067H152.795L150.743 56.75H151.836L152.332 55.3043H154.378L154.905 56.7817ZM153.399 52.1149C153.399 52.1149 153.52 52.6729 153.628 52.9899L154.149 54.499H152.637L153.151 52.9899C153.266 52.6729 153.399 52.1149 153.399 52.1149ZM158.025 56.7817H159.087V51.9881H160.993V51.1067H156.1V51.9881H158.006L158.025 56.7817ZM162.182 56.7817H163.243V51.1384H162.169L162.182 56.7817ZM165.13 56.7817H166.191V53.4972C166.191 53.1675 166.134 52.6285 166.134 52.6285C166.277 52.9277 166.438 53.2178 166.617 53.4972L168.829 56.75H169.884V51.1067H168.829V54.3659C168.829 54.7019 168.886 55.2409 168.886 55.2409C168.74 54.9398 168.577 54.6477 168.396 54.3659L166.185 51.1067H165.124L165.13 56.7817ZM171.701 54.721C171.701 55.9891 172.648 56.8451 174.059 56.8451C175.469 56.8451 176.416 55.9891 176.416 54.721V51.1067H175.355V54.7146C175.367 54.8856 175.341 55.0571 175.278 55.2167C175.215 55.3762 175.117 55.5198 174.992 55.637C174.867 55.7542 174.717 55.842 174.553 55.8942C174.389 55.9463 174.216 55.9614 174.046 55.9384C173.882 55.9558 173.716 55.9378 173.559 55.8855C173.403 55.8332 173.259 55.748 173.139 55.6355C173.018 55.523 172.923 55.3859 172.86 55.2336C172.798 55.0813 172.769 54.9172 172.775 54.7527V51.1384H171.701V54.721ZM178.056 56.75H179.117L179.365 53.5796C179.365 53.2119 179.365 52.6983 179.365 52.6983C179.365 52.6983 179.543 53.2562 179.683 53.5796L180.598 55.7799H181.526L182.504 53.5923C182.644 53.2689 182.816 52.7236 182.816 52.7236C182.816 52.7236 182.816 53.2245 182.816 53.5923L183.063 56.7627H184.118L183.648 51.1194H182.504L181.36 53.9093C181.233 54.2454 181.074 54.7336 181.074 54.7336C181.074 54.7336 180.915 54.2454 180.782 53.9093L179.638 51.1194H178.501L178.056 56.75ZM187.766 54.9239H190.244V54.0362H187.766V54.9239ZM193.587 56.0715C194.132 56.5809 194.855 56.8584 195.601 56.8451C196.822 56.8451 197.508 56.0906 197.508 55.1902C197.508 53.3894 194.763 53.6367 194.763 52.6539C194.763 52.2544 195.15 51.9754 195.64 51.9754C196.106 51.999 196.551 52.1725 196.91 52.47L197.374 51.633C196.895 51.2105 196.273 50.9841 195.633 50.9989C194.508 50.9989 193.67 51.6964 193.67 52.6348C193.67 54.3722 196.428 54.1947 196.428 55.1712C196.428 55.634 196.027 55.856 195.582 55.856C195.043 55.8294 194.529 55.619 194.127 55.2599L193.587 56.0715ZM198.995 56.75H200.056V51.1067H198.995V56.75ZM201.943 56.75H205.528V55.8686H202.986V51.1067H201.924L201.943 56.75ZM207.745 56.75H208.8L210.929 51.1067H209.798L208.527 54.7844C208.413 55.1141 208.317 55.615 208.305 55.615C208.305 55.615 208.197 55.1141 208.082 54.7844L206.811 51.1067H205.667L207.745 56.75ZM212.067 56.75H215.695V55.8686H213.153V54.3532H215.123V53.4655H213.153V51.9881H215.549V51.1067H212.048L212.067 56.75ZM217.208 56.75H218.269V54.6702H219.286L220.449 56.7754H221.631L220.404 54.6702C220.35 54.5699 220.283 54.4763 220.207 54.3912C220.508 54.2617 220.763 54.0449 220.938 53.7689C221.114 53.493 221.202 53.1708 221.192 52.8441C221.209 52.521 221.127 52.2005 220.957 51.9252C220.786 51.65 220.536 51.433 220.239 51.3033C219.863 51.1685 219.462 51.1145 219.063 51.1448H217.157L217.208 56.75ZM218.269 53.7572V51.9881H219.076C219.902 51.9881 220.144 52.3242 220.144 52.8631C220.153 52.985 220.135 53.1074 220.091 53.2217C220.048 53.3359 219.98 53.4393 219.892 53.5245C219.804 53.6097 219.699 53.6747 219.583 53.7149C219.467 53.7551 219.344 53.7695 219.222 53.7572H218.269Z" fill="#231F20"/>
<path fill-rule="evenodd" clip-rule="evenodd" d="M23.956 47.6955C17.6414 47.6788 11.5901 45.1693 7.12379 40.7153C2.65751 36.2612 0.139266 30.2245 0.119141 23.9239C0.137574 17.6227 2.654 11.5847 7.11891 7.12845C11.5838 2.6722 17.6345 0.159721 23.9496 0.139648C30.2648 0.159721 36.3154 2.6722 40.7804 7.12845C45.2453 11.5847 47.7617 17.6227 47.7801 23.9239C47.76 30.2224 45.2435 36.2571 40.78 40.7108C36.3164 45.1645 30.2684 47.6754 23.956 47.6955Z" fill="#9F212C"/>
<path fill-rule="evenodd" clip-rule="evenodd" d="M23.9568 47.6953C18.4243 47.7083 13.0586 45.8058 8.77497 42.3122C4.49131 38.8187 1.555 33.9505 0.466868 28.538C-0.621267 23.1256 0.206175 17.5041 2.80806 12.6323C5.40995 7.7606 9.62512 3.94043 14.7346 1.82339C19.8441 -0.293651 25.5314 -0.576424 30.8265 1.0233C36.1216 2.62303 40.6965 6.00616 43.7709 10.5957C46.8453 15.1852 48.2287 20.6968 47.6852 26.1904C47.1418 31.684 44.705 36.8193 40.7906 40.7204C38.5819 42.93 35.9582 44.6833 33.0697 45.8801C30.1811 47.077 27.0845 47.6938 23.9568 47.6953ZM23.9568 46.7568C29.274 46.7641 34.429 44.9302 38.5423 41.5681C42.6555 38.2059 45.4721 33.5238 46.5115 28.3207C47.5508 23.1175 46.7486 17.7157 44.2416 13.0369C41.7346 8.35816 37.6782 4.69232 32.7645 2.66489C27.8509 0.637454 22.3844 0.374063 17.2978 1.91965C12.2112 3.46525 7.81966 6.72404 4.87251 11.14C1.92537 15.556 0.605216 20.8555 1.1373 26.1344C1.66939 31.4133 4.02074 36.3444 7.79017 40.0863C9.91177 42.2063 12.432 43.8874 15.2063 45.0331C17.9805 46.1789 20.9543 46.7668 23.9568 46.7632" fill="#A0222C"/>
<mask id="mask0_2860_3351" style="mask-type:luminance" maskUnits="userSpaceOnUse" x="4" y="4" width="40" height="40">
<path d="M11.4382 18.198C11.7349 18.2043 12.0231 18.2979 12.2667 18.467C12.5103 18.6362 12.6984 18.8734 12.8073 19.1488C12.9163 19.4243 12.9412 19.7257 12.8791 20.0153C12.8169 20.3048 12.6704 20.5696 12.4579 20.7763C12.2454 20.9831 11.9765 21.1226 11.6848 21.1773C11.3932 21.2321 11.0918 21.1996 10.8185 21.084C10.5453 20.9685 10.3124 20.7749 10.149 20.5277C9.98566 20.2805 9.89914 19.9906 9.90032 19.6945C9.90093 19.417 9.97786 19.145 10.1227 18.9082C9.98573 18.969 9.83984 19.0076 9.69061 19.0223C9.05513 22.9536 13.0142 22.1927 13.0142 22.1927C14.4631 21.8313 21.9109 13.3917 21.9109 13.3917L21.339 12.8781C20.462 12.1046 20.9894 12.1553 20.9894 12.1553L24.8023 15.5666L23.633 15.5032C19.9409 20.6646 16.5792 22.2942 15.2129 22.7697C8.85813 24.1647 8.85813 19.9671 8.85813 19.9671L4.31445 23.6004C13.3192 30.5752 16.7953 34.4938 18.1361 36.4722C18.1399 36.1761 18.2313 35.8877 18.3987 35.6432C18.5662 35.3987 18.8024 35.209 19.0775 35.098C19.3526 34.987 19.6545 34.9596 19.9452 35.0192C20.236 35.0788 20.5025 35.2228 20.7115 35.433C20.9205 35.6433 21.0626 35.9105 21.1199 36.2011C21.1772 36.4916 21.1471 36.7926 21.0336 37.0662C20.92 37.3398 20.728 37.5738 20.4816 37.7389C20.2352 37.9039 19.9454 37.9927 19.6486 37.994C19.3711 37.9956 19.0985 37.921 18.8606 37.7784C18.9251 37.9116 18.9639 38.0557 18.975 38.2032C22.9213 38.7929 22.1142 34.8679 22.1142 34.8679C21.7393 33.4223 13.2175 26.0352 13.2175 26.0352L12.7028 26.6123C11.9275 27.5 11.9783 26.9673 11.9783 26.9673L15.4735 23.239V23.1565L15.7467 23.2136V24.3486C20.3222 27.8487 22.1015 30.9367 22.737 32.4331C24.1541 38.8183 19.9345 38.8183 19.9345 38.8183L23.5504 43.3709C30.5725 34.3797 34.4934 30.8859 36.4761 29.548C36.1793 29.5443 35.8903 29.4531 35.6453 29.286C35.4003 29.1189 35.2102 28.8833 35.0989 28.6088C34.9877 28.3342 34.9602 28.033 35.0199 27.7429C35.0796 27.4529 35.2239 27.1869 35.4347 26.9783C35.6454 26.7698 35.9132 26.6281 36.2044 26.5709C36.4956 26.5137 36.7972 26.5437 37.0714 26.657C37.3456 26.7703 37.5802 26.9619 37.7456 27.2078C37.911 27.4536 38 27.7428 38.0012 28.0389C38.0058 28.3142 37.9308 28.585 37.7852 28.8188C37.9222 28.758 38.0681 28.7195 38.2173 28.7047C38.8083 24.7734 34.8747 25.5787 34.8747 25.5787C33.4194 25.9528 26.0224 34.4558 26.0224 34.4558L26.5944 34.9694C27.4841 35.7366 26.9502 35.6922 26.9502 35.6922L23.633 32.5916L23.4488 31.9575L24.0842 32.3443C27.0773 28.1975 31.8371 25.2997 32.4154 24.9637L32.4726 24.9256C39.0816 23.4419 39.0053 27.7346 39.0053 27.7346L43.5935 24.1647C34.6396 17.1138 31.2016 13.1761 29.8735 11.1851C29.8672 11.4812 29.7734 11.7688 29.6039 12.0119C29.4343 12.2549 29.1966 12.4426 28.9206 12.5513C28.6445 12.66 28.3424 12.6849 28.0522 12.6228C27.762 12.5608 27.4967 12.4146 27.2895 12.2026C27.0823 11.9906 26.9424 11.7223 26.8876 11.4312C26.8327 11.1402 26.8652 10.8395 26.9811 10.5669C27.0969 10.2942 27.2909 10.0618 27.5387 9.89882C27.7864 9.73582 28.0769 9.64949 28.3737 9.65067C28.6901 9.64263 29.0038 9.71001 29.2888 9.84724C29.2425 9.6944 29.1597 9.55512 29.0473 9.44143C25.1074 8.80735 25.8699 12.7577 25.8699 12.7577C26.2322 14.2034 34.6904 21.6347 34.6904 21.6347L35.2051 21.0704C35.9804 20.189 35.9296 20.7153 35.9296 20.7153L32.409 24.4183L32.3137 23.4863C29.3462 21.4731 26.9161 18.7676 25.2345 15.6047C23.1374 9.66335 28.5961 8.86442 28.5961 8.86442L24.4719 4.5083C17.3799 13.4551 13.4654 16.8728 11.4382 18.198Z" fill="white"/>
</mask>
<g mask="url(#mask0_2860_3351)">
<path d="M43.5935 4.5083H4.31445V43.3392H43.5935V4.5083Z" fill="url(#paint0_linear_2860_3351)"/>
</g>
<mask id="mask1_2860_3351" style="mask-type:luminance" maskUnits="userSpaceOnUse" x="15" y="15" width="18" height="18">
<path d="M15.4483 22.6812C15.6147 22.9217 15.7284 23.1945 15.7821 23.4819C15.8357 23.7692 15.8281 24.0646 15.7596 24.3488C15.7596 24.3488 20.7291 27.9567 22.7499 32.4333C22.7499 32.4333 22.9215 31.5583 24.0971 32.3699C26.3693 29.3996 29.1935 26.8937 32.4156 24.9892L32.3266 23.5245C29.3906 21.4562 26.9653 18.7478 25.2346 15.6049L24.8152 15.5541L23.6332 15.5034C23.6332 15.5034 19.9792 20.9438 15.4355 22.6812" fill="white"/>
</mask>
<g mask="url(#mask1_2860_3351)">
<path d="M32.4102 15.5034H15.4492V32.4333H32.4102V15.5034Z" fill="url(#paint1_linear_2860_3351)"/>
</g>
<path d="M28.0802 24.4376C28.0884 24.3847 28.0771 24.3307 28.0485 24.2854C27.7466 23.9033 27.5084 23.4751 27.3431 23.0173C27.2859 22.77 27.2605 22.1803 27.6291 22.0979C27.9976 22.0154 28.1756 22.4846 28.0993 22.7953C28.023 23.106 28.4806 23.2138 28.5505 22.9222C28.6305 22.7391 28.6526 22.536 28.614 22.34C28.5754 22.1441 28.4779 21.9645 28.3344 21.8252C28.2053 21.7383 28.0602 21.6778 27.9075 21.6473C27.7547 21.6169 27.5975 21.617 27.4448 21.6477C27.0076 21.536 26.582 21.3831 26.1738 21.1911C25.9069 21.0326 25.6527 20.7853 25.7544 20.4556C25.7773 20.3455 25.843 20.2491 25.9371 20.1873C26.0312 20.1255 26.146 20.1034 26.2564 20.1259C26.517 20.202 26.5043 20.4936 26.4979 20.7219C26.5072 20.7783 26.5362 20.8296 26.5799 20.8666C26.6235 20.9036 26.6789 20.9239 26.7362 20.9239C26.7935 20.9239 26.8489 20.9036 26.8925 20.8666C26.9362 20.8296 26.9652 20.7783 26.9745 20.7219C26.9745 20.2273 26.8601 19.7074 26.2945 19.6503C26.1175 19.6322 25.939 19.6643 25.7794 19.7428C25.6198 19.8213 25.4856 19.9431 25.3922 20.0942H25.335C24.9307 20.3193 24.4761 20.4392 24.0132 20.4429C23.8267 20.455 23.6404 20.4179 23.473 20.3351C23.4175 20.3069 23.3691 20.2664 23.3314 20.2168C23.2938 20.1672 23.2678 20.1098 23.2556 20.0488C23.2434 19.9878 23.2452 19.9248 23.2608 19.8646C23.2764 19.8044 23.3055 19.7484 23.3459 19.701C23.6065 19.6503 23.7399 19.701 23.7463 19.923C23.7631 19.9835 23.8034 20.0349 23.8582 20.0658C23.8854 20.0811 23.9153 20.0909 23.9462 20.0947C23.9772 20.0985 24.0085 20.0962 24.0386 20.0878C24.0686 20.0795 24.0967 20.0653 24.1213 20.0462C24.1459 20.027 24.1664 20.0032 24.1817 19.9761C24.1971 19.949 24.2069 19.9192 24.2107 19.8883C24.2145 19.8574 24.2122 19.8261 24.2038 19.7961C24.0958 19.3777 23.7526 18.9211 23.2633 19.1621C23.1024 19.2536 22.9731 19.3917 22.8925 19.5582C22.812 19.7246 22.7839 19.9115 22.8121 20.0942C22.5064 20.3945 22.2473 20.7385 22.0432 21.115C21.8947 21.389 21.6505 21.5989 21.3569 21.7047C21.2789 21.7199 21.1985 21.7176 21.1215 21.6978C21.0446 21.6781 20.973 21.6415 20.912 21.5906C20.8358 21.4395 20.8177 21.2658 20.8612 21.1024C20.8612 20.9629 20.9756 20.8741 21.1599 20.8487C21.3505 21.0833 21.681 20.7536 21.4903 20.519C20.8231 19.6884 19.8826 21.3813 20.6705 21.9964L20.7722 22.0725C20.8326 22.5164 20.8326 22.9665 20.7722 23.4104C20.715 23.6957 20.5943 24.0445 20.2384 24.0001C20.016 24.0001 19.6029 23.6387 19.8826 23.4358C20.1622 23.2329 19.8826 22.8461 19.6474 23.0299C18.9675 23.5372 19.5394 24.501 20.2829 24.4693H20.4545C20.6292 24.7806 20.8223 25.0812 21.0328 25.3697C21.2031 25.5901 21.2988 25.8587 21.306 26.1369C21.306 26.3018 21.1789 26.5871 20.9438 26.5491C20.8739 26.5491 20.6451 26.2701 20.7913 26.2067C21.0645 26.0862 20.8294 25.6804 20.5498 25.8009C20.2702 25.9213 20.2003 26.5174 20.3782 26.771C20.5115 26.9104 20.6875 27.0017 20.8785 27.0304C21.0695 27.0591 21.2646 27.0236 21.4331 26.9295C21.564 26.8504 21.6647 26.7299 21.7191 26.5871H21.7572C22.2645 26.5846 22.7638 26.7135 23.2061 26.9612C23.3246 27.0625 23.414 27.1934 23.4654 27.3404C23.5167 27.4874 23.5281 27.6454 23.4984 27.7982C23.4997 27.9005 23.4733 28.0012 23.4222 28.0899L23.1171 28.2484C22.9329 28.2167 23.0409 27.887 23.0663 27.7919C23.1616 27.5065 22.7041 27.3797 22.6151 27.6714C22.488 28.0772 22.5007 28.5654 22.9901 28.6986C23.1021 28.7194 23.2173 28.7166 23.3282 28.6904C23.4391 28.6643 23.5434 28.6153 23.6343 28.5467C23.7252 28.4781 23.8007 28.3913 23.8561 28.2919C23.9115 28.1925 23.9455 28.0827 23.956 27.9694C23.956 27.8933 23.956 27.8172 23.956 27.7475C23.9916 27.7357 24.0241 27.7162 24.0513 27.6904C24.4594 27.3041 24.9327 26.9929 25.4494 26.771C25.7671 26.6378 26.2945 26.4984 26.4471 26.9866C26.4857 27.1544 26.4608 27.3306 26.3772 27.4812C26.2564 27.7538 26.0785 27.7729 25.8434 27.5446C25.8751 27.2466 25.4049 27.2466 25.3731 27.5446C25.3653 27.6519 25.3851 27.7593 25.4304 27.8569C25.4757 27.9545 25.5452 28.039 25.6323 28.1024C25.7193 28.1658 25.8211 28.2061 25.9281 28.2194C26.0351 28.2328 26.1437 28.2187 26.2437 28.1787C26.4728 28.0862 26.6643 27.9198 26.7876 27.706C26.9108 27.4922 26.9587 27.2434 26.9237 26.9993C26.9119 26.9072 26.8862 26.8174 26.8474 26.733C26.8575 26.6977 26.8575 26.6604 26.8474 26.6252C26.8399 26.1871 26.9334 25.7533 27.1207 25.357C27.2287 25.1351 27.4257 24.8751 27.699 24.8751C27.7878 24.8744 27.8737 24.9068 27.9398 24.966C28.0058 25.0252 28.0473 25.107 28.0561 25.1952C28.0649 25.2834 28.0403 25.3716 27.9871 25.4427C27.9339 25.5137 27.8561 25.5623 27.7689 25.5789C27.4702 25.6423 27.5973 26.0989 27.896 26.0355C28.0825 26.0155 28.2567 25.9329 28.3899 25.801C28.523 25.6692 28.6073 25.4961 28.6287 25.3101C28.6502 25.1241 28.6075 24.9364 28.5079 24.7779C28.4082 24.6193 28.2574 24.4993 28.0802 24.4376ZM26.7712 25.0717C26.5821 25.4532 26.4637 25.8656 26.4216 26.2891C26.2226 26.1998 26.0027 26.1669 25.7862 26.194C25.0729 26.3468 24.4208 26.7064 23.9115 27.2275C23.6382 26.4666 22.6405 26.232 21.789 26.1496C21.7892 26.0511 21.7764 25.9531 21.7509 25.8579C21.6047 25.2239 21.1154 24.818 20.8421 24.2601C21.306 23.8352 21.2743 22.9095 21.2234 22.25C21.9669 22.25 22.4944 21.115 22.9773 20.5824C23.4476 21.1531 24.5279 20.9438 25.2142 20.6712C25.2142 21.4701 26.2437 21.7745 26.9618 22.0091C26.8239 22.3082 26.7711 22.6395 26.8093 22.9665C26.9341 23.4927 27.1751 23.9845 27.5147 24.4059C27.3457 24.4495 27.1879 24.5287 27.052 24.638C26.9162 24.7474 26.8052 24.8844 26.7267 25.04" fill="#9F212C"/>
<path d="M27.7244 21.0011C27.7244 21.0726 27.7032 21.1424 27.6634 21.2019C27.6236 21.2613 27.567 21.3076 27.5008 21.335C27.4347 21.3623 27.3618 21.3695 27.2916 21.3556C27.2213 21.3416 27.1568 21.3072 27.1061 21.2566C27.0554 21.2061 27.0209 21.1417 27.007 21.0716C26.993 21.0015 27.0002 20.9288 27.0276 20.8628C27.055 20.7967 27.1014 20.7403 27.161 20.7006C27.2206 20.6608 27.2906 20.6396 27.3622 20.6396C27.4578 20.6413 27.549 20.6799 27.6165 20.7473C27.6841 20.8147 27.7228 20.9057 27.7244 21.0011Z" fill="#9F212C"/>
<path d="M28.786 24.0252C28.7869 24.0729 28.7781 24.1203 28.7602 24.1646C28.7423 24.2088 28.7156 24.249 28.6818 24.2827C28.648 24.3165 28.6077 24.3431 28.5634 24.3609C28.5191 24.3788 28.4716 24.3875 28.4238 24.3867C28.3726 24.3935 28.3206 24.3893 28.2712 24.3744C28.2218 24.3595 28.1761 24.3343 28.1373 24.3003C28.0985 24.2664 28.0673 24.2246 28.046 24.1777C28.0247 24.1308 28.0137 24.0799 28.0137 24.0284C28.0137 23.9769 28.0247 23.926 28.046 23.8791C28.0673 23.8322 28.0985 23.7904 28.1373 23.7565C28.1761 23.7226 28.2218 23.6973 28.2712 23.6824C28.3206 23.6675 28.3726 23.6634 28.4238 23.6702C28.471 23.6693 28.518 23.6779 28.5619 23.6953C28.6058 23.7128 28.6458 23.7388 28.6795 23.7719C28.7132 23.805 28.74 23.8444 28.7583 23.8879C28.7766 23.9314 28.786 23.9781 28.786 24.0252Z" fill="#9F212C"/>
<path d="M27.6757 26.8976C27.6757 26.9934 27.6375 27.0853 27.5696 27.1531C27.5017 27.2209 27.4095 27.259 27.3135 27.259C27.2656 27.2598 27.2182 27.2511 27.1738 27.2332C27.1295 27.2154 27.0892 27.1888 27.0554 27.155C27.0216 27.1213 26.9949 27.0811 26.977 27.0369C26.9591 26.9926 26.9504 26.9453 26.9512 26.8976C26.9512 26.8017 26.9894 26.7098 27.0573 26.642C27.1253 26.5742 27.2174 26.5361 27.3135 26.5361C27.409 26.5378 27.5002 26.5764 27.5678 26.6438C27.6354 26.7112 27.674 26.8022 27.6757 26.8976Z" fill="#9F212C"/>
<path d="M24.9491 28.4513C24.9491 28.5228 24.9278 28.5926 24.888 28.6521C24.8482 28.7115 24.7916 28.7578 24.7254 28.7852C24.6593 28.8125 24.5864 28.8197 24.5162 28.8057C24.4459 28.7918 24.3814 28.7574 24.3307 28.7068C24.28 28.6563 24.2455 28.5919 24.2316 28.5218C24.2176 28.4517 24.2248 28.379 24.2522 28.313C24.2796 28.2469 24.326 28.1905 24.3856 28.1508C24.4452 28.111 24.5152 28.0898 24.5868 28.0898C24.6829 28.0898 24.775 28.1279 24.843 28.1957C24.9109 28.2635 24.9491 28.3554 24.9491 28.4513Z" fill="#9F212C"/>
<path d="M21.8924 27.8297C21.8924 27.9255 21.8543 28.0175 21.7863 28.0853C21.7184 28.153 21.6263 28.1911 21.5302 28.1911C21.4341 28.1911 21.342 28.153 21.2741 28.0853C21.2061 28.0175 21.168 27.9255 21.168 27.8297C21.168 27.7338 21.2061 27.6419 21.2741 27.5741C21.342 27.5063 21.4341 27.4683 21.5302 27.4683C21.6263 27.4683 21.7184 27.5063 21.7863 27.5741C21.8543 27.6419 21.8924 27.7338 21.8924 27.8297Z" fill="#9F212C"/>
<path d="M19.8202 25.5026C19.8201 25.5743 19.7987 25.6445 19.7586 25.704C19.7185 25.7636 19.6616 25.8099 19.595 25.8371C19.5285 25.8642 19.4553 25.871 19.3849 25.8565C19.3145 25.8421 19.2499 25.807 19.1995 25.7558C19.1491 25.7046 19.1152 25.6397 19.1019 25.5691C19.0887 25.4986 19.0967 25.4258 19.1251 25.3598C19.1535 25.2939 19.2009 25.2379 19.2613 25.199C19.3217 25.16 19.3924 25.1399 19.4643 25.1412C19.5592 25.1428 19.6498 25.1816 19.7163 25.2492C19.7829 25.3168 19.8202 25.4078 19.8202 25.5026Z" fill="#9F212C"/>
<path d="M19.871 22.3321C19.871 22.428 19.8328 22.5199 19.7649 22.5877C19.697 22.6555 19.6048 22.6936 19.5088 22.6936C19.461 22.6944 19.4135 22.6857 19.3691 22.6678C19.3248 22.6499 19.2845 22.6233 19.2507 22.5896C19.2169 22.5559 19.1903 22.5157 19.1724 22.4714C19.1545 22.4272 19.1457 22.3798 19.1465 22.3321C19.1465 22.2363 19.1847 22.1443 19.2526 22.0766C19.3206 22.0088 19.4127 21.9707 19.5088 21.9707C19.6043 21.9723 19.6955 22.0109 19.7631 22.0784C19.8307 22.1458 19.8694 22.2368 19.871 22.3321Z" fill="#9F212C"/>
<path d="M21.9178 19.9166C21.9178 19.9881 21.8966 20.058 21.8568 20.1174C21.817 20.1768 21.7604 20.2232 21.6942 20.2505C21.628 20.2779 21.5552 20.285 21.4849 20.2711C21.4147 20.2571 21.3501 20.2227 21.2995 20.1722C21.2488 20.1216 21.2143 20.0572 21.2003 19.9871C21.1863 19.917 21.1935 19.8443 21.2209 19.7783C21.2483 19.7122 21.2948 19.6558 21.3543 19.6161C21.4139 19.5764 21.4839 19.5552 21.5556 19.5552C21.6517 19.5552 21.7438 19.5933 21.8117 19.661C21.8796 19.7288 21.9178 19.8207 21.9178 19.9166Z" fill="#9F212C"/>
<path d="M25.0311 19.3712C25.0295 19.4666 24.9908 19.5576 24.9232 19.625C24.8557 19.6924 24.7645 19.731 24.6689 19.7327C24.5729 19.7327 24.4807 19.6946 24.4128 19.6268C24.3449 19.559 24.3067 19.4671 24.3067 19.3712C24.3058 19.3235 24.3146 19.2762 24.3325 19.2319C24.3504 19.1877 24.3771 19.1475 24.4109 19.1138C24.4447 19.08 24.485 19.0534 24.5293 19.0356C24.5736 19.0177 24.6211 19.009 24.6689 19.0098C24.765 19.0098 24.8571 19.0479 24.9251 19.1157C24.993 19.1835 25.0311 19.2754 25.0311 19.3712Z" fill="#9F212C"/>
<defs>
<linearGradient id="paint0_linear_2860_3351" x1="4.49785" y1="24.983" x2="43.7769" y2="24.983" gradientUnits="userSpaceOnUse">
<stop stop-color="#C4843E"/>
<stop offset="0.18" stop-color="#E7B164"/>
<stop offset="0.32" stop-color="#FFD17F"/>
<stop offset="0.68" stop-color="#FCEB9E"/>
<stop offset="1" stop-color="#F9CE6E"/>
</linearGradient>
<linearGradient id="paint1_linear_2860_3351" x1="15.7107" y1="25.3789" x2="32.6716" y2="25.3789" gradientUnits="userSpaceOnUse">
<stop stop-color="#ECBE62"/>
<stop offset="0.13" stop-color="#FFF7D1"/>
<stop offset="0.23" stop-color="#ECBE62"/>
<stop offset="0.35" stop-color="#FEE58B"/>
<stop offset="0.47" stop-color="#FFDAA6"/>
<stop offset="0.59" stop-color="#ECBE62"/>
<stop offset="0.73" stop-color="#FEE58B"/>
<stop offset="0.86" stop-color="#ECBE62"/>
<stop offset="1" stop-color="#FFF7D1"/>
</linearGradient>
</defs>
</svg>
