<svg width="176" height="38" viewBox="0 0 176 38" fill="none" xmlns="http://www.w3.org/2000/svg">
<path fill-rule="evenodd" clip-rule="evenodd" d="M167.839 17.3211C167.858 17.3517 167.88 17.3803 167.904 17.4065C168.256 17.8272 168.704 18.157 169.211 18.3678C169.717 18.5785 170.267 18.6641 170.814 18.6172C172.009 18.5597 173.174 18.2261 174.218 17.6426C174.44 17.5229 174.655 17.3904 174.862 17.2458L175.607 16.7434L176 17.5622L175.874 17.723C175.46 18.2435 174.994 18.7215 174.485 19.1497C173.945 19.6243 173.366 20.0512 172.753 20.4256C172.185 20.7554 171.573 21.0024 170.935 21.1591C170.269 21.3306 169.584 21.415 168.896 21.4103C168.188 21.4222 167.482 21.329 166.802 21.134C166.221 20.9651 165.684 20.67 165.231 20.2699C164.851 19.9239 164.513 19.5344 164.224 19.1095C163.942 18.7011 163.717 18.2567 163.554 17.7883C163.064 16.3302 162.991 14.7645 163.343 13.2671C163.66 11.7759 164.404 10.4081 165.483 9.32872C166.215 8.60827 167.08 8.03522 168.03 7.64082C168.973 7.25938 169.983 7.06651 171.001 7.07316C171.906 7.07297 172.796 7.31217 173.578 7.76641C174.351 8.23493 175.065 8.79492 175.703 9.43421L175.965 9.68539L167.839 17.3211ZM167.245 15.7136L170.19 12.9155C170.542 12.5638 170.764 12.1033 170.819 11.6094C170.861 11.3176 170.844 11.0205 170.769 10.7353C170.701 10.4851 170.569 10.2567 170.386 10.0722C170.18 9.8856 169.919 9.76948 169.641 9.74065C169.411 9.71184 169.177 9.73414 168.957 9.80595C168.443 10.0348 168.037 10.4496 167.819 10.9664C167.515 11.6397 167.322 12.3571 167.245 13.0913C167.116 13.9607 167.116 14.8442 167.245 15.7136Z" fill="#A0222C"/>
<path fill-rule="evenodd" clip-rule="evenodd" d="M156.39 10.6998C155.862 10.6998 155.272 11.3177 154.97 11.6744C154.219 12.615 153.587 13.6442 153.087 14.7387L153.118 18.3758C153.149 18.7984 153.091 19.2229 152.946 19.6216C152.725 20.0357 152.397 20.3827 151.995 20.6263C151.685 20.8403 151.346 21.0095 150.988 21.1286C150.581 21.2617 150.16 21.3526 149.734 21.3999L149.322 21.4501V10.5793C149.329 10.4883 149.304 10.3977 149.251 10.3231C149.188 10.2762 149.113 10.2498 149.035 10.2477H148.979C148.701 10.2659 148.432 10.3559 148.199 10.5089L147.791 9.24302C148.62 8.57579 149.486 7.95526 150.384 7.38432C150.544 7.28842 150.712 7.2077 150.887 7.14319C151.049 7.08471 151.219 7.05413 151.391 7.05277C151.7 7.04877 152.003 7.14579 152.252 7.32906C152.488 7.51479 152.663 7.76668 152.755 8.05245C152.936 8.73444 153.047 9.4329 153.087 10.1372C153.118 10.5943 153.138 11.0465 153.143 11.5036C153.314 11.2424 153.495 11.0012 153.676 10.735C153.858 10.4688 154.115 10.1673 154.351 9.881C154.588 9.60471 154.855 9.33846 155.086 9.07222C155.318 8.80597 155.59 8.56987 155.887 8.31367C156.16 8.0674 156.455 7.84552 156.768 7.65057C157.055 7.4745 157.361 7.32967 157.679 7.21854L157.916 7.15324L158.162 7.09296C158.328 7.06193 158.497 7.04512 158.666 7.04272C158.953 7.03818 159.239 7.09811 159.5 7.21809C159.761 7.33806 159.992 7.51504 160.176 7.73597C160.509 8.15191 160.732 8.64398 160.826 9.16766C160.908 9.55398 160.949 9.94812 160.946 10.3432V18.647C160.946 18.9635 161.062 19.064 161.379 18.9484C161.864 18.7241 162.313 18.4314 162.714 18.0794L163.182 19.0439C162.255 20.0486 160.987 21.3848 159.471 21.3848C159.162 21.3864 158.855 21.3223 158.572 21.1967C158.289 21.0711 158.036 20.887 157.83 20.6564C157.396 20.1729 157.156 19.547 157.155 18.8982V12.0763C157.158 11.7498 157.076 11.4281 156.919 11.1419C156.814 10.9391 156.633 10.7857 156.415 10.7149L156.39 10.6998Z" fill="#A0222C"/>
<path fill-rule="evenodd" clip-rule="evenodd" d="M144.211 18.808C141.966 21.0535 138.789 21.8221 135.622 21.8221C132.778 21.8221 129.762 21.0535 127.567 19.2702C126.574 18.4499 125.769 17.4279 125.203 16.2723C124.638 15.1167 124.327 13.8541 124.289 12.5688C124.264 12.2322 124.254 11.8856 124.254 11.5641C124.254 8.52488 125.165 5.5359 127.406 3.30546C129.457 1.32365 132.17 0.16793 135.023 0.0602739C135.29 0.0602739 135.562 0.0351562 135.834 0.0351562C142.907 0.0351562 147.192 3.35067 147.192 10.2831C147.192 13.3424 146.497 16.5273 144.211 18.8231M128.397 10.9311C128.397 15.5176 131.469 19.9031 135.904 19.9031C140.339 19.9031 143.411 15.5176 143.411 10.9311C143.411 6.34468 140.345 1.95916 135.904 1.95916C131.463 1.95916 128.397 6.34468 128.397 10.9311Z" fill="#A0222C"/>
<path fill-rule="evenodd" clip-rule="evenodd" d="M69.2756 17.3208L69.341 17.4112C69.6938 17.8314 70.1431 18.1604 70.6506 18.3703C71.158 18.5802 71.7088 18.6648 72.2561 18.6169C73.4488 18.5567 74.6117 18.2232 75.6544 17.6423C75.876 17.5167 76.0975 17.3861 76.3039 17.2404L77.044 16.7381L77.4417 17.5569L77.3108 17.7227C76.8968 18.242 76.4331 18.7198 75.9263 19.1494C75.3862 19.6228 74.8068 20.0497 74.1944 20.4254C73.6239 20.7493 73.0127 20.9959 72.3769 21.1588C71.7088 21.3275 71.0221 21.4119 70.3329 21.41C69.6246 21.4199 68.9188 21.3251 68.2385 21.1286C67.6557 20.9577 67.1177 20.661 66.6626 20.2596C66.284 19.914 65.9461 19.5263 65.6557 19.1042C65.3791 18.691 65.1542 18.2457 64.9861 17.778C64.4967 16.3195 64.4252 14.7536 64.7797 13.2568C65.0962 11.7648 65.8374 10.3956 66.9144 9.31336C67.6512 8.59544 68.5172 8.02278 69.4669 7.62546C70.4084 7.24366 71.416 7.05076 72.4323 7.0578C73.3389 7.05474 74.2295 7.29599 75.01 7.75607C75.7806 8.2256 76.4907 8.78738 77.1245 9.4289L77.3864 9.67505L69.2756 17.3208ZM68.7067 15.7133L71.6519 12.9152C71.9266 12.6312 72.1236 12.2816 72.2241 11.8999C72.3246 11.5181 72.3252 11.117 72.2259 10.735C72.159 10.4857 72.0269 10.2586 71.8432 10.0769C71.6402 9.8846 71.3772 9.76757 71.0981 9.74538C70.8679 9.71164 70.633 9.73404 70.4134 9.81068C69.9003 10.0395 69.4936 10.4543 69.2756 10.9711C68.9653 11.6412 68.7663 12.3572 68.6865 13.091C68.5557 13.9602 68.5557 14.8441 68.6865 15.7133" fill="#A0222C"/>
<path fill-rule="evenodd" clip-rule="evenodd" d="M89.3884 14.0302L86.7754 18.8527L85.2046 21.8668L80.2053 12.6186V12.6487L79.294 11.1115L77.8994 9.1021L78.1713 8.82079C78.5392 8.41853 78.9382 8.04565 79.3645 7.70557C79.6802 7.40911 80.0667 7.19813 80.4872 7.0927C80.669 7.10964 80.8456 7.16283 81.0065 7.24912C81.1673 7.33541 81.3092 7.45305 81.4236 7.59505C81.7569 7.9597 82.0427 8.36477 82.2745 8.80069C82.9038 9.90084 83.4878 11.0211 84.0719 12.1413C84.5753 13.1058 85.0788 14.0754 85.5822 15.0248C85.7806 15.384 86.0026 15.7297 86.2468 16.0597C86.3072 16.1451 86.3727 16.2254 86.4381 16.3008L88.452 12.498C88.3311 12.066 86.7704 10.3077 86.3978 10.0666C86.272 9.98624 86.1411 9.90084 86.0152 9.81042L85.698 9.57934L85.9649 9.29802C86.4932 8.74913 87.0494 8.22767 87.6313 7.73571C87.9506 7.42697 88.3442 7.20552 88.7742 7.0927C88.9553 7.10973 89.1311 7.16299 89.2911 7.2493C89.4511 7.33561 89.5921 7.4532 89.7056 7.59505C90.0388 7.96084 90.3262 8.36569 90.5615 8.80069C91.1858 9.90084 91.7698 11.0211 92.3538 12.1413C92.8573 13.1058 93.3607 14.0754 93.8944 15.0248C94.0892 15.385 94.3096 15.7309 94.5539 16.0597C94.6392 16.1775 94.7316 16.2899 94.8308 16.3962C95.1869 15.7899 95.495 15.1566 95.7522 14.5024C96.0678 13.8356 96.2914 13.1293 96.4167 12.4025C96.381 11.7558 96.159 11.1331 95.7773 10.6092C95.349 9.97067 94.7852 9.43389 94.126 9.0368L93.9447 8.93633V8.51938L94.1058 8.41891C94.4677 8.13496 94.8045 7.82069 95.1128 7.47951C95.4797 7.08141 95.8751 6.71037 96.2959 6.36932C96.4127 6.27374 96.5374 6.18804 96.6685 6.11312C96.7909 6.0409 96.9291 5.99952 97.0712 5.99255C97.1973 5.99924 97.3207 6.03173 97.4337 6.088C97.5538 6.14537 97.6699 6.21082 97.7811 6.28392C98.2983 6.62406 98.7362 7.07122 99.0649 7.59505C99.4461 8.16172 99.7334 8.78592 99.9158 9.4437L99.951 9.56929L93.4916 21.8417L93.1543 21.2288L89.3884 14.0302Z" fill="#A0222C"/>
<path fill-rule="evenodd" clip-rule="evenodd" d="M117.97 20.5863C117.799 20.7069 117.618 20.8224 117.432 20.9279C117.26 21.025 117.084 21.1122 116.903 21.1891C116.73 21.2604 116.551 21.3175 116.369 21.3599C116.204 21.398 116.035 21.4182 115.866 21.4202C115.498 21.4268 115.134 21.3531 114.798 21.2042C114.492 21.0594 114.237 20.8245 114.068 20.5311C113.906 20.2479 113.789 19.9411 113.721 19.6218C113.644 19.2586 113.607 18.888 113.61 18.5166V5.67656C113.601 4.85157 113.701 4.02895 113.907 3.23011C114.074 2.56322 114.375 1.93745 114.793 1.39151C115.247 0.838142 115.866 0.443894 116.561 0.266246C117.253 0.0938708 117.966 0.0161339 118.68 0.0351644L122.275 0L121.983 0.50235C121.614 1.20414 121.04 1.77715 120.336 2.14504C119.678 2.45147 118.964 2.62232 118.237 2.64739C118.106 2.64739 117.98 2.64739 117.854 2.68758L117.603 2.72776C117.595 2.76081 117.595 2.79519 117.603 2.82823L117.492 17.7782C117.486 17.8627 117.502 17.9474 117.537 18.0243C117.566 18.0618 117.604 18.0919 117.647 18.112C117.689 18.1321 117.737 18.1417 117.784 18.1399C118.021 18.1425 118.258 18.1069 118.484 18.0344C119.099 17.833 119.68 17.5381 120.206 17.1603L120.271 17.1101L120.331 17.1653C120.613 17.4014 120.895 17.6375 121.187 17.8586L121.268 17.9188L121.001 18.1901C120.644 18.5361 120.267 18.8615 119.873 19.1647C119.269 19.6369 118.645 20.1141 118.016 20.5612L117.97 20.5863Z" fill="#A0222C"/>
<path fill-rule="evenodd" clip-rule="evenodd" d="M104.095 17.3208L104.155 17.4112C104.508 17.8314 104.957 18.1604 105.465 18.3703C105.972 18.5802 106.523 18.6648 107.07 18.6169C108.263 18.5579 109.426 18.2243 110.469 17.6423C110.692 17.5202 110.909 17.386 111.118 17.2404L111.863 16.7381L112.256 17.5569L112.13 17.7227C111.716 18.2432 111.25 18.7211 110.741 19.1493C110.202 19.624 109.622 20.0509 109.009 20.4253C108.439 20.7509 107.828 20.9977 107.191 21.1587C106.525 21.3278 105.84 21.4122 105.152 21.4099C104.444 21.4201 103.738 21.3253 103.058 21.1286C102.475 20.9589 101.936 20.6621 101.482 20.2595C101.101 19.9165 100.763 19.5286 100.475 19.1041C100.187 18.6978 99.9529 18.2553 99.7803 17.788C99.2892 16.33 99.216 14.7641 99.5689 13.2668C99.8876 11.7756 100.628 10.407 101.704 9.32337C102.44 8.60545 103.306 8.03279 104.256 7.63547C105.199 7.25365 106.209 7.06077 107.226 7.06781C108.133 7.06697 109.023 7.30806 109.804 7.76608C110.578 8.233 111.292 8.79314 111.929 9.43388L112.191 9.68004L104.095 17.3208ZM103.521 15.7133L106.466 12.9152C106.819 12.5641 107.041 12.1033 107.096 11.6091C107.138 11.317 107.119 11.0194 107.04 10.735C106.975 10.4849 106.843 10.2573 106.658 10.0769C106.456 9.8856 106.195 9.76865 105.918 9.74534C105.687 9.7116 105.452 9.73401 105.233 9.81065C104.719 10.0377 104.311 10.4531 104.095 10.9711C103.783 11.6409 103.582 12.3569 103.501 13.091C103.373 13.9604 103.373 14.8439 103.501 15.7133" fill="#A0222C"/>
<path fill-rule="evenodd" clip-rule="evenodd" d="M62.1211 17.2909V3.35067C62.1031 3.07853 62.1467 2.80584 62.2487 2.5528C62.3507 2.29975 62.5084 2.07283 62.7101 1.88883C63.1689 1.55936 63.6793 1.30813 64.2205 1.14536L65.016 0.838922V0.406901L64.6485 0.271266C64.4494 0.198092 64.2437 0.144259 64.0342 0.110514C63.7962 0.0711191 63.5556 0.0492913 63.3143 0.0452087C63.0508 0.0324273 62.7867 0.0374622 62.5239 0.0602791C62.2669 0.080285 62.0114 0.115511 61.7586 0.165772H61.7133C61.1637 0.278917 60.6342 0.47365 60.1425 0.743476C59.6679 1.00326 59.242 1.3432 58.8838 1.74818C58.534 2.13755 58.2577 2.58685 58.0682 3.07438C57.8894 3.57584 57.7991 4.10444 57.8014 4.63669V18.6774C57.8077 19.4769 57.659 20.2702 57.3634 21.0133C56.3565 22.8971 53.8391 23.8315 51.3218 23.8164C45.678 23.7863 43.5081 18.6975 47.5459 16.3063L47.4351 15.9044H46.7907C46.1153 15.9018 45.462 16.1446 44.9531 16.5876C44.3925 17.0858 43.9813 17.7291 43.7649 18.4463C43.6597 18.7739 43.5839 19.1101 43.5383 19.451V20.9581C43.5685 21.1841 43.6088 21.4102 43.6592 21.6262C43.7433 21.9952 43.863 22.3552 44.0166 22.7012C44.5566 23.9335 45.4941 24.9503 46.6799 25.5897C48.0129 26.2801 49.4981 26.6256 50.9996 26.5944H51.055C52.5539 26.5913 54.0438 26.3644 55.4754 25.9213C56.7612 25.5194 57.9576 24.8748 58.9996 24.0224C59.9723 23.2197 60.7532 22.2106 61.2853 21.0686C61.8159 19.897 62.0921 18.6267 62.0959 17.3411V17.2959L62.1211 17.2909Z" fill="#A0222C"/>
<path fill-rule="evenodd" clip-rule="evenodd" d="M44.5317 34.6319C44.5208 34.9343 44.5715 35.2357 44.6808 35.518C44.7901 35.8002 44.9556 36.0574 45.1675 36.2739C45.3793 36.4905 45.633 36.6618 45.9131 36.7776C46.1933 36.8935 46.4941 36.9513 46.7973 36.9477C47.292 36.9507 47.7705 36.7719 48.1415 36.4454C48.1415 36.4454 48.1415 36.5408 48.1415 36.6313V36.8473H48.8565V34.5164H47.4216V35.2247H48.1315V35.727C47.8156 36.0186 47.4037 36.1848 46.9735 36.1942C46.7636 36.2022 46.5543 36.1664 46.359 36.0891C46.1638 36.0118 45.9868 35.8948 45.8394 35.7454C45.6921 35.596 45.5776 35.4175 45.5033 35.2215C45.4289 35.0254 45.3964 34.8161 45.4077 34.6068C45.3979 34.3984 45.4325 34.1903 45.5093 33.9963C45.5861 33.8023 45.7034 33.6268 45.8534 33.4814C46.0033 33.3361 46.1826 33.2242 46.3791 33.1532C46.5757 33.0822 46.7852 33.0537 46.9937 33.0696C47.4409 33.0713 47.8749 33.2215 48.2271 33.4966L48.645 32.8938C48.1578 32.5011 47.5438 32.2993 46.9181 32.3261C46.6082 32.3146 46.2992 32.3658 46.0097 32.4767C45.7202 32.5876 45.4562 32.7558 45.2337 32.9713C45.0111 33.1868 44.8347 33.445 44.7149 33.7304C44.5951 34.0158 44.5345 34.3225 44.5368 34.6319M49.803 34.6319C49.803 35.2647 50.0549 35.8717 50.5034 36.3192C50.9519 36.7667 51.5602 37.0181 52.1944 37.0181C52.8287 37.0181 53.4369 36.7667 53.8854 36.3192C54.3339 35.8717 54.5859 35.2647 54.5859 34.6319C54.5859 33.999 54.3339 33.3921 53.8854 32.9446C53.4369 32.4971 52.8287 32.2457 52.1944 32.2457C51.5602 32.2457 50.9519 32.4971 50.5034 32.9446C50.0549 33.3921 49.803 33.999 49.803 34.6319ZM50.6689 34.6319C50.6689 34.2282 50.8296 33.841 51.1157 33.5556C51.4018 33.2701 51.7898 33.1098 52.1944 33.1098C52.599 33.1098 52.987 33.2701 53.2731 33.5556C53.5592 33.841 53.7199 34.2282 53.7199 34.6319C53.7199 35.0356 53.5592 35.4227 53.2731 35.7082C52.987 35.9936 52.599 36.154 52.1944 36.154C51.7898 36.154 51.4018 35.9936 51.1157 35.7082C50.8296 35.4227 50.6689 35.0356 50.6689 34.6319ZM55.764 36.8975H58.6035V36.1741H56.5896V32.4015H55.7488L55.764 36.8975ZM59.5953 36.8975H61.1762C62.601 36.8975 63.5324 36.0686 63.5324 34.657C63.5324 33.2454 62.601 32.4266 61.1762 32.4266H59.5953V36.8975ZM60.4361 36.1992V33.0997H61.1309C61.5394 33.0997 61.9313 33.2617 62.2202 33.55C62.5091 33.8382 62.6714 34.2292 62.6714 34.6369C62.6714 35.0446 62.5091 35.4356 62.2202 35.7239C61.9313 36.0122 61.5394 36.1741 61.1309 36.1741L60.4361 36.1992ZM66.241 35.4507H68.2045V34.7223H66.241V35.4507ZM71.2051 36.8975H72.7809C74.2057 36.8975 75.1371 36.0686 75.1371 34.657C75.1371 33.2454 74.2057 32.4266 72.7809 32.4266H71.2051V36.8975ZM72.0459 36.1992V33.0997H72.7356C73.1442 33.0997 73.5361 33.2617 73.825 33.55C74.1139 33.8382 74.2762 34.2292 74.2762 34.6369C74.2762 35.0446 74.1139 35.4356 73.825 35.7239C73.5361 36.0122 73.1442 36.1741 72.7356 36.1741L72.0459 36.1992ZM76.3404 36.8975H77.1812V32.4266H76.3404V36.8975ZM81.375 36.8975H82.241L80.6098 32.4266H79.7337L78.1025 36.8975H78.9685L79.3612 35.7521H80.9823L81.375 36.8975ZM80.1818 33.2002C80.1818 33.2002 80.2825 33.6423 80.3631 33.8934L80.7759 35.089H79.5626L79.9754 33.8934C80.066 33.6423 80.1667 33.2002 80.1667 33.2002H80.1818ZM83.0113 36.8975H83.8521L84.0484 34.3857C84.0484 34.0944 84.0484 33.6875 84.0484 33.6875C84.0484 33.6875 84.1944 34.1295 84.3052 34.3857L85.0453 36.1189H85.7803L86.5305 34.3857C86.6412 34.1295 86.7772 33.6975 86.7772 33.6975C86.7772 33.6975 86.7772 34.0944 86.7772 34.3857L86.9735 36.8975H87.8093L87.4367 32.4266H86.5355L85.6847 34.6118C85.5789 34.878 85.4531 35.2649 85.4531 35.2649C85.4531 35.2649 85.3222 34.878 85.2164 34.6118L84.3102 32.4015H83.4141L83.0113 36.8975ZM88.8816 34.6319C88.8816 35.2647 89.1336 35.8717 89.5821 36.3192C90.0306 36.7667 90.6388 37.0181 91.2731 37.0181C91.9073 37.0181 92.5156 36.7667 92.9641 36.3192C93.4126 35.8717 93.6645 35.2647 93.6645 34.6319C93.6645 33.999 93.4126 33.3921 92.9641 32.9446C92.5156 32.4971 91.9073 32.2457 91.2731 32.2457C90.6388 32.2457 90.0306 32.4971 89.5821 32.9446C89.1336 33.3921 88.8816 33.999 88.8816 34.6319ZM89.7476 34.6319C89.7476 34.2282 89.9083 33.841 90.1944 33.5556C90.4805 33.2701 90.8685 33.1098 91.2731 33.1098C91.6777 33.1098 92.0657 33.2701 92.3518 33.5556C92.6379 33.841 92.7986 34.2282 92.7986 34.6319C92.7986 35.0356 92.6379 35.4227 92.3518 35.7082C92.0657 35.9936 91.6777 36.154 91.2731 36.154C90.8685 36.154 90.4805 35.9936 90.1944 35.7082C89.9083 35.4227 89.7476 35.0356 89.7476 34.6319ZM94.8426 36.8975H95.6834V34.2953C95.6834 34.0341 95.6381 33.6071 95.6381 33.6071C95.7539 33.8438 95.8834 34.0735 96.0258 34.2953L97.7677 36.8724H98.5984V32.4015H97.7677V34.9835C97.7677 35.2498 97.813 35.6768 97.813 35.6768C97.7002 35.4379 97.5724 35.2064 97.4304 34.9835L95.6784 32.4015H94.8376L94.8426 36.8975ZM100.114 36.8975H101.695C103.12 36.8975 104.051 36.0686 104.051 34.657C104.051 33.2454 103.12 32.4266 101.695 32.4266H100.114V36.8975ZM100.955 36.1992V33.0997H101.649C102.058 33.0997 102.45 33.2617 102.739 33.55C103.028 33.8382 103.19 34.2292 103.19 34.6369C103.19 35.0446 103.028 35.4356 102.739 35.7239C102.45 36.0122 102.058 36.1741 101.649 36.1741L100.955 36.1992ZM106.76 35.4507H108.723V34.7223H106.76V35.4507ZM111.724 36.8975H112.564V35.3302H113.506C113.706 35.3419 113.906 35.3126 114.094 35.2443C114.283 35.176 114.455 35.0701 114.601 34.9329C114.746 34.7958 114.862 34.6304 114.942 34.4469C115.021 34.2634 115.062 34.0657 115.062 33.8658C115.062 33.6659 115.021 33.4682 114.942 33.2847C114.862 33.1012 114.746 32.9358 114.601 32.7987C114.455 32.6615 114.283 32.5556 114.094 32.4873C113.906 32.419 113.706 32.3898 113.506 32.4015H111.714L111.724 36.8975ZM112.564 34.652V33.1449H113.375C113.477 33.1366 113.58 33.1505 113.676 33.1856C113.772 33.2208 113.859 33.2764 113.931 33.3486C114.004 33.4207 114.059 33.5078 114.094 33.6036C114.13 33.6994 114.144 33.8018 114.135 33.9035C114.143 34.0068 114.128 34.1105 114.092 34.2075C114.055 34.3046 113.998 34.3926 113.925 34.4656C113.851 34.5386 113.762 34.5949 113.665 34.6305C113.567 34.6661 113.463 34.6803 113.36 34.6721L112.564 34.652ZM116.048 36.8975H118.888V36.1741H116.874V32.4015H116.038L116.048 36.8975ZM122.724 36.8975H123.59L121.934 32.4015H121.053L119.427 36.8724H120.293L120.685 35.727H122.306L122.724 36.8975ZM121.531 33.2002C121.531 33.2002 121.627 33.6423 121.712 33.8934L122.125 35.089H120.927L121.335 33.8934C121.425 33.6423 121.531 33.2002 121.531 33.2002ZM125.196 36.8975H126.037V33.0997H127.547V32.4015H123.671V33.0997H125.181L125.196 36.8975ZM128.489 36.8975H129.33V32.4266H128.479L128.489 36.8975ZM130.825 36.8975H131.666V34.2953C131.666 34.0341 131.62 33.6071 131.62 33.6071C131.734 33.8441 131.862 34.074 132.003 34.2953L133.755 36.8724H134.591V32.4015H133.755V34.9835C133.755 35.2498 133.8 35.6768 133.8 35.6768C133.685 35.4383 133.556 35.2068 133.413 34.9835L131.661 32.4015H130.82L130.825 36.8975ZM136.031 35.2649C136.031 36.2696 136.781 36.9477 137.899 36.9477C139.016 36.9477 139.766 36.2696 139.766 35.2649V32.4015H138.926V35.2598C138.935 35.3953 138.914 35.5312 138.865 35.6576C138.815 35.784 138.737 35.8977 138.638 35.9906C138.539 36.0834 138.42 36.153 138.29 36.1943C138.161 36.2356 138.023 36.2476 137.889 36.2294C137.759 36.2432 137.627 36.2289 137.503 36.1875C137.379 36.146 137.265 36.0785 137.17 35.9894C137.074 35.9003 136.999 35.7917 136.949 35.671C136.9 35.5503 136.877 35.4204 136.882 35.29V32.4266H136.031V35.2649ZM141.065 36.8724H141.906L142.103 34.3606C142.103 34.0693 142.103 33.6624 142.103 33.6624C142.103 33.6624 142.244 34.1044 142.354 34.3606L143.079 36.1038H143.814L144.59 34.3707C144.7 34.1145 144.836 33.6825 144.836 33.6825C144.836 33.6825 144.836 34.0793 144.836 34.3707L145.033 36.8824H145.868L145.496 32.4115H144.59L143.683 34.6218C143.583 34.8881 143.457 35.2749 143.457 35.2749C143.457 35.2749 143.331 34.8881 143.225 34.6218L142.319 32.4115H141.418L141.065 36.8724ZM148.758 35.4256H150.722V34.7223H148.758V35.4256ZM153.37 36.3349C153.802 36.7384 154.374 36.9582 154.966 36.9477C155.933 36.9477 156.476 36.3499 156.476 35.6366C156.476 34.2099 154.301 34.4058 154.301 33.6272C154.301 33.3107 154.609 33.0897 154.996 33.0897C155.365 33.1084 155.719 33.2458 156.003 33.4815L156.371 32.8184C155.991 32.4837 155.498 32.3043 154.991 32.3161C154.1 32.3161 153.435 32.8686 153.435 33.6121C153.435 34.9886 155.62 34.8479 155.62 35.6215C155.62 35.9882 155.303 36.1641 154.951 36.1641C154.524 36.143 154.117 35.9763 153.798 35.6919L153.37 36.3349ZM157.654 36.8724H158.495V32.4015H157.654V36.8724ZM159.991 36.8724H162.83V36.1741H160.816V32.4015H159.975L159.991 36.8724ZM164.587 36.8724H165.423L167.109 32.4015H166.213L165.206 35.3151C165.116 35.5763 165.04 35.9732 165.03 35.9732C165.03 35.9732 164.945 35.5763 164.854 35.3151L163.847 32.4015H162.941L164.587 36.8724ZM168.011 36.8724H170.885V36.1741H168.872V34.9735H170.432V34.2702H168.872V33.0997H170.77V32.4015H167.996L168.011 36.8724ZM172.084 36.8724H172.924V35.2247H173.73L174.651 36.8925H175.588L174.616 35.2247C174.573 35.1452 174.52 35.071 174.46 35.0036C174.698 34.901 174.9 34.7292 175.039 34.5106C175.178 34.292 175.249 34.0367 175.24 33.7779C175.254 33.522 175.189 33.268 175.054 33.0499C174.919 32.8318 174.72 32.66 174.485 32.5572C174.187 32.4504 173.87 32.4076 173.554 32.4316H172.043L172.084 36.8724ZM172.924 34.5013V33.0997H173.564C174.218 33.0997 174.41 33.366 174.41 33.793C174.417 33.8895 174.403 33.9865 174.368 34.077C174.334 34.1676 174.28 34.2495 174.21 34.317C174.141 34.3845 174.057 34.436 173.965 34.4678C173.874 34.4997 173.776 34.5111 173.68 34.5013H172.924Z" fill="#231F20"/>
<path fill-rule="evenodd" clip-rule="evenodd" d="M18.9793 37.787C13.9766 37.7738 9.18237 35.7856 5.64394 32.2569C2.10551 28.7282 0.110427 23.9456 0.0944824 18.9539C0.109086 13.9617 2.10273 9.17811 5.64008 5.64763C9.17742 2.11714 13.9711 0.126621 18.9743 0.110718C23.9775 0.126621 28.7711 2.11714 32.3085 5.64763C35.8458 9.17811 37.8395 13.9617 37.8541 18.9539C37.8382 23.9439 35.8445 28.7249 32.3082 32.2534C28.7719 35.7818 23.9803 37.7711 18.9793 37.787Z" fill="#9F212C"/>
<path fill-rule="evenodd" clip-rule="evenodd" d="M18.9799 37.7868C14.5967 37.7971 10.3457 36.2898 6.952 33.522C3.55826 30.7543 1.23196 26.8974 0.369878 22.6094C-0.492201 18.3213 0.163343 13.8677 2.2247 10.008C4.28605 6.14837 7.62553 3.12182 11.6735 1.44459C15.7216 -0.232646 20.2274 -0.456674 24.4224 0.810715C28.6175 2.0781 32.242 4.7584 34.6777 8.39446C37.1134 12.0305 38.2094 16.3971 37.7788 20.7494C37.3482 25.1017 35.4177 29.1702 32.3165 32.2609C30.5667 34.0114 28.488 35.4005 26.1996 36.3487C23.9111 37.2969 21.4578 37.7856 18.9799 37.7868ZM18.9799 37.0433C23.1924 37.049 27.2765 35.5961 30.5353 32.9324C33.794 30.2688 36.0254 26.5594 36.8489 22.4372C37.6723 18.3149 37.0368 14.0353 35.0506 10.3286C33.0644 6.62178 29.8507 3.71751 25.9578 2.11127C22.065 0.505025 17.7341 0.296353 13.7042 1.52085C9.67435 2.74535 6.19515 5.32715 3.86027 8.82573C1.52538 12.3243 0.479484 16.5229 0.901032 20.7051C1.32258 24.8873 3.18545 28.794 6.17179 31.7586C7.85264 33.4381 9.8493 34.7699 12.0472 35.6777C14.2452 36.5854 16.6011 37.0512 18.9799 37.0483" fill="#A0222C"/>
<mask id="mask0_760_823" style="mask-type:luminance" maskUnits="userSpaceOnUse" x="3" y="3" width="32" height="32">
<path d="M9.06201 14.4175C9.29709 14.4225 9.52545 14.4966 9.71844 14.6306C9.91142 14.7646 10.0604 14.9526 10.1467 15.1708C10.233 15.389 10.2528 15.6278 10.2036 15.8572C10.1543 16.0866 10.0382 16.2964 9.8699 16.4602C9.70157 16.624 9.48849 16.7345 9.25742 16.7779C9.02634 16.8213 8.78758 16.7955 8.57111 16.704C8.35463 16.6124 8.1701 16.4591 8.04067 16.2632C7.91124 16.0673 7.8427 15.8377 7.84364 15.6031C7.84412 15.3833 7.90507 15.1678 8.01985 14.9802C7.9113 15.0283 7.79572 15.0589 7.6775 15.0706C7.17403 18.1852 10.3106 17.5823 10.3106 17.5823C11.4585 17.296 17.3591 10.6097 17.3591 10.6097L16.9059 10.2028C16.2112 9.58994 16.629 9.63013 16.629 9.63013L19.6498 12.3328L18.7234 12.2825C15.7983 16.3717 13.135 17.6627 12.0526 18.0395C7.01796 19.1446 7.01796 15.8191 7.01796 15.8191L3.41821 18.6976C10.5523 24.2234 13.3062 27.3279 14.3685 28.8953C14.3715 28.6607 14.4439 28.4322 14.5765 28.2385C14.7092 28.0448 14.8963 27.8946 15.1143 27.8066C15.3323 27.7187 15.5714 27.6969 15.8018 27.7441C16.0321 27.7914 16.2433 27.9054 16.4088 28.072C16.5744 28.2386 16.687 28.4503 16.7324 28.6805C16.7778 28.9107 16.754 29.1491 16.664 29.3659C16.574 29.5827 16.4219 29.7681 16.2267 29.8988C16.0315 30.0296 15.8019 30.0999 15.5667 30.1009C15.3469 30.1022 15.1309 30.0431 14.9424 29.9301C14.9935 30.0356 15.0243 30.1498 15.0331 30.2667C18.1596 30.7339 17.5202 27.6243 17.5202 27.6243C17.2231 26.479 10.4717 20.6266 10.4717 20.6266L10.0639 21.0837C9.44968 21.787 9.48996 21.365 9.48996 21.365L12.259 18.4112V18.3459L12.4755 18.3911V19.2903C16.1004 22.0633 17.5101 24.5098 18.0136 25.6953C19.1363 30.754 15.7933 30.754 15.7933 30.754L18.658 34.3608C24.2212 27.2375 27.3276 24.4696 28.8984 23.4096C28.6633 23.4066 28.4343 23.3344 28.2402 23.202C28.0461 23.0696 27.8955 22.883 27.8073 22.6655C27.7192 22.448 27.6974 22.2093 27.7447 21.9795C27.792 21.7497 27.9064 21.539 28.0733 21.3738C28.2403 21.2085 28.4524 21.0963 28.6831 21.051C28.9138 21.0057 29.1528 21.0294 29.3701 21.1192C29.5873 21.2089 29.7731 21.3607 29.9042 21.5555C30.0352 21.7503 30.1057 21.9794 30.1067 22.214C30.1103 22.4321 30.0509 22.6466 29.9355 22.8319C30.0441 22.7837 30.1597 22.7532 30.2779 22.7415C30.7461 19.6269 27.6297 20.2649 27.6297 20.2649C26.4767 20.5613 20.6165 27.2978 20.6165 27.2978L21.0696 27.7047C21.7744 28.3125 21.3515 28.2774 21.3515 28.2774L18.7234 25.8209L18.5774 25.3185L19.0809 25.625C21.4522 22.3396 25.2231 20.0439 25.6813 19.7776L25.7266 19.7475C30.9626 18.572 30.9022 21.9729 30.9022 21.9729L34.5372 19.1446C27.4434 13.5585 24.7197 10.4389 23.6674 8.86153C23.6625 9.09608 23.5882 9.32394 23.4538 9.5165C23.3195 9.70906 23.1312 9.85774 22.9125 9.94386C22.6938 10.03 22.4544 10.0497 22.2245 10.0006C21.9946 9.95141 21.7844 9.83559 21.6202 9.66763C21.4561 9.49967 21.3453 9.28706 21.3019 9.0565C21.2584 8.82594 21.2842 8.5877 21.3759 8.3717C21.4677 8.15571 21.6214 7.97158 21.8177 7.84244C22.014 7.7133 22.2441 7.6449 22.4793 7.64584C22.7299 7.63947 22.9784 7.69285 23.2042 7.80157C23.1676 7.68049 23.1019 7.57014 23.0129 7.48006C19.8915 6.97771 20.4956 10.1074 20.4956 10.1074C20.7826 11.2527 27.4837 17.1403 27.4837 17.1403L27.8915 16.6932C28.5057 15.9949 28.4654 16.4119 28.4654 16.4119L25.6762 19.3456L25.6007 18.6071C23.2497 17.0122 21.3245 14.8688 19.9922 12.3629C18.3307 7.65589 22.6555 7.02293 22.6555 7.02293L19.388 3.57178C13.7694 10.6599 10.6681 13.3676 9.06201 14.4175Z" fill="white"/>
</mask>
<g mask="url(#mask0_760_823)">
<path d="M34.5372 3.57178H3.41821V34.3357H34.5372V3.57178Z" fill="url(#paint0_linear_760_823)"/>
</g>
<mask id="mask1_760_823" style="mask-type:luminance" maskUnits="userSpaceOnUse" x="12" y="12" width="14" height="14">
<path d="M12.2388 17.9693C12.3707 18.1599 12.4608 18.376 12.5033 18.6037C12.5458 18.8313 12.5398 19.0654 12.4855 19.2905C12.4855 19.2905 16.4226 22.1489 18.0236 25.6955C18.0236 25.6955 18.1595 25.0022 19.0909 25.6452C20.891 23.292 23.1286 21.3067 25.6812 19.7979L25.6108 18.6375C23.2847 16.9988 21.3632 14.8531 19.9921 12.3631L19.6598 12.3229L18.7234 12.2827C18.7234 12.2827 15.8285 16.5929 12.2288 17.9693" fill="white"/>
</mask>
<g mask="url(#mask1_760_823)">
<path d="M25.6771 12.2827H12.2397V25.6955H25.6771V12.2827Z" fill="url(#paint1_linear_760_823)"/>
</g>
<path d="M22.2467 19.3608C22.2532 19.3189 22.2442 19.2761 22.2215 19.2403C21.9824 18.9375 21.7937 18.5982 21.6627 18.2356C21.6174 18.0396 21.5973 17.5725 21.8893 17.5071C22.1813 17.4418 22.3222 17.8136 22.2618 18.0597C22.2014 18.3059 22.5639 18.3913 22.6193 18.1602C22.6826 18.0151 22.7002 17.8543 22.6696 17.699C22.639 17.5438 22.5618 17.4015 22.4481 17.2911C22.3458 17.2223 22.2308 17.1744 22.1098 17.1502C21.9888 17.1261 21.8642 17.1262 21.7433 17.1505C21.3969 17.062 21.0597 16.9409 20.7363 16.7888C20.5249 16.6632 20.3235 16.4673 20.404 16.2061C20.4222 16.1189 20.4743 16.0424 20.5488 15.9935C20.6234 15.9445 20.7143 15.927 20.8018 15.9448C21.0082 16.0051 20.9981 16.2362 20.9931 16.417C21.0004 16.4617 21.0235 16.5024 21.058 16.5317C21.0926 16.561 21.1365 16.5771 21.1819 16.5771C21.2273 16.5771 21.2712 16.561 21.3058 16.5317C21.3403 16.5024 21.3634 16.4617 21.3707 16.417C21.3707 16.0252 21.2801 15.6133 20.832 15.5681C20.6917 15.5537 20.5503 15.5791 20.4239 15.6413C20.2974 15.7035 20.1911 15.8 20.1171 15.9197H20.0718C19.7515 16.0981 19.3913 16.1931 19.0246 16.196C18.8769 16.2056 18.7292 16.1762 18.5966 16.1106C18.5526 16.0882 18.5143 16.0562 18.4844 16.0169C18.4546 15.9776 18.4341 15.9321 18.4244 15.8838C18.4147 15.8354 18.4161 15.7855 18.4285 15.7378C18.4409 15.6901 18.4639 15.6458 18.4959 15.6083C18.7023 15.5681 18.8081 15.6083 18.8131 15.7841C18.8265 15.832 18.8584 15.8728 18.9018 15.8972C18.9233 15.9094 18.947 15.9172 18.9715 15.9202C18.996 15.9231 19.0209 15.9213 19.0447 15.9147C19.0685 15.9081 19.0908 15.8969 19.1102 15.8817C19.1297 15.8665 19.146 15.8477 19.1581 15.8262C19.1703 15.8047 19.1781 15.7811 19.1811 15.7566C19.1841 15.7322 19.1822 15.7074 19.1756 15.6836C19.09 15.3521 18.8181 14.9904 18.4305 15.1813C18.303 15.2538 18.2006 15.3632 18.1367 15.4951C18.0729 15.6269 18.0507 15.775 18.073 15.9197C17.8308 16.1576 17.6255 16.4302 17.4638 16.7285C17.3462 16.9456 17.1527 17.1119 16.9201 17.1957C16.8583 17.2077 16.7946 17.2059 16.7336 17.1902C16.6727 17.1746 16.616 17.1456 16.5677 17.1053C16.5073 16.9856 16.4929 16.848 16.5274 16.7185C16.5274 16.6079 16.618 16.5376 16.764 16.5175C16.9151 16.7034 17.1769 16.4422 17.0258 16.2563C16.4972 15.5982 15.7521 16.9395 16.3764 17.4268L16.4569 17.4871C16.5048 17.8388 16.5048 18.1953 16.4569 18.547C16.4116 18.7731 16.3159 19.0494 16.034 19.0142C15.8578 19.0142 15.5305 18.7279 15.7521 18.5671C15.9736 18.4064 15.7521 18.0999 15.5658 18.2456C15.0271 18.6475 15.4802 19.4111 16.0692 19.3859H16.2052C16.3436 19.6325 16.4966 19.8707 16.6633 20.0993C16.7982 20.2739 16.8741 20.4867 16.8798 20.7071C16.8798 20.8377 16.7791 21.0638 16.5928 21.0336C16.5375 21.0336 16.3562 20.8126 16.472 20.7624C16.6885 20.6669 16.5022 20.3454 16.2807 20.4409C16.0592 20.5363 16.0038 21.0085 16.1448 21.2095C16.2504 21.3199 16.3898 21.3922 16.5411 21.4149C16.6924 21.4377 16.847 21.4096 16.9805 21.3351C17.0842 21.2724 17.164 21.1769 17.2071 21.0638H17.2373C17.6392 21.0618 18.0347 21.1639 18.3852 21.3602C18.479 21.4404 18.5499 21.5441 18.5906 21.6606C18.6313 21.777 18.6403 21.9022 18.6168 22.0233C18.6177 22.1043 18.5969 22.1841 18.5563 22.2544L18.3147 22.3799C18.1687 22.3548 18.2543 22.0936 18.2744 22.0183C18.3499 21.7922 17.9874 21.6917 17.9169 21.9228C17.8163 22.2443 17.8263 22.6311 18.214 22.7366C18.3028 22.7531 18.394 22.7508 18.4819 22.7301C18.5698 22.7094 18.6524 22.6706 18.7244 22.6163C18.7964 22.5619 18.8563 22.4931 18.9001 22.4144C18.944 22.3356 18.971 22.2486 18.9793 22.1589C18.9793 22.0986 18.9793 22.0383 18.9793 21.9831C19.0075 21.9738 19.0332 21.9583 19.0548 21.9379C19.3781 21.6318 19.753 21.3852 20.1624 21.2095C20.4141 21.104 20.832 20.9935 20.9528 21.3803C20.9835 21.5132 20.9637 21.6528 20.8974 21.7721C20.8018 21.9881 20.6608 22.0032 20.4745 21.8223C20.4997 21.5862 20.1271 21.5862 20.102 21.8223C20.0958 21.9073 20.1114 21.9925 20.1474 22.0698C20.1833 22.1471 20.2383 22.214 20.3073 22.2643C20.3763 22.3145 20.4569 22.3464 20.5417 22.357C20.6264 22.3676 20.7125 22.3564 20.7917 22.3247C20.9733 22.2514 21.125 22.1196 21.2226 21.9502C21.3202 21.7809 21.3582 21.5837 21.3304 21.3903C21.3211 21.3173 21.3007 21.2462 21.27 21.1793C21.278 21.1514 21.278 21.1218 21.27 21.0939C21.2641 20.7469 21.3382 20.4032 21.4865 20.0892C21.5721 19.9134 21.7282 19.7074 21.9446 19.7074C22.015 19.7068 22.0831 19.7325 22.1354 19.7795C22.1878 19.8264 22.2207 19.8911 22.2276 19.961C22.2345 20.0309 22.215 20.1008 22.1729 20.1571C22.1308 20.2133 22.0691 20.2519 22 20.2651C21.7634 20.3153 21.8641 20.677 22.1007 20.6267C22.2485 20.611 22.3865 20.5455 22.492 20.441C22.5975 20.3366 22.6643 20.1994 22.6812 20.0521C22.6982 19.9047 22.6645 19.756 22.5855 19.6304C22.5065 19.5048 22.387 19.4097 22.2467 19.3608ZM21.2096 19.8632C21.0598 20.1654 20.966 20.4922 20.9327 20.8277C20.775 20.7569 20.6008 20.7308 20.4292 20.7523C19.8642 20.8734 19.3475 21.1583 18.944 21.5712C18.7275 20.9683 17.9371 20.7825 17.2624 20.7172C17.2626 20.6391 17.2525 20.5614 17.2322 20.4861C17.1164 19.9837 16.7288 19.6622 16.5123 19.2202C16.8798 18.8836 16.8546 18.1502 16.8144 17.6277C17.4034 17.6277 17.8213 16.7285 18.2039 16.3065C18.5765 16.7586 19.4324 16.5929 19.9761 16.3769C19.9761 17.0098 20.7917 17.2509 21.3606 17.4368C21.2514 17.6738 21.2096 17.9362 21.2398 18.1954C21.3387 18.6122 21.5296 19.0018 21.7986 19.3357C21.6647 19.3703 21.5398 19.433 21.4321 19.5196C21.3245 19.6062 21.2366 19.7148 21.1743 19.8381" fill="#9F212C"/>
<path d="M21.9648 16.6381C21.9648 16.6948 21.948 16.7501 21.9165 16.7972C21.8849 16.8443 21.8401 16.881 21.7877 16.9027C21.7352 16.9244 21.6775 16.93 21.6219 16.919C21.5662 16.9079 21.5151 16.8807 21.4749 16.8406C21.4348 16.8006 21.4075 16.7496 21.3964 16.694C21.3853 16.6385 21.391 16.5809 21.4127 16.5286C21.4344 16.4762 21.4712 16.4315 21.5184 16.4001C21.5656 16.3686 21.6211 16.3518 21.6778 16.3518C21.7535 16.3531 21.8258 16.3837 21.8793 16.4371C21.9329 16.4905 21.9635 16.5626 21.9648 16.6381Z" fill="#9F212C"/>
<path d="M22.8057 19.0341C22.8064 19.0719 22.7994 19.1094 22.7853 19.1445C22.7711 19.1795 22.75 19.2113 22.7232 19.2381C22.6964 19.2648 22.6645 19.2859 22.6294 19.3C22.5942 19.3142 22.5566 19.3211 22.5187 19.3204C22.4782 19.3258 22.437 19.3225 22.3979 19.3107C22.3587 19.2989 22.3225 19.2789 22.2918 19.252C22.261 19.2251 22.2364 19.192 22.2195 19.1549C22.2026 19.1177 22.1938 19.0774 22.1938 19.0366C22.1938 18.9958 22.2026 18.9555 22.2195 18.9183C22.2364 18.8811 22.261 18.848 22.2918 18.8211C22.3225 18.7943 22.3587 18.7743 22.3979 18.7625C22.437 18.7507 22.4782 18.7474 22.5187 18.7528C22.5562 18.7521 22.5934 18.7589 22.6282 18.7727C22.663 18.7865 22.6947 18.8072 22.7214 18.8334C22.7481 18.8595 22.7693 18.8908 22.7838 18.9252C22.7983 18.9597 22.8057 18.9967 22.8057 19.0341Z" fill="#9F212C"/>
<path d="M21.9263 21.3098C21.9263 21.3857 21.8961 21.4586 21.8422 21.5122C21.7884 21.5659 21.7154 21.5961 21.6393 21.5961C21.6014 21.5968 21.5638 21.5899 21.5287 21.5757C21.4936 21.5616 21.4617 21.5405 21.4349 21.5138C21.4081 21.487 21.387 21.4552 21.3728 21.4202C21.3586 21.3851 21.3517 21.3476 21.3523 21.3098C21.3523 21.2338 21.3826 21.161 21.4364 21.1073C21.4902 21.0536 21.5632 21.0234 21.6393 21.0234C21.715 21.0247 21.7873 21.0553 21.8408 21.1087C21.8943 21.1622 21.925 21.2342 21.9263 21.3098Z" fill="#9F212C"/>
<path d="M19.7661 22.5406C19.7661 22.5972 19.7493 22.6526 19.7177 22.6997C19.6862 22.7468 19.6414 22.7835 19.5889 22.8052C19.5365 22.8268 19.4788 22.8325 19.4231 22.8215C19.3675 22.8104 19.3163 22.7831 19.2762 22.7431C19.2361 22.703 19.2087 22.652 19.1977 22.5965C19.1866 22.5409 19.1923 22.4834 19.214 22.431C19.2357 22.3787 19.2725 22.334 19.3197 22.3025C19.3669 22.2711 19.4224 22.2543 19.4791 22.2543C19.5552 22.2543 19.6282 22.2844 19.682 22.3381C19.7358 22.3918 19.7661 22.4647 19.7661 22.5406Z" fill="#9F212C"/>
<path d="M17.3445 22.0482C17.3445 22.1241 17.3142 22.197 17.2604 22.2507C17.2066 22.3044 17.1336 22.3345 17.0575 22.3345C16.9814 22.3345 16.9084 22.3044 16.8546 22.2507C16.8007 22.197 16.7705 22.1241 16.7705 22.0482C16.7705 21.9722 16.8007 21.8994 16.8546 21.8457C16.9084 21.792 16.9814 21.7618 17.0575 21.7618C17.1336 21.7618 17.2066 21.792 17.2604 21.8457C17.3142 21.8994 17.3445 21.9722 17.3445 22.0482Z" fill="#9F212C"/>
<path d="M15.7026 20.2045C15.7026 20.2613 15.6856 20.3169 15.6539 20.3641C15.6221 20.4113 15.577 20.4479 15.5243 20.4695C15.4715 20.491 15.4136 20.4964 15.3578 20.4849C15.302 20.4734 15.2509 20.4457 15.2109 20.4051C15.171 20.3646 15.1441 20.3131 15.1336 20.2572C15.1231 20.2013 15.1295 20.1436 15.152 20.0914C15.1745 20.0391 15.212 19.9948 15.2599 19.9639C15.3077 19.9331 15.3637 19.9171 15.4207 19.9181C15.4959 19.9195 15.5676 19.9502 15.6203 20.0038C15.6731 20.0573 15.7026 20.1294 15.7026 20.2045Z" fill="#9F212C"/>
<path d="M15.7429 17.6927C15.7429 17.7687 15.7127 17.8415 15.6589 17.8952C15.6051 17.9489 15.5321 17.9791 15.456 17.9791C15.4181 17.9797 15.3805 17.9728 15.3453 17.9586C15.3102 17.9445 15.2783 17.9234 15.2515 17.8967C15.2247 17.87 15.2036 17.8381 15.1894 17.8031C15.1753 17.768 15.1683 17.7305 15.169 17.6927C15.169 17.6168 15.1992 17.5439 15.253 17.4902C15.3069 17.4365 15.3799 17.4064 15.456 17.4064C15.5317 17.4077 15.6039 17.4382 15.6575 17.4917C15.711 17.5451 15.7416 17.6172 15.7429 17.6927Z" fill="#9F212C"/>
<path d="M17.3645 15.779C17.3645 15.8356 17.3476 15.891 17.3161 15.9381C17.2846 15.9852 17.2398 16.0219 17.1873 16.0436C17.1349 16.0652 17.0772 16.0709 17.0215 16.0599C16.9658 16.0488 16.9147 16.0215 16.8746 15.9815C16.8344 15.9414 16.8071 15.8904 16.796 15.8349C16.785 15.7793 16.7907 15.7218 16.8124 15.6694C16.8341 15.6171 16.8709 15.5724 16.9181 15.5409C16.9653 15.5095 17.0207 15.4927 17.0775 15.4927C17.1536 15.4927 17.2266 15.5228 17.2804 15.5765C17.3342 15.6302 17.3645 15.7031 17.3645 15.779Z" fill="#9F212C"/>
<path d="M19.8311 15.3469C19.8298 15.4225 19.7991 15.4946 19.7456 15.548C19.692 15.6014 19.6198 15.632 19.5441 15.6333C19.468 15.6333 19.395 15.6031 19.3412 15.5494C19.2874 15.4957 19.2571 15.4229 19.2571 15.3469C19.2564 15.3091 19.2634 15.2716 19.2776 15.2366C19.2918 15.2015 19.3129 15.1697 19.3397 15.1429C19.3664 15.1162 19.3984 15.0952 19.4335 15.081C19.4686 15.0669 19.5062 15.0599 19.5441 15.0606C19.6202 15.0606 19.6932 15.0908 19.747 15.1445C19.8008 15.1982 19.8311 15.271 19.8311 15.3469Z" fill="#9F212C"/>
<defs>
<linearGradient id="paint0_linear_760_823" x1="3.56351" y1="19.7929" x2="34.6825" y2="19.7929" gradientUnits="userSpaceOnUse">
<stop stop-color="#C4843E"/>
<stop offset="0.18" stop-color="#E7B164"/>
<stop offset="0.32" stop-color="#FFD17F"/>
<stop offset="0.68" stop-color="#FCEB9E"/>
<stop offset="1" stop-color="#F9CE6E"/>
</linearGradient>
<linearGradient id="paint1_linear_760_823" x1="12.4469" y1="20.1066" x2="25.8843" y2="20.1066" gradientUnits="userSpaceOnUse">
<stop stop-color="#ECBE62"/>
<stop offset="0.13" stop-color="#FFF7D1"/>
<stop offset="0.23" stop-color="#ECBE62"/>
<stop offset="0.35" stop-color="#FEE58B"/>
<stop offset="0.47" stop-color="#FFDAA6"/>
<stop offset="0.59" stop-color="#ECBE62"/>
<stop offset="0.73" stop-color="#FEE58B"/>
<stop offset="0.86" stop-color="#ECBE62"/>
<stop offset="1" stop-color="#FFF7D1"/>
</linearGradient>
</defs>
</svg>
