<svg width="158" height="35" viewBox="0 0 158 35" fill="none" xmlns="http://www.w3.org/2000/svg">
<path d="M117.899 29.0405C117.899 30.1763 117.562 31.2866 116.931 32.231C116.3 33.1753 115.404 33.9114 114.354 34.346C113.305 34.7807 112.15 34.8944 111.036 34.6728C109.922 34.4512 108.899 33.9043 108.096 33.1012C107.293 32.2981 106.746 31.2748 106.524 30.1609C106.303 29.0469 106.417 27.8923 106.851 26.8429C107.286 25.7936 108.022 24.8968 108.966 24.2657C109.911 23.6347 111.021 23.2979 112.157 23.2979C112.911 23.2977 113.658 23.446 114.355 23.7345C115.051 24.023 115.685 24.446 116.218 24.9793C116.751 25.5126 117.174 26.1458 117.463 26.8426C117.751 27.5395 117.9 28.2863 117.899 29.0405Z" fill="white"/>
<path d="M117.523 29.0408C117.523 30.103 117.208 31.1414 116.617 32.0246C116.027 32.9078 115.188 33.5961 114.207 34.0026C113.226 34.4091 112.146 34.5155 111.104 34.3082C110.062 34.101 109.105 33.5895 108.354 32.8384C107.603 32.0873 107.092 31.1304 106.884 30.0886C106.677 29.0468 106.784 27.9669 107.19 26.9855C107.597 26.0042 108.285 25.1654 109.168 24.5753C110.051 23.9851 111.09 23.6702 112.152 23.6702C113.576 23.6702 114.942 24.236 115.949 25.2432C116.957 26.2504 117.523 27.6164 117.523 29.0408Z" fill="#A32C31"/>
<mask id="mask0_4702_1816" style="mask-type:luminance" maskUnits="userSpaceOnUse" x="107" y="24" width="11" height="10">
<path d="M109.023 27.6086C109.107 27.6099 109.188 27.6389 109.253 27.6912C109.319 27.7434 109.366 27.8159 109.386 27.8974C109.406 27.9789 109.398 28.0648 109.365 28.1416C109.331 28.2184 109.272 28.2819 109.199 28.3221C109.125 28.3623 109.04 28.3769 108.957 28.3638C108.874 28.3506 108.798 28.3104 108.741 28.2493C108.683 28.1883 108.647 28.1099 108.639 28.0264C108.63 27.9428 108.65 27.8589 108.694 27.7877C108.66 27.8025 108.623 27.8119 108.585 27.8155C108.43 28.8101 109.416 28.6112 109.416 28.6112C109.78 28.5217 111.652 26.4032 111.652 26.4032L111.509 26.2739C111.288 26.075 111.421 26.0909 111.421 26.0909L112.374 26.9483L112.08 26.9363C111.153 28.2332 110.31 28.641 109.967 28.7603C108.376 29.1104 108.376 28.0562 108.376 28.0562L107.234 28.9613C109.49 30.7216 110.361 31.7043 110.695 32.2015C110.702 32.1063 110.745 32.0172 110.815 31.9522C110.885 31.8871 110.977 31.851 111.072 31.851C111.168 31.851 111.26 31.8871 111.33 31.9522C111.4 32.0172 111.442 32.1063 111.449 32.2015C111.45 32.251 111.441 32.3 111.422 32.3459C111.403 32.3917 111.376 32.4334 111.341 32.4685C111.306 32.5037 111.265 32.5316 111.219 32.5506C111.174 32.5697 111.125 32.5795 111.075 32.5795C111.005 32.5817 110.936 32.563 110.876 32.5258C110.892 32.5595 110.902 32.5959 110.904 32.6332C111.899 32.7824 111.69 31.7958 111.69 31.7958C111.597 31.4337 109.464 29.5799 109.464 29.5799L109.337 29.7231C109.138 29.9459 109.156 29.8126 109.156 29.8126L110.029 28.8757V28.8538L110.099 28.8698V29.1562C111.244 30.0334 111.69 30.8091 111.847 31.1831C112.201 32.7903 111.145 32.7744 111.145 32.7744L112.05 33.9162C113.81 31.6605 114.793 30.7893 115.29 30.4551C115.216 30.4543 115.143 30.4315 115.082 30.3896C115.02 30.3477 114.972 30.2885 114.944 30.2195C114.916 30.1505 114.909 30.0747 114.924 30.0017C114.939 29.9287 114.975 29.8618 115.028 29.8092C115.081 29.7567 115.148 29.7209 115.221 29.7065C115.294 29.692 115.37 29.6994 115.438 29.7278C115.507 29.7562 115.566 29.8044 115.608 29.8662C115.649 29.928 115.672 30.0007 115.672 30.0752C115.673 30.1454 115.654 30.2144 115.617 30.2741C115.65 30.2584 115.687 30.2483 115.724 30.2442C115.873 29.2497 114.887 29.4585 114.887 29.4585C114.525 29.552 112.671 31.6844 112.671 31.6844L112.814 31.8137C113.037 32.0126 112.903 31.9947 112.903 31.9947L112.08 31.2289L112.034 31.0757L112.191 31.1732C112.767 30.4324 113.474 29.8039 114.278 29.3193H114.292C115.947 28.9453 115.929 30.0234 115.929 30.0234L117.079 29.1283C114.835 27.3361 113.979 26.3475 113.641 25.8582C113.64 25.9327 113.616 26.005 113.574 26.0662C113.531 26.1273 113.471 26.1745 113.402 26.2018C113.333 26.2292 113.257 26.2354 113.184 26.2198C113.111 26.2041 113.045 26.1673 112.993 26.114C112.941 26.0606 112.906 25.9931 112.892 25.9199C112.878 25.8467 112.887 25.771 112.916 25.7025C112.945 25.6339 112.994 25.5755 113.056 25.5345C113.118 25.4936 113.191 25.472 113.265 25.4723C113.345 25.4702 113.423 25.4872 113.494 25.5221C113.483 25.4839 113.462 25.4491 113.434 25.4206C112.44 25.2655 112.639 26.2521 112.639 26.2521C112.73 26.6161 114.849 28.4859 114.849 28.4859L114.978 28.3446C115.177 28.1238 115.159 28.2551 115.159 28.2551L114.278 29.184L114.254 28.9493C113.508 28.4419 112.898 27.7588 112.478 26.9602C111.951 25.4683 113.319 25.2674 113.319 25.2674L112.287 24.1734C110.508 26.4152 109.52 27.2785 109.021 27.6106" fill="white"/>
</mask>
<g mask="url(#mask0_4702_1816)">
<path d="M117.075 24.1707H107.234V33.9194H117.075V24.1707Z" fill="url(#paint0_linear_4702_1816)"/>
</g>
<mask id="mask1_4702_1816" style="mask-type:luminance" maskUnits="userSpaceOnUse" x="110" y="26" width="5" height="6">
<path d="M110.023 28.7342C110.065 28.795 110.093 28.8636 110.106 28.9359C110.12 29.0082 110.118 29.0824 110.101 29.1539C110.101 29.1539 111.346 30.059 111.849 31.1808C111.849 31.1808 111.893 30.962 112.188 31.1669C112.757 30.4205 113.466 29.791 114.274 29.3131L114.252 28.9451C113.516 28.4261 112.909 27.7457 112.476 26.9559L112.371 26.942L112.076 26.9301C112.076 26.9301 111.161 28.2946 110.023 28.7322" fill="white"/>
</mask>
<g mask="url(#mask1_4702_1816)">
<path d="M114.272 26.9321H110.023V31.1829H114.272V26.9321Z" fill="url(#paint1_linear_4702_1816)"/>
</g>
<path d="M113.177 29.1741C113.181 29.1619 113.181 29.1485 113.177 29.1363C113.1 29.0412 113.04 28.9335 113 28.8181C112.986 28.7564 112.98 28.6192 113.072 28.5873C113.163 28.5555 113.209 28.6848 113.189 28.7624C113.169 28.8399 113.284 28.8678 113.302 28.7942C113.322 28.7484 113.328 28.6976 113.319 28.6485C113.309 28.5994 113.284 28.5545 113.249 28.5197C113.183 28.4753 113.102 28.4589 113.024 28.4739C112.916 28.4447 112.811 28.4061 112.71 28.3586C112.644 28.3188 112.58 28.2571 112.606 28.1736C112.612 28.1464 112.629 28.1227 112.652 28.1074C112.676 28.0922 112.704 28.0867 112.731 28.092C112.797 28.1099 112.793 28.1835 112.793 28.2412C112.796 28.2549 112.803 28.2673 112.814 28.2762C112.824 28.2852 112.838 28.29 112.852 28.29C112.866 28.29 112.879 28.2852 112.89 28.2762C112.901 28.2673 112.908 28.2549 112.91 28.2412C112.91 28.1179 112.883 27.9866 112.741 27.9727C112.697 27.9682 112.653 27.9761 112.613 27.9954C112.572 28.0147 112.539 28.0447 112.515 28.0821C112.515 28.0821 112.515 28.0821 112.501 28.0821C112.398 28.137 112.284 28.1664 112.168 28.1676C112.122 28.172 112.076 28.163 112.035 28.1418C112.022 28.1345 112.011 28.1245 112.002 28.1125C111.993 28.1004 111.986 28.0866 111.983 28.0719C111.98 28.0572 111.98 28.042 111.983 28.0273C111.986 28.0126 111.992 27.9987 112.001 27.9866C112.067 27.9727 112.101 27.9866 112.103 28.0423C112.105 28.098 112.236 28.0841 112.216 28.0105C112.19 27.9051 112.105 27.7897 111.981 27.8474C111.941 27.8707 111.909 27.9055 111.889 27.9474C111.869 27.9892 111.861 28.0361 111.868 28.0821C111.791 28.1584 111.724 28.2447 111.669 28.3387C111.652 28.3734 111.628 28.4043 111.599 28.4296C111.569 28.4549 111.535 28.474 111.498 28.4859C111.479 28.4903 111.458 28.4901 111.439 28.4852C111.42 28.4804 111.402 28.4711 111.387 28.458C111.367 28.4207 111.363 28.3772 111.375 28.3367C111.375 28.3009 111.403 28.279 111.448 28.2711C111.496 28.3307 111.58 28.2472 111.532 28.1895C111.365 27.9806 111.134 28.4063 111.333 28.5595L111.359 28.5794C111.374 28.6909 111.374 28.804 111.359 28.9155C111.345 28.9871 111.313 29.0667 111.224 29.0627C111.168 29.0627 111.066 28.9732 111.136 28.9215C111.206 28.8698 111.136 28.7723 111.076 28.8181C110.905 28.9454 111.049 29.188 111.24 29.1801C111.253 29.1812 111.267 29.1812 111.281 29.1801C111.325 29.2583 111.374 29.334 111.427 29.4068C111.473 29.4628 111.499 29.533 111.5 29.6058C111.5 29.6475 111.468 29.7191 111.411 29.7072C111.393 29.7072 111.333 29.6376 111.371 29.6237C111.44 29.5938 111.371 29.4924 111.311 29.5202C111.251 29.5481 111.224 29.6993 111.267 29.7629C111.301 29.7982 111.345 29.8212 111.393 29.8285C111.441 29.8357 111.49 29.8266 111.532 29.8027C111.565 29.7832 111.59 29.753 111.604 29.7172H111.613C111.74 29.7174 111.865 29.7503 111.976 29.8126C112.005 29.8381 112.028 29.871 112.041 29.9081C112.054 29.9451 112.057 29.985 112.049 30.0235C112.05 30.0488 112.043 30.0737 112.029 30.0951L111.954 30.1349C111.908 30.1349 111.934 30.0434 111.942 30.0215C111.943 30.0074 111.94 29.9933 111.932 29.9815C111.924 29.9698 111.912 29.9613 111.899 29.9575C111.885 29.9536 111.87 29.9548 111.858 29.9607C111.845 29.9666 111.834 29.9768 111.828 29.9897C111.796 30.0911 111.798 30.2144 111.922 30.2482C111.95 30.2543 111.979 30.2543 112.007 30.248C112.035 30.2418 112.061 30.2296 112.084 30.2122C112.107 30.1948 112.126 30.1727 112.14 30.1473C112.153 30.1219 112.161 30.0939 112.162 30.0652C112.162 30.0454 112.162 30.0275 112.162 30.0096C112.171 30.0065 112.179 30.0017 112.186 29.9956C112.286 29.8969 112.403 29.8167 112.53 29.7589C112.61 29.7231 112.741 29.6893 112.781 29.8126C112.79 29.8548 112.783 29.8986 112.761 29.936C112.731 30.0036 112.688 30.0096 112.63 29.9519C112.63 29.8763 112.519 29.8783 112.511 29.9519C112.509 29.9789 112.514 30.006 112.525 30.0306C112.536 30.0551 112.554 30.0764 112.576 30.0924C112.598 30.1083 112.623 30.1184 112.65 30.1216C112.677 30.1249 112.704 30.1212 112.729 30.111C112.787 30.0877 112.835 30.0459 112.866 29.9922C112.897 29.9385 112.909 29.876 112.9 29.8146C112.896 29.7921 112.89 29.7701 112.881 29.749C112.884 29.7399 112.884 29.7302 112.881 29.7211C112.879 29.6092 112.902 29.4982 112.95 29.3969C112.976 29.3412 113.026 29.2756 113.095 29.2756C113.117 29.2762 113.138 29.2849 113.154 29.2999C113.17 29.3149 113.18 29.3352 113.182 29.357C113.184 29.3788 113.178 29.4006 113.165 29.4182C113.152 29.4358 113.133 29.4481 113.111 29.4526C113.038 29.4685 113.07 29.5819 113.143 29.566C113.196 29.5707 113.248 29.5543 113.289 29.5204C113.33 29.4864 113.355 29.4377 113.36 29.385C113.365 29.3322 113.348 29.2797 113.314 29.2391C113.28 29.1984 113.232 29.1729 113.179 29.1682M112.851 29.3233C112.804 29.4195 112.774 29.5232 112.763 29.6296C112.716 29.6075 112.664 29.5992 112.612 29.6058C112.433 29.6446 112.269 29.7352 112.141 29.8663C112.075 29.6674 111.826 29.6157 111.612 29.5958C111.614 29.5713 111.614 29.5467 111.612 29.5222C111.576 29.3671 111.45 29.2597 111.385 29.1244C111.498 29.017 111.492 28.7843 111.478 28.6192C111.665 28.6192 111.798 28.3347 111.918 28.2014C112.037 28.3447 112.316 28.291 112.479 28.2213C112.479 28.4202 112.735 28.4998 112.916 28.5595C112.882 28.6354 112.87 28.7197 112.883 28.8022C112.912 28.9346 112.972 29.0585 113.058 29.1642C113.015 29.1752 112.974 29.1955 112.94 29.2237C112.906 29.2519 112.878 29.2872 112.859 29.3273" fill="#A32C31"/>
<path d="M113.103 28.313C113.103 28.3368 113.094 28.3596 113.077 28.3764C113.06 28.3933 113.037 28.4027 113.014 28.4027C112.99 28.4027 112.967 28.3934 112.949 28.3766C112.932 28.3598 112.922 28.337 112.922 28.313C112.922 28.2888 112.932 28.2657 112.949 28.2486C112.966 28.2315 112.989 28.2217 113.014 28.2212C113.038 28.2217 113.06 28.2316 113.077 28.2488C113.094 28.2659 113.103 28.289 113.103 28.313Z" fill="#A32C31"/>
<path d="M113.37 29.0731C113.367 29.0948 113.356 29.1147 113.339 29.1291C113.323 29.1434 113.301 29.1514 113.279 29.1514C113.257 29.1514 113.236 29.1434 113.219 29.1291C113.203 29.1147 113.192 29.0948 113.189 29.0731C113.187 29.06 113.187 29.0467 113.191 29.034C113.195 29.0214 113.201 29.0096 113.21 28.9996C113.218 28.9897 113.229 28.9816 113.241 28.9761C113.253 28.9707 113.266 28.9678 113.279 28.9678C113.292 28.9678 113.305 28.9707 113.317 28.9761C113.329 28.9816 113.34 28.9897 113.349 28.9996C113.357 29.0096 113.364 29.0214 113.367 29.034C113.371 29.0467 113.372 29.06 113.37 29.0731Z" fill="#A32C31"/>
<path d="M113.088 29.7931C113.087 29.8173 113.077 29.8403 113.06 29.8574C113.043 29.8746 113.02 29.8844 112.996 29.8849C112.972 29.8844 112.949 29.8745 112.932 29.8573C112.916 29.8402 112.906 29.8171 112.906 29.7931C112.906 29.7693 112.916 29.7465 112.933 29.7296C112.949 29.7128 112.972 29.7033 112.996 29.7033C113.02 29.7033 113.043 29.7127 113.06 29.7295C113.077 29.7463 113.087 29.7691 113.088 29.7931Z" fill="#A32C31"/>
<path d="M112.4 30.1828C112.4 30.207 112.39 30.23 112.373 30.2471C112.356 30.2642 112.333 30.2741 112.309 30.2746C112.285 30.2741 112.262 30.2642 112.245 30.247C112.228 30.2298 112.219 30.2068 112.219 30.1828C112.219 30.159 112.228 30.1362 112.245 30.1193C112.262 30.1025 112.285 30.093 112.309 30.093C112.333 30.093 112.356 30.1024 112.373 30.1192C112.39 30.136 112.4 30.1588 112.4 30.1828Z" fill="#A32C31"/>
<path d="M111.635 30.0355C111.635 30.0593 111.625 30.0821 111.608 30.099C111.592 30.1158 111.569 30.1252 111.545 30.1252C111.521 30.1253 111.498 30.1159 111.481 30.0991C111.464 30.0823 111.454 30.0595 111.453 30.0355C111.454 30.0113 111.463 29.9882 111.481 29.9711C111.498 29.954 111.521 29.9442 111.545 29.9437C111.569 29.9442 111.592 29.9541 111.609 29.9713C111.625 29.9884 111.635 30.0115 111.635 30.0355Z" fill="#A32C31"/>
<path d="M111.119 29.4386C111.119 29.4504 111.117 29.4621 111.112 29.473C111.108 29.4839 111.101 29.4938 111.093 29.5021C111.084 29.5104 111.075 29.517 111.064 29.5216C111.053 29.5261 111.041 29.5284 111.029 29.5284C111.005 29.5284 110.982 29.519 110.965 29.5022C110.948 29.4854 110.938 29.4626 110.938 29.4386C110.938 29.4144 110.948 29.3914 110.965 29.3743C110.982 29.3572 111.005 29.3473 111.029 29.3468C111.053 29.3474 111.076 29.3573 111.093 29.3744C111.11 29.3916 111.119 29.4146 111.119 29.4386Z" fill="#A32C31"/>
<path d="M111.135 28.6432C111.134 28.6674 111.124 28.6904 111.107 28.7075C111.09 28.7246 111.067 28.7345 111.043 28.735C111.019 28.7345 110.996 28.7246 110.979 28.7074C110.963 28.6903 110.953 28.6672 110.953 28.6432C110.953 28.6194 110.963 28.5966 110.979 28.5797C110.996 28.5629 111.019 28.5534 111.043 28.5534C111.067 28.5534 111.09 28.5628 111.107 28.5796C111.124 28.5964 111.134 28.6192 111.135 28.6432Z" fill="#A32C31"/>
<path d="M111.647 28.0467C111.646 28.0707 111.636 28.0935 111.619 28.1103C111.602 28.1271 111.579 28.1365 111.555 28.1364C111.533 28.1332 111.513 28.1223 111.499 28.1056C111.484 28.0889 111.477 28.0677 111.477 28.0457C111.477 28.0237 111.484 28.0024 111.499 27.9857C111.513 27.9691 111.533 27.9581 111.555 27.9549C111.579 27.9549 111.603 27.9646 111.62 27.9818C111.637 27.999 111.647 28.0223 111.647 28.0467Z" fill="#A32C31"/>
<path d="M112.426 27.9033C112.425 27.9275 112.415 27.9505 112.398 27.9676C112.381 27.9847 112.358 27.9946 112.334 27.9951C112.31 27.9951 112.286 27.9854 112.269 27.9682C112.252 27.951 112.242 27.9276 112.242 27.9033C112.242 27.879 112.252 27.8556 112.269 27.8384C112.286 27.8212 112.31 27.8115 112.334 27.8115C112.358 27.812 112.381 27.8219 112.398 27.839C112.415 27.8561 112.425 27.8791 112.426 27.9033Z" fill="#A32C31"/>
<path fill-rule="evenodd" clip-rule="evenodd" d="M96.375 31.33V27.0773H97.8032C98.0427 27.0676 98.2813 27.1118 98.5014 27.2066C98.6772 27.2923 98.8214 27.4316 98.9131 27.6044C99.0119 27.7749 99.064 27.9683 99.0643 28.1654C99.064 28.3449 99.0181 28.5215 98.931 28.6785C98.8395 28.8467 98.7013 28.9848 98.5332 29.0764C98.7488 29.1412 98.936 29.2772 99.0643 29.4623C99.1903 29.6524 99.2549 29.8767 99.2493 30.1047C99.2511 30.2963 99.2125 30.4861 99.1359 30.6617C99.0749 30.814 98.9796 30.9501 98.8574 31.0595C98.7346 31.1574 98.5932 31.2291 98.4417 31.2704C98.2407 31.3204 98.0341 31.3438 97.8271 31.34L96.375 31.33ZM96.8802 28.8655H97.7017C97.8638 28.873 98.026 28.8562 98.1831 28.8158C98.3013 28.781 98.4035 28.7057 98.4715 28.603C98.5402 28.4914 98.5741 28.3619 98.569 28.231C98.572 28.1004 98.5405 27.9714 98.4775 27.857C98.4219 27.7537 98.3297 27.6749 98.2189 27.6362C98.03 27.5875 97.8349 27.5674 97.6401 27.5766H96.8802V28.8655ZM96.8802 30.8328H97.8271C97.9422 30.8359 98.0574 30.8286 98.1712 30.8109C98.275 30.7931 98.3739 30.7538 98.4616 30.6955C98.5478 30.6349 98.6164 30.5526 98.6605 30.4568C98.7117 30.3446 98.7369 30.2222 98.7341 30.0988C98.7377 29.9526 98.6998 29.8085 98.6247 29.683C98.5555 29.5683 98.4486 29.4811 98.3223 29.4364C98.142 29.3814 97.9538 29.3572 97.7654 29.3648H96.8862L96.8802 30.8328ZM101.014 31.33V29.5398L99.5457 27.0872H100.152L100.904 28.3742C101.043 28.6129 101.175 28.8516 101.302 29.0903C101.417 28.8675 101.559 28.6189 101.722 28.3404L102.46 27.0872H103.056L101.537 29.5398V31.33H101.014Z" fill="#5B5752"/>
<path fill-rule="evenodd" clip-rule="evenodd" d="M155.605 30.2203L155.623 30.2442C155.726 30.3675 155.857 30.4642 156.005 30.5258C156.154 30.5875 156.315 30.6123 156.475 30.5982C156.823 30.5822 157.164 30.4855 157.469 30.3158C157.538 30.282 157.605 30.2435 157.668 30.2004L157.887 30.0473L158 30.286L157.964 30.3357C157.845 30.4857 157.712 30.6243 157.567 30.7494C157.409 30.8879 157.24 31.0124 157.061 31.1214C156.896 31.2207 156.717 31.2957 156.53 31.3442C156.335 31.3938 156.135 31.4185 155.934 31.4178C155.727 31.4207 155.521 31.3932 155.323 31.3362C155.153 31.2865 154.996 31.1995 154.863 31.0816C154.751 30.9815 154.652 30.8679 154.567 30.7435C154.484 30.6237 154.417 30.4932 154.368 30.3556C154.225 29.9283 154.203 29.4695 154.306 29.0308C154.399 28.5946 154.616 28.1945 154.931 27.8791C155.145 27.6688 155.398 27.5014 155.675 27.3858C155.95 27.2744 156.244 27.2183 156.54 27.2207C156.805 27.2188 157.065 27.2875 157.294 27.4196C157.519 27.5565 157.727 27.7201 157.913 27.907L157.99 27.9786L155.605 30.2203ZM155.438 29.7489L156.298 28.9314C156.4 28.8285 156.465 28.6938 156.481 28.5495C156.493 28.4644 156.488 28.3776 156.465 28.2948C156.447 28.2195 156.408 28.1506 156.353 28.0959C156.294 28.0405 156.217 28.0062 156.136 27.9985C156.07 27.99 156.002 27.9968 155.938 28.0184C155.788 28.0846 155.669 28.2056 155.605 28.3565C155.514 28.5533 155.456 28.7636 155.432 28.9791C155.394 29.2329 155.394 29.4911 155.432 29.7449" fill="#5B5752"/>
<path fill-rule="evenodd" clip-rule="evenodd" d="M152.267 28.2829C152.113 28.2829 151.94 28.4639 151.853 28.5693C151.633 28.8437 151.449 29.1444 151.304 29.4644V30.5286C151.313 30.6521 151.296 30.7762 151.254 30.8926C151.188 31.0105 151.093 31.1092 150.978 31.179C150.885 31.2411 150.785 31.29 150.679 31.3243C150.56 31.3616 150.437 31.3882 150.313 31.4038L150.18 31.4277V28.2451C150.182 28.2183 150.175 28.1916 150.16 28.1695C150.142 28.1556 150.119 28.1479 150.096 28.1476H150.08C149.999 28.1527 149.92 28.1795 149.852 28.2252L149.734 27.8532C149.976 27.658 150.228 27.4767 150.49 27.3102C150.536 27.2811 150.584 27.2577 150.635 27.2406C150.681 27.2235 150.73 27.2141 150.779 27.2127C150.869 27.2125 150.957 27.2403 151.031 27.2923C151.102 27.3467 151.155 27.4207 151.184 27.5051C151.237 27.705 151.269 27.9096 151.282 28.1158C151.282 28.2491 151.296 28.3823 151.298 28.5136C151.348 28.438 151.401 28.3644 151.455 28.2908C151.509 28.2172 151.582 28.1238 151.654 28.0402C151.723 27.9587 151.793 27.8811 151.869 27.8035C151.944 27.7259 152.022 27.6523 152.101 27.5807C152.181 27.5065 152.266 27.4399 152.358 27.3818C152.442 27.3295 152.531 27.2868 152.625 27.2545L152.694 27.2366L152.766 27.2187C152.816 27.21 152.866 27.2054 152.917 27.2048C153.001 27.202 153.085 27.2184 153.162 27.2529C153.239 27.2874 153.307 27.3389 153.361 27.4037C153.461 27.5248 153.529 27.6691 153.559 27.8234C153.583 27.9359 153.594 28.0506 153.593 28.1655V30.5823C153.593 30.6758 153.629 30.7036 153.721 30.6698C153.861 30.6068 153.992 30.5237 154.108 30.4232L154.246 30.7056C153.973 30.9941 153.603 31.3899 153.162 31.3899C153.071 31.39 152.982 31.3709 152.899 31.3339C152.816 31.2969 152.742 31.2427 152.682 31.1751C152.555 31.0334 152.485 30.8501 152.483 30.6599V28.6708C152.484 28.5748 152.46 28.4802 152.414 28.3963C152.383 28.3381 152.332 28.2933 152.271 28.2709L152.267 28.2829Z" fill="#5B5752"/>
<path fill-rule="evenodd" clip-rule="evenodd" d="M148.709 30.6538C148.055 31.3102 147.118 31.5389 146.203 31.5389C145.358 31.5619 144.53 31.2991 143.854 30.793C143.564 30.5532 143.329 30.2544 143.163 29.9166C142.998 29.5788 142.907 29.2096 142.895 28.8337C142.895 28.7342 142.895 28.6348 142.895 28.5333C142.873 28.1042 142.937 27.6749 143.084 27.2712C143.231 26.8675 143.458 26.4975 143.752 26.1836C144.045 25.8696 144.399 25.618 144.791 25.4438C145.184 25.2696 145.608 25.1764 146.038 25.1697C146.117 25.1697 146.195 25.1697 146.275 25.1697C148.339 25.1697 149.588 26.1384 149.588 28.1654C149.588 29.0605 149.389 29.9914 148.719 30.6597M144.104 28.3563C144.104 29.699 145.001 30.98 146.292 30.98C147.583 30.98 148.48 29.697 148.48 28.3563C148.48 27.0156 147.585 25.7327 146.292 25.7327C144.999 25.7327 144.104 27.0156 144.104 28.3563Z" fill="#5B5752"/>
<path fill-rule="evenodd" clip-rule="evenodd" d="M126.849 30.2203L126.867 30.2461C126.971 30.3686 127.102 30.4646 127.25 30.5262C127.398 30.5877 127.558 30.6131 127.718 30.6002C128.067 30.5841 128.408 30.4874 128.713 30.3177C128.782 30.2833 128.848 30.2441 128.912 30.2004L129.131 30.0492L129.246 30.2879L129.208 30.3356C129.089 30.4857 128.956 30.6242 128.81 30.7494C128.653 30.888 128.484 31.0125 128.305 31.1214C128.14 31.2206 127.961 31.2957 127.774 31.3441C127.579 31.3947 127.379 31.4194 127.177 31.4177C126.971 31.4206 126.765 31.3932 126.567 31.3362C126.397 31.2866 126.24 31.2004 126.107 31.0836C125.995 30.9818 125.895 30.8677 125.809 30.7434C125.726 30.6237 125.66 30.4941 125.61 30.3575C125.466 29.9303 125.445 29.4712 125.55 29.0328C125.641 28.5964 125.857 28.1961 126.173 27.8811C126.386 27.6695 126.639 27.5013 126.917 27.3858C127.192 27.2753 127.486 27.2192 127.782 27.2207C128.046 27.2188 128.307 27.2875 128.536 27.4196C128.761 27.5566 128.969 27.7202 129.154 27.9069L129.232 27.9805L126.849 30.2203ZM126.682 29.7489L127.541 28.9313C127.644 28.8285 127.708 28.6938 127.724 28.5494C127.737 28.4644 127.731 28.3776 127.708 28.2948C127.69 28.2201 127.652 28.1516 127.599 28.0959C127.538 28.0416 127.461 28.0082 127.38 28.0004C127.313 27.9913 127.245 27.9974 127.181 28.0183C127.032 28.0859 126.913 28.2073 126.849 28.3585C126.758 28.5545 126.7 28.7642 126.676 28.9791C126.637 29.2329 126.637 29.4911 126.676 29.7449" fill="#5B5752"/>
<path fill-rule="evenodd" clip-rule="evenodd" d="M132.884 29.8521L131.491 31.5409L130.033 28.8417L129.773 28.3901L129.375 27.8133L129.453 27.7317C129.56 27.6139 129.678 27.5048 129.803 27.4055C129.874 27.3478 130.031 27.2205 130.129 27.2205C130.182 27.2248 130.233 27.2397 130.281 27.2643C130.328 27.2889 130.37 27.3227 130.403 27.3637C130.5 27.4715 130.583 27.5904 130.652 27.7178C130.833 28.0381 131.004 28.3663 131.175 28.6945C131.322 28.9769 131.468 29.2594 131.625 29.5379C131.684 29.643 131.751 29.744 131.824 29.8402L131.879 29.9118L132.464 28.7979C132.301 28.533 132.1 28.2937 131.867 28.0878C131.83 28.0639 131.792 28.04 131.756 28.0122L131.661 27.9446L131.74 27.863C131.894 27.7014 132.056 27.5487 132.227 27.4055C132.319 27.317 132.432 27.2533 132.556 27.2205C132.608 27.2251 132.659 27.2401 132.706 27.2647C132.753 27.2893 132.794 27.323 132.828 27.3637C132.925 27.4715 133.008 27.5904 133.077 27.7178C133.26 28.0381 133.429 28.3663 133.6 28.6945C133.747 28.9769 133.894 29.2594 134.049 29.5379C134.109 29.643 134.175 29.744 134.248 29.8402C134.273 29.8747 134.3 29.9079 134.328 29.9397C134.435 29.7654 134.527 29.5824 134.602 29.3927C134.697 29.1979 134.764 28.9911 134.801 28.778C134.786 28.5889 134.717 28.408 134.602 28.2569C134.478 28.0706 134.313 27.9143 134.121 27.7994L134.069 27.7675V27.6482L134.115 27.6164C134.221 27.5338 134.32 27.442 134.409 27.3419C134.517 27.2262 134.632 27.1179 134.754 27.0176C134.788 26.9902 134.825 26.9649 134.863 26.9421C134.899 26.9213 134.939 26.909 134.98 26.9062C135.017 26.9082 135.053 26.9184 135.086 26.9361C135.122 26.9526 135.156 26.9719 135.189 26.9938C135.338 27.0905 135.466 27.2172 135.563 27.3657C135.674 27.5314 135.758 27.7142 135.81 27.9068L135.82 27.9426L133.936 31.5389L132.884 29.8521Z" fill="#5B5752"/>
<path fill-rule="evenodd" clip-rule="evenodd" d="M141.055 31.1746C141.003 31.2104 140.951 31.2423 140.897 31.2741C140.847 31.3025 140.796 31.3277 140.742 31.3497C140.692 31.372 140.639 31.3893 140.585 31.4014C140.535 31.4117 140.483 31.4171 140.432 31.4173C140.325 31.4202 140.219 31.3991 140.122 31.3557C140.033 31.3121 139.958 31.2428 139.909 31.1567C139.861 31.0739 139.827 30.9839 139.807 30.8902C139.784 30.7844 139.773 30.6763 139.774 30.568V26.8145C139.771 26.573 139.8 26.3321 139.861 26.0984C139.91 25.9037 139.998 25.7209 140.12 25.5613C140.252 25.3991 140.432 25.2834 140.635 25.2311C140.837 25.1814 141.045 25.1593 141.254 25.1655L142.302 25.1536L142.218 25.3047C142.11 25.5092 141.942 25.6763 141.737 25.7841C141.545 25.8745 141.336 25.9259 141.124 25.9353C141.088 25.9366 141.051 25.94 141.015 25.9452L140.941 25.9572C140.939 25.967 140.939 25.9772 140.941 25.987L140.909 30.3631C140.908 30.3877 140.913 30.4124 140.923 30.4347C140.932 30.4454 140.943 30.4541 140.955 30.4599C140.968 30.4658 140.981 30.4687 140.995 30.4685C141.063 30.4702 141.13 30.4594 141.194 30.4367C141.373 30.3785 141.542 30.2926 141.695 30.1821L141.715 30.1681L141.733 30.1821C141.814 30.2537 141.896 30.3233 141.984 30.381L142.005 30.3989L141.928 30.4784C141.824 30.5789 141.714 30.6732 141.6 30.7609C141.423 30.9001 141.242 31.0394 141.059 31.1707L141.055 31.1746Z" fill="#5B5752"/>
<path fill-rule="evenodd" clip-rule="evenodd" d="M137.005 30.2203L137.023 30.2461C137.126 30.3686 137.257 30.4646 137.405 30.5262C137.553 30.5877 137.714 30.6131 137.874 30.6002C138.223 30.5835 138.563 30.4869 138.868 30.3177C138.937 30.2823 139.003 30.2431 139.067 30.2004L139.284 30.0492L139.4 30.2879L139.362 30.3356C139.242 30.4857 139.109 30.6242 138.964 30.7494C138.807 30.8885 138.638 31.013 138.459 31.1214C138.293 31.2206 138.114 31.2957 137.928 31.3441C137.733 31.3947 137.532 31.4194 137.331 31.4177C137.124 31.4206 136.919 31.3932 136.72 31.3362C136.551 31.2858 136.394 31.1996 136.261 31.0836C136.149 30.9823 136.049 30.8681 135.964 30.7434C135.882 30.6237 135.815 30.494 135.765 30.3575C135.623 29.9301 135.602 29.4713 135.706 29.0328C135.798 28.597 136.014 28.1971 136.328 27.8811C136.542 27.67 136.795 27.5018 137.072 27.3858C137.348 27.2753 137.642 27.2193 137.94 27.2207C138.203 27.2188 138.463 27.2874 138.691 27.4196C138.917 27.5571 139.125 27.7206 139.312 27.9069L139.388 27.9805L137.005 30.2203ZM136.838 29.7489L137.697 28.9313C137.799 28.8281 137.864 28.6937 137.882 28.5494C137.892 28.4643 137.887 28.3779 137.866 28.2948C137.847 28.22 137.808 28.1514 137.755 28.0959C137.694 28.0413 137.617 28.0078 137.536 28.0004C137.469 27.9913 137.401 27.9974 137.337 28.0183C137.187 28.0859 137.069 28.2073 137.005 28.3585C136.915 28.5549 136.856 28.7644 136.832 28.9791C136.795 29.233 136.795 29.4909 136.832 29.7449" fill="#5B5752"/>
<path fill-rule="evenodd" clip-rule="evenodd" d="M124.758 30.2103V26.1346C124.753 26.0551 124.766 25.9754 124.795 25.9014C124.825 25.8274 124.871 25.7609 124.929 25.707C125.061 25.6105 125.209 25.5372 125.365 25.4902L125.598 25.3987V25.2733L125.49 25.2336C125.432 25.2123 125.371 25.1969 125.309 25.1878C125.24 25.1765 125.169 25.1692 125.099 25.1659C125.022 25.1619 124.946 25.1619 124.87 25.1659C124.794 25.1659 124.721 25.1838 124.647 25.1978H124.635C124.474 25.2307 124.319 25.2877 124.176 25.3668C124.037 25.442 123.912 25.541 123.808 25.6592C123.706 25.7759 123.628 25.9109 123.577 26.0571C123.524 26.203 123.497 26.3572 123.497 26.5126V30.6141C123.499 30.8476 123.456 31.0792 123.37 31.2964C123.084 31.8494 122.34 32.1219 121.612 32.1179C119.967 32.1179 119.332 30.6201 120.51 29.9299L120.478 29.8125H120.279C120.081 29.8114 119.89 29.8821 119.74 30.0114C119.578 30.1576 119.459 30.3454 119.396 30.5545C119.364 30.651 119.342 30.7502 119.328 30.8508V31.2964C119.336 31.3634 119.348 31.4298 119.364 31.4953C119.39 31.6021 119.424 31.7065 119.467 31.8076C119.625 32.168 119.899 32.4655 120.245 32.653C120.634 32.8558 121.068 32.9564 121.506 32.9454H121.536C121.975 32.9442 122.41 32.8772 122.829 32.7465C123.205 32.6299 123.555 32.4415 123.859 32.1915C124.144 31.9568 124.373 31.6611 124.528 31.3262C124.68 30.9822 124.758 30.6103 124.758 30.2342V30.2203V30.2103Z" fill="#5B5752"/>
<path d="M143.333 4.14069L139.238 11.7113L134.991 19.5564C134.695 20.1173 134.545 20.4654 134.545 20.5947C134.545 20.907 134.86 21.0602 135.49 21.0602V21.2591H131.281V21.0602C131.773 21.0764 132.262 20.9727 132.705 20.7578C133.087 20.5589 133.513 20.0318 133.973 19.1844L144.262 0.198242L154.84 18.536C154.84 18.6315 155.097 19.075 155.616 19.8687C156.135 20.6623 156.923 21.0622 157.985 21.0622V21.2611H151.371V21.0622C151.968 21.0622 152.276 20.8891 152.276 20.543C152.276 19.5763 144.063 5.54103 143.337 4.14267" fill="#5B5752"/>
<path d="M104.014 0.56623V10.2612H106.973C109.313 10.2612 111.039 9.86339 112.169 9.05382C113.299 8.24425 113.862 7.192 113.862 5.88515C113.862 4.61012 113.311 3.40869 112.201 2.26892C111.091 1.12915 109.134 0.56623 106.337 0.56623H104.014ZM98.7344 0.397155V0.198242H106.758C108.799 0.198242 110.263 0.232057 111.186 0.299687C112.142 0.375776 113.081 0.596426 113.971 0.954109C114.924 1.32409 115.646 1.82336 116.131 2.45988C116.629 3.13309 116.885 3.95432 116.859 4.79113C116.859 5.85199 116.426 6.85518 115.56 7.80067C114.693 8.75943 113.472 9.56105 111.89 10.2214L113.888 12.4711C114.329 13.0334 115.487 14.268 117.363 16.1749C119.24 18.0785 120.698 19.2421 121.723 19.6558C122.668 20.0605 123.684 20.2754 124.712 20.2884C125.659 20.2884 126.747 20.0185 127.976 19.4788L128.094 19.7633C126.558 20.6915 124.562 21.1556 122.107 21.1556C120.472 21.1556 119.059 20.7996 117.884 20.0875C116.708 19.3754 114.653 17.4241 111.717 14.2355C111.707 14.2297 111.698 14.2214 111.691 14.2114C111.684 14.2014 111.679 14.1899 111.678 14.1778L108.819 10.9614L106.305 11.0191H104.014V18.9537C104.014 19.5942 104.125 20.0517 104.354 20.3302C104.582 20.6086 105.149 20.7439 106.023 20.7439V20.9428H98.7344V20.7439C99.6335 20.7141 100.192 20.5748 100.407 20.3202C100.622 20.0656 100.743 19.5504 100.743 18.7727V2.27688C100.761 1.81611 100.664 1.35817 100.461 0.944164C100.262 0.592089 99.6911 0.411078 98.7344 0.401133" fill="#5B5752"/>
<path d="M43.7587 20.9448V20.7459C44.6518 20.7459 45.2227 20.6246 45.4932 20.3799C45.7637 20.1352 45.891 19.7155 45.891 19.1248V2.13167C45.891 1.53493 45.7856 1.09733 45.5827 0.828794C45.3798 0.560263 44.7413 0.419035 43.7109 0.397155V0.198242H51.3173V0.397155C50.6132 0.397155 50.1239 0.462796 49.8394 0.596067C49.6071 0.685623 49.4106 0.849195 49.2805 1.06152C49.195 1.24054 49.1492 1.64433 49.1492 2.27489V16.8432C49.1492 18.0937 49.559 18.9736 50.3785 19.4828C51.198 19.992 52.603 20.2486 54.5934 20.2526H58.0545C59.7214 20.2526 60.9421 19.9516 61.7165 19.3495C62.4909 18.7475 62.9245 17.6157 63.0174 15.9541H63.2939V20.9448H43.7587Z" fill="#5B5752"/>
<path d="M39.2305 0.198242V0.397155C38.8154 0.372921 38.3991 0.415227 37.9973 0.522469C37.5438 0.636512 37.2746 0.80161 37.1897 1.01776C37.1042 1.23259 37.0644 1.74379 37.0644 2.55138V18.4982C37.0644 19.3635 37.1101 19.8906 37.2076 20.0895C37.3331 20.308 37.5307 20.4761 37.7665 20.5649C38.0371 20.6942 38.5284 20.7638 39.2305 20.7638V20.9627H31.6719V20.7638C32.6247 20.7638 33.2234 20.6285 33.4521 20.366C33.6809 20.1034 33.8002 19.4868 33.8002 18.538V2.73835C33.8002 1.74379 33.669 1.10727 33.4124 0.798958C33.1558 0.490643 32.5729 0.36135 31.6719 0.401133V0.198242H39.2305Z" fill="#5B5752"/>
<path d="M26.8691 17.6848V20.945H0L22.0793 0.978131H7.26229C6.04097 0.978131 5.1936 1.0935 4.74008 1.32424C4.28656 1.55498 3.96631 2.11989 3.78132 3.02693H3.50682L3.658 0.198395H26.9864L4.90717 20.1672H23.7104C24.8004 20.1672 25.5304 20.0041 25.9103 19.6719C26.2902 19.3397 26.5071 18.6774 26.5926 17.6828L26.8691 17.6848Z" fill="#5B5752"/>
<path d="M79.9018 4.14069L75.8082 11.7113L71.5594 19.5564C71.2631 20.1173 71.1119 20.4654 71.1119 20.5947C71.1119 20.907 71.4282 21.0602 72.0587 21.0602V21.2591H67.8438V21.0602C68.336 21.0764 68.8248 20.9727 69.268 20.7578C69.6479 20.5589 70.0755 20.0318 70.535 19.1844L80.8307 0.198242L91.4089 18.536C91.4089 18.6315 91.6655 19.075 92.1827 19.8687C92.6998 20.6623 93.4915 21.0622 94.5537 21.0622V21.2611H87.9359V21.0622C88.5379 21.0622 88.8396 20.8891 88.8409 20.543C88.8409 19.5763 80.6259 5.54103 79.9018 4.14267" fill="#5B5752"/>
<path d="M0 30.1687H0.690226C0.691849 30.3577 0.745158 30.5427 0.844381 30.7037C0.943605 30.8646 1.08496 30.9953 1.25315 31.0817C1.6218 31.2978 2.1403 31.4059 2.80864 31.4059C3.28704 31.4302 3.76434 31.3402 4.20103 31.1433C4.34296 31.0851 4.46504 30.9871 4.55256 30.8611C4.64008 30.7352 4.68931 30.5866 4.69433 30.4332C4.70025 30.3033 4.67058 30.1743 4.60854 30.06C4.54649 29.9457 4.45442 29.8506 4.34226 29.7848C4.10754 29.6356 3.63811 29.5023 2.93595 29.387L2.21986 29.2696C1.45073 29.137 0.920301 28.9706 0.628563 28.7703C0.483835 28.6792 0.365936 28.5512 0.286943 28.3995C0.20795 28.2478 0.170704 28.0779 0.179021 27.907C0.179021 27.5092 0.402466 27.1857 0.849356 26.9364C1.40698 26.6694 2.02195 26.5443 2.63957 26.5723C3.43522 26.5723 4.04787 26.7036 4.49343 26.9702C4.69745 27.0765 4.86871 27.2364 4.98889 27.4326C5.10906 27.6288 5.17364 27.854 5.1757 28.0841H4.47553C4.47376 27.9157 4.42664 27.7509 4.33913 27.607C4.25162 27.4632 4.12696 27.3455 3.97825 27.2665C3.55634 27.0509 3.08487 26.9507 2.61172 26.9761C2.17046 26.9541 1.73038 27.0387 1.32873 27.2228C1.19364 27.2824 1.07872 27.3799 0.997876 27.5034C0.917033 27.627 0.873736 27.7713 0.873225 27.919C0.870563 28.0273 0.896573 28.1344 0.948621 28.2294C1.00067 28.3244 1.0769 28.404 1.1696 28.46C1.47299 28.6287 1.80711 28.7349 2.15223 28.7723L3.03142 28.9175C3.90266 29.0607 4.51133 29.2417 4.86341 29.4625C5.02563 29.5528 5.16032 29.6854 5.25315 29.8462C5.34597 30.007 5.39345 30.1899 5.39052 30.3755C5.39052 30.8211 5.15912 31.1725 4.69632 31.4298C4.23352 31.687 3.6023 31.815 2.80267 31.8137C1.90624 31.8137 1.21535 31.6751 0.730008 31.398C0.508929 31.2875 0.323508 31.1169 0.195071 30.9058C0.0666344 30.6947 0.000397542 30.4516 0.00397825 30.2045L0 30.1687Z" fill="#5B5752"/>
<path d="M7.13398 26.6995H6.42188V31.6763H7.13398V26.6995Z" fill="#5B5752"/>
<path d="M8.53906 31.6763V26.6995H9.25117V31.2666H13.0961V31.6763H8.53906Z" fill="#5B5752"/>
<path d="M14.764 31.6763L12.1562 26.6995H12.8644L15.1439 31.0975L17.4155 26.6995H18.1137L15.5059 31.6763H14.764Z" fill="#5B5752"/>
<path d="M18.6172 31.6763V26.6995H23.5482V27.1073H19.3074V28.9234H23.1862V29.3172H19.3074V31.2666H23.6775V31.6763H18.6172Z" fill="#5B5752"/>
<path d="M24.625 31.676V26.7032H27.1373C27.5595 26.6963 27.9818 26.7123 28.4023 26.751C28.6356 26.7762 28.8652 26.8283 29.0866 26.9061C29.3513 26.9951 29.5875 27.153 29.7709 27.3636C29.9283 27.549 30.0137 27.7848 30.0115 28.028C30.0149 28.1714 29.9889 28.314 29.9352 28.4471C29.8815 28.5801 29.8012 28.7008 29.6993 28.8017C29.446 29.0339 29.1322 29.1898 28.7942 29.2513C29.0397 29.2888 29.269 29.3966 29.4546 29.5616C29.5879 29.7008 29.6814 29.9833 29.7351 30.407L29.8325 31.1529C29.8422 31.2538 29.8699 31.3521 29.9141 31.4433C29.9497 31.5138 30.005 31.5725 30.0732 31.6124V31.68H29.3054C29.261 31.6196 29.2268 31.5525 29.204 31.4811C29.1729 31.3807 29.1522 31.2774 29.1423 31.1728L29.0548 30.5144C29.005 30.0589 28.8817 29.7704 28.6868 29.6451C28.4919 29.5198 28.102 29.4582 27.5152 29.4582H25.3152V31.684L24.625 31.676ZM25.3152 29.0404H27.3163C28.0178 29.0404 28.523 28.9615 28.832 28.8037C28.9759 28.7378 29.0968 28.6305 29.1793 28.4955C29.2619 28.3605 29.3023 28.204 29.2955 28.0459C29.2974 27.8873 29.2463 27.7325 29.1503 27.6063C29.0415 27.4661 28.8973 27.3576 28.7325 27.292C28.5727 27.2233 28.4039 27.1778 28.2313 27.1567C27.9142 27.1237 27.5953 27.1104 27.2765 27.117H25.3152V29.0404Z" fill="#5B5752"/>
<path d="M34.5625 31.676V26.7032H37.0728C37.4957 26.6963 37.9187 26.7122 38.3398 26.751C38.5725 26.7762 38.8014 26.8283 39.0221 26.9061C39.2873 26.9952 39.5242 27.153 39.7084 27.3636C39.865 27.5494 39.9503 27.785 39.949 28.028C39.9519 28.1714 39.9257 28.3138 39.8721 28.4468C39.8184 28.5798 39.7383 28.7005 39.6368 28.8018C39.3832 29.0336 39.0696 29.1894 38.7317 29.2513C38.9735 29.2887 39.1993 29.3951 39.3821 29.5576C39.5154 29.6969 39.6089 29.9793 39.6646 30.403L39.7621 31.1489C39.7708 31.25 39.7985 31.3485 39.8436 31.4393C39.8793 31.5099 39.9345 31.5686 40.0028 31.6084V31.676H39.2429C39.1971 31.6163 39.1621 31.549 39.1395 31.4771C39.1091 31.3767 39.0891 31.2734 39.0798 31.1688L38.9923 30.5104C38.9406 30.0549 38.8172 29.7665 38.6243 29.6412C38.4313 29.5159 38.0395 29.4542 37.4527 29.4542H35.2527V31.68L34.5625 31.676ZM35.2527 29.0405H37.2418C37.946 29.0405 38.4519 28.9616 38.7595 28.8038C38.9047 28.7373 39.0265 28.6288 39.1092 28.4922C39.1918 28.3556 39.2315 28.1974 39.223 28.0379C39.2242 27.8791 39.1724 27.7244 39.0758 27.5983C38.9683 27.4578 38.8246 27.3491 38.6601 27.2841C38.5002 27.2157 38.3314 27.1701 38.1588 27.1488C37.841 27.1157 37.5215 27.1025 37.2021 27.109H35.2428L35.2527 29.0405Z" fill="#5B5752"/>
<path d="M41.0156 31.6763V26.6995H45.9467V27.1073H41.7058V28.9234H45.5846V29.3172H41.7058V31.2666H46.074V31.6763H41.0156Z" fill="#5B5752"/>
<path d="M48.8016 26.6996H49.3128C49.7778 26.6923 50.2428 26.7136 50.7052 26.7633C50.9776 26.7965 51.2448 26.8634 51.5008 26.9622C51.9346 27.1311 52.3051 27.4307 52.561 27.8195C52.808 28.2433 52.9353 28.7261 52.9293 29.2166C52.9234 29.707 52.7844 30.1867 52.5272 30.6043C52.2358 31.0101 51.8215 31.3114 51.3457 31.4636C51.0876 31.5483 50.8206 31.603 50.55 31.6267C50.2318 31.6605 49.7544 31.6764 49.096 31.6764H47.0312V26.7036L48.8016 26.6996ZM47.7215 31.2746H49.1795C49.7484 31.2746 50.1641 31.2607 50.4267 31.2329C50.6508 31.2139 50.8714 31.1657 51.0831 31.0896C51.4366 30.9613 51.737 30.7183 51.9364 30.3994C52.1177 30.0319 52.2119 29.6276 52.2119 29.2179C52.2119 28.8081 52.1177 28.4038 51.9364 28.0363C51.75 27.7227 51.4665 27.4783 51.1288 27.3401C50.9122 27.2502 50.6838 27.1919 50.4506 27.1671C49.9989 27.1258 49.5454 27.1092 49.092 27.1174H47.7115L47.7215 31.2746Z" fill="#5B5752"/>
<path d="M54 31.6763V26.6995H58.931V27.1073H54.6902V28.9234H58.569V29.3172H54.6902V31.2666H59.0603V31.6763H54Z" fill="#5B5752"/>
<path d="M60.0156 31.6763V26.6995H64.7836V27.1073H60.7059V28.9094H64.4056V29.3172H60.7059V31.6763H60.0156Z" fill="#5B5752"/>
<path d="M66.3976 26.6995H65.6875V31.6763H66.3976V26.6995Z" fill="#5B5752"/>
<path d="M67.8047 31.6763V26.6995H68.5665L72.8232 30.9662V26.6995H73.4936V31.6763H72.7258L68.485 27.4037V31.6763H67.8047Z" fill="#5B5752"/>
<path d="M74.8516 31.6763V26.6995H79.7826V27.1073H75.5438V28.9234H79.4206V29.3172H75.5438V31.2666H79.9119V31.6763H74.8516Z" fill="#5B5752"/>
<path d="M82.6355 26.6997H83.1447C83.6097 26.6923 84.0747 26.7136 84.5371 26.7633C84.8096 26.7963 85.0768 26.8631 85.3328 26.9622C85.7668 27.1316 86.1378 27.431 86.395 27.8195C86.6419 28.2433 86.7692 28.7262 86.7633 29.2166C86.7573 29.707 86.6183 30.1867 86.3612 30.6043C86.0688 31.0092 85.6549 31.3103 85.1796 31.4636C84.9215 31.5481 84.6545 31.6028 84.384 31.6267C84.0677 31.6605 83.5883 31.6764 82.9319 31.6764H80.8672V26.7036L82.6355 26.6997ZM81.5574 31.2746H83.0154C83.5843 31.2746 84.0001 31.2607 84.2626 31.2329C84.4861 31.2139 84.7061 31.1657 84.917 31.0897C85.2708 30.9609 85.5717 30.718 85.7724 30.3994C85.9552 30.0327 86.0511 29.6288 86.0528 29.2191C86.0546 28.8093 85.962 28.4046 85.7823 28.0364C85.5954 27.7232 85.312 27.4789 84.9747 27.3402C84.758 27.2504 84.5296 27.1921 84.2964 27.1671C83.8448 27.1259 83.3913 27.1093 82.9379 27.1174H81.5534L81.5574 31.2746Z" fill="#5B5752"/>
<path d="M91.8992 33.7851C91.8945 33.8306 91.8731 33.8727 91.8391 33.9034C91.8051 33.934 91.761 33.9509 91.7152 33.9509C91.6695 33.9509 91.6254 33.934 91.5914 33.9034C91.5574 33.8727 91.536 33.8306 91.5312 33.7851V24.6013C91.536 24.5558 91.5574 24.5137 91.5914 24.4831C91.6254 24.4524 91.6695 24.4355 91.7152 24.4355C91.761 24.4355 91.8051 24.4524 91.8391 24.4831C91.8731 24.5137 91.8945 24.5558 91.8992 24.6013V33.7851Z" fill="#5B5752"/>
<defs>
<linearGradient id="paint0_linear_4702_1816" x1="107.213" y1="29.1748" x2="117.054" y2="29.1748" gradientUnits="userSpaceOnUse">
<stop stop-color="#CA893C"/>
<stop offset="0.17" stop-color="#E7B262"/>
<stop offset="0.32" stop-color="#FED481"/>
<stop offset="0.68" stop-color="#FCEEA3"/>
<stop offset="1" stop-color="#FAD16D"/>
</linearGradient>
<linearGradient id="paint1_linear_4702_1816" x1="110.028" y1="29.3153" x2="114.277" y2="29.3153" gradientUnits="userSpaceOnUse">
<stop stop-color="#EEC15E"/>
<stop offset="0.13" stop-color="#FFF7D9"/>
<stop offset="0.23" stop-color="#EEC15E"/>
<stop offset="0.35" stop-color="#FCE78C"/>
<stop offset="0.47" stop-color="#FFDEAD"/>
<stop offset="0.59" stop-color="#EEC15E"/>
<stop offset="0.73" stop-color="#FCE78C"/>
<stop offset="0.86" stop-color="#EEC15E"/>
<stop offset="1" stop-color="#FFF7D9"/>
</linearGradient>
</defs>
</svg>
