<svg width="33" height="33" viewBox="0 0 33 33" fill="none" xmlns="http://www.w3.org/2000/svg">
<g id="Frame 201">
<g id="Group 23859">
<path id="Vector" d="M31.855 16.1779C31.855 24.8359 24.832 31.855 16.1779 31.855C7.52305 31.855 0.5 24.8359 0.5 16.1779C0.5 7.52315 7.52315 0.5 16.1779 0.5C24.8359 0.5 31.855 7.52305 31.855 16.1779Z" stroke="black"/>
<path id="Vector_2" d="M19.3087 16.5797L19.3086 16.5805C19.3059 16.6028 19.2949 16.6244 19.2763 16.6406C19.2577 16.657 19.2329 16.6667 19.2064 16.6668C19.2063 16.6668 19.2062 16.6668 19.2061 16.6668L16.2782 16.6668H15.7782V17.1668V24.1946C15.6325 24.201 15.4858 24.2041 15.3383 24.2041H15.3377C14.8127 24.2047 14.2886 24.1641 13.7705 24.0829V17.1668V16.6668H13.2705H11.1367V14.6768H13.2678H13.7678V14.1768L13.7678 10.8125L13.7678 10.8116C13.7662 9.95657 14.1075 9.13495 14.7183 8.52767C15.3292 7.92034 16.1596 7.5772 17.0272 7.5752H19.5337V9.56585L17.7786 9.56585L17.7775 9.56585C17.5146 9.56644 17.2544 9.61828 17.0115 9.71854C16.7687 9.8188 16.5478 9.96558 16.3617 10.1507L16.7143 10.5052L16.3617 10.1507C16.1755 10.3359 16.0278 10.5558 15.9271 10.7981L16.3888 10.99C16.3135 11.1712 16.275 11.3652 16.2754 11.5612H15.7754V11.5616V14.1782V14.6782H16.2754L19.4316 14.6782C19.4316 14.6782 19.4317 14.6782 19.4318 14.6782C19.4471 14.6782 19.4621 14.6815 19.4757 14.6876C19.4894 14.6937 19.5012 14.7025 19.5106 14.713C19.5199 14.7235 19.5267 14.7356 19.5306 14.7482C19.5346 14.7609 19.5358 14.7742 19.5341 14.7872L19.3087 16.5797Z" fill="black" stroke="black"/>
</g>
</g>
</svg>
