<svg width="31" height="31" viewBox="0 0 31 31" fill="none" xmlns="http://www.w3.org/2000/svg">
<path d="M29.8574 15.1781C29.8574 23.0935 23.4367 29.5108 15.5248 29.5108C7.61216 29.5108 1.19141 23.0935 1.19141 15.1781C1.19141 7.26558 7.61226 0.844727 15.5248 0.844727C23.4402 0.844727 29.8574 7.26548 29.8574 15.1781Z" stroke="black"/>
<path d="M12.1614 8.96875C12.1614 8.96875 12.1613 8.96875 12.1613 8.96875C11.4592 8.96891 10.7868 9.24526 10.2917 9.73548C9.79688 10.2255 9.5197 10.8891 9.51953 11.58L12.1614 8.96875ZM12.1614 8.96875H18.8937H12.1614ZM9.51953 18.2472V11.5802V18.2472ZM9.51953 18.2472C9.51953 18.2472 9.51953 18.2473 9.51953 18.2473M9.51953 18.2472V18.2473M9.51953 18.2473C9.5197 18.9382 9.79688 19.6018 10.2917 20.0919C10.7868 20.5821 11.4592 20.8584 12.1613 20.8586L9.51953 18.2473ZM18.8937 20.8586C18.8938 20.8586 18.8938 20.8586 18.8938 20.8586C19.596 20.8584 20.2684 20.5821 20.7634 20.0919C21.2583 19.6018 21.5354 18.9382 21.5356 18.2473L18.8937 20.8586ZM18.8937 20.8586H12.1614H18.8937ZM21.5356 11.5802C21.5356 11.5801 21.5356 11.5801 21.5356 11.58C21.5354 10.8891 21.2583 10.2255 20.7634 9.73548C20.2684 9.24526 19.596 8.96891 18.8938 8.96875L21.5356 11.5802ZM21.5356 11.5802V18.2472V11.5802ZM21.4134 18.0269V18.0259L21.4134 11.8027L21.4134 11.8018C21.4122 11.0789 21.1217 10.3869 20.607 9.87713C20.0926 9.36752 19.3962 9.08146 18.6706 9.08006H18.6696L12.3861 9.08006L12.3853 9.08006C11.6596 9.08126 10.963 9.36723 10.4484 9.87686C9.93358 10.3867 9.64294 11.0788 9.64172 11.8018V11.8027L9.64172 18.0259L9.64172 18.0269C9.64314 18.7498 9.93387 19.4417 10.4486 19.9514C10.9632 20.4608 11.6597 20.7467 12.3853 20.7479H12.3861L18.6696 20.7479L18.6706 20.7479C19.3961 20.7465 20.0923 20.4605 20.6068 19.9511C21.1214 19.4415 21.412 18.7497 21.4134 18.0269Z" stroke="black"/>
<path d="M15.5314 17.636L15.5322 17.636C16.2577 17.6346 16.954 17.3487 17.4684 16.8392C17.983 16.3296 18.2736 15.6378 18.275 14.915V14.9142C18.2752 14.3745 18.1137 13.8474 17.8116 13.3994C17.5095 12.9515 17.0806 12.6031 16.5796 12.3975C16.0787 12.192 15.5278 12.1382 14.9963 12.2429C14.4648 12.3475 13.976 12.6061 13.5918 12.9865C13.2076 13.367 12.9454 13.8524 12.8391 14.3815C12.7329 14.9107 12.7875 15.4591 12.996 15.9572C13.2044 16.4553 13.5569 16.8802 14.0083 17.1787C14.4596 17.4772 14.9896 17.6362 15.5314 17.636ZM13.9366 12.5587C14.4081 12.2468 14.963 12.08 15.531 12.0801L18.3972 14.9142C18.3972 15.4736 18.2297 16.0208 17.9153 16.4866C17.6009 16.9526 17.1535 17.3165 16.6291 17.5316C16.1047 17.7467 15.5273 17.803 14.9703 17.6933C14.4133 17.5835 13.9023 17.3128 13.5018 16.916C13.1012 16.5193 12.8291 16.0145 12.7189 15.4656C12.6087 14.9168 12.6653 14.348 12.8818 13.8307C13.0982 13.3135 13.465 12.8706 13.9366 12.5587ZM15.5312 12.0801C16.2928 12.0805 17.0221 12.3805 17.5592 12.9124C18.096 13.4441 18.3969 14.1642 18.3972 14.914L15.5312 12.0801Z" stroke="black"/>
<path d="M19.2956 11.3581C19.2956 11.4455 19.2227 11.5247 19.1224 11.5247C19.0222 11.5247 18.9492 11.4455 18.9492 11.3581C18.9492 11.2706 19.0222 11.1914 19.1224 11.1914C19.2227 11.1914 19.2956 11.2706 19.2956 11.3581Z" stroke="black"/>
</svg>
