<svg width="33" height="33" viewBox="0 0 33 33" fill="none" xmlns="http://www.w3.org/2000/svg">
<g id="Frame 202">
<g id="Group 23860">
<path id="Vector" d="M31.855 16.1779C31.855 24.8359 24.832 31.855 16.1779 31.855C7.52305 31.855 0.5 24.8359 0.5 16.1779C0.5 7.52315 7.52315 0.5 16.1779 0.5C24.8359 0.5 31.855 7.52305 31.855 16.1779Z" stroke="black"/>
<path id="Vector_2" d="M17.6886 14.3148L17.4047 14.6157L17.647 14.9509L23.0455 22.4183H18.5938L15.2379 17.7759L14.8841 17.2864L14.4693 17.7255L10.039 22.415H9.33537L14.2946 17.1616L14.5786 16.8607L14.3361 16.5253L9.15437 9.35945H13.6053L16.7459 13.7038L17.1 14.1936L17.5148 13.754L21.6631 9.35742H22.3668L17.6886 14.3148ZM11.1051 9.85072H10.1267L10.6999 10.6437L18.7068 21.7193L18.8565 21.9264H19.112H21.0946H22.0731L21.4998 21.1334L13.4923 10.0578L13.3426 9.85072H13.0871H11.1051Z" fill="black" stroke="black"/>
</g>
</g>
</svg>
