<?xml version="1.0" encoding="UTF-8"?>
<svg xmlns="http://www.w3.org/2000/svg" version="1.1" viewBox="0 0 405.28 151.89">
  <defs>
    <style>
      .cls-1 {
        fill-rule: evenodd;
      }

      .cls-1, .cls-2 {
        fill: #58435e;
      }

      .cls-3 {
        fill: #b494ba;
      }
    </style>
  </defs>
  <!-- Generator: Adobe Illustrator 28.7.1, SVG Export Plug-In . SVG Version: 1.2.0 Build 142)  -->
  <g>
    <g id="Layer_1">
      <g>
        <g>
          <path class="cls-2" d="M53.16,138.25c-.34.26-.71.48-1.1.67-.39.18-.81.33-1.26.43-.45.1-.95.16-1.51.16-.88,0-1.69-.16-2.42-.48-.74-.32-1.38-.76-1.92-1.32-.54-.56-.97-1.22-1.27-1.98-.31-.76-.46-1.58-.46-2.46s.15-1.68.46-2.44c.31-.76.73-1.43,1.27-2,.54-.57,1.19-1.02,1.94-1.35.75-.33,1.57-.49,2.46-.49.55,0,1.05.05,1.5.14s.86.22,1.24.39c.38.17.73.37,1.06.61.32.24.63.5.94.79l-.94,1c-.52-.48-1.08-.88-1.67-1.19s-1.31-.47-2.14-.47c-.67,0-1.29.13-1.86.38-.57.25-1.07.61-1.49,1.06s-.75.98-.99,1.58c-.24.61-.35,1.26-.35,1.96s.12,1.36.35,1.97c.24.61.57,1.14.99,1.59s.92.8,1.49,1.06c.57.26,1.19.39,1.86.39.83,0,1.55-.15,2.15-.46.6-.31,1.19-.74,1.77-1.29l.9.88c-.31.32-.64.61-.98.87Z"/>
          <path class="cls-2" d="M62.65,130.35h1.32v8.95h-1.32v-1.56c-.3.48-.69.9-1.18,1.24-.48.34-1.11.51-1.89.51-.54,0-1.02-.09-1.45-.26s-.78-.42-1.07-.74-.52-.7-.68-1.13c-.16-.44-.23-.92-.23-1.45v-5.56h1.33v5.23c0,.83.21,1.49.64,1.97s1.04.73,1.84.73c.38,0,.74-.07,1.06-.2.33-.13.61-.32.85-.57.24-.25.42-.55.56-.89.14-.35.21-.73.21-1.14v-5.12Z"/>
          <path class="cls-2" d="M68.3,139.3h-1.33v-8.95h1.33v2.34c.16-.37.36-.71.61-1.02s.52-.58.83-.8.65-.4,1.02-.51c.37-.12.77-.17,1.19-.16v1.44h-.1c-.48,0-.94.09-1.38.26-.43.17-.81.43-1.13.78-.32.35-.58.78-.76,1.29s-.28,1.11-.28,1.77v3.57Z"/>
          <path class="cls-2" d="M75.34,131.58c-.43.12-.86.28-1.27.48l-.4-1.09c.5-.23,1-.41,1.51-.55.51-.13,1.09-.2,1.75-.2,1.22,0,2.16.3,2.82.91s.99,1.5.99,2.69v5.47h-1.28v-1.35c-.31.4-.73.76-1.26,1.07-.52.31-1.19.47-1.98.47-.42,0-.82-.06-1.22-.17-.4-.12-.76-.29-1.07-.53-.32-.24-.57-.53-.76-.87-.19-.35-.29-.76-.29-1.23s.09-.89.28-1.25c.18-.36.45-.67.79-.91s.74-.43,1.21-.55c.47-.13.98-.19,1.55-.19s1.08.03,1.51.1.84.16,1.25.28v-.31c0-.81-.23-1.42-.7-1.83s-1.12-.61-1.96-.61c-.53,0-1.01.06-1.45.18ZM74.91,135.26c-.45.33-.67.79-.67,1.37,0,.29.06.54.18.76.12.22.28.41.49.56s.45.27.72.35c.27.08.55.12.85.12.41,0,.8-.06,1.16-.18.36-.12.68-.29.95-.5.27-.21.48-.47.64-.76s.23-.62.23-.98v-.87c-.33-.09-.72-.18-1.15-.26-.43-.08-.92-.12-1.48-.12-.84,0-1.48.17-1.93.5Z"/>
          <path class="cls-2" d="M85.28,136.75c0,.55.14.94.42,1.16.28.22.64.33,1.09.33.23,0,.45-.02.65-.07.2-.05.42-.13.65-.24v1.14c-.23.13-.48.22-.74.29-.26.06-.55.1-.87.1-.36,0-.69-.05-1-.14s-.58-.24-.8-.44-.4-.47-.53-.79c-.13-.32-.19-.71-.19-1.16v-5.4h-1.25v-1.18h1.25v-2.7h1.33v2.7h2.84v1.18h-2.84v5.23Z"/>
          <path class="cls-2" d="M91.38,136.6c.18.38.42.69.71.95.29.26.61.46.97.59s.73.2,1.13.2c.62,0,1.16-.12,1.6-.35.44-.23.85-.54,1.22-.92l.83.74c-.45.51-.96.92-1.54,1.22-.58.31-1.29.46-2.15.46-.61,0-1.19-.11-1.73-.34-.54-.23-1.02-.54-1.42-.95-.41-.41-.73-.9-.97-1.48-.24-.58-.36-1.21-.36-1.9,0-.65.11-1.26.32-1.83.21-.57.51-1.07.89-1.49.38-.42.83-.75,1.36-1,.52-.24,1.1-.36,1.72-.36.66,0,1.25.12,1.77.37s.96.59,1.32,1.01.63.93.81,1.51.28,1.19.28,1.85v.19c0,.07,0,.14-.02.23h-7.08c.05.48.16.92.35,1.29ZM96.76,134.33c-.03-.4-.12-.79-.25-1.16-.13-.37-.32-.69-.55-.97-.24-.28-.52-.5-.86-.67-.34-.17-.73-.25-1.18-.25-.39,0-.75.08-1.08.23s-.63.37-.88.64c-.25.27-.46.59-.62.96-.16.37-.26.77-.31,1.21h5.73Z"/>
          <path class="cls-2" d="M107.65,139.3v-1.8c-.18.27-.39.52-.61.76-.23.24-.48.46-.75.64-.28.19-.59.33-.93.43-.34.1-.72.16-1.13.16-.54,0-1.07-.1-1.58-.31-.51-.21-.96-.51-1.37-.91-.4-.4-.73-.89-.97-1.46-.24-.58-.36-1.23-.36-1.97s.12-1.4.36-1.97c.24-.58.57-1.06.97-1.46.4-.4.86-.7,1.37-.92.51-.21,1.03-.32,1.58-.32.42,0,.8.05,1.14.16.35.1.66.24.94.42.28.17.53.37.75.61.23.23.42.47.6.73v-5.4h1.33v12.64h-1.33ZM107.43,133.4c-.18-.43-.42-.79-.73-1.09-.31-.3-.65-.53-1.04-.7s-.79-.25-1.2-.25c-.44,0-.85.08-1.23.23-.38.16-.71.38-1,.67s-.51.65-.68,1.09c-.17.43-.25.92-.25,1.46s.08,1,.25,1.43c.17.42.4.79.68,1.09.29.3.62.54,1,.7s.78.24,1.21.24.82-.08,1.2-.25.73-.4,1.04-.7c.31-.3.55-.66.73-1.09s.27-.9.27-1.42-.09-.99-.27-1.41Z"/>
          <path class="cls-2" d="M125.78,138.96c-.83.36-1.75.54-2.78.54-.96,0-1.82-.16-2.57-.48s-1.4-.77-1.94-1.33c-.54-.57-.95-1.23-1.23-1.99-.28-.76-.42-1.58-.42-2.44s.15-1.63.44-2.39.71-1.43,1.24-2.01c.53-.58,1.17-1.04,1.91-1.38.74-.34,1.57-.51,2.48-.51.51,0,.97.03,1.39.1.42.07.81.17,1.18.31.36.14.7.31,1.02.51.32.2.63.43.93.68l-.88,1.04c-.23-.21-.47-.4-.73-.56-.25-.17-.53-.31-.82-.43-.29-.12-.62-.22-.97-.29s-.74-.1-1.17-.1c-.67,0-1.29.13-1.85.4-.57.27-1.05.62-1.45,1.08-.4.45-.72.98-.95,1.59-.23.61-.35,1.25-.35,1.93,0,.73.11,1.4.34,2.02.23.62.55,1.15.96,1.6.42.45.92.8,1.51,1.06s1.25.38,1.99.38c.69,0,1.34-.12,1.96-.36s1.13-.52,1.54-.86v-3.02h-3.69v-1.21h5v4.82c-.57.51-1.26.94-2.09,1.3Z"/>
          <path class="cls-2" d="M139.15,136.62c-.24.57-.56,1.07-.98,1.5-.42.43-.91.76-1.49,1.01s-1.2.37-1.87.37-1.29-.12-1.85-.37-1.06-.58-1.47-1c-.42-.42-.74-.91-.97-1.48s-.35-1.17-.35-1.8.12-1.24.35-1.81c.23-.57.55-1.07.97-1.5.42-.43.91-.76,1.48-1.01.57-.25,1.2-.37,1.88-.37s1.29.12,1.86.37c.57.25,1.06.58,1.48,1,.42.42.74.92.97,1.48.23.57.35,1.17.35,1.8s-.12,1.24-.35,1.81ZM137.89,133.47c-.17-.43-.4-.8-.7-1.11-.3-.32-.65-.57-1.06-.75-.4-.18-.84-.28-1.32-.28s-.93.09-1.33.27c-.4.18-.75.43-1.03.74-.28.32-.5.69-.67,1.11-.16.42-.24.87-.24,1.36s.08.94.25,1.36c.17.43.4.79.69,1.11.29.31.64.56,1.05.74.4.18.84.28,1.32.28s.93-.09,1.33-.27.75-.42,1.04-.73c.29-.31.51-.68.68-1.1s.24-.87.24-1.36-.08-.94-.25-1.36Z"/>
          <path class="cls-2" d="M142.03,139.3v-12.64h1.33v12.64h-1.33Z"/>
          <path class="cls-2" d="M153.65,139.3v-1.8c-.18.27-.39.52-.61.76-.23.24-.48.46-.75.64-.28.19-.59.33-.93.43-.34.1-.72.16-1.13.16-.54,0-1.07-.1-1.58-.31-.51-.21-.96-.51-1.37-.91-.4-.4-.73-.89-.97-1.46-.24-.58-.36-1.23-.36-1.97s.12-1.4.36-1.97c.24-.58.57-1.06.97-1.46.4-.4.86-.7,1.37-.92.51-.21,1.03-.32,1.58-.32.42,0,.8.05,1.14.16.35.1.66.24.94.42.28.17.53.37.75.61.23.23.42.47.6.73v-5.4h1.33v12.64h-1.33ZM153.43,133.4c-.18-.43-.42-.79-.73-1.09-.31-.3-.65-.53-1.04-.7s-.79-.25-1.2-.25c-.44,0-.85.08-1.23.23-.38.16-.71.38-1,.67s-.51.65-.68,1.09c-.17.43-.25.92-.25,1.46s.08,1,.25,1.43c.17.42.4.79.68,1.09.29.3.62.54,1,.7s.78.24,1.21.24.82-.08,1.2-.25.73-.4,1.04-.7c.31-.3.55-.66.73-1.09s.27-.9.27-1.42-.09-.99-.27-1.41Z"/>
          <path class="cls-2" d="M172.12,139.54l-1.9-1.96c-.55.6-1.15,1.06-1.8,1.39-.65.33-1.37.49-2.16.49-.54,0-1.05-.08-1.51-.24s-.87-.39-1.21-.69c-.34-.3-.61-.66-.8-1.08-.19-.42-.29-.89-.29-1.39,0-.82.25-1.52.76-2.1.51-.58,1.23-1.05,2.16-1.42-.42-.48-.72-.93-.92-1.34-.2-.41-.29-.86-.29-1.34,0-.4.08-.78.23-1.13s.37-.66.65-.92c.28-.26.61-.46,1-.61.39-.15.83-.23,1.32-.23.43,0,.82.07,1.18.22.36.14.67.34.93.59.26.25.46.54.61.87.15.33.23.69.23,1.07,0,.8-.25,1.45-.76,1.95-.51.5-1.21.91-2.1,1.22l2.77,2.82c.26-.39.52-.81.76-1.26s.47-.93.69-1.44l1.13.52c-.27.58-.54,1.12-.82,1.63-.28.51-.59.98-.93,1.42l2.11,2.16-1.04.8ZM166.13,133.39c-.81.3-1.4.68-1.77,1.14-.37.46-.55.95-.55,1.47,0,.33.06.64.18.92.12.28.29.52.52.73.23.21.49.37.8.48.31.12.65.17,1.02.17.58,0,1.12-.14,1.62-.42.5-.28.97-.67,1.41-1.15l-3.24-3.34ZM168.54,128.57c-.32-.32-.73-.48-1.23-.48-.55,0-1,.17-1.33.5-.33.34-.5.76-.5,1.26,0,.18.02.36.06.52.04.16.11.33.2.5.09.17.22.36.37.56s.35.42.58.67c.77-.26,1.36-.58,1.75-.95.39-.37.59-.83.59-1.37,0-.5-.16-.9-.48-1.22Z"/>
          <path class="cls-2" d="M190.8,135.62c-.31.74-.75,1.39-1.32,1.93-.57.54-1.25.97-2.04,1.28s-1.66.47-2.61.47h-4.21v-12.12h4.21c.95,0,1.82.15,2.61.46.79.31,1.47.73,2.04,1.27.57.54,1.01,1.18,1.32,1.92s.47,1.54.47,2.39-.16,1.65-.47,2.4ZM189.49,131.37c-.24-.59-.57-1.1-1-1.53s-.96-.77-1.58-1.02-1.32-.37-2.08-.37h-2.84v9.59h2.84c.76,0,1.45-.12,2.08-.36.62-.24,1.15-.58,1.58-1.01s.77-.94,1-1.51c.24-.58.35-1.21.35-1.89s-.12-1.3-.35-1.89Z"/>
          <path class="cls-2" d="M193.97,128.39v-1.47h1.52v1.47h-1.52ZM194.06,139.3v-8.95h1.33v8.95h-1.33Z"/>
          <path class="cls-2" d="M200.28,131.58c-.43.12-.86.28-1.27.48l-.4-1.09c.5-.23,1-.41,1.51-.55.51-.13,1.09-.2,1.75-.2,1.22,0,2.16.3,2.82.91s.99,1.5.99,2.69v5.47h-1.28v-1.35c-.31.4-.73.76-1.26,1.07-.52.31-1.19.47-1.98.47-.42,0-.82-.06-1.22-.17-.4-.12-.76-.29-1.07-.53-.32-.24-.57-.53-.76-.87-.19-.35-.29-.76-.29-1.23s.09-.89.28-1.25c.18-.36.45-.67.79-.91s.74-.43,1.21-.55c.47-.13.98-.19,1.55-.19s1.08.03,1.51.1.84.16,1.25.28v-.31c0-.81-.23-1.42-.7-1.83s-1.12-.61-1.96-.61c-.53,0-1.01.06-1.45.18ZM199.85,135.26c-.45.33-.67.79-.67,1.37,0,.29.06.54.18.76.12.22.28.41.49.56s.45.27.72.35c.27.08.55.12.85.12.41,0,.8-.06,1.16-.18.36-.12.68-.29.95-.5.27-.21.48-.47.64-.76s.23-.62.23-.98v-.87c-.33-.09-.72-.18-1.15-.26-.43-.08-.92-.12-1.48-.12-.84,0-1.48.17-1.93.5Z"/>
          <path class="cls-2" d="M216.16,131.25c.2-.22.43-.41.68-.57.25-.16.54-.29.86-.38.32-.09.67-.14,1.06-.14,1.04,0,1.85.32,2.44.96.59.64.88,1.52.88,2.64v5.54h-1.33v-5.23c0-.87-.21-1.53-.61-2-.41-.47-.98-.7-1.71-.7-.33,0-.65.06-.95.18-.3.12-.56.3-.79.54-.23.24-.4.53-.54.87-.13.35-.2.74-.2,1.18v5.16h-1.32v-5.26c0-.84-.21-1.5-.61-1.96s-.97-.7-1.69-.7c-.36,0-.69.07-.99.21-.3.14-.56.34-.79.59-.23.25-.4.55-.53.89s-.19.72-.19,1.13v5.11h-1.33v-8.95h1.33v1.51c.15-.22.31-.43.49-.64s.38-.39.61-.55c.23-.16.49-.28.78-.37.29-.09.62-.14,1-.14.73,0,1.33.17,1.8.51.47.34.83.76,1.07,1.27.16-.24.34-.47.55-.69Z"/>
          <path class="cls-2" d="M233.4,136.62c-.24.57-.56,1.07-.98,1.5-.42.43-.91.76-1.49,1.01s-1.2.37-1.87.37-1.29-.12-1.85-.37-1.06-.58-1.47-1c-.42-.42-.74-.91-.97-1.48s-.35-1.17-.35-1.8.12-1.24.35-1.81c.23-.57.55-1.07.97-1.5.42-.43.91-.76,1.48-1.01.57-.25,1.2-.37,1.88-.37s1.29.12,1.86.37c.57.25,1.06.58,1.48,1,.42.42.74.92.97,1.48.23.57.35,1.17.35,1.8s-.12,1.24-.35,1.81ZM232.14,133.47c-.17-.43-.4-.8-.7-1.11-.3-.32-.65-.57-1.06-.75-.4-.18-.84-.28-1.32-.28s-.93.09-1.33.27c-.4.18-.75.43-1.03.74-.28.32-.5.69-.67,1.11-.16.42-.24.87-.24,1.36s.08.94.25,1.36c.17.43.4.79.69,1.11.29.31.64.56,1.05.74.4.18.84.28,1.32.28s.93-.09,1.33-.27.75-.42,1.04-.73c.29-.31.51-.68.68-1.1s.24-.87.24-1.36-.08-.94-.25-1.36Z"/>
          <path class="cls-2" d="M237.49,139.3h-1.33v-8.95h1.33v1.56c.3-.48.69-.9,1.18-1.24.48-.34,1.11-.51,1.89-.51.54,0,1.02.09,1.45.26.42.17.78.42,1.07.74s.52.7.68,1.13c.16.44.23.92.23,1.45v5.56h-1.33v-5.23c0-.83-.21-1.49-.64-1.97-.43-.48-1.04-.73-1.84-.73-.38,0-.74.07-1.06.2-.33.13-.61.32-.86.57s-.43.55-.56.89c-.13.35-.2.73-.2,1.14v5.12Z"/>
          <path class="cls-2" d="M254.01,139.3v-1.8c-.18.27-.39.52-.61.76-.23.24-.48.46-.75.64-.28.19-.59.33-.93.43-.34.1-.72.16-1.13.16-.54,0-1.07-.1-1.58-.31-.51-.21-.96-.51-1.37-.91-.4-.4-.73-.89-.97-1.46-.24-.58-.36-1.23-.36-1.97s.12-1.4.36-1.97c.24-.58.57-1.06.97-1.46.4-.4.86-.7,1.37-.92.51-.21,1.03-.32,1.58-.32.42,0,.8.05,1.14.16.35.1.66.24.94.42.28.17.53.37.75.61.23.23.42.47.6.73v-5.4h1.33v12.64h-1.33ZM253.79,133.4c-.18-.43-.42-.79-.73-1.09-.31-.3-.65-.53-1.04-.7s-.79-.25-1.2-.25c-.44,0-.85.08-1.23.23-.38.16-.71.38-1,.67s-.51.65-.68,1.09c-.17.43-.25.92-.25,1.46s.08,1,.25,1.43c.17.42.4.79.68,1.09.29.3.62.54,1,.7s.78.24,1.21.24.82-.08,1.2-.25.73-.4,1.04-.7c.31-.3.55-.66.73-1.09s.27-.9.27-1.42-.09-.99-.27-1.41Z"/>
          <path class="cls-2" d="M269.78,137.11c-.19.52-.45.96-.78,1.32-.33.35-.73.61-1.19.79-.46.17-.96.26-1.51.26-.91,0-1.67-.2-2.27-.61-.6-.4-1.09-.92-1.47-1.54l.99-.85c.37.57.76,1,1.19,1.29s.95.44,1.58.44c.68,0,1.25-.24,1.7-.74s.68-1.21.68-2.17v-8.12h1.37v8.1c0,.69-.09,1.3-.28,1.83Z"/>
          <path class="cls-2" d="M274.25,136.6c.18.38.42.69.71.95.29.26.61.46.97.59s.73.2,1.13.2c.62,0,1.16-.12,1.6-.35.44-.23.85-.54,1.22-.92l.83.74c-.45.51-.96.92-1.54,1.22-.58.31-1.29.46-2.15.46-.61,0-1.19-.11-1.73-.34-.54-.23-1.02-.54-1.42-.95-.41-.41-.73-.9-.97-1.48-.24-.58-.36-1.21-.36-1.9,0-.65.11-1.26.32-1.83.21-.57.51-1.07.89-1.49.38-.42.83-.75,1.36-1,.52-.24,1.1-.36,1.72-.36.66,0,1.25.12,1.77.37s.96.59,1.32,1.01.63.93.81,1.51.28,1.19.28,1.85v.19c0,.07,0,.14-.02.23h-7.08c.05.48.16.92.35,1.29ZM279.63,134.33c-.03-.4-.12-.79-.25-1.16-.13-.37-.32-.69-.55-.97-.24-.28-.52-.5-.86-.67-.34-.17-.73-.25-1.18-.25-.39,0-.75.08-1.08.23s-.63.37-.88.64c-.25.27-.46.59-.62.96-.16.37-.26.77-.31,1.21h5.73Z"/>
          <path class="cls-2" d="M291.86,137.53l2.35-7.18h1.39l-3.15,9.02h-1.16l-2.41-7.06-2.42,7.06h-1.18l-3.13-9.02h1.42l2.35,7.18,2.41-7.22h1.11l2.42,7.22Z"/>
          <path class="cls-2" d="M298.54,136.6c.18.38.42.69.71.95.29.26.61.46.97.59s.73.2,1.13.2c.62,0,1.16-.12,1.6-.35.44-.23.85-.54,1.22-.92l.83.74c-.45.51-.96.92-1.54,1.22-.58.31-1.29.46-2.15.46-.61,0-1.19-.11-1.73-.34-.54-.23-1.02-.54-1.42-.95-.41-.41-.73-.9-.97-1.48-.24-.58-.36-1.21-.36-1.9,0-.65.11-1.26.32-1.83.21-.57.51-1.07.89-1.49.38-.42.83-.75,1.36-1,.52-.24,1.1-.36,1.72-.36.66,0,1.25.12,1.77.37s.96.59,1.32,1.01.63.93.81,1.51.28,1.19.28,1.85v.19c0,.07,0,.14-.02.23h-7.08c.05.48.16.92.35,1.29ZM303.92,134.33c-.03-.4-.12-.79-.25-1.16-.13-.37-.32-.69-.55-.97-.24-.28-.52-.5-.86-.67-.34-.17-.73-.25-1.18-.25-.39,0-.75.08-1.08.23s-.63.37-.88.64c-.25.27-.46.59-.62.96-.16.37-.26.77-.31,1.21h5.73Z"/>
          <path class="cls-2" d="M307.75,139.3v-12.64h1.33v12.64h-1.33Z"/>
          <path class="cls-2" d="M313.51,139.3h-1.33v-8.95h1.33v2.34c.16-.37.36-.71.61-1.02s.52-.58.83-.8.65-.4,1.02-.51c.37-.12.77-.17,1.19-.16v1.44h-.1c-.48,0-.94.09-1.38.26-.43.17-.81.43-1.13.78-.32.35-.58.78-.76,1.29s-.28,1.11-.28,1.77v3.57Z"/>
          <path class="cls-2" d="M323.55,139.59c-.38.92-.8,1.58-1.27,1.96s-1.04.57-1.71.57c-.37,0-.7-.04-1-.11-.3-.07-.6-.19-.9-.34l.45-1.06c.22.12.44.2.65.25.21.05.46.08.75.08.4,0,.74-.12,1.02-.36.28-.24.55-.68.81-1.32l-4.07-8.92h1.47l3.25,7.46,2.87-7.46h1.42l-3.76,9.24Z"/>
        </g>
        <g>
          <path class="cls-3" d="M337.61,14.7h-4.56l-19.55,43.22h4.98l5.09-11.34h23.35l5.03,11.34h5.21l-19.55-43.22ZM325.45,42.23l9.82-21.88,9.76,21.88h-19.58Z"/>
          <rect class="cls-3" x="302.41" y="15.01" width="4.84" height="42.91"/>
          <path class="cls-3" d="M257.45,36.57v-.12c0-3,.54-5.88,1.63-8.58,1.08-2.72,2.56-5.07,4.45-7.06,1.89-2,4.19-3.59,6.9-4.76,2.72-1.18,5.62-1.77,8.72-1.77,3.63,0,6.74.57,9.32,1.73,2.59,1.14,5.06,2.84,7.42,5.08l-3.3,3.57c-1.99-1.89-4.06-3.35-6.19-4.37-2.14-1.01-4.57-1.52-7.31-1.52-2.34,0-4.53.46-6.59,1.38-2.05.92-3.81,2.16-5.28,3.71-1.46,1.55-2.62,3.42-3.46,5.6-.85,2.17-1.28,4.48-1.28,6.91v.12c0,3.27.73,6.26,2.17,8.96,1.45,2.71,3.44,4.84,5.99,6.41,2.54,1.56,5.36,2.35,8.46,2.35,2.79,0,5.25-.51,7.38-1.52,2.13-1.02,4.29-2.57,6.48-4.67l3.21,3.14c-2.45,2.47-5.02,4.34-7.68,5.62-2.66,1.28-5.82,1.91-9.5,1.91-3.03,0-5.89-.57-8.57-1.72-2.69-1.15-4.97-2.72-6.86-4.69-1.89-1.97-3.37-4.32-4.45-7.03-1.09-2.72-1.63-5.6-1.63-8.65Z"/>
          <polygon class="cls-3" points="214.9 57.92 214.9 15.01 219.44 15.01 246.47 49.39 246.47 15.01 251.19 15.01 251.19 57.92 247.34 57.92 219.62 22.73 219.62 57.92 214.9 57.92"/>
          <polygon class="cls-3" points="177.39 57.92 177.39 15.01 208.35 15.01 208.35 19.48 182.23 19.48 182.23 34.01 205.59 34.01 205.59 38.49 182.23 38.49 182.23 53.57 208.65 53.57 208.65 57.92 177.39 57.92"/>
          <path class="cls-3" d="M157.94,40.38c3.53-.64,6.33-2.02,8.44-4.16,2.12-2.14,3.17-4.91,3.17-8.35v-.12c0-3.43-1.09-6.24-3.29-8.43-2.87-2.87-6.94-4.31-12.2-4.31h-18.41v42.91h4.84v-16.68h12.24l12.46,16.68h5.95l-13.19-17.54ZM140.49,36.89v-17.41h13.23c3.45,0,6.14.76,8.08,2.26,1.93,1.5,2.9,3.58,2.9,6.21v.11c0,2.72-1.02,4.86-3.07,6.45-2.04,1.58-4.71,2.38-7.98,2.38h-13.17Z"/>
          <path class="cls-3" d="M129.36,36.34c0-2.93-.53-5.74-1.6-8.43-1.06-2.69-2.53-5.04-4.41-7.05-1.87-2.01-4.19-3.62-6.94-4.81-2.75-1.19-5.71-1.78-8.89-1.78s-6.13.6-8.9,1.81c-2.76,1.21-5.09,2.83-6.97,4.85-1.89,2.02-3.36,4.38-4.44,7.07-1.07,2.7-1.61,5.51-1.61,8.44v.12c0,2.93.53,5.74,1.6,8.43,1.06,2.68,2.53,5.03,4.39,7.05,1.87,2.01,4.18,3.62,6.93,4.81,2.75,1.2,5.71,1.8,8.89,1.8,2.55,0,4.98-.39,7.29-1.16,2.3-.78,4.33-1.86,6.1-3.25,1.77-1.38,3.3-3,4.6-4.84,1.29-1.85,2.28-3.87,2.95-6.09.68-2.21,1.02-4.5,1.02-6.85.02-.02.03-.04.03-.06s-.01-.04-.03-.06ZM124.34,36.59c0,3.23-.72,6.18-2.14,8.86-1.43,2.67-3.43,4.79-6,6.38-2.57,1.57-5.47,2.36-8.69,2.36s-6.11-.8-8.71-2.39c-2.59-1.6-4.61-3.74-6.04-6.44-1.44-2.7-2.16-5.66-2.16-8.89v-.12c0-3.23.71-6.18,2.13-8.86,1.41-2.67,3.41-4.79,5.99-6.38,2.56-1.57,5.46-2.36,8.67-2.36s6.11.8,8.71,2.39c2.6,1.6,4.61,3.74,6.06,6.44,1.44,2.7,2.17,5.66,2.17,8.89v.12Z"/>
          <polygon class="cls-3" points="50.4 57.92 50.4 15.01 55.24 15.01 55.24 53.45 79.33 53.45 79.33 57.92 50.4 57.92"/>
          <polygon class="cls-3" points="13.37 57.92 13.37 15.01 44.14 15.01 44.14 19.48 18.21 19.48 18.21 34.81 41.45 34.81 41.45 39.16 18.21 39.16 18.21 57.92 13.37 57.92"/>
        </g>
        <g>
          <g>
            <path class="cls-1" d="M380.22,95.43l4.66-4.41c.57-.57.88-1.32,1.01-2.08.06-.44,0-.94-.13-1.38-.06-.38-.31-.76-.57-1.07-.31-.31-.76-.44-1.2-.5-.38-.06-.76,0-1.07.13-.88.25-1.45,1.07-1.82,1.82-.5,1.01-.76,2.2-.88,3.34-.19,1.26-.25,2.83,0,4.15h0ZM381.1,97.94c.06.06.06.13.13.13,1.13,1.45,2.77,1.95,4.59,1.95,1.82-.06,3.78-.69,5.35-1.57.38-.19.69-.38,1.01-.63l1.2-.82.63,1.32-.19.25c-.63.82-1.45,1.57-2.2,2.27-.82.69-1.76,1.45-2.71,2.01-.94.5-1.89.88-2.89,1.2-1.07.25-2.14.38-3.21.38-1.13,0-2.27-.13-3.34-.44-.88-.31-1.76-.76-2.45-1.38-.63-.57-1.13-1.13-1.57-1.82-.44-.63-.82-1.32-1.07-2.08-.82-2.27-.88-4.85-.31-7.17.5-2.27,1.57-4.53,3.34-6.23,1.13-1.07,2.52-2.01,4.03-2.64,1.51-.63,3.08-.88,4.66-.88s2.83.38,4.09,1.07,2.33,1.7,3.34,2.64l.44.38-12.84,12.08Z"/>
            <path class="cls-1" d="M363.1,87.5h-.06c-.82,0-1.76,1.01-2.2,1.57-1.2,1.38-2.2,3.21-2.96,4.78v5.79c.06.63.06,1.32-.25,1.95s-.88,1.13-1.51,1.51v.06h0c-.5.31-1.07.57-1.64.76-.63.25-1.26.38-1.95.44l-.69.06v-16.99h.06v-.13c0-.13-.06-.31-.13-.38-.13-.13-.25-.13-.38-.13h-.06c-.38,0-.76.13-1.26.38l-.63-2.01c1.32-1.01,2.64-2.01,4.09-2.89.25-.19.5-.31.82-.38.19-.13.5-.13.76-.13.5,0,.94.13,1.38.38.38.31.63.69.82,1.2h0c.31,1.07.44,2.2.5,3.27.06.76.06,1.45.06,2.2.31-.44.57-.82.88-1.26.31-.44.69-.88,1.07-1.32h0c.38-.44.76-.88,1.13-1.26.38-.44.82-.82,1.26-1.2.44-.38.88-.76,1.38-1.07.44-.25.94-.5,1.45-.69h0c.13-.06.25-.06.44-.13.06,0,.19-.06.38-.06h0c.25-.06.5-.06.82-.06.94,0,1.76.31,2.39,1.07.57.63.82,1.45,1.01,2.27.13.63.19,1.26.19,1.82v13.09c0,.5.19.63.69.44.69-.25,1.51-.82,2.08-1.32l.76,1.51c-1.45,1.57-3.46,3.71-5.85,3.71-1.01,0-1.95-.44-2.58-1.13-.69-.76-1.07-1.82-1.07-2.83v-10.7c0-.5-.13-1.07-.38-1.51-.19-.31-.44-.57-.76-.69h-.06Z"/>
            <path class="cls-1" d="M318.99,87.87c0,7.24,4.85,14.16,11.83,14.16s11.83-6.92,11.83-14.16-4.85-14.16-11.83-14.16-11.83,6.92-11.83,14.16h0ZM343.91,100.27c-3.52,3.59-8.56,4.78-13.53,4.78-4.47,0-9.25-1.2-12.71-4.03-3.34-2.71-4.91-6.42-5.16-10.57-.06-.5-.06-1.07-.06-1.64,0-4.78,1.45-9.5,4.97-13.03,3.15-3.15,7.43-4.85,12.02-5.1.44-.06.82-.06,1.26-.06,11.14,0,17.94,5.22,17.94,16.17,0,4.85-1.13,9.88-4.72,13.47h0Z"/>
            <path class="cls-1" d="M224.91,95.43l4.66-4.41c.57-.57.88-1.32,1.01-2.08.06-.44,0-.94-.13-1.38-.06-.38-.25-.76-.57-1.07s-.76-.44-1.2-.5c-.38-.06-.69,0-1.07.13-.82.25-1.38,1.07-1.76,1.82-.5,1.01-.82,2.2-.94,3.34-.19,1.26-.25,2.83,0,4.15h0ZM225.85,97.94c0,.06.06.13.06.13,1.13,1.45,2.83,1.95,4.59,1.95,1.82-.06,3.78-.69,5.35-1.51.38-.19.69-.44,1.01-.63l1.2-.88.63,1.32-.19.25c-.63.82-1.45,1.57-2.2,2.27-.82.69-1.76,1.45-2.71,2.01-.88.5-1.89.88-2.89,1.2-1.01.25-2.14.38-3.21.38-1.13,0-2.27-.13-3.27-.44-.94-.31-1.82-.76-2.52-1.38-.57-.57-1.13-1.13-1.57-1.82-.44-.63-.82-1.32-1.07-2.08-.82-2.27-.88-4.85-.31-7.17.5-2.27,1.64-4.53,3.34-6.23,1.2-1.07,2.52-2.01,4.03-2.64,1.51-.63,3.08-.88,4.66-.88s2.83.38,4.09,1.07c1.26.69,2.33,1.7,3.34,2.64l.44.38-12.77,12.08Z"/>
            <path class="cls-1" d="M257.51,92.78l-4.09,7.61-2.52,4.72-7.87-14.6v.06l-1.45-2.45v-.06l-2.14-3.08.38-.44c.82-.88,1.01-1.01,1.89-1.76.38-.31,1.26-1.01,1.76-1.01.63,0,1.13.38,1.51.76.5.57.94,1.26,1.32,1.95,1.01,1.7,1.89,3.46,2.83,5.22.82,1.57,1.57,3.08,2.45,4.59.31.57.63,1.13,1.01,1.64.13.13.19.25.31.38l3.15-6.04c-.19-.69-2.64-3.46-3.21-3.84-.25-.13-.44-.25-.63-.38l-.5-.38.44-.44c.82-.82,1.7-1.7,2.64-2.45.38-.31,1.2-1.01,1.76-1.01s1.07.38,1.45.76c.57.57,1.01,1.26,1.38,1.95.94,1.7,1.89,3.46,2.77,5.22.82,1.57,1.64,3.08,2.45,4.59.31.57.63,1.13,1.07,1.64.13.19.25.38.38.5.63-.88,1.13-1.95,1.51-2.96.31-.76,1.07-2.52,1.07-3.27,0-1.01-.5-2.01-1.07-2.83-.63-.94-1.57-1.89-2.58-2.45l-.31-.19v-.63l.25-.19c.57-.31,1.2-1.07,1.64-1.51.57-.57,1.2-1.2,1.82-1.7.19-.19.38-.31.57-.44.19-.13.44-.19.69-.19.19,0,.38.06.57.19.19.06.38.19.5.25.82.5,1.51,1.26,2.01,2.01.63.88,1.07,1.95,1.38,2.96l.06.19-10.19,19.45-.5-1.01-5.98-11.33Z"/>
            <path class="cls-1" d="M302.56,103.1c-.25.19-.57.38-.88.57-.25.13-.5.25-.82.38-.25.13-.57.25-.82.31-.31,0-.57.06-.88.06-.57,0-1.13-.06-1.64-.31s-.88-.63-1.13-1.07c-.31-.44-.44-.94-.57-1.45-.13-.57-.19-1.2-.19-1.76v-20.26c0-1.26.13-2.64.44-3.84.31-1.07.76-2.08,1.45-2.96.69-.88,1.64-1.45,2.77-1.76,1.07-.31,2.2-.38,3.34-.38h5.66l-.44.76c-.63,1.13-1.45,2.01-2.64,2.64-1.01.5-2.14.69-3.27.76h0c-.19.06-.38.06-.63.06-.13.06-.25.06-.38.06v.19l-.19,23.6c0,.13,0,.31.06.38.06.13.25.19.38.19.38.06.76-.06,1.13-.13.76-.25,2.08-.88,2.71-1.38l.13-.13.06.13c.44.38.88.76,1.38,1.07l.06.13-.38.44c-.57.5-1.2,1.01-1.76,1.51-.94.76-1.95,1.51-2.96,2.2h0Z"/>
            <path class="cls-1" d="M279.78,95.43l4.66-4.41c.57-.57.88-1.32,1.01-2.08,0-.44,0-.94-.13-1.38-.13-.38-.31-.76-.57-1.07-.31-.31-.76-.44-1.2-.5-.38-.06-.76,0-1.07.13-.88.25-1.45,1.07-1.82,1.82-.5,1.01-.76,2.2-.88,3.34-.19,1.26-.25,2.83,0,4.15h0ZM280.66,97.94c.06.06.06.13.13.13,1.07,1.45,2.77,1.95,4.59,1.95,1.82-.06,3.78-.69,5.35-1.51.38-.19.69-.44,1.01-.63l1.2-.88.63,1.32-.19.25c-.63.82-1.45,1.57-2.2,2.27-.82.69-1.76,1.45-2.77,2.01-.88.5-1.82.88-2.83,1.2-1.07.25-2.14.38-3.21.38-1.13,0-2.27-.13-3.34-.44-.88-.31-1.76-.76-2.45-1.38-.63-.57-1.13-1.13-1.64-1.82-.44-.63-.76-1.32-1.01-2.08-.82-2.27-.88-4.85-.38-7.17.57-2.27,1.64-4.53,3.4-6.23,1.13-1.07,2.52-2.01,4.03-2.64,1.45-.63,3.02-.88,4.66-.88,1.51,0,2.83.38,4.09,1.07,1.2.69,2.33,1.7,3.34,2.64l.38.38-12.77,12.08Z"/>
            <path class="cls-1" d="M214.52,97.88v-21.96c0-.88.25-1.7.94-2.33.63-.57,1.57-.88,2.39-1.2l1.2-.44v-.69l-.57-.25c-.31-.13-.63-.19-.94-.25-.38-.06-.76-.06-1.13-.06-.44-.06-.82,0-1.26,0-.38.06-.82.13-1.2.19h-.06c-.88.19-1.7.5-2.52.94-.76.38-1.38.94-1.95,1.57-.57.63-1.01,1.32-1.26,2.08-.31.82-.44,1.64-.44,2.45v22.15c0,1.26-.19,2.52-.69,3.71-1.51,2.96-5.54,4.41-9.5,4.41-8.87-.06-12.27-8.06-5.92-11.83l-.19-.63h-1.01c-1.13,0-2.08.38-2.89,1.07-.94.76-1.57,1.82-1.89,2.89-.19.57-.31,1.07-.38,1.64v2.39c.06.38.13.69.19,1.07.13.57.31,1.13.57,1.7.88,1.95,2.33,3.52,4.22,4.53,2.08,1.13,4.47,1.57,6.8,1.57h.06c2.39,0,4.78-.31,6.99-1.07,2.08-.63,3.96-1.64,5.6-3.02,1.51-1.26,2.77-2.83,3.59-4.66.88-1.82,1.26-3.84,1.26-5.85v-.13Z"/>
          </g>
          <path class="cls-1" d="M167.9,101.57v-8.45l-6.91-11.46h2.85l3.51,6.03c.66,1.1,1.26,2.25,1.86,3.35.55-1.04,1.21-2.19,1.97-3.51l3.45-5.87h2.74l-7.13,11.46v8.45h-2.36ZM148.49,99.27h4.44c.77,0,1.32-.05,1.65-.11.55-.11.99-.27,1.37-.55.33-.27.66-.6.88-1.1s.38-1.04.38-1.7c0-.77-.22-1.37-.55-1.92-.33-.55-.82-.93-1.43-1.21-.6-.22-1.48-.33-2.58-.33h-4.17v6.91ZM148.49,90.06h3.89c1.04,0,1.81-.11,2.25-.27.6-.16,1.04-.49,1.37-.99.27-.44.44-1.04.44-1.75,0-.66-.16-1.21-.44-1.7-.27-.55-.71-.88-1.21-1.04-.55-.22-1.43-.27-2.74-.27h-3.56v6.03ZM146.13,101.57v-19.91h6.69c1.37,0,2.47.22,3.29.6.82.38,1.48,1.04,1.92,1.86.49.82.71,1.7.71,2.63,0,.82-.22,1.65-.6,2.41-.44.71-1.04,1.37-1.86,1.81,1.04.33,1.92.93,2.47,1.81.6.82.88,1.86.88,3.02,0,.93-.16,1.81-.55,2.63-.33.77-.77,1.37-1.32,1.81-.49.44-1.15.77-1.92.99s-1.75.33-2.91.33h-6.8Z"/>
        </g>
      </g>
    </g>
  </g>
</svg>